<?xml version="1.0" encoding="UTF-8" standalone="no"?><!DOCTYPE svg PUBLIC "-//W3C//DTD SVG 1.1//EN" "http://www.w3.org/Graphics/SVG/1.1/DTD/svg11.dtd"><svg width="100%" height="100%" viewBox="0 0 1250 120" version="1.1" xmlns="http://www.w3.org/2000/svg" xmlns:xlink="http://www.w3.org/1999/xlink" xml:space="preserve" xmlns:serif="http://www.serif.com/" style="fill-rule:evenodd;clip-rule:evenodd;stroke-linejoin:round;stroke-miterlimit:2;"><path d="M47.381,94.375c-1.25,0.208 -1.875,0.312 -1.875,0.312c0.416,-0.416 1.666,-1.562 3.75,-3.437c2.083,-1.875 4.166,-4.167 6.25,-6.875c2.708,-3.75 5,-7.813 6.875,-12.188c-6.25,0.834 -12.709,2.084 -19.375,3.75c-4.375,1.042 -6.563,1.667 -6.563,1.875c-0.625,0.209 -1.354,-0.208 -2.187,-1.25c-0.209,-0.416 -0.417,-0.937 -0.625,-1.562c-0.209,-0.625 -0.417,-1.042 -0.625,-1.25l0,-0.625c0,-0.417 0.312,-0.521 0.937,-0.313c5.834,-0.833 14.584,-2.083 26.25,-3.75c1.459,-0.208 2.604,-0.312 3.438,-0.312c1.041,-2.917 1.979,-6.771 2.812,-11.563l0,-1.25c0.417,-4.791 0.417,-7.604 0,-8.437c-0.625,-1.875 -1.146,-2.917 -1.562,-3.125c-0.209,-0.625 -0.209,-0.938 0,-0.938c0.208,-0.208 0.416,-0.312 0.625,-0.312c0.416,-0.208 0.729,-0.313 0.937,-0.313c0.625,-0.416 1.875,0.209 3.75,1.875c1.459,1.25 2.292,2.5 2.5,3.75c0,2.292 -0.312,4.792 -0.937,7.5c-0.625,4.167 -1.563,8.125 -2.813,11.875c7.5,-1.041 14.792,-2.187 21.875,-3.437c0.625,-0.417 1.771,0 3.438,1.25c1.458,1.25 2.187,2.604 2.187,4.062c-0.208,1.667 -0.729,2.188 -1.562,1.563c-0.625,-0.417 -1.667,-0.833 -3.125,-1.25c-1.25,-0.208 -4.063,-0.313 -8.438,-0.313c-5,0.417 -10.208,0.938 -15.625,1.563c-3.125,7.5 -7.083,13.229 -11.875,17.187c-2.291,2.5 -5.104,4.48 -8.437,5.938Zm13.437,-65c0,-0.208 -0.208,-0.521 -0.625,-0.938c-0.416,-0.416 -0.729,-0.729 -0.937,-0.937c-0.834,-0.417 -1.042,-0.729 -0.625,-0.938c0.208,-0.416 0.937,-1.041 2.187,-1.875l0.625,0c1.042,-0.416 2.5,-0.104 4.375,0.938c1.875,1.042 3.125,1.875 3.75,2.5c0.417,1.25 0.417,3.333 0,6.25c2.292,-0.417 4.375,-0.625 6.25,-0.625c5.834,-0.625 9.063,-1.25 9.688,-1.875c0.625,-0.417 1.562,0 2.812,1.25c1.25,1.25 2.396,2.917 3.438,5c1.041,1.875 1.354,3.75 0.937,5.625c-0.625,1.667 -1.458,2.187 -2.5,1.562c-1.041,-0.625 -2.187,-1.562 -3.437,-2.812c-1.459,-1.25 -2.813,-1.875 -4.063,-1.875c-1.458,0 -2.812,0.208 -4.062,0.625c-1.042,0.208 -1.146,0 -0.313,-0.625c0.417,-0.208 1.042,-0.729 1.875,-1.563c0.625,-0.416 1.146,-0.833 1.563,-1.25c1.25,-1.25 1.771,-1.979 1.562,-2.187c0,-0.208 -3.125,0 -9.375,0.625c-0.416,0 -1.146,0.104 -2.187,0.312c-0.834,0 -1.563,0.105 -2.188,0.313c-0.208,1.875 -0.625,3.021 -1.25,3.437c-0.833,0 -1.875,-0.416 -3.125,-1.25c0,-0.208 -0.104,-0.52 -0.312,-0.937c-0.209,-0.208 -0.417,-0.417 -0.625,-0.625c-2.292,0.208 -4.375,0.521 -6.25,0.937c-3.334,0.625 -5.521,1.25 -6.563,1.875c-0.833,0.417 -1.562,0 -2.187,-1.25c-0.209,-1.458 -0.209,-2.187 0,-2.187c5,-0.833 9.687,-1.354 14.062,-1.563c-0.416,-1.041 -0.625,-1.979 -0.625,-2.812c-0.625,-1.458 -1.25,-2.5 -1.875,-3.125Zm21.25,63.437c-0.416,0.625 -0.833,0.938 -1.25,0.938c-0.833,0 -1.562,-0.833 -2.187,-2.5c-0.417,-1.042 -1.042,-2.292 -1.875,-3.75c-0.625,-1.667 -1.146,-2.917 -1.563,-3.75c0,-0.208 -0.104,-0.417 -0.312,-0.625c-1.25,-2.083 -2.292,-3.438 -3.125,-4.063c-0.834,-1.041 -0.938,-1.562 -0.313,-1.562c0.625,-0.208 1.771,-0.313 3.438,-0.313c1.666,0.209 3.437,1.771 5.312,4.688c1.875,2.5 2.917,4.583 3.125,6.25c0.417,1.042 0,2.604 -1.25,4.687Zm-42.187,-45.312c0.625,-0.833 1.354,-2.292 2.187,-4.375c0,-0.417 0.104,-0.938 0.313,-1.563c0.208,-0.833 0.312,-1.666 0.312,-2.5c0,-0.208 -0.104,-0.52 -0.312,-0.937c0,-0.417 -0.104,-0.729 -0.313,-0.938c-0.208,-0.208 -0.312,-0.312 -0.312,-0.312c0,-0.208 0.208,-0.417 0.625,-0.625c0.416,0 1.041,0.104 1.875,0.312c1.041,0.209 1.771,1.146 2.187,2.813c0.625,1.667 0.729,3.437 0.313,5.312c-0.834,2.917 -1.771,5.313 -2.813,7.188c-1.25,2.708 -2.291,3.437 -3.125,2.187c-1.041,-1.25 -1.562,-2.5 -1.562,-3.75c0,-1.25 0.208,-2.187 0.625,-2.812Zm11.875,15.625c-0.834,-0.833 -1.771,-1.667 -2.813,-2.5c-0.833,-0.625 -1.354,-1.042 -1.562,-1.25c-0.417,-0.208 -0.625,-0.417 -0.625,-0.625c0.208,-0.208 0.521,-0.417 0.937,-0.625c1.042,-0.417 1.979,-0.729 2.813,-0.938c0.833,-0.208 2.187,0.105 4.062,0.938c-0.208,0 0,0.104 0.625,0.312c1.875,1.042 2.917,2.5 3.125,4.375c0.209,1.667 0,2.813 -0.625,3.438c-0.625,0.625 -1.25,0.625 -1.875,0c-0.416,-0.417 -1.771,-1.458 -4.062,-3.125Zm4.375,-10.625c-0.209,-0.208 -0.417,-0.521 -0.625,-0.938c-1.042,-1.875 -1.875,-3.125 -2.5,-3.75c-0.417,-0.625 0,-1.041 1.25,-1.25l3.437,0c1.042,0.209 1.979,1.355 2.813,3.438c1.041,1.875 1.25,3.542 0.625,5c-0.625,1.25 -1.25,1.771 -1.875,1.562c-0.834,-0.208 -1.875,-1.562 -3.125,-4.062Z" style="fill-rule:nonzero;"/><path d="M118.943,57.187c0.625,-0.208 1.459,-0.416 2.5,-0.625c4.375,-1.25 6.875,-1.875 7.5,-1.875c0.625,-0.625 1.354,-0.833 2.188,-0.625c0.208,0 0.937,0.417 2.187,1.25c0.625,0.209 1.042,0.417 1.25,0.625c1.667,1.25 2.292,3.125 1.875,5.625c0,2.709 -0.312,6.042 -0.937,10c-0.209,2.709 -0.834,5.834 -1.875,9.375c-1.042,2.084 -2.188,4.063 -3.438,5.938c-0.833,1.042 -2.187,1.875 -4.062,2.5c-0.209,0 -0.521,0.104 -0.938,0.312l-0.937,0c-0.209,0 -0.521,-0.104 -0.938,-0.312c-0.625,-0.625 -0.729,-1.25 -0.312,-1.875c0.416,-1.25 0.312,-2.396 -0.313,-3.438c-0.208,-1.041 -0.521,-1.666 -0.937,-1.875c0,-0.416 0.625,-0.52 1.875,-0.312c1.666,0.208 2.812,0.312 3.437,0.312c0.625,-0.208 1.459,-1.354 2.5,-3.437c1.042,-2.292 1.667,-5.313 1.875,-9.063l0,-1.562c0.417,-2.708 0.521,-5 0.313,-6.875l0,-0.938c-0.209,-1.458 -0.521,-2.187 -0.938,-2.187c-0.208,-0.417 -0.729,-0.417 -1.562,0c-0.834,0 -2.604,0.312 -5.313,0.937c-2.708,0.625 -4.271,1.25 -4.687,1.875c-0.625,0.625 -1.042,1.563 -1.25,2.813c-0.417,1.042 -0.938,1.458 -1.563,1.25c-0.208,0 -0.625,-0.208 -1.25,-0.625c0,-0.208 -0.104,-0.417 -0.312,-0.625c-0.417,-0.833 -0.625,-1.563 -0.625,-2.188c0.416,-0.625 0.729,-1.562 0.937,-2.812c0.417,-1.667 0.729,-4.479 0.938,-8.438c0.208,-4.166 0.104,-6.666 -0.313,-7.5c-0.625,-0.625 -0.729,-1.145 -0.312,-1.562c0.208,-0.417 0.729,-0.625 1.562,-0.625c0.417,-0.417 1.146,0.208 2.188,1.875c0.833,1.25 1.25,2.292 1.25,3.125c-0.209,0.417 -0.313,1.146 -0.313,2.187c-0.208,0.834 -0.312,1.563 -0.312,2.188c0,2.292 -0.313,4.687 -0.938,7.187Zm31.25,-28.437c0.625,-0.208 1.459,0.208 2.5,1.25c0.209,0.208 0.313,0.312 0.313,0.312c1.25,1.459 1.666,2.709 1.25,3.75l0,0.938c0.625,0 1.458,0.521 2.5,1.562c2.291,1.459 4.791,3.646 7.5,6.563c2.916,2.708 5.937,4.896 9.062,6.562c1.25,0.834 2.813,1.667 4.688,2.5c1.25,0.625 2.083,1.042 2.5,1.25c1.041,0.209 1.562,0.521 1.562,0.938c0,0 -0.312,0.104 -0.937,0.312l-4.375,0c-1.25,0.209 -2.5,0.625 -3.75,1.25c-1.25,0.625 -1.979,1.042 -2.188,1.25c-0.416,0 -0.937,-0.104 -1.562,-0.312c-0.417,-0.208 -1.875,-1.667 -4.375,-4.375c-2.709,-3.125 -4.896,-6.042 -6.563,-8.75c-2.083,-3.125 -3.75,-5 -5,-5.625l-0.312,-0.625c-0.209,0.625 -0.729,1.667 -1.563,3.125c-0.416,0.833 -0.729,1.458 -0.937,1.875c-2.292,4.375 -4.375,7.812 -6.25,10.312c-2.084,2.5 -4.063,4.167 -5.938,5c-0.833,0.417 -1.354,0.625 -1.562,0.625c-0.209,-0.208 0,-0.625 0.625,-1.25c1.25,-1.458 2.604,-3.229 4.062,-5.312c0.209,-0.417 0.521,-1.042 0.938,-1.875c0.833,-0.833 2.187,-3.229 4.062,-7.188c1.875,-3.958 2.917,-6.875 3.125,-8.75c0,-2.083 -0.208,-3.437 -0.625,-4.062c-0.625,-0.833 -0.729,-1.25 -0.312,-1.25l1.562,0Zm-3.75,51.25c1.875,-0.417 3.75,-0.729 5.625,-0.938c0,0 0.104,-0.208 0.313,-0.625c0,-0.833 0.208,-1.354 0.625,-1.562c0.416,-0.208 1.875,-2.188 4.375,-5.938c2.5,-3.333 3.75,-5.625 3.75,-6.875c0,-0.416 -0.104,-0.937 -0.313,-1.562l0,-0.938c-0.416,-0.833 -0.416,-1.25 0,-1.25c0.417,0 1.146,0.209 2.188,0.625c1.041,0 1.979,1.042 2.812,3.125c0.625,1.875 0.834,3.125 0.625,3.75c-0.416,0.834 -1.875,2.396 -4.375,4.688c-1.041,0.833 -2.396,1.979 -4.062,3.437c-1.042,0.834 -1.771,1.459 -2.188,1.875c-0.625,0.209 -1.041,0.521 -1.25,0.938c1.667,-0.625 3.125,-0.938 4.375,-0.938c3.75,-1.041 5.834,-1.666 6.25,-1.875c0.417,-0.625 1.354,0 2.813,1.875c1.666,1.667 2.187,3.125 1.562,4.375c-0.625,0.834 -1.25,1.146 -1.875,0.938c-0.625,-0.625 -1.979,-1.25 -4.062,-1.875c-2.292,-0.625 -5,-0.625 -8.125,0c-3.125,0.625 -6.146,1.25 -9.063,1.875c-2.916,0.625 -4.687,1.25 -5.312,1.875c-0.834,0.417 -1.563,0 -2.188,-1.25c-0.625,-1.458 -0.625,-2.188 0,-2.188c0.209,-0.208 1.354,-0.416 3.438,-0.625c1.666,-0.416 3.021,-0.729 4.062,-0.937Zm-16.875,-49.688c0.834,-0.208 1.771,0.313 2.813,1.563c0.416,0.208 0.729,0.417 0.937,0.625c1.875,1.667 2.604,2.812 2.188,3.437c-0.417,0.625 -1.459,3.75 -3.125,9.375c-1.875,5.209 -3.229,8.021 -4.063,8.438c-1.041,0 -1.666,-0.313 -1.875,-0.938c-0.416,-1.041 -0.625,-1.979 -0.625,-2.812c-0.208,-1.042 0,-1.875 0.625,-2.5c0.625,-0.833 1.354,-3.125 2.188,-6.875c0.625,-3.75 0.729,-5.729 0.312,-5.938c-4.375,1.667 -6.979,2.813 -7.812,3.438c-0.834,0.833 -1.459,1.25 -1.875,1.25c-0.209,0 -0.521,-0.313 -0.938,-0.938c0.417,0.625 0.313,0.417 -0.312,-0.625c-0.625,-0.833 -1.042,-1.666 -1.25,-2.5c-0.209,-0.833 0,-1.25 0.625,-1.25c0.625,0 1.562,-0.104 2.812,-0.312c1.25,-0.625 3.125,-1.25 5.625,-1.875c2.292,-0.625 3.542,-1.146 3.75,-1.563Zm-24.062,41.25c-0.209,-0.416 -0.313,-0.729 -0.313,-0.937c0,-0.208 0.104,-0.313 0.313,-0.313l4.062,0c0.834,-0.208 2.396,-0.52 4.688,-0.937c0.833,-0.208 1.458,-0.417 1.875,-0.625c2.5,-1.042 4.479,-1.667 5.937,-1.875c1.25,-0.625 2.188,-0.938 2.813,-0.938c0.208,-0.416 0.937,-0.104 2.187,0.938c1.042,0.625 1.667,1.25 1.875,1.875c0,0.625 -0.312,1.042 -0.937,1.25c-0.625,0.208 -1.459,0.312 -2.5,0.312c-1.25,-0.208 -2.917,0 -5,0.625c-0.625,0.209 -1.563,0.521 -2.813,0.938c-1.875,0.625 -3.333,1.146 -4.375,1.562c-2.708,0.834 -4.375,1.459 -5,1.875c-0.416,0.417 -0.937,0 -1.562,-1.25c-0.625,-0.833 -1.042,-1.666 -1.25,-2.5Zm43.75,-18.437c1.25,-0.417 2.708,-0.938 4.375,-1.563c0.625,-0.416 1.25,-0.729 1.875,-0.937c0.625,-0.417 0.937,-0.625 0.937,-0.625c0.417,-0.417 1.25,-0.208 2.5,0.625c1.459,0.625 1.875,1.25 1.25,1.875c-0.208,0.625 -1.041,1.25 -2.5,1.875c-1.458,0.833 -3.333,1.771 -5.625,2.812c-0.416,0.209 -1.041,0.521 -1.875,0.938c-0.833,0.417 -1.458,0.625 -1.875,0.625c-0.416,0 -0.937,-0.417 -1.562,-1.25c-0.209,-0.625 -0.521,-1.458 -0.938,-2.5c-0.208,-1.042 -0.104,-1.458 0.313,-1.25c0.208,0 0.729,-0.104 1.562,-0.313c0.625,-0.208 1.146,-0.312 1.563,-0.312Zm-3.438,14.375c1.459,1.458 2.292,2.708 2.5,3.75c0.417,0.625 0.417,1.771 0,3.437l0,0.313c-0.625,1.667 -1.354,2.187 -2.187,1.562c-0.834,-1.041 -1.771,-2.604 -2.813,-4.687c-0.625,-2.292 -1.146,-3.75 -1.562,-4.375c0,-0.625 0.104,-1.25 0.312,-1.875c0,-1.042 0.313,-1.354 0.938,-0.938c0.416,0 1.354,0.938 2.812,2.813Zm6.875,1.25c-0.625,-1.042 -1.146,-2.5 -1.562,-4.375l0,-0.313c-0.209,-1.458 -0.521,-2.5 -0.938,-3.125c-0.208,-0.625 -0.104,-0.937 0.313,-0.937c0.208,-0.208 0.729,-0.208 1.562,0c-0.625,-0.208 -0.521,-0.104 0.313,0.312c1.041,0.417 1.979,1.563 2.812,3.438c1.25,1.667 1.667,3.021 1.25,4.062c-0.208,1.25 -0.729,2.188 -1.562,2.813c-1.042,0.208 -1.771,-0.417 -2.188,-1.875Z" style="fill-rule:nonzero;"/><path d="M232.381,73.437c1.25,0.625 1.458,1.355 0.625,2.188c-1.875,1.042 -4.063,1.875 -6.563,2.5c-0.208,2.917 -0.729,5.833 -1.562,8.75c0.833,-0.208 2.083,-0.417 3.75,-0.625c2.5,-0.417 4.271,-0.729 5.312,-0.938c0.209,-0.625 1.146,0 2.813,1.875c1.666,1.459 2.187,2.605 1.562,3.438c-0.625,1.25 -1.146,1.562 -1.562,0.937c-0.209,-0.208 -0.729,-0.52 -1.563,-0.937c-0.416,-0.208 -0.729,-0.417 -0.937,-0.625c-0.209,0 -0.417,-0.104 -0.625,-0.313c-1.25,-0.416 -3.229,-0.52 -5.938,-0.312c-4.375,0.417 -8.229,0.833 -11.562,1.25c-0.625,0.208 -1.563,0.417 -2.813,0.625c-2.291,0.625 -3.437,0.937 -3.437,0.937l-0.625,0c-0.209,0 -0.417,-0.104 -0.625,-0.312c0,-0.208 -0.104,-0.417 -0.313,-0.625c-0.208,-0.625 -0.416,-1.042 -0.625,-1.25c0,-0.833 0.209,-1.25 0.625,-1.25c1.459,-0.208 3.854,-0.417 7.188,-0.625c2.5,-0.208 4.479,-0.417 5.937,-0.625c-0.416,-1.25 -0.625,-2.188 -0.625,-2.813c0.209,-1.666 0.313,-3.333 0.313,-5c-1.459,0.209 -3.021,0.521 -4.688,0.938c-0.208,0 -0.416,-0.104 -0.625,-0.313c0,0 -0.104,-0.104 -0.312,-0.312c-0.209,-0.625 -0.521,-1.458 -0.938,-2.5c0,-1.042 0.209,-1.563 0.625,-1.563c0.625,-0.208 1.667,-0.416 3.125,-0.625c1.25,-0.208 2.188,-0.312 2.813,-0.312c0,-2.917 -0.417,-4.583 -1.25,-5c-0.625,-0.625 -0.729,-1.458 -0.313,-2.5c-2.291,0.833 -4.375,1.875 -6.25,3.125c-1.041,0.625 -1.875,0.208 -2.5,-1.25c-0.416,-0.625 -0.729,-1.563 -0.937,-2.813c-0.209,-0.208 -0.313,-0.416 -0.313,-0.625c0,-1.25 0.104,-1.77 0.313,-1.562c0.625,0 1.354,-0.104 2.187,-0.313c0.834,0 2.188,-1.041 4.063,-3.125c1.666,-1.875 2.5,-3.437 2.5,-4.687c-0.209,-0.208 -0.209,-0.313 0,-0.313l-2.188,0c-0.833,0.209 -1.562,0.313 -2.187,0.313c-0.209,0 -0.521,-0.417 -0.938,-1.25l0,-1.25c-0.208,-0.625 -0.312,-1.042 -0.312,-1.25c0,-1.042 0.312,-1.458 0.937,-1.25c0.834,0 3.438,-0.313 7.813,-0.938c4.375,-0.625 6.771,-1.145 7.187,-1.562c0.417,-0.417 1.25,-0.104 2.5,0.937c-0.208,-0.208 -0.104,-0.104 0.313,0.313c1.458,1.042 1.771,1.875 0.937,2.5c-0.416,0.417 -1.458,0.833 -3.125,1.25c-0.625,0.208 -1.146,0.312 -1.562,0.312c-2.709,0.625 -5.521,1.146 -8.438,1.563c0,0 0.209,0.104 0.625,0.312c1.459,0.417 2.292,0.834 2.5,1.25c0.834,0.834 1.146,1.459 0.938,1.875c0,0.209 -1.042,1.146 -3.125,2.813c-1.25,0.833 -2.188,1.562 -2.813,2.187c2.292,-0.416 4.792,-0.937 7.5,-1.562c1.042,-0.208 1.771,-0.313 2.188,-0.313c1.25,-0.416 2.083,-0.416 2.5,0c0,0 0.104,0.105 0.312,0.313c0.417,0.208 0.625,0.521 0.625,0.937c0.417,0.209 0,0.521 -1.25,0.938c-1.041,0.417 -2.604,0.937 -4.687,1.562c-1.25,0.417 -2.188,0.73 -2.813,0.938c1.875,0.208 3.125,0.729 3.75,1.562c0.417,0.625 0.625,2.084 0.625,4.375l0,0.938c0.625,-0.208 1.563,-0.521 2.813,-0.938c0.416,-0.208 0.729,-0.312 0.937,-0.312c0.417,-0.417 1.146,-0.104 2.188,0.937Zm-9.063,-30c-1.25,0 -2.083,-0.937 -2.5,-2.812c-1.041,0.208 -2.604,0.417 -4.687,0.625c-2.084,0.417 -3.646,0.729 -4.688,0.937c-1.458,0.209 -2.5,0.521 -3.125,0.938c-0.625,-0.208 -0.937,-0.625 -0.937,-1.25c0,-0.208 -0.104,-0.521 -0.313,-0.938c0,-0.416 -0.104,-0.729 -0.312,-0.937c-0.209,-0.833 -0.104,-1.25 0.312,-1.25c4.584,-0.625 5.104,-0.729 1.563,-0.313c3.541,-0.416 7.5,-0.833 11.875,-1.25c0.208,-1.666 0,-3.333 -0.625,-5c-0.625,-1.25 -1.25,-2.083 -1.875,-2.5c-0.625,-0.625 -0.625,-1.145 0,-1.562c0.625,-0.417 1.458,-0.729 2.5,-0.938c0.208,-0.208 0.312,-0.312 0.312,-0.312c1.042,0 2.292,0.729 3.75,2.187c2.084,1.875 3.125,3.23 3.125,4.063l0,3.437c1.667,-0.208 4.167,-0.52 7.5,-0.937c3.542,-0.417 6.146,-0.833 7.813,-1.25c2.708,-0.417 4.375,-0.938 5,-1.563c0.625,-0.625 1.875,-0.208 3.75,1.25c2.083,1.459 3.437,3.542 4.062,6.25c0,0.209 0.104,0.521 0.313,0.938l0,1.25c0,1.25 -0.313,1.979 -0.938,2.187c-1.041,0.417 -2.187,0 -3.437,-1.25c-1.459,-1.458 -2.917,-1.875 -4.375,-1.25c-0.417,0.209 -0.938,0.417 -1.563,0.625c-0.416,0.209 -0.937,0.417 -1.562,0.625c-0.834,0 -0.938,-0.208 -0.313,-0.625c0.417,-0.625 1.25,-1.562 2.5,-2.812c1.25,-1.458 1.771,-2.292 1.563,-2.5c-0.209,-0.417 -2.084,-0.417 -5.625,0c-5.417,0.833 -10.625,1.562 -15.625,2.187c-1.042,2.5 -2.188,3.75 -3.438,3.75Zm-24.687,-7.187l0,-0.313c-0.209,-0.208 -0.313,-0.312 -0.313,-0.312c0,-0.208 0.209,-0.313 0.625,-0.313c0.417,-0.416 0.938,-0.625 1.563,-0.625c0.625,0 1.458,0.73 2.5,2.188c1.041,1.25 1.562,2.917 1.562,5c0,1.875 -0.312,4.479 -0.937,7.812c-0.625,3.125 -1.25,4.896 -1.875,5.313c-0.625,0 -1.354,-0.521 -2.188,-1.563c0,-0.208 -0.104,-0.416 -0.312,-0.625c-0.417,-0.416 -0.729,-1.041 -0.938,-1.875c0,0 0.104,-0.208 0.313,-0.625c0.416,-0.833 0.625,-1.875 0.625,-3.125c0.416,-1.25 0.625,-2.812 0.625,-4.687c0,-1.875 -0.104,-3.229 -0.313,-4.063c-0.208,-0.833 -0.521,-1.562 -0.937,-2.187Zm32.812,25c-1.875,-2.5 -2.916,-3.854 -3.125,-4.063c-0.208,-0.416 0.104,-0.729 0.938,-0.937c1.041,-0.417 1.979,-0.521 2.812,-0.313c0.834,0 1.875,0.73 3.125,2.188c1.042,1.667 1.667,3.125 1.875,4.375c0,1.458 -0.312,2.5 -0.937,3.125c-0.625,0.833 -1.25,0.937 -1.875,0.312c-0.209,-0.625 -1.146,-2.187 -2.813,-4.687Z" style="fill-rule:nonzero;"/><path d="M327.068,85.625c-0.416,6.458 -0.937,10.312 -1.562,11.562c-0.209,0.209 -0.521,0.313 -0.938,0.313c-0.625,0 -1.041,-0.833 -1.25,-2.5c-0.208,-2.708 -0.312,-5.313 -0.312,-7.813l0,-4.687c-0.209,-5.833 -0.313,-11.042 -0.313,-15.625c0,-4.375 -0.104,-8.75 -0.312,-13.125c-0.625,0.208 -1.667,0.521 -3.125,0.937c-2.292,0.834 -3.959,1.459 -5,1.875c0,1.875 -0.313,4.792 -0.938,8.75c0.625,-2.708 0.521,-2.395 -0.312,0.938c-1.25,6.042 -3.021,10.729 -5.313,14.062c-2.083,3.75 -3.646,5.73 -4.687,5.938c-0.625,0.417 -0.834,-0.417 -0.625,-2.5c0.208,-1.875 0.937,-3.958 2.187,-6.25c1.875,-3.125 3.438,-7.5 4.688,-13.125c0.416,-1.875 0.729,-3.958 0.937,-6.25c-2.5,0.625 -4.791,1.458 -6.875,2.5c-0.625,0 -1.25,-0.625 -1.875,-1.875c-0.833,-1.458 -1.041,-2.292 -0.625,-2.5c1.459,-0.208 3.334,-0.625 5.625,-1.25c0.417,-0.208 1.042,-0.417 1.875,-0.625c0.834,-0.417 1.459,-0.625 1.875,-0.625c0,-2.708 -0.104,-4.583 -0.312,-5.625c-0.209,-2.083 -0.521,-3.438 -0.938,-4.063c-0.208,-0.208 -0.208,-0.312 0,-0.312c-0.208,0 -0.104,-0.104 0.313,-0.313c0.208,0 0.521,-0.104 0.937,-0.312l0.625,0c0.625,0 1.25,0.417 1.875,1.25c1.042,1.042 1.667,2.396 1.875,4.062l0,4.375c0.834,-0.208 1.979,-0.52 3.438,-0.937c1.875,-0.625 3.333,-1.146 4.375,-1.563l0,-1.562c0.208,-0.833 0.312,-1.458 0.312,-1.875c0,-0.417 -0.104,-1.042 -0.312,-1.875c0,-2.083 -0.209,-3.438 -0.625,-4.063c-0.209,-1.25 -0.521,-1.979 -0.938,-2.187c-0.416,-0.417 -0.312,-0.729 0.313,-0.938c0.208,0 0.312,-0.104 0.312,-0.312c0.417,-0.208 0.834,-0.313 1.25,-0.313c0.209,0 0.938,0.417 2.188,1.25c1.25,0.625 1.875,1.25 1.875,1.875l0,8.75c3.541,-1.041 7.083,-2.187 10.625,-3.437c0.416,-0.417 1.354,0.312 2.812,2.187c1.25,1.25 1.875,2.396 1.875,3.438c0,0 -0.104,0.104 -0.312,0.312l0,0.313c-0.209,0.625 -0.521,0.937 -0.938,0.937c0,-0.208 -0.312,-0.312 -0.937,-0.312c-0.625,-0.208 -1.25,-0.417 -1.875,-0.625c-2.709,-0.208 -6.354,0.104 -10.938,0.937l0,32.813Zm-48.437,-33.75c1.875,-4.375 2.604,-6.979 2.187,-7.813c-0.208,-1.041 -0.208,-1.666 0,-1.875l0.625,0c0.417,-0.208 1.042,0.313 1.875,1.563c1.25,1.042 1.771,1.875 1.563,2.5c-1.459,4.167 -3.125,8.125 -5,11.875c0.208,0.417 0.416,1.042 0.625,1.875c0.625,2.292 1.25,5.312 1.875,9.062c1.875,-0.833 4.062,-1.562 6.562,-2.187c0.834,-0.208 1.459,-0.417 1.875,-0.625c-0.208,-1.875 -0.208,-3.125 0,-3.75c0.417,-0.625 1.042,-2.813 1.875,-6.563c-1.875,0.625 -3.75,1.459 -5.625,2.5c-0.625,0.209 -1.354,0.521 -2.187,0.938c-0.625,0.208 -0.938,0.312 -0.938,0.312c-0.416,0 -0.937,-0.625 -1.562,-1.875c-0.834,-1.458 -1.042,-2.187 -0.625,-2.187c0.208,-0.417 2.187,-1.042 5.937,-1.875c3.75,-1.25 6.042,-2.292 6.875,-3.125c0.625,-0.625 1.771,0.104 3.438,2.187c1.458,1.875 1.875,3.23 1.25,4.063c-1.459,2.292 -2.917,5.104 -4.375,8.437c0.416,0 0.937,0.209 1.562,0.625c1.25,1.25 1.771,2.188 1.563,2.813c0,0.625 -0.417,0.937 -1.25,0.937c-0.625,0 -1.979,0.105 -4.063,0.313c-2.916,0 -6.041,0.729 -9.375,2.187c0,0.417 0.104,1.042 0.313,1.875c0.208,1.25 0.416,2.084 0.625,2.5c0.833,2.292 0.833,4.167 0,5.625c-1.042,0.834 -1.979,0.521 -2.813,-0.937c-1.041,-1.667 -1.562,-2.917 -1.562,-3.75c0,-0.833 -0.313,-3.125 -0.938,-6.875c-0.625,-2.5 -1.25,-5 -1.875,-7.5c-1.25,1.875 -2.5,3.75 -3.75,5.625c-3.541,4.583 -5.625,7.187 -6.25,7.812l-0.937,0c0,-0.416 0.104,-0.625 0.312,-0.625c0.209,-0.416 0.834,-1.666 1.875,-3.75c1.25,-2.291 2.292,-4.166 3.125,-5.625c1.667,-2.916 3.125,-5.52 4.375,-7.812c-0.833,-2.5 -1.458,-3.854 -1.875,-4.063c-0.416,-0.416 -0.312,-0.729 0.313,-0.937c0.208,0 0.521,-0.104 0.937,-0.313l0.313,0c0.625,-0.208 1.354,0 2.187,0.625c0.209,-0.208 0.417,-0.729 0.625,-1.562c0.209,-0.208 0.313,-0.417 0.313,-0.625Zm40.312,-21.563c1.875,-0.416 3.854,-1.041 5.938,-1.875c0.416,-0.208 0.729,-0.312 0.937,-0.312l0.313,0c0.416,0 1.146,0.417 2.187,1.25c1.25,1.25 1.667,2.187 1.25,2.812c-0.416,0.417 -2.083,1.25 -5,2.5c-1.458,0.625 -3.958,1.563 -7.5,2.813c-1.041,0.208 -1.771,0.417 -2.187,0.625c-0.417,0.208 -1.042,0.417 -1.875,0.625c-2.709,1.042 -4.167,1.458 -4.375,1.25c-1.042,0 -1.875,-1.25 -2.5,-3.75c-0.625,-2.5 -0.625,-3.646 0,-3.438c0.625,0 1.979,-0.104 4.062,-0.312c2.084,-0.208 5,-0.938 8.75,-2.188Zm-29.687,0.938c2.083,-0.625 3.333,-1.146 3.75,-1.563c0.625,-0.416 1.562,0.209 2.812,1.875c1.667,1.667 1.979,2.813 0.938,3.438c-0.834,0.625 -2.917,1.458 -6.25,2.5c-0.834,0.208 -1.875,0.625 -3.125,1.25c-1.25,0.417 -2.292,0.729 -3.125,0.937c-0.625,0.209 -1.667,-0.937 -3.125,-3.437c-1.25,-2.5 -1.563,-3.75 -0.938,-3.75l3.438,0c0.208,0 0.521,-0.104 0.937,-0.313c1.042,0 2.604,-0.312 4.688,-0.937Z" style="fill-rule:nonzero;"/><path d="M363.943,95c-0.208,0.208 -0.625,0.417 -1.25,0.625c0.209,0 0.104,0.104 -0.312,0.312c-0.417,0 -0.209,-0.729 0.625,-2.187c2.708,-3.333 4.791,-6.042 6.25,-8.125c4.166,-6.875 6.979,-12.5 8.437,-16.875c-1.666,0.833 -3.854,1.771 -6.562,2.812c-1.667,0.834 -2.813,1.355 -3.438,1.563c-1.458,0.417 -2.5,0.833 -3.125,1.25c-0.416,0.625 -0.937,0.625 -1.562,0c-0.417,-0.625 -0.729,-1.458 -0.938,-2.5c0.209,0.208 0.209,0 0,-0.625l0,-1.25c0,-0.625 0.209,-0.938 0.625,-0.938c0.625,0.417 2.917,0 6.875,-1.25c3.125,-1.041 6.146,-1.979 9.063,-2.812c0.625,-3.125 0.625,-5.208 0,-6.25c-0.625,-1.25 -1.25,-1.875 -1.875,-1.875c-0.209,-0.417 0,-0.729 0.625,-0.938c0.208,-0.208 0.625,-0.416 1.25,-0.625c0.208,-0.208 0.416,-0.312 0.625,-0.312c0.208,-0.208 0.937,-0.104 2.187,0.312c0.417,0.209 0.729,0.417 0.938,0.625c1.041,0.834 1.666,1.563 1.875,2.188c0.208,0.833 0.104,2.396 -0.313,4.687c0.417,-1.875 0.417,-1.666 0,0.625c4.375,-1.458 7.188,-2.916 8.438,-4.375c0.416,-1.041 1.875,-0.625 4.375,1.25c2.916,1.875 3.541,3.125 1.875,3.75c-1.875,0.834 -3.542,2.917 -5,6.25c-1.459,4.167 -1.459,7.5 0,10c1.458,2.917 4.166,4.584 8.125,5c5.416,0.417 8.229,0 8.437,-1.25c0,-0.208 0.209,-0.52 0.625,-0.937c0.417,-1.25 0.834,-2.292 1.25,-3.125c0.209,-0.833 0.417,-1.25 0.625,-1.25c0.209,0.208 0.313,0.833 0.313,1.875c0,2.292 0.625,4.062 1.875,5.312c0.208,0.209 0.416,0.417 0.625,0.625c0.833,0.625 1.146,1.25 0.937,1.875c0,1.25 -2.083,1.98 -6.25,2.188c-3.75,0.208 -7.708,0 -11.875,-0.625c-3.958,-0.833 -6.771,-3.229 -8.437,-7.188c-1.667,-5.208 -1.25,-11.666 1.25,-19.375c-0.625,0.209 -1.667,0.625 -3.125,1.25c-2.084,0.834 -3.646,1.459 -4.688,1.875c-1.875,6.459 -5.416,13.23 -10.625,20.313c-3.541,3.75 -6.458,6.458 -8.75,8.125Zm2.5,-50.313c-0.208,0 -0.416,-0.208 -0.625,-0.625c0,-0.208 -0.104,-0.312 -0.312,-0.312c-0.209,-0.417 -0.313,-0.833 -0.313,-1.25c-0.208,-0.833 0,-1.354 0.625,-1.563c4.167,-1.041 8.125,-1.979 11.875,-2.812c0,-2.917 -0.729,-5.104 -2.187,-6.563c-0.417,-0.208 -0.834,-0.52 -1.25,-0.937c-0.209,-0.417 -0.625,-0.729 -1.25,-0.938c-0.417,-0.625 -0.209,-1.145 0.625,-1.562c0.833,-0.417 1.875,-0.833 3.125,-1.25c1.458,-0.417 2.812,0.104 4.062,1.562c1.25,1.25 1.979,2.396 2.188,3.438c0.625,1.667 0.729,3.333 0.312,5c6.875,-1.667 13.75,-3.438 20.625,-5.313c0.834,-0.416 2.813,0.313 5.938,2.188c2.291,1.25 3.541,2.604 3.75,4.062c-0.209,2.5 -1.354,3.438 -3.438,2.813c-1.875,-0.208 -3.541,-0.313 -5,-0.313c-0.833,0.209 -2.291,0.938 -4.375,2.188c-0.416,0.208 -0.729,0.417 -0.937,0.625c-0.625,0.417 -1.042,0.521 -1.25,0.312c-0.417,0 -0.417,-0.312 0,-0.937c0.208,-0.208 0.521,-0.625 0.937,-1.25c0.834,-1.042 1.459,-1.979 1.875,-2.813c1.25,-1.875 1.667,-2.916 1.25,-3.125c-0.625,-0.208 -2.291,0 -5,0.625c-5,1.25 -9.896,2.5 -14.687,3.75c-0.417,1.459 -1.146,2.5 -2.188,3.125c-0.833,0.417 -1.458,0.313 -1.875,-0.312c-0.416,-0.417 -0.625,-0.938 -0.625,-1.563c-1.041,0.209 -2.604,0.625 -4.687,1.25c-2.292,0.625 -3.959,1.146 -5,1.563c-0.834,0.208 -1.563,0.521 -2.188,0.937Zm27.813,7.5c-0.625,-0.625 -1.979,-1.875 -4.063,-3.75c1.459,1.25 1.042,0.938 -1.25,-0.937c-2.291,-1.667 -3.75,-2.604 -4.375,-2.813c-0.416,-0.208 -0.625,-0.416 -0.625,-0.625c-0.208,-0.208 -0.104,-0.416 0.313,-0.625c0.625,-0.208 1.666,-0.312 3.125,-0.312c1.458,0 3.125,0.312 5,0.937c1.666,0.625 3.437,1.563 5.312,2.813c1.875,1.25 2.813,3.021 2.813,5.312c-0.209,2.084 -0.938,3.021 -2.188,2.813c-1.25,-0.625 -2.604,-1.563 -4.062,-2.813Zm-28.75,8.125c0.625,-1.25 2.083,-3.333 4.375,-6.25c2.5,-3.125 3.646,-5 3.437,-5.625c0,-0.208 -0.104,-0.52 -0.312,-0.937l0,-0.625c-0.209,-0.417 -0.313,-0.625 -0.313,-0.625c0.209,-0.208 0.417,-0.313 0.625,-0.313l0.313,0c0.625,-0.208 1.25,-0.312 1.875,-0.312c0.625,0 1.458,1.042 2.5,3.125c0.833,1.667 0.937,2.812 0.312,3.437c-0.208,0.209 -2.187,1.771 -5.937,4.688c-3.542,2.708 -5.834,4.167 -6.875,4.375c-0.625,0.208 -0.938,0.208 -0.938,0c0,-0.208 0.313,-0.521 0.938,-0.938Zm-2.813,-10.312c-0.208,3.75 -0.937,6.042 -2.187,6.875c-1.459,0.417 -2.396,-0.208 -2.813,-1.875c-0.625,-1.875 -0.625,-3.333 0,-4.375c0.625,-1.042 0.834,-2.813 0.625,-5.313c0,-2.708 -0.208,-4.375 -0.625,-5c-0.208,-0.208 -0.312,-0.416 -0.312,-0.625c0,-0.208 0.208,-0.312 0.625,-0.312c1.666,-0.417 3.021,0.312 4.062,2.187c0.834,1.459 1.042,4.271 0.625,8.438Z" style="fill-rule:nonzero;"/><path d="M495.818,39.375c1.667,1.458 2.5,2.812 2.5,4.062l0,0.625c-0.416,1.25 -1.041,1.875 -1.875,1.875c-0.625,-0.416 -2.291,-0.937 -5,-1.562c-3.125,-0.625 -8.229,-0.833 -15.312,-0.625l-3.125,0c-1.25,0.208 -2.292,0.312 -3.125,0.312l0,0.313c-1.25,1.25 -2.292,1.25 -3.125,0c-4.167,0.625 -8.438,1.354 -12.813,2.187c-7.708,1.667 -12.5,2.813 -14.375,3.438c-0.625,0.208 -1.354,0.521 -2.187,0.937c-0.625,0.209 -1.042,0.313 -1.25,0.313c-0.209,0.208 -0.834,-0.625 -1.875,-2.5c0,-0.417 -0.104,-0.938 -0.313,-1.563c-0.208,-0.416 -0.312,-0.625 -0.312,-0.625c0,-0.625 0.208,-0.937 0.625,-0.937c0.833,0 6.25,-0.729 16.25,-2.188c5,-0.625 9.791,-1.25 14.375,-1.875c-0.209,-0.625 -0.521,-1.25 -0.938,-1.875c-0.833,-1.875 -1.875,-3.541 -3.125,-5c-1.25,-1.25 -2.396,-2.395 -3.437,-3.437c-1.042,-1.25 -1.146,-1.875 -0.313,-1.875c0.417,-0.208 1.25,-0.313 2.5,-0.313l1.25,0c1.875,0 3.229,0.313 4.063,0.938c0.416,0.208 1.25,0.833 2.5,1.875c0.833,1.042 1.562,1.771 2.187,2.187c1.875,2.5 2.709,4.48 2.5,5.938l0,0.625c0.834,-0.208 1.875,-0.417 3.125,-0.625c1.459,-0.208 2.5,-0.313 3.125,-0.313c8.75,-1.25 13.229,-2.083 13.438,-2.5c0.416,-0.625 1.771,0.105 4.062,2.188Zm-22.812,19.062c-1.667,0 -2.813,-0.104 -3.438,-0.312c-0.416,-0.208 -0.833,-0.938 -1.25,-2.188c-0.208,-1.25 0,-1.875 0.625,-1.875l0.313,0c1.041,0.209 1.979,0.313 2.812,0.313c1.667,0.208 2.813,0 3.438,-0.625c0.833,-0.417 2.187,0.312 4.062,2.187c2.084,1.667 2.813,2.813 2.188,3.438c-0.625,0.625 -1.667,3.542 -3.125,8.75c-1.459,5.208 -3.334,9.896 -5.625,14.062c-2.5,4.167 -4.375,6.459 -5.625,6.875c-1.042,0.625 -1.875,0.938 -2.5,0.938l-0.625,0c-0.834,-0.417 -1.25,-1.146 -1.25,-2.188c0.208,-1.875 0,-3.437 -0.625,-4.687c-0.209,-1.042 -0.938,-2.188 -2.188,-3.438c-0.833,-1.25 -0.937,-1.77 -0.312,-1.562c1.041,0.208 2.291,0.521 3.75,0.937c0.416,0 0.937,0.105 1.562,0.313c0.417,0.208 0.938,0.312 1.563,0.312c0.625,-0.208 1.458,-1.041 2.5,-2.5c1.25,-1.666 2.5,-5.104 3.75,-10.312c1.25,-5.417 1.25,-8.229 0,-8.438Zm-5.313,-7.187c0,1.042 -1.354,3.75 -4.062,8.125c-1.667,2.917 -4.375,6.771 -8.125,11.562c-0.209,0.417 -0.417,0.73 -0.625,0.938c-3.125,3.75 -5.625,6.354 -7.5,7.812c-1.875,1.459 -3.334,2.396 -4.375,2.813c-0.625,0.208 -0.417,-0.417 0.625,-1.875c0.833,-0.833 2.916,-3.333 6.25,-7.5c-2.917,3.75 -2.709,3.437 0.625,-0.938c1.041,-1.458 2.396,-3.541 4.062,-6.25c1.875,-2.708 3.125,-4.583 3.75,-5.625c0.417,-1.041 1.042,-2.291 1.875,-3.75c1.25,-2.083 1.875,-3.333 1.875,-3.75c0.625,-1.666 0.834,-2.812 0.625,-3.437c0,-0.208 -0.104,-0.521 -0.312,-0.938c0,-0.625 -0.104,-1.041 -0.313,-1.25c-0.416,-0.416 -0.312,-0.625 0.313,-0.625c0.416,-0.208 0.937,-0.312 1.562,-0.312c0.625,0 1.354,0.625 2.188,1.875c0.833,1.25 1.354,2.292 1.562,3.125Z" style="fill-rule:nonzero;"/><path d="M521.443,50c0.625,10.208 1.667,18.021 3.125,23.437c1.25,5.834 1.459,9.271 0.625,10.313c-0.833,0.625 -2.083,0.104 -3.75,-1.563c-1.666,-1.875 -2.5,-3.437 -2.5,-4.687c0.417,-1.042 -0.208,-5.833 -1.875,-14.375c-1.25,-8.75 -1.875,-13.542 -1.875,-14.375c0,-1.042 0.521,-1.667 1.563,-1.875c1.25,0 2.604,0.417 4.062,1.25c4.167,-4.375 6.979,-7.5 8.438,-9.375c1.25,-2.083 1.666,-3.854 1.25,-5.313c-0.209,-1.25 -0.521,-2.187 -0.938,-2.812c-0.416,-0.417 -0.312,-0.729 0.313,-0.938l0.937,0c0.834,-0.208 1.563,-0.312 2.188,-0.312c1.25,0 2.5,1.25 3.75,3.75c1.25,2.292 1.666,4.062 1.25,5.312c-0.209,1.25 -2.292,3.125 -6.25,5.625c22.291,-3.333 33.854,-5.312 34.687,-5.937c0.834,-0.625 2.5,0.104 5,2.187c2.5,1.667 3.854,3.75 4.063,6.25l0,2.188c0,2.5 -0.104,7.083 -0.313,13.75c-0.625,8.542 -2.291,15 -5,19.375c-2.708,4.167 -4.896,6.25 -6.562,6.25l-0.313,0c-1.458,-0.625 -2.5,-2.292 -3.125,-5c-0.416,-3.542 -1.25,-6.042 -2.5,-7.5c-1.666,-2.083 -1.875,-3.125 -0.625,-3.125c1.25,0 2.917,0.312 5,0.937c2.084,0.625 3.334,0.417 3.75,-0.625c0.625,-1.25 1.25,-4.27 1.875,-9.062c0.834,-5 0.938,-9.583 0.313,-13.75c-0.417,-4.375 -0.938,-6.667 -1.563,-6.875c-0.416,-0.625 -2.083,-0.521 -5,0.312c-1.25,0.209 -4.583,0.73 -10,1.563c-2.708,0.417 -4.896,0.729 -6.562,0.937c-8.334,1.042 -13.021,1.771 -14.063,2.188c-0.625,0.417 -1.562,-0.104 -2.812,-1.563c-1.042,0.834 -2.709,1.771 -5,2.813c-0.625,0.208 -1.146,0.417 -1.563,0.625Zm13.438,5.625c10,-2.5 15.208,-4.271 15.625,-5.313c0.416,-1.25 1.771,-1.041 4.062,0.625c2.292,1.875 3.125,3.125 2.5,3.75c-0.208,0.625 -1.771,3.334 -4.687,8.125c1.25,-0.625 2.396,-0.104 3.437,1.563c0.834,1.458 0.625,2.187 -0.625,2.187c-0.416,0 -1.354,0.105 -2.812,0.313c-1.25,0.208 -2.188,0.312 -2.813,0.312c-2.916,0.209 -6.562,0.834 -10.937,1.875c1.041,2.5 1.354,4.063 0.937,4.688c-0.625,0.833 -1.666,0.833 -3.125,0c-1.25,-1.25 -1.979,-2.604 -2.187,-4.063c-0.209,-1.041 -0.938,-3.125 -2.188,-6.25c1.042,2.292 0.938,1.98 -0.312,-0.937c-1.25,-3.542 -2.188,-5.417 -2.813,-5.625c-0.625,-1.042 -0.625,-1.667 0,-1.875c0.209,-0.625 1.146,-0.938 2.813,-0.938c1.458,0 2.5,0.521 3.125,1.563Zm3.125,9.375c3.75,-0.625 6.875,-1.25 9.375,-1.875l0,-2.813c0,-0.833 0.521,-2.5 1.562,-5l-12.5,3.438c0.417,1.875 0.938,3.958 1.563,6.25Z" style="fill-rule:nonzero;"/><path d="M651.131,55.625c0.208,1.042 0.104,2.812 -0.313,5.312c-0.208,0.625 -0.312,1.146 -0.312,1.563c-0.625,3.125 -1.771,7.292 -3.438,12.5c-1.458,5.208 -3.958,9.062 -7.5,11.562c-2.916,1.667 -5,2.5 -6.25,2.5c-1.666,0 -2.5,-1.041 -2.5,-3.125c0,-2.291 -0.312,-3.854 -0.937,-4.687c-0.209,-0.208 -0.417,-0.417 -0.625,-0.625c-0.417,-0.833 -1.042,-1.667 -1.875,-2.5c-1.042,-0.833 -1.25,-1.25 -0.625,-1.25c0.833,0.208 2.604,0.521 5.312,0.937c2.709,0.625 4.584,0.625 5.625,0c1.042,-0.208 2.188,-1.354 3.438,-3.437c1.041,-1.667 1.875,-5.417 2.5,-11.25c0.625,-5.208 0.416,-7.917 -0.625,-8.125c-0.417,-0.417 -5.104,0.104 -14.063,1.562c-8.75,1.25 -13.437,2.084 -14.062,2.5c-0.625,0.209 -1.25,0.834 -1.875,1.875c-0.625,1.25 -1.563,1.042 -2.813,-0.625c-1.25,-1.666 -1.458,-2.916 -0.625,-3.75c0.834,-1.25 1.563,-3.229 2.188,-5.937c0.625,-2.5 1.041,-5.938 1.25,-10.313c0.416,-4.375 0.416,-7.187 0,-8.437c-0.209,-1.25 -0.521,-2.083 -0.938,-2.5c-0.416,-0.208 0,-0.625 1.25,-1.25c0.209,0 0.521,-0.104 0.938,-0.313l0.312,0c1.042,0 1.875,0.417 2.5,1.25c1.042,1.25 1.667,2.292 1.875,3.125c0.417,0.834 0.417,3.125 0,6.875c3.334,-0.416 7.084,-1.041 11.25,-1.875c1.459,-0.208 2.396,-0.312 2.813,-0.312c2.083,-0.625 3.333,-1.146 3.75,-1.563c0.625,-0.625 1.562,-0.52 2.812,0.313c1.042,0.625 1.771,1.354 2.188,2.187c0.625,1.042 -0.104,1.875 -2.188,2.5c-2.083,0.834 -5.625,1.667 -10.625,2.5c-5.208,0.834 -8.021,1.25 -8.437,1.25c-0.417,0 -0.938,-1.041 -1.563,-3.125c-0.208,1.459 -0.833,4.48 -1.875,9.063c0.625,-2.917 0.313,-1.458 -0.937,4.375c9.375,-1.042 16.25,-1.979 20.625,-2.813c3.958,-0.625 6.458,-1.145 7.5,-1.562c0.833,-0.208 2.187,0.312 4.062,1.562c1.667,1.25 2.604,2.605 2.813,4.063Zm-58.125,15.312l0,-0.937c-0.209,-0.625 0.104,-0.938 0.937,-0.938c0.417,0 2.084,-0.208 5,-0.625c1.875,-0.416 3.438,-0.729 4.688,-0.937c5.833,-0.833 11.666,-1.875 17.5,-3.125c6.25,-1.042 9.375,-1.667 9.375,-1.875c0.625,-0.417 1.979,0.104 4.062,1.562c2.292,1.25 2.917,2.396 1.875,3.438c-0.625,1.042 -1.25,1.458 -1.875,1.25c-0.625,-0.417 -1.562,-0.625 -2.812,-0.625c-1.459,-0.625 -6.146,-0.208 -14.063,1.25c-7.916,1.25 -13.437,2.292 -16.562,3.125c-1.25,0.417 -2.709,0.937 -4.375,1.562c-0.625,0.209 -1.042,0.313 -1.25,0.313c-0.625,0 -1.042,-0.208 -1.25,-0.625c0,-0.208 -0.104,-0.521 -0.313,-0.938c-0.416,-0.833 -0.729,-1.458 -0.937,-1.875Z" style="fill-rule:nonzero;"/><path d="M727.068,85.625c-0.416,6.458 -0.937,10.312 -1.562,11.562c-0.209,0.209 -0.521,0.313 -0.938,0.313c-0.625,0 -1.041,-0.833 -1.25,-2.5c-0.208,-2.708 -0.312,-5.313 -0.312,-7.813l0,-4.687c-0.209,-5.833 -0.313,-11.042 -0.313,-15.625c0,-4.375 -0.104,-8.75 -0.312,-13.125c-0.625,0.208 -1.667,0.521 -3.125,0.937c-2.292,0.834 -3.959,1.459 -5,1.875c0,1.875 -0.313,4.792 -0.938,8.75c0.625,-2.708 0.521,-2.395 -0.312,0.938c-1.25,6.042 -3.021,10.729 -5.313,14.062c-2.083,3.75 -3.646,5.73 -4.687,5.938c-0.625,0.417 -0.834,-0.417 -0.625,-2.5c0.208,-1.875 0.937,-3.958 2.187,-6.25c1.875,-3.125 3.438,-7.5 4.688,-13.125c0.416,-1.875 0.729,-3.958 0.937,-6.25c-2.5,0.625 -4.791,1.458 -6.875,2.5c-0.625,0 -1.25,-0.625 -1.875,-1.875c-0.833,-1.458 -1.041,-2.292 -0.625,-2.5c1.459,-0.208 3.334,-0.625 5.625,-1.25c0.417,-0.208 1.042,-0.417 1.875,-0.625c0.834,-0.417 1.459,-0.625 1.875,-0.625c0,-2.708 -0.104,-4.583 -0.312,-5.625c-0.209,-2.083 -0.521,-3.438 -0.938,-4.063c-0.208,-0.208 -0.208,-0.312 0,-0.312c-0.208,0 -0.104,-0.104 0.313,-0.313c0.208,0 0.521,-0.104 0.937,-0.312l0.625,0c0.625,0 1.25,0.417 1.875,1.25c1.042,1.042 1.667,2.396 1.875,4.062l0,4.375c0.834,-0.208 1.979,-0.52 3.438,-0.937c1.875,-0.625 3.333,-1.146 4.375,-1.563l0,-1.562c0.208,-0.833 0.312,-1.458 0.312,-1.875c0,-0.417 -0.104,-1.042 -0.312,-1.875c0,-2.083 -0.209,-3.438 -0.625,-4.063c-0.209,-1.25 -0.521,-1.979 -0.938,-2.187c-0.416,-0.417 -0.312,-0.729 0.313,-0.938c0.208,0 0.312,-0.104 0.312,-0.312c0.417,-0.208 0.834,-0.313 1.25,-0.313c0.209,0 0.938,0.417 2.188,1.25c1.25,0.625 1.875,1.25 1.875,1.875l0,8.75c3.541,-1.041 7.083,-2.187 10.625,-3.437c0.416,-0.417 1.354,0.312 2.812,2.187c1.25,1.25 1.875,2.396 1.875,3.438c0,0 -0.104,0.104 -0.312,0.312l0,0.313c-0.209,0.625 -0.521,0.937 -0.938,0.937c0,-0.208 -0.312,-0.312 -0.937,-0.312c-0.625,-0.208 -1.25,-0.417 -1.875,-0.625c-2.709,-0.208 -6.354,0.104 -10.938,0.937l0,32.813Zm-48.437,-33.75c1.875,-4.375 2.604,-6.979 2.187,-7.813c-0.208,-1.041 -0.208,-1.666 0,-1.875l0.625,0c0.417,-0.208 1.042,0.313 1.875,1.563c1.25,1.042 1.771,1.875 1.563,2.5c-1.459,4.167 -3.125,8.125 -5,11.875c0.208,0.417 0.416,1.042 0.625,1.875c0.625,2.292 1.25,5.312 1.875,9.062c1.875,-0.833 4.062,-1.562 6.562,-2.187c0.834,-0.208 1.459,-0.417 1.875,-0.625c-0.208,-1.875 -0.208,-3.125 0,-3.75c0.417,-0.625 1.042,-2.813 1.875,-6.563c-1.875,0.625 -3.75,1.459 -5.625,2.5c-0.625,0.209 -1.354,0.521 -2.187,0.938c-0.625,0.208 -0.938,0.312 -0.938,0.312c-0.416,0 -0.937,-0.625 -1.562,-1.875c-0.834,-1.458 -1.042,-2.187 -0.625,-2.187c0.208,-0.417 2.187,-1.042 5.937,-1.875c3.75,-1.25 6.042,-2.292 6.875,-3.125c0.625,-0.625 1.771,0.104 3.438,2.187c1.458,1.875 1.875,3.23 1.25,4.063c-1.459,2.292 -2.917,5.104 -4.375,8.437c0.416,0 0.937,0.209 1.562,0.625c1.25,1.25 1.771,2.188 1.563,2.813c0,0.625 -0.417,0.937 -1.25,0.937c-0.625,0 -1.979,0.105 -4.063,0.313c-2.916,0 -6.041,0.729 -9.375,2.187c0,0.417 0.104,1.042 0.313,1.875c0.208,1.25 0.416,2.084 0.625,2.5c0.833,2.292 0.833,4.167 0,5.625c-1.042,0.834 -1.979,0.521 -2.813,-0.937c-1.041,-1.667 -1.562,-2.917 -1.562,-3.75c0,-0.833 -0.313,-3.125 -0.938,-6.875c-0.625,-2.5 -1.25,-5 -1.875,-7.5c-1.25,1.875 -2.5,3.75 -3.75,5.625c-3.541,4.583 -5.625,7.187 -6.25,7.812l-0.937,0c0,-0.416 0.104,-0.625 0.312,-0.625c0.209,-0.416 0.834,-1.666 1.875,-3.75c1.25,-2.291 2.292,-4.166 3.125,-5.625c1.667,-2.916 3.125,-5.52 4.375,-7.812c-0.833,-2.5 -1.458,-3.854 -1.875,-4.063c-0.416,-0.416 -0.312,-0.729 0.313,-0.937c0.208,0 0.521,-0.104 0.937,-0.313l0.313,0c0.625,-0.208 1.354,0 2.187,0.625c0.209,-0.208 0.417,-0.729 0.625,-1.562c0.209,-0.208 0.313,-0.417 0.313,-0.625Zm40.312,-21.563c1.875,-0.416 3.854,-1.041 5.938,-1.875c0.416,-0.208 0.729,-0.312 0.937,-0.312l0.313,0c0.416,0 1.146,0.417 2.187,1.25c1.25,1.25 1.667,2.187 1.25,2.812c-0.416,0.417 -2.083,1.25 -5,2.5c-1.458,0.625 -3.958,1.563 -7.5,2.813c-1.041,0.208 -1.771,0.417 -2.187,0.625c-0.417,0.208 -1.042,0.417 -1.875,0.625c-2.709,1.042 -4.167,1.458 -4.375,1.25c-1.042,0 -1.875,-1.25 -2.5,-3.75c-0.625,-2.5 -0.625,-3.646 0,-3.438c0.625,0 1.979,-0.104 4.062,-0.312c2.084,-0.208 5,-0.938 8.75,-2.188Zm-29.687,0.938c2.083,-0.625 3.333,-1.146 3.75,-1.563c0.625,-0.416 1.562,0.209 2.812,1.875c1.667,1.667 1.979,2.813 0.938,3.438c-0.834,0.625 -2.917,1.458 -6.25,2.5c-0.834,0.208 -1.875,0.625 -3.125,1.25c-1.25,0.417 -2.292,0.729 -3.125,0.937c-0.625,0.209 -1.667,-0.937 -3.125,-3.437c-1.25,-2.5 -1.563,-3.75 -0.938,-3.75l3.438,0c0.208,0 0.521,-0.104 0.937,-0.313c1.042,0 2.604,-0.312 4.688,-0.937Z" style="fill-rule:nonzero;"/><path d="M763.943,95c-0.208,0.208 -0.625,0.417 -1.25,0.625c0.209,0 0.104,0.104 -0.312,0.312c-0.417,0 -0.209,-0.729 0.625,-2.187c2.708,-3.333 4.791,-6.042 6.25,-8.125c4.166,-6.875 6.979,-12.5 8.437,-16.875c-1.666,0.833 -3.854,1.771 -6.562,2.812c-1.667,0.834 -2.813,1.355 -3.438,1.563c-1.458,0.417 -2.5,0.833 -3.125,1.25c-0.416,0.625 -0.937,0.625 -1.562,0c-0.417,-0.625 -0.729,-1.458 -0.938,-2.5c0.209,0.208 0.209,0 0,-0.625l0,-1.25c0,-0.625 0.209,-0.938 0.625,-0.938c0.625,0.417 2.917,0 6.875,-1.25c3.125,-1.041 6.146,-1.979 9.063,-2.812c0.625,-3.125 0.625,-5.208 0,-6.25c-0.625,-1.25 -1.25,-1.875 -1.875,-1.875c-0.209,-0.417 0,-0.729 0.625,-0.938c0.208,-0.208 0.625,-0.416 1.25,-0.625c0.208,-0.208 0.416,-0.312 0.625,-0.312c0.208,-0.208 0.937,-0.104 2.187,0.312c0.417,0.209 0.729,0.417 0.938,0.625c1.041,0.834 1.666,1.563 1.875,2.188c0.208,0.833 0.104,2.396 -0.313,4.687c0.417,-1.875 0.417,-1.666 0,0.625c4.375,-1.458 7.188,-2.916 8.438,-4.375c0.416,-1.041 1.875,-0.625 4.375,1.25c2.916,1.875 3.541,3.125 1.875,3.75c-1.875,0.834 -3.542,2.917 -5,6.25c-1.459,4.167 -1.459,7.5 0,10c1.458,2.917 4.166,4.584 8.125,5c5.416,0.417 8.229,0 8.437,-1.25c0,-0.208 0.209,-0.52 0.625,-0.937c0.417,-1.25 0.834,-2.292 1.25,-3.125c0.209,-0.833 0.417,-1.25 0.625,-1.25c0.209,0.208 0.313,0.833 0.313,1.875c0,2.292 0.625,4.062 1.875,5.312c0.208,0.209 0.416,0.417 0.625,0.625c0.833,0.625 1.146,1.25 0.937,1.875c0,1.25 -2.083,1.98 -6.25,2.188c-3.75,0.208 -7.708,0 -11.875,-0.625c-3.958,-0.833 -6.771,-3.229 -8.437,-7.188c-1.667,-5.208 -1.25,-11.666 1.25,-19.375c-0.625,0.209 -1.667,0.625 -3.125,1.25c-2.084,0.834 -3.646,1.459 -4.688,1.875c-1.875,6.459 -5.416,13.23 -10.625,20.313c-3.541,3.75 -6.458,6.458 -8.75,8.125Zm2.5,-50.313c-0.208,0 -0.416,-0.208 -0.625,-0.625c0,-0.208 -0.104,-0.312 -0.312,-0.312c-0.209,-0.417 -0.313,-0.833 -0.313,-1.25c-0.208,-0.833 0,-1.354 0.625,-1.563c4.167,-1.041 8.125,-1.979 11.875,-2.812c0,-2.917 -0.729,-5.104 -2.187,-6.563c-0.417,-0.208 -0.834,-0.52 -1.25,-0.937c-0.209,-0.417 -0.625,-0.729 -1.25,-0.938c-0.417,-0.625 -0.209,-1.145 0.625,-1.562c0.833,-0.417 1.875,-0.833 3.125,-1.25c1.458,-0.417 2.812,0.104 4.062,1.562c1.25,1.25 1.979,2.396 2.188,3.438c0.625,1.667 0.729,3.333 0.312,5c6.875,-1.667 13.75,-3.438 20.625,-5.313c0.834,-0.416 2.813,0.313 5.938,2.188c2.291,1.25 3.541,2.604 3.75,4.062c-0.209,2.5 -1.354,3.438 -3.438,2.813c-1.875,-0.208 -3.541,-0.313 -5,-0.313c-0.833,0.209 -2.291,0.938 -4.375,2.188c-0.416,0.208 -0.729,0.417 -0.937,0.625c-0.625,0.417 -1.042,0.521 -1.25,0.312c-0.417,0 -0.417,-0.312 0,-0.937c0.208,-0.208 0.521,-0.625 0.937,-1.25c0.834,-1.042 1.459,-1.979 1.875,-2.813c1.25,-1.875 1.667,-2.916 1.25,-3.125c-0.625,-0.208 -2.291,0 -5,0.625c-5,1.25 -9.896,2.5 -14.687,3.75c-0.417,1.459 -1.146,2.5 -2.188,3.125c-0.833,0.417 -1.458,0.313 -1.875,-0.312c-0.416,-0.417 -0.625,-0.938 -0.625,-1.563c-1.041,0.209 -2.604,0.625 -4.687,1.25c-2.292,0.625 -3.959,1.146 -5,1.563c-0.834,0.208 -1.563,0.521 -2.188,0.937Zm27.813,7.5c-0.625,-0.625 -1.979,-1.875 -4.063,-3.75c1.459,1.25 1.042,0.938 -1.25,-0.937c-2.291,-1.667 -3.75,-2.604 -4.375,-2.813c-0.416,-0.208 -0.625,-0.416 -0.625,-0.625c-0.208,-0.208 -0.104,-0.416 0.313,-0.625c0.625,-0.208 1.666,-0.312 3.125,-0.312c1.458,0 3.125,0.312 5,0.937c1.666,0.625 3.437,1.563 5.312,2.813c1.875,1.25 2.813,3.021 2.813,5.312c-0.209,2.084 -0.938,3.021 -2.188,2.813c-1.25,-0.625 -2.604,-1.563 -4.062,-2.813Zm-28.75,8.125c0.625,-1.25 2.083,-3.333 4.375,-6.25c2.5,-3.125 3.646,-5 3.437,-5.625c0,-0.208 -0.104,-0.52 -0.312,-0.937l0,-0.625c-0.209,-0.417 -0.313,-0.625 -0.313,-0.625c0.209,-0.208 0.417,-0.313 0.625,-0.313l0.313,0c0.625,-0.208 1.25,-0.312 1.875,-0.312c0.625,0 1.458,1.042 2.5,3.125c0.833,1.667 0.937,2.812 0.312,3.437c-0.208,0.209 -2.187,1.771 -5.937,4.688c-3.542,2.708 -5.834,4.167 -6.875,4.375c-0.625,0.208 -0.938,0.208 -0.938,0c0,-0.208 0.313,-0.521 0.938,-0.938Zm-2.813,-10.312c-0.208,3.75 -0.937,6.042 -2.187,6.875c-1.459,0.417 -2.396,-0.208 -2.813,-1.875c-0.625,-1.875 -0.625,-3.333 0,-4.375c0.625,-1.042 0.834,-2.813 0.625,-5.313c0,-2.708 -0.208,-4.375 -0.625,-5c-0.208,-0.208 -0.312,-0.416 -0.312,-0.625c0,-0.208 0.208,-0.312 0.625,-0.312c1.666,-0.417 3.021,0.312 4.062,2.187c0.834,1.459 1.042,4.271 0.625,8.438Z" style="fill-rule:nonzero;"/><path d="M875.193,43.437c0,-1.666 -0.312,-2.604 -0.937,-2.812c-0.625,-0.208 -0.417,-0.625 0.625,-1.25c1.041,-0.625 1.875,-0.625 2.5,0c0.625,0.208 1.458,1.146 2.5,2.812c0.208,0 0.416,-0.104 0.625,-0.312c0.416,-0.208 0.937,-0.313 1.562,-0.313c0.625,0 1.042,0.313 1.25,0.938c0.209,0.625 0.313,1.146 0.313,1.562c0,0.625 -1.25,1.355 -3.75,2.188l0,6.562c0.416,-0.208 1.041,-0.312 1.875,-0.312c0.625,-0.417 1.146,-0.104 1.562,0.937c4.375,-12.083 5.834,-18.125 4.375,-18.125c-9.791,1.459 -15,2.396 -15.625,2.813c-0.625,0.208 -1.146,-0.104 -1.562,-0.938c-0.209,-0.208 -0.417,-0.625 -0.625,-1.25c-0.209,-0.208 -0.313,-0.416 -0.313,-0.625c0,-0.625 0.209,-0.937 0.625,-0.937l0.625,0c1.042,-0.208 1.875,-0.313 2.5,-0.313c0.417,0 1.25,-0.104 2.5,-0.312c2.5,-0.417 4.792,-0.833 6.875,-1.25c1.667,-0.208 3.542,-0.521 5.625,-0.938c1.042,-0.208 1.667,-0.312 1.875,-0.312c0.625,0 1.771,0.729 3.438,2.187c1.875,1.459 2.5,2.813 1.875,4.063c-0.625,1.042 -2.084,4.375 -4.375,10c-2.292,5.833 -4.063,9.271 -5.313,10.312c-1.458,1.042 -2.291,0.313 -2.5,-2.187c-0.208,0 -0.729,0.104 -1.562,0.312c-0.625,0.209 -1.146,0.313 -1.563,0.313l0,7.187c9.167,-1.875 13.854,-3.02 14.063,-3.437c0.416,-0.625 1.458,-0.313 3.125,0.937c1.458,1.25 2.187,2.292 2.187,3.125c-0.208,1.042 -0.729,1.563 -1.562,1.563c-0.625,-0.417 -1.771,-0.729 -3.438,-0.938c-1.875,0 -6.666,0.73 -14.375,2.188c0,8.542 0.209,13.646 0.625,15.312c0,1.459 -0.416,3.542 -1.25,6.25c-0.833,2.084 -1.875,3.125 -3.125,3.125c-1.458,-0.208 -2.083,-1.145 -1.875,-2.812c0,-1.458 -0.416,-2.917 -1.25,-4.375c-0.625,-1.875 -1.458,-3.125 -2.5,-3.75c-1.25,-0.625 -1.354,-0.833 -0.312,-0.625l2.812,0c1.25,0.208 2.084,0.208 2.5,0l0,-12.5c-3.541,0.625 -7.187,1.458 -10.937,2.5c-3.959,0.833 -6.459,1.458 -7.5,1.875c-0.834,0.417 -1.354,0.312 -1.563,-0.313c0,-0.416 -0.104,-0.833 -0.312,-1.25c-0.209,-0.625 -0.417,-1.041 -0.625,-1.25c-0.417,-1.041 -0.313,-1.562 0.312,-1.562c0.625,0 1.771,-0.104 3.438,-0.313c0.833,0 4.583,-0.625 11.25,-1.875c2.5,-0.625 4.479,-1.041 5.937,-1.25l0,-6.562c-1.875,0.417 -4.062,0.937 -6.562,1.562c-1.25,0.417 -2.188,0.73 -2.813,0.938c-0.833,0 -1.354,-0.208 -1.562,-0.625c-0.209,-0.625 -0.521,-1.25 -0.938,-1.875c-0.208,-0.625 -0.208,-0.938 0,-0.938c0.417,-0.208 1.042,-0.312 1.875,-0.312c1.042,-0.417 2.292,-0.729 3.75,-0.938c-0.208,-0.208 -0.521,-0.52 -0.937,-0.937c-0.209,-0.625 -0.417,-1.042 -0.625,-1.25c0,-0.625 -0.625,-2.813 -1.875,-6.563c1.25,3.542 1.041,3.125 -0.625,-1.25c-0.209,-0.416 -0.417,-1.041 -0.625,-1.875c-1.25,-3.333 -2.188,-5.312 -2.813,-5.937c-0.625,-0.833 -0.521,-1.354 0.313,-1.563c0.416,-0.416 1.146,-0.416 2.187,0c1.042,0 1.667,0.313 1.875,0.938c0.417,0.417 1.354,3.125 2.813,8.125l5.937,-1.563Zm-4.687,4.688c0.625,1.875 1.146,3.229 1.562,4.062c0.209,0.209 0.313,0.625 0.313,1.25c0.208,0.417 0.312,0.834 0.312,1.25l3.125,-0.625l0,-7.187l-5.312,1.25Zm-5.313,31.25c-0.416,3.333 -0.937,5.312 -1.562,5.937c-0.625,0 -1.354,-0.208 -2.188,-0.625c-0.833,-0.416 -1.354,-1.979 -1.562,-4.687c0,-2.708 0.312,-4.375 0.937,-5c0.209,-0.833 1.146,-1.458 2.813,-1.875c1.458,-0.625 2.187,-0.625 2.187,0l0,0.937c-0.208,1.875 -0.416,3.646 -0.625,5.313Zm24.688,-3.75c-1.459,-2.5 -2.396,-3.854 -2.813,-4.063c-0.416,-0.625 0.313,-0.937 2.188,-0.937c1.666,-0.417 2.916,-0.313 3.75,0.312c0.625,0.625 1.562,1.667 2.812,3.125c0.834,1.459 1.25,3.125 1.25,5c0,1.459 -0.416,2.5 -1.25,3.125c-0.833,0.417 -1.666,0 -2.5,-1.25c-0.416,-1.25 -1.562,-3.02 -3.437,-5.312Zm-41.25,-37.813c-0.834,-1.041 -1.667,-2.187 -2.5,-3.437c-0.417,-0.417 -0.625,-0.625 -0.625,-0.625c-0.209,-0.208 0.416,-0.625 1.875,-1.25c1.875,-0.625 3.646,-0.417 5.312,0.625c1.667,0.833 2.813,2.396 3.438,4.687c0.625,2.292 0.416,4.063 -0.625,5.313c-1.25,0.833 -2.292,0.833 -3.125,0c0,-0.208 -0.104,-0.417 -0.313,-0.625c-0.625,-0.833 -1.771,-2.396 -3.437,-4.688Zm-3.438,22.813c-4.583,2.083 -7.5,3.333 -8.75,3.75c-0.208,0 -0.416,0.104 -0.625,0.312c-0.416,0.209 -0.937,0.313 -1.562,0.313c-0.625,0.208 -1.146,-0.313 -1.563,-1.563c-0.625,-1.25 -1.041,-2.5 -1.25,-3.75c-0.208,-0.625 -0.312,-0.937 -0.312,-0.937c0,-0.625 0.208,-0.938 0.625,-0.938c0.625,0 2.083,-0.312 4.375,-0.937c2.5,-0.625 4.791,-1.354 6.875,-2.188c2.083,-1.041 3.437,-1.875 4.062,-2.5c0.625,-0.833 1.875,-0.312 3.75,1.563c1.875,1.667 2.292,2.812 1.25,3.437c-1.25,0.834 -1.979,2.5 -2.187,5c-0.209,2.709 -0.521,7.813 -0.938,15.313c2.5,-1.25 4.688,-2.5 6.563,-3.75c0.833,-0.833 1.354,-1.042 1.562,-0.625c0.209,0.208 -0.104,0.937 -0.937,2.187c-1.25,2.5 -2.709,5 -4.375,7.5c-1.459,2.084 -2.396,3.959 -2.813,5.625c-0.416,1.667 -1.771,1.146 -4.062,-1.562c-2.5,-3.125 -3.229,-5 -2.188,-5.625c1.042,-0.833 1.667,-1.979 1.875,-3.438c0.417,-1.458 0.625,-7.187 0.625,-17.187Z" style="fill-rule:nonzero;"/><path d="M935.193,28.437l0.313,0c0.416,0 1.146,0.417 2.187,1.25c1.667,1.042 2.292,2.188 1.875,3.438c-0.208,1.25 -0.208,4.792 0,10.625c0.209,5.833 -0.625,9.687 -2.5,11.562c3.334,-1.25 5.313,-1.875 5.938,-1.875c0.416,-0.208 0.937,-0.104 1.562,0.313c0,0 0.104,0.104 0.313,0.312c0.625,0.834 1.041,1.667 1.25,2.5c0.416,0.625 -0.521,1.042 -2.813,1.25c-2.291,0 -5.521,0.625 -9.687,1.875c-4.375,1.25 -8.75,2.813 -13.125,4.688c-4.375,2.083 -6.979,3.437 -7.813,4.062c-0.833,0.417 -1.562,0.105 -2.187,-0.937c-0.625,-1.25 -1.042,-2.188 -1.25,-2.813l0,-0.312c0,-0.417 0.312,-0.729 0.937,-0.938c0.417,0 4.063,-1.041 10.938,-3.125c5.833,-1.875 10.729,-3.437 14.687,-4.687c-0.625,-0.208 -0.937,-0.938 -0.937,-2.188c-0.209,-1.25 -0.104,-2.5 0.312,-3.75l0,-1.562c0.209,-2.292 0.209,-4.583 0,-6.875c0,-1.875 -0.104,-3.958 -0.312,-6.25l0,-0.938c-0.209,-0.625 -0.521,-0.833 -0.938,-0.625c0,0 -0.208,0.105 -0.625,0.313c-0.625,0 -1.146,0.104 -1.562,0.312c-0.417,0.209 -0.938,0.417 -1.563,0.625c-0.208,0 -0.416,0.105 -0.625,0.313c-0.416,0.208 -0.833,-0.104 -1.25,-0.938c0,-0.208 -0.104,-0.625 -0.312,-1.25c-0.209,-0.416 -0.417,-0.729 -0.625,-0.937c-0.209,-0.625 0.104,-0.938 0.937,-0.938c1.042,0 2.292,-0.312 3.75,-0.937c1.875,-0.625 2.917,-1.146 3.125,-1.563Zm-7.187,21.563c1.458,-0.417 2.5,-0.729 3.125,-0.938c0.416,0 1.041,0.417 1.875,1.25c0.833,0.625 1.041,1.146 0.625,1.563c-0.625,0.417 -1.979,0.937 -4.063,1.562c-2.291,0.625 -3.75,1.146 -4.375,1.563c-0.625,0.208 -1.146,0.208 -1.562,0c-0.209,-0.625 -0.521,-1.25 -0.938,-1.875c-0.208,-0.833 -0.208,-1.25 0,-1.25c0.209,-0.208 0.625,-0.313 1.25,-0.313c0.417,-0.208 0.834,-0.312 1.25,-0.312c-0.625,-1.25 -0.937,-3.646 -0.937,-7.188c0,-1.041 -0.104,-2.291 -0.313,-3.75c0,-1.25 -0.104,-2.5 -0.312,-3.75c-0.209,-1.25 -0.521,-2.187 -0.938,-2.812c-0.208,-0.417 -0.208,-0.729 0,-0.938c0.209,0 0.521,-0.104 0.938,-0.312l0.937,0c0.625,0 1.25,0.521 1.875,1.562c0.625,1.25 0.938,2.292 0.938,3.125l0,4.375c1.666,-0.416 2.604,-0.833 2.812,-1.25c0.209,-0.416 0.938,-0.312 2.188,0.313c1.041,0.417 1.458,0.937 1.25,1.562c-0.209,0 -0.521,0.209 -0.938,0.625c-0.625,0.417 -1.146,0.73 -1.562,0.938c-0.417,0 -0.938,0.208 -1.563,0.625c-0.833,0.208 -1.458,0.417 -1.875,0.625c0,1.875 0.104,3.542 0.313,5Zm8.437,15c0.209,-0.417 0.625,-0.625 1.25,-0.625l2.5,0c1.042,-0.208 2.188,0.625 3.438,2.5c1.458,1.25 1.979,2.604 1.562,4.062c-0.416,1.25 -0.937,1.98 -1.562,2.188c-0.625,0 -1.354,-0.729 -2.188,-2.188c0,0 -0.104,-0.104 -0.312,-0.312c-1.25,-1.667 -2.396,-2.813 -3.438,-3.438c-1.25,-1.25 -1.666,-1.979 -1.25,-2.187Zm-5.625,12.5c-0.416,-1.042 -0.521,-1.979 -0.312,-2.813c0.416,-1.25 0.625,-3.125 0.625,-5.625c0.208,-2.708 0,-4.375 -0.625,-5c-0.209,-0.208 -0.521,-0.52 -0.938,-0.937c-0.208,-0.208 -0.312,-0.313 -0.312,-0.313c-0.209,-0.625 0,-0.937 0.625,-0.937c0.833,-0.208 1.562,-0.313 2.187,-0.313c0.834,0 1.563,0.417 2.188,1.25c0.625,0.834 1.041,1.563 1.25,2.188l0,4.687c0,2.709 -0.834,5.73 -2.5,9.063c5.208,2.5 10.104,4.167 14.687,5c4.375,0.833 10.625,1.25 18.75,1.25l15.313,0c1.666,0.208 2.5,0.312 2.5,0.312c0,0.209 -0.313,0.313 -0.938,0.313c-1.25,0.208 -3.229,0.833 -5.937,1.875c-2.917,0.833 -4.688,1.667 -5.313,2.5c-0.416,0.625 -0.937,1.146 -1.562,1.562c-0.209,0.209 -0.313,0.313 -0.313,0.313l-0.625,0l-1.875,0c-2.708,-0.208 -5.208,-0.313 -7.5,-0.313c-3.958,-0.208 -8.021,-0.625 -12.187,-1.25l-0.313,0c-1.875,-0.625 -5.416,-2.083 -10.625,-4.375c-2.291,-1.25 -4.896,-2.812 -7.812,-4.687c-1.042,-0.625 -1.667,-1.042 -1.875,-1.25c-1.459,-0.833 -3.229,-1.563 -5.313,-2.188c-2.083,2.292 -4.271,4.063 -6.562,5.313c-0.625,0.417 -1.459,0.833 -2.5,1.25c-0.625,0.417 -1.25,0.729 -1.875,0.937c-0.625,0 -0.313,-0.52 0.937,-1.562c0.209,-0.208 0.417,-0.521 0.625,-0.938c0.417,-0.625 1.875,-2.5 4.375,-5.625c2.5,-3.333 3.75,-5.416 3.75,-6.25c0,-0.208 -0.104,-0.52 -0.312,-0.937c0,-0.417 -0.104,-0.729 -0.313,-0.938c-0.416,-0.416 -0.312,-0.625 0.313,-0.625c0.625,-0.208 1.25,-0.312 1.875,-0.312c0.833,-0.208 1.666,0.312 2.5,1.562c0.625,1.042 0.937,1.98 0.937,2.813c-0.208,0.417 -0.625,1.25 -1.25,2.5c0.625,-0.417 1.354,-0.313 2.188,0.312c0.625,0.625 1.979,1.355 4.062,2.188Zm29.063,-38.75c1.875,1.25 2.708,2.187 2.5,2.812c-0.209,0.417 -0.417,0.834 -0.625,1.25c-0.209,0.209 -0.313,0.417 -0.313,0.625c-0.416,0.417 -1.146,1.146 -2.187,2.188c2.291,0 3.75,-0.208 4.375,-0.625c0.416,-0.417 0.937,-0.729 1.562,-0.938c0.209,-0.625 1.25,-0.208 3.125,1.25c1.875,1.459 2.709,2.813 2.5,4.063l0,7.5c0.209,3.75 0,7.083 -0.625,10c-0.625,2.917 -1.562,5 -2.812,6.25c1.666,1.875 2.5,3.333 2.5,4.375c0,1.25 -0.521,2.5 -1.563,3.75c-0.833,1.25 -1.562,1.667 -2.187,1.25c0,0 -0.104,-0.104 -0.313,-0.313c-0.208,-0.416 -0.521,-1.354 -0.937,-2.812c-0.209,-1.458 -0.625,-3.125 -1.25,-5c-0.625,-1.667 -1.25,-2.813 -1.875,-3.438c-0.834,-1.041 -1.146,-1.562 -0.938,-1.562c0.417,-0.417 1.042,-0.417 1.875,0c0.625,0.208 1.563,0.937 2.813,2.187c-0.417,-1.458 -0.313,-2.5 0.312,-3.125c0.417,-0.833 0.625,-2.916 0.625,-6.25c0.209,-3.75 0.104,-6.979 -0.312,-9.687c-0.209,-2.917 -0.521,-4.583 -0.938,-5c-0.416,-0.417 -0.833,-0.521 -1.25,-0.313c-0.416,0.209 -1.25,0.521 -2.5,0.938c-1.458,0.208 -2.291,0.521 -2.5,0.937c-0.416,0.209 -0.937,-0.416 -1.562,-1.875c-0.625,0.417 -1.354,0.834 -2.188,1.25c-0.416,0.209 -0.625,0.313 -0.625,0.313c0.209,1.458 0.313,4.375 0.313,8.75l0,8.125c-0.417,1.25 -0.938,1.875 -1.563,1.875c-0.625,0.208 -1.041,-0.208 -1.25,-1.25c-0.208,-1.25 -0.208,-2.188 0,-2.813l0,-6.562c-0.208,-3.75 -0.521,-6.458 -0.937,-8.125c-0.209,-1.458 -0.521,-2.292 -0.938,-2.5c-0.208,-0.417 -0.208,-0.729 0,-0.938c0.209,-0.416 0.729,-0.416 1.563,0c0,-0.208 0.104,-0.208 0.312,0c1.042,0.625 1.771,1.355 2.188,2.188c2.5,-2.917 3.75,-4.792 3.75,-5.625c0,-1.25 -0.209,-2.083 -0.625,-2.5c-2.709,0.833 -4.584,1.458 -5.625,1.875c-0.625,0.625 -1.146,0.312 -1.563,-0.938c-0.208,-0.416 -0.416,-0.937 -0.625,-1.562c-0.416,-0.833 -0.729,-1.354 -0.937,-1.563c-0.209,-1.041 0,-1.562 0.625,-1.562c1.041,0 3.437,-0.417 7.187,-1.25c4.167,-0.625 6.354,-1.354 6.563,-2.188c0.208,-0.625 1.25,-0.312 3.125,0.938c1.875,1.667 2.604,2.917 2.187,3.75c0,0.833 -0.312,1.146 -0.937,0.937c-0.625,-0.416 -1.667,-0.416 -3.125,0c-1.25,0 -2.709,0.313 -4.375,0.938Zm-8.125,35.312c2.5,-2.708 4.271,-5.416 5.312,-8.125c1.042,-2.916 1.563,-5.625 1.563,-8.125c0.208,-2.5 0,-4.062 -0.625,-4.687c-0.209,-1.042 -0.521,-1.563 -0.938,-1.563c-0.208,-0.416 0,-0.625 0.625,-0.625c0.625,-0.416 1.354,-0.312 2.188,0.313c1.25,0.417 1.979,0.937 2.187,1.562c0.417,0.625 0.417,2.292 0,5c0,1.667 -0.521,4.167 -1.562,7.5c-0.209,0.625 -0.313,1.146 -0.313,1.563c-1.041,3.125 -2.708,5.729 -5,7.812c-2.5,2.084 -4.479,3.438 -5.937,4.063c-1.25,0.208 -2.188,0.312 -2.813,0.312c-0.625,0 -0.521,-0.208 0.313,-0.625c0.208,-0.208 0.521,-0.52 0.937,-0.937c1.667,-1.25 3.021,-2.396 4.063,-3.438Z" style="fill-rule:nonzero;"/><path d="M1013.94,73.75c0.834,0.833 0.938,1.458 0.313,1.875c-0.209,0.208 -1.146,0.729 -2.813,1.562c-0.833,0.417 -1.458,0.73 -1.875,0.938c-2.291,1.042 -4.583,2.5 -6.875,4.375c-1.458,1.042 -2.604,1.667 -3.437,1.875c-0.417,0 -1.042,-0.938 -1.875,-2.813c-0.625,-1.666 -0.729,-2.812 -0.313,-3.437c0.417,0 0.938,-0.104 1.563,-0.313c0.625,0 1.146,-0.104 1.562,-0.312c-0.625,-0.833 -0.937,-1.563 -0.937,-2.188c-0.209,-0.208 -0.521,-1.875 -0.938,-5c-0.208,-1.041 -0.312,-1.875 -0.312,-2.5c-0.209,-1.875 -0.417,-4.479 -0.625,-7.812c-0.417,-2.292 -0.625,-3.958 -0.625,-5c-0.209,-1.667 -0.417,-3.438 -0.625,-5.313l0,-0.937c-0.209,-0.208 -0.313,-0.417 -0.313,-0.625c0,-0.208 0.104,-0.313 0.313,-0.313c0.208,-0.208 0.312,-0.312 0.312,-0.312c0.625,-0.208 1.25,0 1.875,0.625c0,0 0.104,0.104 0.313,0.312c0.833,0.417 1.458,0.938 1.875,1.563c2.083,-6.875 3.125,-10.521 3.125,-10.938c0,-1.25 -0.209,-2.083 -0.625,-2.5c-0.417,-0.416 -0.417,-0.833 0,-1.25c0.625,-0.416 1.25,-0.625 1.875,-0.625c0.625,-0.208 1.666,0.521 3.125,2.188c1.25,1.875 1.875,3.229 1.875,4.062c-0.417,1.25 -1.563,3.125 -3.438,5.625c0.417,-0.208 0.729,-0.312 0.938,-0.312c1.458,0 3.437,-0.313 5.937,-0.938c2.292,-1.041 3.542,-1.666 3.75,-1.875c0.625,-0.208 1.771,0.625 3.438,2.5c1.666,2.292 2.291,4.375 1.875,6.25c-0.417,2.292 -0.729,7.605 -0.938,15.938c-0.625,9.583 -1.562,15.417 -2.812,17.5c-0.834,1.25 -1.563,1.875 -2.188,1.875c-0.625,0 -1.041,-0.729 -1.25,-2.188c-0.625,-2.5 -0.521,-4.791 0.313,-6.875c0.625,-1.666 1.041,-6.666 1.25,-15c0.416,-7.916 0.416,-11.979 0,-12.187c0,-1.25 -0.313,-1.771 -0.938,-1.563c-0.625,0 -1.771,0.313 -3.437,0.938c-1.875,0.833 -3.021,1.25 -3.438,1.25c-0.416,0.208 -1.25,-0.833 -2.5,-3.125c0.209,0.208 0.104,0 -0.312,-0.625l0,-0.938c-1.667,1.875 -3.334,3.646 -5,5.313c0,1.042 0.104,2.604 0.312,4.687l0,4.375c3.125,-1.041 5.625,-1.979 7.5,-2.812c0.417,-0.625 1.25,-0.313 2.5,0.937c0.834,1.25 0.938,1.98 0.313,2.188c-0.625,0.208 -2.188,0.833 -4.688,1.875c-2.916,1.25 -4.687,1.562 -5.312,0.937c0.208,1.25 0.416,3.23 0.625,5.938c0.416,2.5 0.625,4.479 0.625,5.937c1.458,-0.416 3.541,-1.25 6.25,-2.5c1.041,-0.625 1.875,-1.041 2.5,-1.25c0.625,-0.625 1.354,-0.312 2.187,0.938Zm18.75,-27.5c-0.625,-1.458 -0.104,-2.292 1.563,-2.5c4.791,-0.625 9.166,-1.875 13.125,-3.75c0.416,-0.417 1.562,0.312 3.437,2.187c1.667,1.25 2.5,2.605 2.5,4.063c0,0 -0.104,0.104 -0.312,0.312c-0.209,0.625 -0.313,2.084 -0.313,4.375c-0.208,1.875 -0.312,3.438 -0.312,4.688c-0.417,3.958 -0.938,8.229 -1.563,12.812c-0.833,5.417 -2.5,10.313 -5,14.688c-2.291,3.542 -4.375,5.312 -6.25,5.312l-0.312,0c-1.25,0 -1.875,-1.145 -1.875,-3.437c0,-2.292 -0.209,-3.854 -0.625,-4.688c-0.209,-1.25 -0.834,-2.395 -1.875,-3.437c-0.417,-0.417 -0.625,-0.729 -0.625,-0.938c0,-0.208 0.312,-0.208 0.937,0c0.417,0 1.459,0.105 3.125,0.313c-1.041,-0.208 -0.625,-0.104 1.25,0.312c1.667,0 2.709,-0.312 3.125,-0.937c0.417,-0.208 1.146,-2.708 2.188,-7.5c-0.834,4.583 -0.729,4.271 0.312,-0.938c1.042,-5.833 1.563,-10.104 1.563,-12.812c0.208,-6.042 0,-9.167 -0.625,-9.375c-0.417,-0.208 -1.979,0.312 -4.688,1.562c-0.416,0.209 -1.146,0.417 -2.187,0.625c-1.25,0.625 -2.292,1.042 -3.125,1.25c-1.042,0.625 -1.875,0.417 -2.5,-0.625c0,-0.208 -0.104,-0.52 -0.313,-0.937c-0.208,-0.208 -0.416,-0.417 -0.625,-0.625Zm-6.875,4.062c-0.625,0.417 -0.625,0 0,-1.25c0,-0.416 0.313,-1.25 0.938,-2.5c0.833,-2.291 1.562,-4.27 2.187,-5.937c1.25,-4.583 1.875,-7.188 1.875,-7.813c0,-0.625 -0.104,-1.354 -0.312,-2.187c-0.209,-0.625 0.104,-0.938 0.937,-0.938c1.042,0 2.292,0.625 3.75,1.875c1.459,1.25 2.188,2.292 2.188,3.125c-1.459,4.792 -4.271,9.271 -8.438,13.438c-0.625,0.417 -1.354,0.937 -2.187,1.562c-0.625,0.417 -0.938,0.625 -0.938,0.625Zm3.438,12.188c-1.875,-2.708 -2.917,-4.375 -3.125,-5c-0.625,-0.625 -0.625,-1.042 0,-1.25l0.937,0c1.042,-0.208 1.875,-0.313 2.5,-0.313c1.667,-0.208 3.229,0.938 4.688,3.438c1.875,2.083 2.604,3.958 2.187,5.625c0,1.458 -0.416,2.604 -1.25,3.437c-0.833,0.625 -1.562,0.417 -2.187,-0.625c-0.209,-0.208 -0.521,-0.625 -0.938,-1.25c-1.041,-1.458 -1.979,-2.812 -2.812,-4.062Z" style="fill-rule:nonzero;"/><path d="M1121.13,76.562c-0.625,-2.5 -0.729,-4.166 -0.313,-5c0.625,-1.041 1.042,-4.27 1.25,-9.687c0.209,-5.625 0.104,-11.146 -0.312,-16.563c-0.625,-5.625 -0.729,-6.25 -0.313,-1.875c-0.416,-4.375 -0.729,-6.875 -0.937,-7.5c-2.292,0 -4.167,0.417 -5.625,1.25c-0.209,0 -0.521,0.105 -0.938,0.313c-1.25,0.208 -2.187,0.625 -2.812,1.25c-0.834,0.208 -1.667,-0.313 -2.5,-1.563c-1.042,-1.666 -1.25,-2.5 -0.625,-2.5c0.208,-0.208 2.291,-0.937 6.25,-2.187c3.75,-1.25 5.729,-2.188 5.937,-2.813c0.625,-0.625 1.979,-0.104 4.063,1.563c2.5,1.25 3.541,2.604 3.125,4.062c-0.417,1.25 -0.625,7.188 -0.625,17.813c0,4.792 -0.104,10.104 -0.313,15.937l0,6.563c1.25,-0.208 2.813,-0.521 4.688,-0.938c1.458,-0.416 2.5,-0.625 3.125,-0.625c0.625,-0.625 1.875,0.417 3.75,3.125c1.25,1.667 1.875,3.021 1.875,4.063c0,0.417 -0.104,0.833 -0.313,1.25c-0.625,1.042 -1.354,1.25 -2.187,0.625c-0.209,-0.208 -0.729,-0.521 -1.563,-0.938c-0.625,-0.416 -1.146,-0.729 -1.562,-0.937c-1.459,-0.625 -4.271,-0.938 -8.438,-0.938l-0.937,0c-1.042,1.25 -1.875,1.25 -2.5,0c-3.125,0 -6.563,0.313 -10.313,0.938c-5.208,0.833 -9.687,1.875 -13.437,3.125c-3.75,1.25 -5.834,1.875 -6.25,1.875c-0.625,0.208 -1.354,-0.313 -2.188,-1.563c-0.833,-1.458 -1.041,-2.187 -0.625,-2.187c0.209,0 1.25,-0.208 3.125,-0.625c1.875,-0.417 3.438,-0.729 4.688,-0.938c1.666,-0.416 5.104,-1.041 10.312,-1.875c4.584,-0.833 8.229,-1.562 10.938,-2.187c0.416,0 0.833,-0.104 1.25,-0.313l1.25,0Zm-34.063,-25c-0.625,0 -1.771,0.313 -3.437,0.938c-0.209,0.208 -0.417,0.312 -0.625,0.312c-2.084,0.834 -3.542,1.771 -4.375,2.813c-0.834,0.833 -1.667,1.25 -2.5,1.25c-0.625,0 -1.354,-1.354 -2.188,-4.063c-0.625,-2.708 -0.729,-4.062 -0.312,-4.062l2.187,-1.25c0.625,-0.417 2.084,-2.5 4.375,-6.25c2.292,-4.167 3.542,-7.083 3.75,-8.75c0.417,-1.875 0.417,-3.125 0,-3.75c-0.208,-0.625 0.104,-0.938 0.938,-0.938l2.187,0c1.25,0 2.292,0.938 3.125,2.813c1.042,1.875 1.146,3.437 0.313,4.687c-0.625,0.625 -1.563,1.667 -2.813,3.125c-0.833,0.834 -1.458,1.563 -1.875,2.188c-1.875,2.5 -3.854,5.417 -5.937,8.75c1.25,-0.417 2.708,-0.833 4.375,-1.25c2.083,-0.625 3.229,-1.042 3.437,-1.25c0.417,-0.208 0.938,0 1.563,0.625c0.208,-0.208 0.312,-0.417 0.312,-0.625c0.209,-0.208 0.313,-0.313 0.313,-0.313c1.25,-2.916 1.771,-4.791 1.562,-5.625c-0.416,-0.833 -0.416,-1.25 0,-1.25c0.625,-0.416 1.146,-0.416 1.563,0c0.416,0 1.25,0.73 2.5,2.188c1.25,1.458 1.354,2.708 0.312,3.75c-0.625,0.417 -2.396,2.604 -5.312,6.562c-2.5,3.75 -4.688,7.292 -6.563,10.625c5,-1.25 7.709,-2.083 8.125,-2.5c0.625,-0.416 1.563,0 2.813,1.25c0.625,0.417 0.833,0.834 0.625,1.25c-0.209,0.417 -0.729,0.73 -1.563,0.938c-0.208,0 -0.625,0.104 -1.25,0.312c-0.833,0.417 -2.708,1.25 -5.625,2.5c-3.333,1.25 -5.729,2.605 -7.187,4.063c-1.25,1.458 -2.292,1.562 -3.125,0.312c-0.625,-1.25 -1.042,-2.5 -1.25,-3.75c-0.209,-1.041 -0.104,-1.562 0.312,-1.562c0.625,-0.417 1.459,-0.729 2.5,-0.938c1.042,-0.416 2.917,-2.916 5.625,-7.5c1.25,-1.875 2.292,-3.75 3.125,-5.625Zm21.25,-1.562c0.625,-0.208 1.563,-0.625 2.813,-1.25c2.916,-1.042 4.479,-1.667 4.687,-1.875c0.209,-0.625 0.938,-0.521 2.188,0.312c1.25,0.834 1.771,1.563 1.562,2.188c-0.208,0.625 -0.937,1.042 -2.187,1.25c-0.834,0 -2.188,0.417 -4.063,1.25c-1.875,0.625 -3.125,0.937 -3.75,0.937c-0.208,0 -0.625,-0.104 -1.25,-0.312c0.417,0.208 0.313,0.104 -0.312,-0.313c0,3.334 0.104,6.459 0.312,9.375l0,0.938c1.667,-0.625 3.542,-1.25 5.625,-1.875c1.25,-0.417 1.979,-0.625 2.188,-0.625c0.416,-0.208 1.146,0 2.187,0.625c1.25,0.833 1.771,1.667 1.563,2.5c0,0.833 -0.313,1.146 -0.938,0.937l-2.187,0c-0.834,0 -2.084,0.105 -3.75,0.313c-1.042,0 -2.604,0.521 -4.688,1.562c0.209,4.792 0,8.021 -0.625,9.688c-0.208,1.042 -0.521,1.667 -0.937,1.875c-0.417,0 -0.938,-0.417 -1.563,-1.25c-1.25,-1.875 -1.771,-3.333 -1.562,-4.375c0.208,-1.042 0.312,-1.979 0.312,-2.813c0.209,-1.25 0.313,-5.104 0.313,-11.562c0,-6.458 -0.104,-10.313 -0.313,-11.563c0,-1.666 -0.208,-2.604 -0.625,-2.812c-0.416,-0.625 -0.312,-1.042 0.313,-1.25c0.625,-0.208 1.25,-0.313 1.875,-0.313c0.625,0.209 1.25,0.834 1.875,1.875c1.041,1.25 1.354,2.813 0.937,4.688l0,1.875Zm-25.937,28.437l8.75,-4.375c1.875,-1.041 3.229,-1.666 4.062,-1.875c0.625,0 0.209,0.625 -1.25,1.875c-1.25,1.459 -4.375,4.375 -9.375,8.75c-5,3.75 -8.021,5.938 -9.062,6.563c-0.209,0.208 -0.521,0.312 -0.938,0.312c-0.833,-0.208 -1.458,-1.145 -1.875,-2.812c-0.416,-1.667 -0.625,-2.813 -0.625,-3.438c0,-0.625 0.104,-0.937 0.313,-0.937c0.208,-0.208 0.625,-0.313 1.25,-0.313c0.625,-0.208 1.041,-0.312 1.25,-0.312c1.458,-0.417 3.958,-1.563 7.5,-3.438Z" style="fill-rule:nonzero;"/><path d="M1170.82,50.937c1.875,-2.708 3.125,-5 3.75,-6.875c1.042,-1.666 1.354,-2.812 0.938,-3.437c0,-0.625 0.208,-0.938 0.625,-0.938l1.562,0c0.625,0.209 1.459,0.834 2.5,1.875c1.25,1.042 1.667,2.188 1.25,3.438c-0.208,0.833 -2.5,3.646 -6.875,8.437c-4.166,4.584 -8.021,8.125 -11.562,10.625c6.25,-1.666 9.687,-2.604 10.312,-2.812c0.625,-0.417 1.459,-0.104 2.5,0.937c0.417,0.417 0.625,0.73 0.625,0.938c0,0.208 -0.312,0.417 -0.937,0.625c-0.625,0.208 -2.188,0.833 -4.688,1.875c-1.875,0.833 -3.437,1.458 -4.687,1.875c-5,2.5 -7.917,3.854 -8.75,4.062c-0.834,0.625 -1.354,0.417 -1.563,-0.625c-0.208,-1.041 -0.521,-2.187 -0.937,-3.437c-0.209,-1.042 0,-1.563 0.625,-1.563c0.625,-0.208 1.354,-0.312 2.187,-0.312c0.625,-0.417 1.875,-1.354 3.75,-2.813c1.667,-1.458 4.167,-4.375 7.5,-8.75c-0.625,0.209 -1.666,0.521 -3.125,0.938c-1.666,0.417 -2.916,0.729 -3.75,0.937c-0.833,0.209 -1.875,0.521 -3.125,0.938c-1.25,0.417 -2.083,0.729 -2.5,0.937c-1.25,0.209 -2.083,-0.104 -2.5,-0.937c-0.208,-1.042 -0.521,-2.188 -0.937,-3.438l0,-1.25c0,-0.625 0.208,-0.937 0.625,-0.937l0.937,0c1.042,-0.208 2.084,-0.313 3.125,-0.313c0.834,-0.833 2.396,-3.333 4.688,-7.5c2.083,-3.541 3.229,-5.937 3.437,-7.187c0,-1.25 -0.104,-2.188 -0.312,-2.813c-0.209,-0.416 -0.313,-0.729 -0.313,-0.937c0,-0.208 0.209,-0.313 0.625,-0.313c0.417,-0.208 0.834,-0.312 1.25,-0.312c0.417,0 0.729,0.104 0.938,0.312c0.625,0 1.458,1.042 2.5,3.125c1.25,1.875 1.771,3.23 1.562,4.063c-0.208,0.625 -3.125,4.271 -8.75,10.937c0.625,0 1.563,-0.104 2.813,-0.312c1.041,-0.208 1.979,-0.313 2.812,-0.313c0.625,-0.208 1.25,0.209 1.875,1.25Zm-10.937,27.813c9.375,-4.375 14.791,-6.771 16.25,-7.188c0.833,-0.208 1.25,-0.312 1.25,-0.312c0,0.208 -0.209,0.625 -0.625,1.25c-0.834,1.042 -3.959,3.646 -9.375,7.812c-4.375,3.334 -7.188,6.042 -8.438,8.125c-0.208,0.625 -0.625,0.938 -1.25,0.938c-0.625,0 -1.25,-0.313 -1.875,-0.938c-1.25,-1.875 -2.187,-3.437 -2.812,-4.687c0,-0.208 -0.104,-0.521 -0.313,-0.938l0,-0.312c0,-0.625 0.209,-1.042 0.625,-1.25c0.625,-0.417 2.813,-1.25 6.563,-2.5Zm23.75,-1.875c3.125,-4.375 4.687,-6.875 4.687,-7.5c-0.208,-0.208 -0.312,-0.417 -0.312,-0.625c-0.209,-0.417 -0.313,-0.729 -0.313,-0.938c-0.416,-0.416 0,-0.625 1.25,-0.625c0.625,-0.208 1.25,-0.208 1.875,0l0.938,0c0.625,0.209 1.354,1.146 2.187,2.813c0.625,1.458 0.938,2.5 0.938,3.125c-0.209,0.625 -0.625,1.042 -1.25,1.25c-0.625,0 -3.334,1.979 -8.125,5.937c-4.792,3.75 -7.396,5.521 -7.813,5.313c-0.416,-0.208 -0.312,-0.625 0.313,-1.25c0.625,-1.042 2.5,-3.542 5.625,-7.5Zm29.687,-3.125c1.042,1.875 1.563,3.75 1.563,5.625l0,0.312c0,1.875 -0.521,3.23 -1.563,4.063c-0.833,0.625 -1.458,0.521 -1.875,-0.313c-0.208,-0.416 -0.625,-1.25 -1.25,-2.5c-0.833,-1.458 -1.562,-2.604 -2.187,-3.437c-0.417,-1.042 -1.042,-2.292 -1.875,-3.75c-0.625,-1.042 -1.042,-1.771 -1.25,-2.188c-0.209,-0.208 -0.417,-0.416 -0.625,-0.625c-0.209,-0.416 -0.417,-0.937 -0.625,-1.562c-0.417,-0.417 0,-0.625 1.25,-0.625c1.458,0 2.604,0.104 3.437,0.312c0.834,0.209 1.563,0.625 2.188,1.25c0.208,0.209 0.833,0.938 1.875,2.188c-0.625,-0.833 -0.313,-0.417 0.937,1.25Zm-6.875,-32.188c-7.291,1.25 -11.458,2.188 -12.5,2.813l-0.312,0c-0.625,0.417 -1.25,0.521 -1.875,0.312c-0.209,0 -0.417,-0.312 -0.625,-0.937c-0.209,-0.417 -0.417,-0.729 -0.625,-0.938c-0.625,-1.25 -0.521,-1.875 0.312,-1.875c0.209,0 0.834,-0.104 1.875,-0.312c2.084,-0.417 3.959,-0.729 5.625,-0.938c4.584,-1.041 7.292,-1.666 8.125,-1.875c0.625,-0.416 1.25,-0.729 1.875,-0.937c0.625,-0.417 2.084,0.521 4.375,2.812c1.667,1.459 2.5,2.709 2.5,3.75c0,0.417 -0.104,0.625 -0.312,0.625c-0.209,0.417 -0.729,1.25 -1.563,2.5c-0.833,0.834 -1.458,1.563 -1.875,2.188c-1.875,2.083 -3.125,3.646 -3.75,4.687c0,0 0.209,0.209 0.625,0.625c1.25,1.459 1.771,2.709 1.563,3.75c-0.209,0.834 -0.729,1.146 -1.563,0.938c-0.625,-0.417 -1.771,-0.729 -3.437,-0.938c-1.875,-0.416 -3.229,-0.416 -4.063,0c-0.208,0.209 -1.146,0.417 -2.812,0.625c-1.875,0.417 -3.438,0.73 -4.688,0.938c0.625,1.875 0.521,3.437 -0.312,4.687c-0.417,0.625 -0.834,0.938 -1.25,0.938c-0.417,0 -0.834,-0.417 -1.25,-1.25c-1.042,-1.667 -1.563,-2.813 -1.563,-3.438c0,-0.833 -0.416,-3.125 -1.25,-6.875c-0.833,-3.75 -1.771,-6.25 -2.812,-7.5c-0.625,-1.041 -1.146,-1.77 -1.563,-2.187c-0.416,0 -0.625,-0.208 -0.625,-0.625c0,-0.208 0.104,-0.313 0.313,-0.313c0,-0.625 0.312,-1.145 0.937,-1.562c0.625,-0.417 1.667,-0.104 3.125,0.937c1.667,0.834 2.604,1.563 2.813,2.188c0.208,0.208 0.416,0.729 0.625,1.562c0.208,1.042 0.416,1.875 0.625,2.5c0.416,2.292 0.937,4.688 1.562,7.188c5,-1.042 8.229,-1.667 9.688,-1.875c0,-1.042 0.104,-1.667 0.312,-1.875l2.813,-5.625c1.25,-3.125 1.562,-4.688 0.937,-4.688Z" style="fill-rule:nonzero;"/><path d="M32.272,113.921l1191.76,0" style="fill:none;"/><rect x="30.772" y="112.421" width="1194.76" height="3"/></svg>