<?xml version="1.0" encoding="UTF-8" standalone="no"?>
<!DOCTYPE svg PUBLIC "-//W3C//DTD SVG 1.1//EN" "http://www.w3.org/Graphics/SVG/1.1/DTD/svg11.dtd">
<svg width="100%" height="100%" viewBox="0 0 1000 120" version="1.1" xmlns="http://www.w3.org/2000/svg" xmlns:xlink="http://www.w3.org/1999/xlink" xml:space="preserve" xmlns:serif="http://www.serif.com/" style="fill-rule:evenodd;clip-rule:evenodd;stroke-linejoin:round;stroke-miterlimit:2;">
    <g transform="matrix(1,0,0,1,-60.8879,-36.1712)">
        <g transform="matrix(80,0,0,80,360.888,124.609)">
            <path d="M0.645,0.098C0.637,0.105 0.63,0.109 0.625,0.109C0.622,0.109 0.618,0.104 0.613,0.094C0.611,0.068 0.607,0.021 0.602,-0.047L0.602,-0.156C0.599,-0.216 0.598,-0.263 0.598,-0.297C0.595,-0.344 0.594,-0.383 0.594,-0.414L0.582,-0.414C0.522,-0.409 0.465,-0.398 0.41,-0.383C0.408,-0.354 0.404,-0.313 0.398,-0.258C0.391,-0.177 0.375,-0.109 0.352,-0.055C0.331,-0.016 0.31,0.008 0.289,0.016C0.279,0.018 0.272,0.018 0.27,0.016C0.267,0.013 0.268,0.008 0.273,0C0.276,-0.003 0.281,-0.012 0.289,-0.027C0.294,-0.043 0.298,-0.055 0.301,-0.063C0.306,-0.078 0.315,-0.111 0.328,-0.16C0.328,-0.173 0.329,-0.182 0.332,-0.188C0.342,-0.242 0.348,-0.302 0.348,-0.367C0.337,-0.365 0.322,-0.361 0.301,-0.355C0.259,-0.345 0.224,-0.335 0.195,-0.324C0.188,-0.322 0.177,-0.318 0.164,-0.313C0.154,-0.31 0.143,-0.306 0.133,-0.301C0.122,-0.293 0.112,-0.303 0.102,-0.332C0.096,-0.35 0.094,-0.363 0.094,-0.371L0.094,-0.375C0.096,-0.375 0.12,-0.379 0.164,-0.387C0.232,-0.4 0.293,-0.41 0.348,-0.418C0.348,-0.454 0.345,-0.477 0.34,-0.484C0.337,-0.487 0.335,-0.491 0.332,-0.496C0.327,-0.504 0.322,-0.509 0.316,-0.512C0.311,-0.517 0.313,-0.521 0.32,-0.523C0.323,-0.523 0.326,-0.525 0.328,-0.527C0.336,-0.533 0.342,-0.536 0.348,-0.539C0.355,-0.542 0.367,-0.535 0.383,-0.52C0.396,-0.504 0.404,-0.49 0.406,-0.477L0.406,-0.465C0.409,-0.452 0.41,-0.44 0.41,-0.43C0.421,-0.432 0.435,-0.435 0.453,-0.438C0.492,-0.445 0.539,-0.453 0.594,-0.461L0.594,-0.484C0.591,-0.516 0.587,-0.542 0.582,-0.563C0.579,-0.57 0.576,-0.578 0.57,-0.586C0.568,-0.594 0.565,-0.598 0.563,-0.598C0.555,-0.605 0.553,-0.609 0.559,-0.609C0.561,-0.612 0.568,-0.617 0.578,-0.625C0.586,-0.63 0.602,-0.624 0.625,-0.605C0.646,-0.59 0.659,-0.574 0.664,-0.559C0.667,-0.543 0.668,-0.52 0.668,-0.488L0.668,-0.473C0.681,-0.475 0.691,-0.477 0.699,-0.477C0.746,-0.484 0.772,-0.492 0.777,-0.5C0.785,-0.505 0.802,-0.497 0.828,-0.477C0.844,-0.461 0.852,-0.447 0.852,-0.434L0.852,-0.422C0.841,-0.406 0.833,-0.4 0.828,-0.402C0.82,-0.408 0.801,-0.414 0.77,-0.422C0.749,-0.427 0.715,-0.427 0.668,-0.422C0.668,-0.385 0.669,-0.332 0.672,-0.262L0.672,-0.004C0.669,0.04 0.66,0.074 0.645,0.098ZM0.613,-0.742C0.616,-0.745 0.617,-0.746 0.617,-0.746C0.622,-0.746 0.633,-0.741 0.648,-0.73C0.635,-0.741 0.638,-0.74 0.656,-0.727C0.682,-0.711 0.689,-0.698 0.676,-0.688C0.671,-0.682 0.65,-0.673 0.613,-0.66C0.6,-0.655 0.59,-0.651 0.582,-0.648C0.564,-0.643 0.54,-0.635 0.512,-0.625C0.478,-0.617 0.453,-0.611 0.438,-0.605C0.393,-0.595 0.367,-0.59 0.359,-0.59C0.352,-0.59 0.344,-0.608 0.336,-0.645C0.328,-0.678 0.328,-0.695 0.336,-0.695C0.341,-0.695 0.365,-0.697 0.406,-0.699C0.448,-0.704 0.492,-0.712 0.539,-0.723C0.586,-0.73 0.611,-0.737 0.613,-0.742Z" style="fill-rule:nonzero;"/>
        </g>
        <g transform="matrix(80,0,0,80,440.888,124.609)">
            <path d="M0.719,-0.484C0.729,-0.477 0.734,-0.467 0.734,-0.457C0.732,-0.449 0.728,-0.422 0.723,-0.375C0.715,-0.333 0.703,-0.294 0.688,-0.258C0.763,-0.195 0.823,-0.156 0.867,-0.141C0.883,-0.135 0.902,-0.129 0.926,-0.121C0.944,-0.116 0.956,-0.112 0.961,-0.109C0.969,-0.109 0.973,-0.107 0.973,-0.102C0.973,-0.102 0.969,-0.1 0.961,-0.098C0.945,-0.098 0.918,-0.092 0.879,-0.082C0.863,-0.077 0.845,-0.073 0.824,-0.07C0.811,-0.065 0.803,-0.063 0.801,-0.063C0.79,-0.06 0.781,-0.06 0.773,-0.063C0.771,-0.065 0.766,-0.07 0.758,-0.078C0.747,-0.086 0.74,-0.092 0.734,-0.098C0.724,-0.108 0.706,-0.128 0.68,-0.156C0.667,-0.172 0.656,-0.184 0.648,-0.191C0.586,-0.132 0.53,-0.091 0.48,-0.07C0.431,-0.052 0.4,-0.04 0.387,-0.035C0.382,-0.035 0.379,-0.036 0.379,-0.039C0.382,-0.044 0.387,-0.048 0.395,-0.051C0.4,-0.053 0.411,-0.06 0.43,-0.07C0.448,-0.083 0.464,-0.094 0.477,-0.102C0.518,-0.128 0.563,-0.172 0.609,-0.234C0.586,-0.271 0.566,-0.302 0.551,-0.328C0.533,-0.357 0.517,-0.376 0.504,-0.387C0.501,-0.389 0.499,-0.392 0.496,-0.395C0.486,-0.402 0.479,-0.408 0.477,-0.41C0.474,-0.41 0.474,-0.414 0.477,-0.422C0.479,-0.43 0.484,-0.434 0.492,-0.434C0.497,-0.434 0.505,-0.432 0.516,-0.43C0.534,-0.477 0.551,-0.527 0.566,-0.582C0.572,-0.598 0.576,-0.608 0.578,-0.613C0.583,-0.637 0.582,-0.654 0.574,-0.664C0.569,-0.674 0.564,-0.682 0.559,-0.688C0.553,-0.695 0.555,-0.701 0.563,-0.703C0.57,-0.703 0.578,-0.706 0.586,-0.711C0.596,-0.711 0.615,-0.702 0.641,-0.684C0.664,-0.665 0.674,-0.65 0.672,-0.637C0.669,-0.621 0.661,-0.604 0.648,-0.586C0.633,-0.565 0.62,-0.543 0.609,-0.52C0.596,-0.493 0.57,-0.461 0.531,-0.422C0.568,-0.393 0.59,-0.371 0.598,-0.355C0.608,-0.34 0.625,-0.32 0.648,-0.297C0.651,-0.302 0.654,-0.31 0.656,-0.32C0.664,-0.346 0.671,-0.371 0.676,-0.395C0.684,-0.418 0.684,-0.443 0.676,-0.469C0.668,-0.466 0.659,-0.464 0.648,-0.461C0.641,-0.458 0.635,-0.457 0.633,-0.457C0.628,-0.457 0.622,-0.461 0.617,-0.469C0.612,-0.477 0.609,-0.484 0.609,-0.492C0.607,-0.503 0.609,-0.508 0.617,-0.508C0.62,-0.508 0.632,-0.51 0.652,-0.516C0.673,-0.521 0.691,-0.525 0.707,-0.527C0.73,-0.533 0.757,-0.539 0.785,-0.547C0.796,-0.552 0.802,-0.555 0.805,-0.555C0.818,-0.56 0.826,-0.566 0.828,-0.574C0.833,-0.582 0.848,-0.578 0.871,-0.563C0.897,-0.547 0.908,-0.533 0.902,-0.52C0.9,-0.507 0.895,-0.501 0.887,-0.504L0.84,-0.504C0.816,-0.504 0.776,-0.497 0.719,-0.484ZM0.313,-0.402C0.336,-0.408 0.352,-0.411 0.359,-0.414C0.367,-0.419 0.383,-0.411 0.406,-0.391C0.432,-0.372 0.441,-0.355 0.434,-0.34C0.434,-0.337 0.432,-0.333 0.43,-0.328C0.417,-0.292 0.405,-0.257 0.395,-0.223C0.371,-0.158 0.355,-0.117 0.348,-0.102C0.34,-0.086 0.324,-0.065 0.301,-0.039C0.277,-0.016 0.26,-0.003 0.25,0L0.246,0C0.233,-0.003 0.227,-0.021 0.227,-0.055C0.227,-0.063 0.225,-0.073 0.223,-0.086C0.223,-0.099 0.221,-0.109 0.219,-0.117C0.216,-0.125 0.211,-0.133 0.203,-0.141C0.201,-0.146 0.208,-0.145 0.227,-0.137C0.234,-0.134 0.246,-0.13 0.262,-0.125C0.267,-0.122 0.271,-0.121 0.273,-0.121C0.289,-0.118 0.298,-0.12 0.301,-0.125C0.306,-0.133 0.318,-0.167 0.336,-0.227C0.339,-0.232 0.341,-0.238 0.344,-0.246C0.359,-0.296 0.366,-0.323 0.363,-0.328C0.361,-0.336 0.357,-0.341 0.352,-0.344C0.346,-0.352 0.34,-0.354 0.332,-0.352C0.324,-0.352 0.319,-0.354 0.316,-0.359C0.314,-0.365 0.31,-0.372 0.305,-0.383C0.229,-0.279 0.173,-0.207 0.137,-0.168C0.103,-0.134 0.079,-0.115 0.066,-0.109L0.051,-0.109L0.047,-0.109C0.047,-0.112 0.052,-0.118 0.063,-0.129C0.07,-0.137 0.083,-0.151 0.102,-0.172C0.112,-0.185 0.121,-0.195 0.129,-0.203C0.158,-0.24 0.191,-0.29 0.23,-0.355C0.272,-0.426 0.294,-0.466 0.297,-0.477C0.299,-0.492 0.301,-0.503 0.301,-0.508C0.298,-0.513 0.297,-0.516 0.297,-0.516C0.299,-0.518 0.302,-0.52 0.305,-0.52L0.32,-0.52C0.323,-0.52 0.328,-0.513 0.336,-0.5C0.328,-0.513 0.329,-0.51 0.34,-0.492C0.348,-0.477 0.35,-0.464 0.348,-0.453C0.34,-0.445 0.328,-0.428 0.313,-0.402ZM0.355,-0.594C0.41,-0.607 0.44,-0.616 0.445,-0.621C0.445,-0.629 0.456,-0.621 0.477,-0.598C0.497,-0.577 0.505,-0.563 0.5,-0.555C0.495,-0.549 0.48,-0.547 0.457,-0.547C0.434,-0.552 0.395,-0.548 0.34,-0.535C0.285,-0.525 0.238,-0.512 0.199,-0.496C0.163,-0.48 0.142,-0.473 0.137,-0.473C0.129,-0.47 0.117,-0.478 0.102,-0.496C0.086,-0.52 0.082,-0.53 0.09,-0.527C0.092,-0.53 0.1,-0.531 0.113,-0.531C0.126,-0.534 0.135,-0.535 0.141,-0.535C0.167,-0.543 0.223,-0.557 0.309,-0.578C0.301,-0.591 0.294,-0.611 0.289,-0.637C0.286,-0.665 0.279,-0.686 0.266,-0.699C0.255,-0.715 0.247,-0.724 0.242,-0.727C0.24,-0.729 0.246,-0.734 0.262,-0.742L0.305,-0.742C0.315,-0.737 0.329,-0.719 0.348,-0.688C0.348,-0.685 0.349,-0.682 0.352,-0.68C0.362,-0.654 0.367,-0.635 0.367,-0.625L0.355,-0.594Z" style="fill-rule:nonzero;"/>
        </g>
        <g transform="matrix(80,0,0,80,520.888,124.609)">
            <path d="M0.832,-0.41C0.835,-0.397 0.833,-0.375 0.828,-0.344C0.826,-0.336 0.824,-0.329 0.824,-0.324C0.816,-0.285 0.802,-0.233 0.781,-0.168C0.763,-0.103 0.732,-0.055 0.688,-0.023C0.651,-0.003 0.625,0.008 0.609,0.008C0.589,0.008 0.578,-0.005 0.578,-0.031C0.578,-0.06 0.574,-0.079 0.566,-0.09C0.564,-0.092 0.561,-0.095 0.559,-0.098C0.553,-0.108 0.546,-0.118 0.535,-0.129C0.522,-0.139 0.52,-0.145 0.527,-0.145C0.538,-0.142 0.56,-0.138 0.594,-0.133C0.628,-0.125 0.651,-0.125 0.664,-0.133C0.677,-0.135 0.691,-0.15 0.707,-0.176C0.72,-0.197 0.73,-0.243 0.738,-0.316C0.746,-0.382 0.743,-0.415 0.73,-0.418C0.725,-0.423 0.667,-0.417 0.555,-0.398C0.445,-0.383 0.387,-0.372 0.379,-0.367C0.371,-0.365 0.363,-0.357 0.355,-0.344C0.348,-0.328 0.336,-0.331 0.32,-0.352C0.305,-0.372 0.302,-0.388 0.313,-0.398C0.323,-0.414 0.332,-0.439 0.34,-0.473C0.348,-0.504 0.353,-0.547 0.355,-0.602C0.361,-0.656 0.361,-0.691 0.355,-0.707C0.353,-0.723 0.349,-0.733 0.344,-0.738C0.339,-0.741 0.344,-0.746 0.359,-0.754C0.362,-0.754 0.366,-0.755 0.371,-0.758L0.375,-0.758C0.388,-0.758 0.398,-0.753 0.406,-0.742C0.419,-0.727 0.427,-0.714 0.43,-0.703C0.435,-0.693 0.435,-0.664 0.43,-0.617C0.471,-0.622 0.518,-0.63 0.57,-0.641C0.589,-0.643 0.6,-0.645 0.605,-0.645C0.632,-0.652 0.647,-0.659 0.652,-0.664C0.66,-0.672 0.672,-0.671 0.688,-0.66C0.701,-0.652 0.71,-0.643 0.715,-0.633C0.723,-0.62 0.714,-0.609 0.688,-0.602C0.661,-0.591 0.617,-0.581 0.555,-0.57C0.49,-0.56 0.454,-0.555 0.449,-0.555C0.444,-0.555 0.438,-0.568 0.43,-0.594C0.427,-0.576 0.419,-0.538 0.406,-0.48C0.414,-0.517 0.41,-0.499 0.395,-0.426C0.512,-0.439 0.598,-0.451 0.652,-0.461C0.702,-0.469 0.733,-0.475 0.746,-0.48C0.757,-0.483 0.773,-0.477 0.797,-0.461C0.818,-0.445 0.829,-0.428 0.832,-0.41ZM0.105,-0.219L0.105,-0.23C0.103,-0.238 0.107,-0.242 0.117,-0.242C0.122,-0.242 0.143,-0.245 0.18,-0.25C0.203,-0.255 0.223,-0.259 0.238,-0.262C0.311,-0.272 0.384,-0.285 0.457,-0.301C0.535,-0.314 0.574,-0.322 0.574,-0.324C0.582,-0.329 0.599,-0.323 0.625,-0.305C0.654,-0.289 0.661,-0.275 0.648,-0.262C0.641,-0.249 0.633,-0.243 0.625,-0.246C0.617,-0.251 0.605,-0.254 0.59,-0.254C0.572,-0.262 0.513,-0.257 0.414,-0.238C0.315,-0.223 0.246,-0.21 0.207,-0.199C0.191,-0.194 0.173,-0.188 0.152,-0.18C0.145,-0.177 0.139,-0.176 0.137,-0.176C0.129,-0.176 0.124,-0.178 0.121,-0.184C0.121,-0.186 0.12,-0.19 0.117,-0.195C0.112,-0.206 0.108,-0.214 0.105,-0.219Z" style="fill-rule:nonzero;"/>
        </g>
        <g transform="matrix(80,0,0,80,600.888,124.609)">
            <path d="M0.496,-0.617C0.478,-0.622 0.465,-0.632 0.457,-0.645C0.454,-0.647 0.452,-0.652 0.449,-0.66C0.434,-0.678 0.422,-0.694 0.414,-0.707C0.393,-0.738 0.383,-0.758 0.383,-0.766C0.38,-0.771 0.391,-0.773 0.414,-0.773L0.426,-0.773C0.447,-0.773 0.462,-0.771 0.473,-0.766C0.486,-0.758 0.499,-0.736 0.512,-0.699C0.522,-0.665 0.523,-0.641 0.516,-0.625C0.62,-0.646 0.676,-0.661 0.684,-0.672C0.691,-0.682 0.708,-0.676 0.734,-0.652C0.76,-0.626 0.771,-0.608 0.766,-0.598C0.758,-0.587 0.746,-0.583 0.73,-0.586L0.617,-0.586C0.557,-0.583 0.482,-0.57 0.391,-0.547C0.299,-0.529 0.25,-0.517 0.242,-0.512C0.234,-0.507 0.229,-0.508 0.227,-0.516C0.224,-0.523 0.22,-0.533 0.215,-0.543C0.212,-0.551 0.212,-0.555 0.215,-0.555C0.215,-0.557 0.217,-0.559 0.223,-0.559C0.23,-0.559 0.322,-0.578 0.496,-0.617ZM0.266,-0.379C0.284,-0.4 0.301,-0.419 0.316,-0.438C0.332,-0.461 0.339,-0.478 0.336,-0.488C0.333,-0.499 0.335,-0.504 0.34,-0.504C0.348,-0.507 0.357,-0.508 0.367,-0.508C0.378,-0.508 0.387,-0.496 0.395,-0.473C0.402,-0.449 0.405,-0.432 0.402,-0.422C0.4,-0.411 0.387,-0.4 0.363,-0.387C0.355,-0.384 0.344,-0.379 0.328,-0.371C0.313,-0.366 0.301,-0.361 0.293,-0.355C0.27,-0.348 0.254,-0.345 0.246,-0.348C0.241,-0.35 0.247,-0.361 0.266,-0.379ZM0.633,-0.48C0.607,-0.517 0.591,-0.536 0.586,-0.539C0.583,-0.547 0.59,-0.552 0.605,-0.555C0.626,-0.555 0.646,-0.553 0.664,-0.551C0.688,-0.548 0.71,-0.53 0.73,-0.496C0.751,-0.467 0.754,-0.443 0.738,-0.422C0.725,-0.404 0.715,-0.4 0.707,-0.41C0.697,-0.423 0.686,-0.431 0.676,-0.434C0.665,-0.441 0.652,-0.445 0.637,-0.445C0.621,-0.445 0.616,-0.448 0.621,-0.453C0.629,-0.461 0.633,-0.47 0.633,-0.48ZM0.469,-0.238C0.51,-0.29 0.535,-0.331 0.543,-0.359C0.553,-0.388 0.559,-0.406 0.559,-0.414C0.556,-0.422 0.56,-0.426 0.57,-0.426C0.573,-0.426 0.576,-0.424 0.578,-0.422C0.589,-0.422 0.595,-0.419 0.598,-0.414C0.605,-0.409 0.609,-0.398 0.609,-0.383C0.609,-0.367 0.608,-0.355 0.605,-0.348C0.605,-0.348 0.604,-0.346 0.602,-0.344C0.602,-0.339 0.592,-0.32 0.574,-0.289C0.559,-0.26 0.536,-0.23 0.508,-0.199C0.586,-0.137 0.66,-0.091 0.73,-0.063C0.801,-0.036 0.846,-0.021 0.867,-0.016C0.875,-0.013 0.884,-0.01 0.895,-0.008C0.902,-0.005 0.908,-0.003 0.91,0L0.914,0L0.863,0C0.824,0.003 0.79,0.008 0.762,0.016C0.746,0.021 0.728,0.026 0.707,0.031C0.704,0.034 0.702,0.035 0.699,0.035C0.689,0.038 0.68,0.039 0.672,0.039C0.667,0.036 0.655,0.029 0.637,0.016C0.624,0.008 0.613,0.003 0.605,0C0.572,-0.031 0.523,-0.079 0.461,-0.145C0.398,-0.082 0.34,-0.034 0.285,0C0.277,0.005 0.267,0.012 0.254,0.02C0.217,0.043 0.19,0.057 0.172,0.063C0.167,0.062 0.163,0.062 0.16,0.063C0.158,0.062 0.156,0.062 0.156,0.063C0.156,0.06 0.158,0.059 0.16,0.059C0.168,0.048 0.198,0.026 0.25,-0.008C0.31,-0.055 0.37,-0.113 0.43,-0.184C0.417,-0.199 0.401,-0.217 0.383,-0.238C0.372,-0.251 0.365,-0.26 0.359,-0.266C0.346,-0.286 0.332,-0.299 0.316,-0.305C0.306,-0.313 0.302,-0.319 0.305,-0.324C0.31,-0.329 0.322,-0.331 0.34,-0.328C0.358,-0.328 0.379,-0.319 0.402,-0.301C0.423,-0.28 0.445,-0.259 0.469,-0.238Z" style="fill-rule:nonzero;"/>
        </g>
        <g transform="matrix(80,0,0,80,680.888,124.609)">
            <path d="M0.563,-0.613C0.549,-0.618 0.543,-0.624 0.543,-0.629C0.54,-0.639 0.529,-0.656 0.508,-0.68C0.49,-0.706 0.477,-0.723 0.469,-0.73C0.461,-0.743 0.457,-0.75 0.457,-0.75C0.457,-0.755 0.465,-0.759 0.48,-0.762C0.483,-0.764 0.488,-0.766 0.496,-0.766C0.504,-0.766 0.514,-0.763 0.527,-0.758C0.543,-0.75 0.561,-0.736 0.582,-0.715C0.6,-0.691 0.611,-0.674 0.613,-0.664C0.613,-0.651 0.612,-0.637 0.609,-0.621C0.617,-0.626 0.632,-0.632 0.652,-0.637L0.66,-0.637C0.71,-0.645 0.738,-0.652 0.746,-0.66C0.751,-0.668 0.764,-0.66 0.785,-0.637C0.801,-0.616 0.807,-0.599 0.805,-0.586C0.797,-0.576 0.789,-0.572 0.781,-0.574C0.773,-0.577 0.743,-0.578 0.691,-0.578C0.642,-0.578 0.594,-0.572 0.547,-0.559L0.559,-0.551C0.561,-0.548 0.564,-0.546 0.566,-0.543C0.572,-0.54 0.578,-0.534 0.586,-0.523C0.594,-0.516 0.594,-0.505 0.586,-0.492C0.583,-0.49 0.581,-0.487 0.578,-0.484C0.573,-0.474 0.553,-0.448 0.52,-0.406C0.611,-0.43 0.658,-0.444 0.66,-0.449C0.66,-0.452 0.661,-0.452 0.664,-0.449C0.664,-0.454 0.661,-0.457 0.656,-0.457L0.625,-0.488C0.622,-0.496 0.626,-0.501 0.637,-0.504L0.676,-0.504C0.694,-0.501 0.715,-0.492 0.738,-0.477C0.764,-0.461 0.777,-0.445 0.777,-0.43C0.777,-0.414 0.773,-0.398 0.766,-0.383C0.76,-0.37 0.751,-0.366 0.738,-0.371C0.728,-0.382 0.716,-0.395 0.703,-0.41C0.701,-0.413 0.699,-0.414 0.699,-0.414L0.695,-0.414C0.685,-0.406 0.648,-0.393 0.586,-0.375C0.526,-0.357 0.484,-0.339 0.461,-0.32C0.451,-0.315 0.439,-0.307 0.426,-0.297C0.418,-0.292 0.413,-0.288 0.41,-0.285C0.4,-0.283 0.392,-0.297 0.387,-0.328C0.384,-0.359 0.384,-0.375 0.387,-0.375C0.389,-0.378 0.393,-0.379 0.398,-0.379C0.409,-0.382 0.417,-0.384 0.422,-0.387C0.438,-0.392 0.452,-0.401 0.465,-0.414C0.473,-0.43 0.484,-0.449 0.5,-0.473C0.516,-0.501 0.523,-0.518 0.523,-0.523C0.523,-0.531 0.52,-0.539 0.512,-0.547C0.509,-0.547 0.505,-0.546 0.5,-0.543C0.469,-0.535 0.445,-0.527 0.43,-0.52C0.406,-0.512 0.393,-0.507 0.391,-0.504C0.383,-0.504 0.375,-0.513 0.367,-0.531C0.359,-0.552 0.357,-0.563 0.359,-0.563C0.367,-0.563 0.405,-0.572 0.473,-0.59C0.504,-0.598 0.534,-0.605 0.563,-0.613ZM0.633,-0.254C0.635,-0.267 0.637,-0.283 0.637,-0.301C0.639,-0.314 0.641,-0.322 0.641,-0.324C0.641,-0.335 0.638,-0.344 0.633,-0.352C0.633,-0.359 0.63,-0.363 0.625,-0.363C0.622,-0.368 0.622,-0.371 0.625,-0.371C0.625,-0.374 0.628,-0.375 0.633,-0.375C0.628,-0.375 0.629,-0.376 0.637,-0.379C0.639,-0.382 0.648,-0.379 0.664,-0.371C0.677,-0.363 0.685,-0.354 0.688,-0.344C0.69,-0.336 0.688,-0.32 0.68,-0.297C0.677,-0.273 0.673,-0.236 0.668,-0.184C0.668,-0.134 0.674,-0.099 0.688,-0.078C0.703,-0.063 0.733,-0.055 0.777,-0.055C0.822,-0.06 0.848,-0.064 0.855,-0.066C0.863,-0.072 0.87,-0.086 0.875,-0.109C0.875,-0.115 0.876,-0.122 0.879,-0.133C0.879,-0.141 0.88,-0.15 0.883,-0.16C0.883,-0.171 0.885,-0.171 0.891,-0.16C0.893,-0.15 0.898,-0.135 0.906,-0.117C0.914,-0.104 0.921,-0.094 0.926,-0.086C0.934,-0.083 0.941,-0.079 0.949,-0.074C0.954,-0.074 0.96,-0.064 0.965,-0.043C0.965,-0.043 0.966,-0.04 0.969,-0.035L0.969,-0.027C0.969,-0.02 0.966,-0.014 0.961,-0.012C0.938,-0.004 0.914,0 0.891,0C0.87,0.003 0.824,0.003 0.754,0C0.699,-0.005 0.664,-0.023 0.648,-0.055C0.635,-0.083 0.629,-0.115 0.629,-0.148C0.629,-0.185 0.63,-0.22 0.633,-0.254ZM0.266,-0.219C0.263,-0.219 0.259,-0.212 0.254,-0.199L0.203,-0.098C0.195,-0.082 0.193,-0.065 0.195,-0.047C0.201,-0.026 0.203,-0.01 0.203,0C0.206,0.013 0.204,0.023 0.199,0.031C0.197,0.036 0.191,0.039 0.184,0.039C0.184,0.039 0.182,0.038 0.18,0.035C0.177,0.035 0.174,0.034 0.172,0.031C0.167,0.029 0.16,0.027 0.152,0.027C0.145,0.025 0.137,0.014 0.129,-0.004L0.105,-0.051C0.103,-0.059 0.102,-0.074 0.102,-0.098C0.102,-0.124 0.103,-0.138 0.105,-0.141C0.105,-0.148 0.112,-0.147 0.125,-0.137C0.138,-0.129 0.154,-0.132 0.172,-0.145C0.19,-0.163 0.207,-0.18 0.223,-0.195C0.228,-0.198 0.234,-0.203 0.242,-0.211C0.25,-0.219 0.255,-0.223 0.258,-0.223C0.258,-0.225 0.26,-0.227 0.266,-0.227L0.266,-0.219ZM0.516,-0.234C0.516,-0.281 0.514,-0.305 0.512,-0.305C0.512,-0.307 0.51,-0.31 0.508,-0.313C0.508,-0.315 0.507,-0.316 0.504,-0.316C0.504,-0.322 0.507,-0.324 0.512,-0.324C0.52,-0.327 0.531,-0.324 0.547,-0.316C0.56,-0.309 0.565,-0.297 0.563,-0.281L0.563,-0.262C0.56,-0.225 0.559,-0.193 0.559,-0.164C0.559,-0.102 0.555,-0.059 0.547,-0.035C0.539,-0.017 0.531,-0.01 0.523,-0.016C0.516,-0.021 0.512,-0.034 0.512,-0.055L0.512,-0.133C0.514,-0.161 0.516,-0.195 0.516,-0.234ZM0.395,-0.176C0.402,-0.199 0.406,-0.217 0.406,-0.23C0.406,-0.236 0.405,-0.242 0.402,-0.25L0.402,-0.262C0.402,-0.27 0.405,-0.273 0.41,-0.273C0.415,-0.273 0.422,-0.272 0.43,-0.27C0.438,-0.267 0.443,-0.254 0.445,-0.23C0.445,-0.21 0.441,-0.188 0.434,-0.164C0.426,-0.141 0.411,-0.111 0.391,-0.074C0.372,-0.038 0.355,-0.016 0.34,-0.008C0.329,-0.003 0.32,0 0.313,0C0.307,-0.003 0.305,-0.012 0.305,-0.027C0.305,-0.046 0.307,-0.055 0.313,-0.055C0.318,-0.055 0.331,-0.069 0.352,-0.098C0.372,-0.126 0.387,-0.152 0.395,-0.176ZM0.113,-0.422C0.111,-0.424 0.105,-0.427 0.098,-0.43C0.092,-0.435 0.087,-0.438 0.082,-0.438C0.072,-0.443 0.066,-0.447 0.066,-0.449C0.066,-0.452 0.068,-0.453 0.07,-0.453C0.073,-0.456 0.079,-0.461 0.09,-0.469C0.085,-0.466 0.087,-0.467 0.098,-0.473C0.105,-0.48 0.116,-0.484 0.129,-0.484C0.145,-0.487 0.161,-0.482 0.18,-0.469C0.201,-0.458 0.214,-0.447 0.219,-0.434C0.227,-0.426 0.23,-0.414 0.23,-0.398C0.228,-0.388 0.223,-0.376 0.215,-0.363C0.204,-0.355 0.188,-0.362 0.164,-0.383C0.138,-0.406 0.121,-0.419 0.113,-0.422ZM0.242,-0.637C0.24,-0.639 0.237,-0.642 0.234,-0.645C0.227,-0.65 0.221,-0.655 0.219,-0.66C0.206,-0.668 0.203,-0.674 0.211,-0.68C0.214,-0.682 0.219,-0.684 0.227,-0.684C0.232,-0.686 0.236,-0.688 0.238,-0.688C0.251,-0.693 0.263,-0.694 0.273,-0.691C0.286,-0.691 0.298,-0.684 0.309,-0.668C0.322,-0.652 0.329,-0.639 0.332,-0.629C0.337,-0.618 0.34,-0.605 0.34,-0.59C0.337,-0.577 0.331,-0.566 0.32,-0.559C0.313,-0.553 0.299,-0.564 0.281,-0.59C0.263,-0.618 0.25,-0.634 0.242,-0.637Z" style="fill-rule:nonzero;"/>
        </g>
    </g>
    <g transform="matrix(1.08967,0,0,1,-44.8343,3.18111)">
        <path d="M319.239,110.74L680.761,110.74" style="fill:none;"/>
        <rect x="317.862" y="109.24" width="364.275" height="3"/>
    </g>
</svg>
