<?xml version="1.0" encoding="UTF-8" standalone="no"?>
<!DOCTYPE svg PUBLIC "-//W3C//DTD SVG 1.1//EN" "http://www.w3.org/Graphics/SVG/1.1/DTD/svg11.dtd">
<svg width="100%" height="100%" viewBox="0 0 1000 120" version="1.1" xmlns="http://www.w3.org/2000/svg" xmlns:xlink="http://www.w3.org/1999/xlink" xml:space="preserve" xmlns:serif="http://www.serif.com/" style="fill-rule:evenodd;clip-rule:evenodd;stroke-linejoin:round;stroke-miterlimit:2;">
    <g transform="matrix(1,0,0,1,-60.8879,-36.1712)">
        <g transform="matrix(80,0,0,80,360.888,124.609)">
            <path d="M0.285,0.074C0.27,0.077 0.262,0.078 0.262,0.078C0.267,0.073 0.283,0.059 0.309,0.035C0.335,0.012 0.361,-0.017 0.387,-0.051C0.421,-0.098 0.449,-0.148 0.473,-0.203C0.395,-0.193 0.314,-0.177 0.23,-0.156C0.176,-0.143 0.148,-0.135 0.148,-0.133C0.141,-0.13 0.132,-0.135 0.121,-0.148C0.118,-0.154 0.116,-0.16 0.113,-0.168C0.111,-0.176 0.108,-0.181 0.105,-0.184L0.105,-0.191C0.105,-0.197 0.109,-0.198 0.117,-0.195C0.19,-0.206 0.299,-0.221 0.445,-0.242C0.464,-0.245 0.478,-0.246 0.488,-0.246C0.501,-0.283 0.513,-0.331 0.523,-0.391L0.523,-0.406C0.529,-0.466 0.529,-0.501 0.523,-0.512C0.516,-0.535 0.509,-0.548 0.504,-0.551C0.501,-0.559 0.501,-0.563 0.504,-0.563C0.507,-0.565 0.509,-0.566 0.512,-0.566C0.517,-0.569 0.521,-0.57 0.523,-0.57C0.531,-0.576 0.547,-0.568 0.57,-0.547C0.589,-0.531 0.599,-0.516 0.602,-0.5C0.602,-0.471 0.598,-0.44 0.59,-0.406C0.582,-0.354 0.57,-0.305 0.555,-0.258C0.648,-0.271 0.74,-0.285 0.828,-0.301C0.836,-0.306 0.85,-0.301 0.871,-0.285C0.889,-0.27 0.898,-0.253 0.898,-0.234C0.896,-0.214 0.889,-0.207 0.879,-0.215C0.871,-0.22 0.858,-0.225 0.84,-0.23C0.824,-0.233 0.789,-0.234 0.734,-0.234C0.672,-0.229 0.607,-0.223 0.539,-0.215C0.5,-0.121 0.451,-0.049 0.391,0C0.362,0.031 0.327,0.056 0.285,0.074ZM0.453,-0.738C0.453,-0.741 0.451,-0.745 0.445,-0.75C0.44,-0.755 0.436,-0.759 0.434,-0.762C0.423,-0.767 0.421,-0.771 0.426,-0.773C0.428,-0.779 0.438,-0.786 0.453,-0.797L0.461,-0.797C0.474,-0.802 0.492,-0.798 0.516,-0.785C0.539,-0.772 0.555,-0.762 0.563,-0.754C0.568,-0.738 0.568,-0.712 0.563,-0.676C0.591,-0.681 0.617,-0.684 0.641,-0.684C0.714,-0.691 0.754,-0.699 0.762,-0.707C0.77,-0.712 0.781,-0.707 0.797,-0.691C0.813,-0.676 0.827,-0.655 0.84,-0.629C0.853,-0.605 0.857,-0.582 0.852,-0.559C0.844,-0.538 0.833,-0.531 0.82,-0.539C0.807,-0.547 0.793,-0.559 0.777,-0.574C0.759,-0.59 0.742,-0.598 0.727,-0.598C0.708,-0.598 0.691,-0.595 0.676,-0.59C0.663,-0.587 0.661,-0.59 0.672,-0.598C0.677,-0.6 0.685,-0.607 0.695,-0.617C0.703,-0.622 0.71,-0.628 0.715,-0.633C0.73,-0.648 0.737,-0.658 0.734,-0.66C0.734,-0.663 0.695,-0.66 0.617,-0.652C0.612,-0.652 0.603,-0.651 0.59,-0.648C0.579,-0.648 0.57,-0.647 0.563,-0.645C0.56,-0.621 0.555,-0.607 0.547,-0.602C0.536,-0.602 0.523,-0.607 0.508,-0.617C0.508,-0.62 0.507,-0.624 0.504,-0.629C0.501,-0.632 0.499,-0.634 0.496,-0.637C0.467,-0.634 0.441,-0.63 0.418,-0.625C0.376,-0.617 0.349,-0.609 0.336,-0.602C0.326,-0.596 0.316,-0.602 0.309,-0.617C0.306,-0.635 0.306,-0.645 0.309,-0.645C0.371,-0.655 0.43,-0.661 0.484,-0.664C0.479,-0.677 0.477,-0.689 0.477,-0.699C0.469,-0.717 0.461,-0.73 0.453,-0.738ZM0.719,0.055C0.714,0.062 0.708,0.066 0.703,0.066C0.693,0.066 0.684,0.056 0.676,0.035C0.671,0.022 0.663,0.007 0.652,-0.012C0.645,-0.033 0.638,-0.048 0.633,-0.059C0.633,-0.061 0.632,-0.064 0.629,-0.066C0.613,-0.092 0.6,-0.109 0.59,-0.117C0.579,-0.13 0.578,-0.137 0.586,-0.137C0.594,-0.139 0.608,-0.141 0.629,-0.141C0.65,-0.138 0.672,-0.118 0.695,-0.082C0.719,-0.051 0.732,-0.025 0.734,-0.004C0.74,0.009 0.734,0.029 0.719,0.055ZM0.191,-0.512C0.199,-0.522 0.208,-0.54 0.219,-0.566C0.219,-0.572 0.22,-0.578 0.223,-0.586C0.225,-0.596 0.227,-0.607 0.227,-0.617C0.227,-0.62 0.225,-0.624 0.223,-0.629C0.223,-0.634 0.221,-0.638 0.219,-0.641C0.216,-0.643 0.215,-0.645 0.215,-0.645C0.215,-0.647 0.217,-0.65 0.223,-0.652C0.228,-0.652 0.236,-0.651 0.246,-0.648C0.259,-0.646 0.268,-0.634 0.273,-0.613C0.281,-0.592 0.283,-0.57 0.277,-0.547C0.267,-0.51 0.255,-0.48 0.242,-0.457C0.227,-0.423 0.214,-0.414 0.203,-0.43C0.19,-0.445 0.184,-0.461 0.184,-0.477C0.184,-0.492 0.186,-0.504 0.191,-0.512ZM0.34,-0.316C0.329,-0.327 0.318,-0.337 0.305,-0.348C0.294,-0.355 0.288,-0.361 0.285,-0.363C0.28,-0.366 0.277,-0.368 0.277,-0.371C0.28,-0.374 0.284,-0.376 0.289,-0.379C0.302,-0.384 0.314,-0.388 0.324,-0.391C0.335,-0.393 0.352,-0.389 0.375,-0.379C0.372,-0.379 0.375,-0.378 0.383,-0.375C0.406,-0.362 0.419,-0.344 0.422,-0.32C0.424,-0.299 0.422,-0.285 0.414,-0.277C0.406,-0.27 0.398,-0.27 0.391,-0.277C0.385,-0.283 0.368,-0.296 0.34,-0.316ZM0.395,-0.449C0.392,-0.452 0.389,-0.456 0.387,-0.461C0.374,-0.484 0.363,-0.5 0.355,-0.508C0.35,-0.516 0.355,-0.521 0.371,-0.523L0.414,-0.523C0.427,-0.521 0.439,-0.507 0.449,-0.48C0.462,-0.457 0.465,-0.436 0.457,-0.418C0.449,-0.402 0.441,-0.396 0.434,-0.398C0.423,-0.401 0.41,-0.418 0.395,-0.449Z" style="fill-rule:nonzero;"/>
        </g>
        <g transform="matrix(80,0,0,80,440.888,124.609)">
            <path d="M0.18,-0.391C0.188,-0.393 0.198,-0.396 0.211,-0.398C0.266,-0.414 0.297,-0.422 0.305,-0.422C0.313,-0.43 0.322,-0.432 0.332,-0.43C0.335,-0.43 0.344,-0.424 0.359,-0.414C0.367,-0.411 0.372,-0.409 0.375,-0.406C0.396,-0.391 0.404,-0.367 0.398,-0.336C0.398,-0.302 0.395,-0.26 0.387,-0.211C0.384,-0.177 0.376,-0.138 0.363,-0.094C0.35,-0.068 0.336,-0.043 0.32,-0.02C0.31,-0.007 0.293,0.004 0.27,0.012C0.267,0.012 0.263,0.013 0.258,0.016C0.253,0.016 0.249,0.016 0.246,0.016C0.243,0.016 0.24,0.014 0.234,0.012C0.227,0.004 0.225,-0.004 0.23,-0.012C0.236,-0.027 0.234,-0.042 0.227,-0.055C0.224,-0.068 0.22,-0.076 0.215,-0.078C0.215,-0.083 0.223,-0.085 0.238,-0.082C0.259,-0.079 0.273,-0.078 0.281,-0.078C0.289,-0.081 0.299,-0.095 0.313,-0.121C0.326,-0.15 0.333,-0.188 0.336,-0.234L0.336,-0.254C0.341,-0.288 0.342,-0.316 0.34,-0.34L0.34,-0.352C0.337,-0.37 0.333,-0.379 0.328,-0.379C0.326,-0.384 0.319,-0.384 0.309,-0.379C0.298,-0.379 0.276,-0.375 0.242,-0.367C0.208,-0.359 0.189,-0.352 0.184,-0.344C0.176,-0.336 0.171,-0.324 0.168,-0.309C0.163,-0.296 0.156,-0.29 0.148,-0.293C0.146,-0.293 0.141,-0.296 0.133,-0.301C0.133,-0.303 0.132,-0.306 0.129,-0.309C0.124,-0.319 0.121,-0.328 0.121,-0.336C0.126,-0.344 0.13,-0.355 0.133,-0.371C0.138,-0.392 0.142,-0.427 0.145,-0.477C0.147,-0.529 0.146,-0.56 0.141,-0.57C0.133,-0.578 0.132,-0.585 0.137,-0.59C0.139,-0.595 0.146,-0.598 0.156,-0.598C0.161,-0.603 0.171,-0.595 0.184,-0.574C0.194,-0.559 0.199,-0.546 0.199,-0.535C0.197,-0.53 0.195,-0.521 0.195,-0.508C0.193,-0.497 0.191,-0.488 0.191,-0.48C0.191,-0.452 0.188,-0.422 0.18,-0.391ZM0.57,-0.746C0.578,-0.749 0.589,-0.743 0.602,-0.73C0.604,-0.728 0.605,-0.727 0.605,-0.727C0.621,-0.708 0.626,-0.693 0.621,-0.68L0.621,-0.668C0.629,-0.668 0.639,-0.661 0.652,-0.648C0.681,-0.63 0.712,-0.603 0.746,-0.566C0.783,-0.533 0.82,-0.505 0.859,-0.484C0.875,-0.474 0.895,-0.464 0.918,-0.453C0.934,-0.445 0.944,-0.44 0.949,-0.438C0.962,-0.435 0.969,-0.431 0.969,-0.426C0.969,-0.426 0.965,-0.424 0.957,-0.422L0.902,-0.422C0.887,-0.419 0.871,-0.414 0.855,-0.406C0.84,-0.398 0.831,-0.393 0.828,-0.391C0.823,-0.391 0.816,-0.392 0.809,-0.395C0.803,-0.397 0.785,-0.415 0.754,-0.449C0.72,-0.488 0.693,-0.525 0.672,-0.559C0.646,-0.598 0.625,-0.621 0.609,-0.629L0.605,-0.637C0.603,-0.629 0.596,-0.616 0.586,-0.598C0.581,-0.587 0.577,-0.579 0.574,-0.574C0.546,-0.52 0.52,-0.477 0.496,-0.445C0.47,-0.414 0.445,-0.393 0.422,-0.383C0.411,-0.378 0.405,-0.375 0.402,-0.375C0.4,-0.378 0.402,-0.383 0.41,-0.391C0.426,-0.409 0.443,-0.431 0.461,-0.457C0.464,-0.462 0.467,-0.47 0.473,-0.48C0.483,-0.491 0.5,-0.521 0.523,-0.57C0.547,-0.62 0.56,-0.656 0.563,-0.68C0.563,-0.706 0.56,-0.723 0.555,-0.73C0.547,-0.741 0.546,-0.746 0.551,-0.746L0.57,-0.746ZM0.523,-0.105C0.547,-0.111 0.57,-0.115 0.594,-0.117C0.594,-0.117 0.595,-0.12 0.598,-0.125C0.598,-0.135 0.6,-0.142 0.605,-0.145C0.611,-0.147 0.629,-0.172 0.66,-0.219C0.691,-0.26 0.707,-0.289 0.707,-0.305C0.707,-0.31 0.706,-0.316 0.703,-0.324L0.703,-0.336C0.698,-0.346 0.698,-0.352 0.703,-0.352C0.708,-0.352 0.717,-0.349 0.73,-0.344C0.743,-0.344 0.755,-0.331 0.766,-0.305C0.773,-0.281 0.776,-0.266 0.773,-0.258C0.768,-0.247 0.75,-0.228 0.719,-0.199C0.706,-0.189 0.689,-0.174 0.668,-0.156C0.655,-0.146 0.646,-0.138 0.641,-0.133C0.633,-0.13 0.628,-0.126 0.625,-0.121C0.646,-0.129 0.664,-0.133 0.68,-0.133C0.727,-0.146 0.753,-0.154 0.758,-0.156C0.763,-0.164 0.775,-0.156 0.793,-0.133C0.814,-0.112 0.82,-0.094 0.813,-0.078C0.805,-0.068 0.797,-0.064 0.789,-0.066C0.781,-0.074 0.764,-0.082 0.738,-0.09C0.71,-0.098 0.676,-0.098 0.637,-0.09C0.598,-0.082 0.56,-0.074 0.523,-0.066C0.487,-0.059 0.465,-0.051 0.457,-0.043C0.447,-0.038 0.438,-0.043 0.43,-0.059C0.422,-0.077 0.422,-0.086 0.43,-0.086C0.432,-0.089 0.447,-0.091 0.473,-0.094C0.493,-0.099 0.51,-0.103 0.523,-0.105ZM0.313,-0.727C0.323,-0.729 0.335,-0.723 0.348,-0.707C0.353,-0.704 0.357,-0.702 0.359,-0.699C0.383,-0.678 0.392,-0.664 0.387,-0.656C0.382,-0.648 0.368,-0.609 0.348,-0.539C0.324,-0.474 0.307,-0.439 0.297,-0.434C0.284,-0.434 0.276,-0.438 0.273,-0.445C0.268,-0.458 0.266,-0.47 0.266,-0.48C0.263,-0.493 0.266,-0.504 0.273,-0.512C0.281,-0.522 0.29,-0.551 0.301,-0.598C0.309,-0.645 0.31,-0.669 0.305,-0.672C0.25,-0.651 0.217,-0.637 0.207,-0.629C0.197,-0.618 0.189,-0.613 0.184,-0.613C0.181,-0.613 0.177,-0.617 0.172,-0.625C0.177,-0.617 0.176,-0.62 0.168,-0.633C0.16,-0.643 0.155,-0.654 0.152,-0.664C0.15,-0.674 0.152,-0.68 0.16,-0.68C0.168,-0.68 0.18,-0.681 0.195,-0.684C0.211,-0.691 0.234,-0.699 0.266,-0.707C0.294,-0.715 0.31,-0.721 0.313,-0.727ZM0.012,-0.211C0.009,-0.216 0.008,-0.22 0.008,-0.223C0.008,-0.225 0.009,-0.227 0.012,-0.227L0.063,-0.227C0.073,-0.229 0.092,-0.233 0.121,-0.238C0.132,-0.241 0.139,-0.243 0.145,-0.246C0.176,-0.259 0.201,-0.267 0.219,-0.27C0.234,-0.277 0.246,-0.281 0.254,-0.281C0.257,-0.286 0.266,-0.283 0.281,-0.27C0.294,-0.262 0.302,-0.254 0.305,-0.246C0.305,-0.238 0.301,-0.233 0.293,-0.23C0.285,-0.228 0.275,-0.227 0.262,-0.227C0.246,-0.229 0.225,-0.227 0.199,-0.219C0.191,-0.216 0.18,-0.212 0.164,-0.207C0.141,-0.199 0.122,-0.193 0.109,-0.188C0.076,-0.177 0.055,-0.169 0.047,-0.164C0.042,-0.159 0.035,-0.164 0.027,-0.18C0.02,-0.19 0.014,-0.201 0.012,-0.211ZM0.559,-0.441C0.574,-0.447 0.592,-0.453 0.613,-0.461C0.621,-0.466 0.629,-0.47 0.637,-0.473C0.645,-0.478 0.648,-0.48 0.648,-0.48C0.654,-0.486 0.664,-0.483 0.68,-0.473C0.698,-0.465 0.703,-0.457 0.695,-0.449C0.693,-0.441 0.682,-0.434 0.664,-0.426C0.646,-0.415 0.622,-0.404 0.594,-0.391C0.589,-0.388 0.581,-0.384 0.57,-0.379C0.56,-0.374 0.552,-0.371 0.547,-0.371C0.542,-0.371 0.535,-0.376 0.527,-0.387C0.525,-0.395 0.521,-0.405 0.516,-0.418C0.513,-0.431 0.514,-0.436 0.52,-0.434C0.522,-0.434 0.529,-0.435 0.539,-0.438C0.547,-0.44 0.553,-0.441 0.559,-0.441ZM0.516,-0.262C0.534,-0.243 0.544,-0.228 0.547,-0.215C0.552,-0.207 0.552,-0.193 0.547,-0.172L0.547,-0.168C0.539,-0.147 0.53,-0.141 0.52,-0.148C0.509,-0.161 0.497,-0.181 0.484,-0.207C0.477,-0.236 0.47,-0.254 0.465,-0.262C0.465,-0.27 0.466,-0.277 0.469,-0.285C0.469,-0.298 0.473,-0.302 0.48,-0.297C0.486,-0.297 0.497,-0.285 0.516,-0.262ZM0.602,-0.246C0.594,-0.259 0.587,-0.277 0.582,-0.301L0.582,-0.305C0.579,-0.323 0.576,-0.336 0.57,-0.344C0.568,-0.352 0.569,-0.355 0.574,-0.355C0.577,-0.358 0.583,-0.358 0.594,-0.355C0.586,-0.358 0.587,-0.357 0.598,-0.352C0.611,-0.346 0.622,-0.332 0.633,-0.309C0.648,-0.288 0.654,-0.271 0.648,-0.258C0.646,-0.242 0.639,-0.23 0.629,-0.223C0.616,-0.22 0.607,-0.228 0.602,-0.246Z" style="fill-rule:nonzero;"/>
        </g>
        <g transform="matrix(80,0,0,80,520.888,124.609)">
            <path d="M0.598,-0.188C0.613,-0.18 0.616,-0.171 0.605,-0.16C0.582,-0.147 0.555,-0.137 0.523,-0.129C0.521,-0.092 0.514,-0.056 0.504,-0.02C0.514,-0.022 0.53,-0.025 0.551,-0.027C0.582,-0.033 0.604,-0.036 0.617,-0.039C0.62,-0.047 0.632,-0.039 0.652,-0.016C0.673,0.003 0.68,0.017 0.672,0.027C0.664,0.043 0.658,0.047 0.652,0.039C0.65,0.036 0.643,0.033 0.633,0.027C0.628,0.025 0.624,0.022 0.621,0.02C0.618,0.02 0.616,0.018 0.613,0.016C0.598,0.01 0.573,0.009 0.539,0.012C0.484,0.017 0.436,0.022 0.395,0.027C0.387,0.03 0.375,0.033 0.359,0.035C0.331,0.043 0.316,0.047 0.316,0.047C0.314,0.047 0.311,0.047 0.309,0.047C0.306,0.047 0.303,0.046 0.301,0.043C0.301,0.04 0.299,0.038 0.297,0.035C0.294,0.027 0.292,0.022 0.289,0.02C0.289,0.009 0.292,0.004 0.297,0.004C0.315,0.001 0.345,-0.001 0.387,-0.004C0.418,-0.007 0.443,-0.009 0.461,-0.012C0.456,-0.027 0.453,-0.039 0.453,-0.047C0.456,-0.068 0.457,-0.089 0.457,-0.109C0.439,-0.107 0.419,-0.103 0.398,-0.098C0.396,-0.098 0.393,-0.099 0.391,-0.102C0.391,-0.102 0.389,-0.103 0.387,-0.105C0.384,-0.113 0.38,-0.124 0.375,-0.137C0.375,-0.15 0.378,-0.156 0.383,-0.156C0.391,-0.159 0.404,-0.161 0.422,-0.164C0.438,-0.167 0.449,-0.168 0.457,-0.168C0.457,-0.204 0.452,-0.225 0.441,-0.23C0.434,-0.238 0.432,-0.249 0.438,-0.262C0.409,-0.251 0.383,-0.238 0.359,-0.223C0.346,-0.215 0.336,-0.22 0.328,-0.238C0.323,-0.246 0.319,-0.258 0.316,-0.273C0.314,-0.276 0.313,-0.279 0.313,-0.281C0.313,-0.297 0.314,-0.303 0.316,-0.301C0.324,-0.301 0.333,-0.302 0.344,-0.305C0.354,-0.305 0.371,-0.318 0.395,-0.344C0.415,-0.367 0.426,-0.387 0.426,-0.402C0.423,-0.405 0.423,-0.406 0.426,-0.406L0.398,-0.406C0.388,-0.404 0.379,-0.402 0.371,-0.402C0.368,-0.402 0.365,-0.408 0.359,-0.418L0.359,-0.434C0.357,-0.441 0.355,-0.447 0.355,-0.449C0.355,-0.462 0.359,-0.467 0.367,-0.465C0.378,-0.465 0.41,-0.469 0.465,-0.477C0.52,-0.484 0.549,-0.491 0.555,-0.496C0.56,-0.501 0.57,-0.497 0.586,-0.484C0.583,-0.487 0.585,-0.486 0.59,-0.48C0.608,-0.467 0.612,-0.457 0.602,-0.449C0.596,-0.444 0.583,-0.439 0.563,-0.434C0.555,-0.431 0.548,-0.43 0.543,-0.43C0.509,-0.422 0.474,-0.415 0.438,-0.41C0.438,-0.41 0.44,-0.409 0.445,-0.406C0.464,-0.401 0.474,-0.396 0.477,-0.391C0.487,-0.38 0.491,-0.372 0.488,-0.367C0.488,-0.365 0.475,-0.353 0.449,-0.332C0.434,-0.322 0.422,-0.313 0.414,-0.305C0.443,-0.31 0.474,-0.316 0.508,-0.324C0.521,-0.327 0.53,-0.328 0.535,-0.328C0.551,-0.333 0.561,-0.333 0.566,-0.328C0.566,-0.328 0.568,-0.327 0.57,-0.324C0.576,-0.322 0.578,-0.318 0.578,-0.313C0.583,-0.31 0.578,-0.306 0.563,-0.301C0.549,-0.296 0.53,-0.289 0.504,-0.281C0.488,-0.276 0.477,-0.272 0.469,-0.27C0.492,-0.267 0.508,-0.26 0.516,-0.25C0.521,-0.242 0.523,-0.224 0.523,-0.195L0.523,-0.184C0.531,-0.186 0.543,-0.19 0.559,-0.195C0.564,-0.198 0.568,-0.199 0.57,-0.199C0.576,-0.204 0.585,-0.201 0.598,-0.188ZM0.484,-0.563C0.469,-0.563 0.458,-0.574 0.453,-0.598C0.44,-0.595 0.421,-0.592 0.395,-0.59C0.368,-0.585 0.349,-0.581 0.336,-0.578C0.318,-0.576 0.305,-0.572 0.297,-0.566C0.289,-0.569 0.285,-0.574 0.285,-0.582C0.285,-0.585 0.284,-0.589 0.281,-0.594C0.281,-0.599 0.28,-0.603 0.277,-0.605C0.275,-0.616 0.276,-0.621 0.281,-0.621C0.339,-0.629 0.345,-0.63 0.301,-0.625C0.345,-0.63 0.395,-0.635 0.449,-0.641C0.452,-0.661 0.449,-0.682 0.441,-0.703C0.434,-0.719 0.426,-0.729 0.418,-0.734C0.41,-0.742 0.41,-0.749 0.418,-0.754C0.426,-0.759 0.436,-0.763 0.449,-0.766C0.452,-0.768 0.453,-0.77 0.453,-0.77C0.466,-0.77 0.482,-0.76 0.5,-0.742C0.526,-0.719 0.539,-0.702 0.539,-0.691L0.539,-0.648C0.56,-0.651 0.591,-0.655 0.633,-0.66C0.677,-0.665 0.71,-0.671 0.73,-0.676C0.764,-0.681 0.785,-0.688 0.793,-0.695C0.801,-0.703 0.816,-0.698 0.84,-0.68C0.866,-0.661 0.883,-0.635 0.891,-0.602C0.891,-0.599 0.892,-0.595 0.895,-0.59L0.895,-0.574C0.895,-0.559 0.891,-0.549 0.883,-0.547C0.87,-0.542 0.855,-0.547 0.84,-0.563C0.822,-0.581 0.803,-0.586 0.785,-0.578C0.78,-0.576 0.773,-0.573 0.766,-0.57C0.76,-0.568 0.754,-0.565 0.746,-0.563C0.736,-0.563 0.734,-0.565 0.742,-0.57C0.747,-0.578 0.758,-0.59 0.773,-0.605C0.789,-0.624 0.796,-0.634 0.793,-0.637C0.79,-0.642 0.767,-0.642 0.723,-0.637C0.655,-0.626 0.59,-0.617 0.527,-0.609C0.514,-0.578 0.5,-0.563 0.484,-0.563ZM0.176,-0.652L0.176,-0.656C0.173,-0.659 0.172,-0.66 0.172,-0.66C0.172,-0.663 0.174,-0.664 0.18,-0.664C0.185,-0.669 0.191,-0.672 0.199,-0.672C0.207,-0.672 0.217,-0.663 0.23,-0.645C0.243,-0.629 0.25,-0.608 0.25,-0.582C0.25,-0.559 0.246,-0.526 0.238,-0.484C0.23,-0.445 0.223,-0.423 0.215,-0.418C0.207,-0.418 0.198,-0.424 0.188,-0.438C0.188,-0.44 0.186,-0.443 0.184,-0.445C0.178,-0.451 0.174,-0.458 0.172,-0.469C0.172,-0.469 0.173,-0.471 0.176,-0.477C0.181,-0.487 0.184,-0.5 0.184,-0.516C0.189,-0.531 0.191,-0.551 0.191,-0.574C0.191,-0.598 0.19,-0.615 0.188,-0.625C0.185,-0.635 0.181,-0.645 0.176,-0.652ZM0.586,-0.34C0.563,-0.371 0.549,-0.388 0.547,-0.391C0.544,-0.396 0.548,-0.4 0.559,-0.402C0.572,-0.408 0.583,-0.409 0.594,-0.406C0.604,-0.406 0.617,-0.397 0.633,-0.379C0.646,-0.358 0.654,-0.34 0.656,-0.324C0.656,-0.306 0.652,-0.293 0.645,-0.285C0.637,-0.275 0.629,-0.273 0.621,-0.281C0.618,-0.289 0.607,-0.309 0.586,-0.34Z" style="fill-rule:nonzero;"/>
        </g>
        <g transform="matrix(80,0,0,80,600.888,124.609)">
            <path d="M0.676,-0.516C0.684,-0.518 0.695,-0.51 0.711,-0.492C0.714,-0.49 0.716,-0.487 0.719,-0.484C0.74,-0.461 0.75,-0.443 0.75,-0.43L0.75,-0.395C0.753,-0.348 0.755,-0.303 0.758,-0.262C0.763,-0.163 0.767,-0.098 0.77,-0.066L0.77,-0.055C0.77,-0.029 0.763,0.003 0.75,0.039C0.734,0.081 0.717,0.102 0.699,0.102C0.678,0.099 0.667,0.085 0.664,0.059C0.664,0.027 0.66,0.008 0.652,0C0.645,-0.016 0.637,-0.027 0.629,-0.035C0.624,-0.04 0.621,-0.044 0.621,-0.047C0.621,-0.049 0.625,-0.049 0.633,-0.047C0.646,-0.044 0.66,-0.043 0.676,-0.043C0.689,-0.046 0.695,-0.051 0.695,-0.059C0.695,-0.066 0.694,-0.107 0.691,-0.18C0.689,-0.253 0.685,-0.316 0.68,-0.371C0.674,-0.428 0.669,-0.456 0.664,-0.453C0.656,-0.461 0.646,-0.462 0.633,-0.457C0.628,-0.457 0.617,-0.454 0.602,-0.449C0.586,-0.447 0.572,-0.444 0.559,-0.441C0.525,-0.434 0.504,-0.427 0.496,-0.422C0.488,-0.417 0.482,-0.414 0.477,-0.414C0.474,-0.414 0.469,-0.423 0.461,-0.441C0.453,-0.462 0.452,-0.473 0.457,-0.473C0.462,-0.473 0.499,-0.478 0.566,-0.488C0.632,-0.501 0.668,-0.51 0.676,-0.516ZM0.156,-0.531C0.151,-0.531 0.148,-0.533 0.148,-0.535C0.148,-0.54 0.152,-0.544 0.16,-0.547C0.176,-0.563 0.208,-0.595 0.258,-0.645C0.307,-0.697 0.332,-0.728 0.332,-0.738C0.332,-0.751 0.331,-0.762 0.328,-0.77C0.328,-0.78 0.331,-0.785 0.336,-0.785L0.359,-0.785C0.372,-0.783 0.383,-0.771 0.391,-0.75C0.398,-0.729 0.402,-0.715 0.402,-0.707C0.397,-0.697 0.385,-0.684 0.367,-0.668C0.367,-0.668 0.366,-0.667 0.363,-0.664C0.361,-0.664 0.359,-0.663 0.359,-0.66C0.417,-0.678 0.448,-0.691 0.453,-0.699C0.458,-0.707 0.469,-0.704 0.484,-0.691C0.505,-0.678 0.513,-0.668 0.508,-0.66C0.508,-0.652 0.503,-0.648 0.492,-0.648C0.484,-0.648 0.465,-0.645 0.434,-0.637C0.418,-0.634 0.404,-0.63 0.391,-0.625C0.391,-0.625 0.392,-0.624 0.395,-0.621C0.397,-0.621 0.398,-0.62 0.398,-0.617C0.404,-0.609 0.41,-0.594 0.418,-0.57C0.428,-0.547 0.43,-0.53 0.422,-0.52C0.414,-0.512 0.405,-0.513 0.395,-0.523C0.384,-0.531 0.379,-0.539 0.379,-0.547C0.379,-0.552 0.378,-0.56 0.375,-0.57C0.378,-0.565 0.376,-0.568 0.371,-0.578C0.366,-0.591 0.359,-0.604 0.352,-0.617L0.336,-0.617C0.328,-0.617 0.323,-0.621 0.32,-0.629C0.305,-0.621 0.289,-0.611 0.273,-0.598C0.237,-0.572 0.211,-0.555 0.195,-0.547C0.18,-0.536 0.167,-0.531 0.156,-0.531ZM0.578,-0.656C0.552,-0.643 0.533,-0.637 0.52,-0.637C0.509,-0.637 0.512,-0.643 0.527,-0.656C0.546,-0.672 0.563,-0.688 0.578,-0.703C0.594,-0.721 0.599,-0.736 0.594,-0.746C0.594,-0.749 0.592,-0.753 0.59,-0.758C0.59,-0.763 0.589,-0.767 0.586,-0.77C0.583,-0.772 0.585,-0.773 0.59,-0.773L0.594,-0.773C0.602,-0.776 0.609,-0.777 0.617,-0.777C0.63,-0.78 0.642,-0.77 0.652,-0.746C0.665,-0.728 0.669,-0.715 0.664,-0.707C0.664,-0.707 0.663,-0.706 0.66,-0.703C0.66,-0.701 0.656,-0.697 0.648,-0.691C0.672,-0.697 0.694,-0.701 0.715,-0.703C0.738,-0.708 0.753,-0.714 0.758,-0.719C0.76,-0.724 0.771,-0.721 0.789,-0.711C0.805,-0.701 0.813,-0.691 0.813,-0.684C0.805,-0.671 0.797,-0.665 0.789,-0.668C0.781,-0.671 0.767,-0.672 0.746,-0.672C0.72,-0.672 0.693,-0.668 0.664,-0.66C0.674,-0.655 0.684,-0.647 0.691,-0.637C0.694,-0.634 0.695,-0.633 0.695,-0.633C0.695,-0.625 0.688,-0.609 0.672,-0.586C0.656,-0.565 0.635,-0.547 0.609,-0.531C0.589,-0.516 0.578,-0.516 0.578,-0.531C0.578,-0.547 0.581,-0.557 0.586,-0.563C0.591,-0.568 0.602,-0.578 0.617,-0.594C0.633,-0.615 0.641,-0.629 0.641,-0.637L0.641,-0.656C0.617,-0.648 0.605,-0.652 0.605,-0.668C0.598,-0.665 0.589,-0.661 0.578,-0.656ZM0.246,0L0.246,-0.012C0.246,-0.02 0.247,-0.023 0.25,-0.023C0.25,-0.031 0.254,-0.069 0.262,-0.137C0.262,-0.16 0.263,-0.194 0.266,-0.238L0.266,-0.305C0.266,-0.344 0.264,-0.367 0.262,-0.375C0.262,-0.378 0.26,-0.38 0.258,-0.383C0.258,-0.385 0.257,-0.388 0.254,-0.391L0.254,-0.395C0.257,-0.397 0.262,-0.398 0.27,-0.398C0.275,-0.401 0.283,-0.398 0.293,-0.391C0.303,-0.383 0.31,-0.375 0.313,-0.367C0.315,-0.359 0.316,-0.332 0.316,-0.285C0.316,-0.262 0.315,-0.217 0.313,-0.152C0.31,-0.134 0.309,-0.121 0.309,-0.113C0.306,-0.043 0.305,-0.001 0.305,0.012C0.305,0.033 0.299,0.044 0.289,0.047C0.281,0.052 0.272,0.048 0.262,0.035C0.254,0.02 0.249,0.008 0.246,0ZM0.52,-0.332C0.48,-0.324 0.458,-0.318 0.453,-0.313C0.445,-0.307 0.438,-0.313 0.43,-0.328C0.422,-0.341 0.419,-0.348 0.422,-0.348C0.43,-0.348 0.448,-0.352 0.477,-0.359C0.508,-0.367 0.526,-0.375 0.531,-0.383C0.536,-0.391 0.547,-0.385 0.563,-0.367C0.565,-0.365 0.569,-0.361 0.574,-0.355C0.585,-0.35 0.59,-0.344 0.59,-0.336C0.59,-0.328 0.591,-0.29 0.594,-0.223C0.599,-0.152 0.598,-0.105 0.59,-0.082C0.585,-0.069 0.577,-0.053 0.566,-0.035C0.564,-0.033 0.563,-0.031 0.563,-0.031C0.555,-0.023 0.546,-0.03 0.535,-0.051C0.527,-0.069 0.526,-0.083 0.531,-0.094C0.536,-0.102 0.539,-0.117 0.539,-0.141C0.542,-0.151 0.542,-0.172 0.539,-0.203L0.539,-0.254C0.534,-0.303 0.527,-0.329 0.52,-0.332ZM0.426,-0.297L0.426,-0.285C0.428,-0.272 0.43,-0.259 0.43,-0.246C0.453,-0.254 0.467,-0.26 0.473,-0.266C0.473,-0.271 0.48,-0.27 0.496,-0.262C0.509,-0.251 0.513,-0.243 0.508,-0.238C0.503,-0.23 0.495,-0.227 0.484,-0.227C0.471,-0.224 0.461,-0.22 0.453,-0.215C0.443,-0.212 0.435,-0.211 0.43,-0.211L0.43,-0.141C0.471,-0.154 0.493,-0.161 0.496,-0.164C0.496,-0.172 0.504,-0.169 0.52,-0.156C0.52,-0.154 0.521,-0.152 0.523,-0.152C0.531,-0.142 0.533,-0.135 0.527,-0.133C0.525,-0.125 0.518,-0.122 0.508,-0.125L0.48,-0.125C0.478,-0.125 0.474,-0.124 0.469,-0.121C0.458,-0.118 0.449,-0.116 0.441,-0.113C0.439,-0.113 0.434,-0.112 0.426,-0.109C0.431,-0.112 0.43,-0.111 0.422,-0.105C0.419,-0.098 0.415,-0.091 0.41,-0.086C0.397,-0.078 0.388,-0.085 0.383,-0.105C0.375,-0.129 0.374,-0.143 0.379,-0.148C0.384,-0.154 0.387,-0.176 0.387,-0.215C0.389,-0.254 0.387,-0.279 0.379,-0.289C0.374,-0.305 0.371,-0.313 0.371,-0.313C0.368,-0.318 0.371,-0.322 0.379,-0.324L0.383,-0.324C0.388,-0.327 0.392,-0.328 0.395,-0.328C0.4,-0.328 0.406,-0.324 0.414,-0.316C0.417,-0.314 0.419,-0.311 0.422,-0.309C0.424,-0.303 0.426,-0.299 0.426,-0.297ZM0.363,-0.406C0.358,-0.417 0.349,-0.432 0.336,-0.453C0.333,-0.458 0.331,-0.462 0.328,-0.465C0.313,-0.483 0.303,-0.496 0.301,-0.504C0.298,-0.509 0.298,-0.513 0.301,-0.516L0.324,-0.516C0.34,-0.518 0.352,-0.516 0.359,-0.508C0.37,-0.505 0.38,-0.497 0.391,-0.484C0.404,-0.474 0.41,-0.462 0.41,-0.449C0.413,-0.441 0.411,-0.43 0.406,-0.414C0.411,-0.427 0.411,-0.426 0.406,-0.41C0.401,-0.4 0.396,-0.392 0.391,-0.387C0.383,-0.387 0.374,-0.393 0.363,-0.406Z" style="fill-rule:nonzero;"/>
        </g>
        <g transform="matrix(80,0,0,80,680.888,124.609)">
            <path d="M0.137,-0.324C0.124,-0.322 0.117,-0.32 0.117,-0.32C0.117,-0.326 0.118,-0.329 0.121,-0.332C0.126,-0.337 0.141,-0.352 0.164,-0.375C0.188,-0.401 0.207,-0.423 0.223,-0.441C0.275,-0.504 0.319,-0.565 0.355,-0.625C0.392,-0.688 0.411,-0.724 0.414,-0.734C0.419,-0.747 0.419,-0.759 0.414,-0.77C0.409,-0.78 0.41,-0.785 0.418,-0.785C0.423,-0.785 0.431,-0.784 0.441,-0.781C0.454,-0.776 0.462,-0.767 0.465,-0.754C0.473,-0.743 0.477,-0.732 0.477,-0.719C0.492,-0.719 0.508,-0.71 0.523,-0.691C0.544,-0.671 0.574,-0.645 0.613,-0.613C0.652,-0.582 0.706,-0.548 0.773,-0.512C0.844,-0.478 0.893,-0.454 0.922,-0.441C0.94,-0.439 0.949,-0.435 0.949,-0.43C0.949,-0.43 0.947,-0.428 0.941,-0.426C0.934,-0.426 0.923,-0.424 0.91,-0.422L0.887,-0.422C0.868,-0.419 0.848,-0.413 0.824,-0.402C0.798,-0.395 0.784,-0.387 0.781,-0.379C0.776,-0.376 0.771,-0.376 0.766,-0.379C0.758,-0.382 0.73,-0.402 0.684,-0.441C0.647,-0.467 0.609,-0.503 0.57,-0.547C0.542,-0.583 0.52,-0.615 0.504,-0.641C0.499,-0.643 0.493,-0.65 0.488,-0.66C0.475,-0.673 0.465,-0.681 0.457,-0.684C0.449,-0.673 0.436,-0.654 0.418,-0.625C0.41,-0.612 0.404,-0.603 0.398,-0.598C0.352,-0.53 0.301,-0.469 0.246,-0.414C0.191,-0.365 0.155,-0.335 0.137,-0.324ZM0.543,0.039C0.54,0.018 0.539,-0.026 0.539,-0.094L0.539,-0.309C0.539,-0.379 0.535,-0.421 0.527,-0.434C0.52,-0.449 0.514,-0.458 0.512,-0.461C0.507,-0.466 0.505,-0.469 0.508,-0.469C0.505,-0.469 0.507,-0.47 0.512,-0.473L0.52,-0.473C0.525,-0.475 0.53,-0.477 0.535,-0.477C0.546,-0.482 0.559,-0.477 0.574,-0.461C0.592,-0.443 0.602,-0.427 0.602,-0.414C0.602,-0.401 0.6,-0.371 0.598,-0.324C0.595,-0.301 0.596,-0.249 0.602,-0.168L0.602,-0.133C0.607,-0.052 0.603,0.001 0.59,0.027C0.59,0.03 0.589,0.034 0.586,0.039C0.578,0.057 0.569,0.068 0.559,0.07C0.551,0.073 0.546,0.062 0.543,0.039ZM0.309,-0.434C0.314,-0.439 0.324,-0.439 0.34,-0.434C0.35,-0.431 0.361,-0.423 0.371,-0.41C0.379,-0.4 0.382,-0.357 0.379,-0.281C0.379,-0.206 0.37,-0.145 0.352,-0.098C0.336,-0.051 0.32,-0.021 0.305,-0.008C0.297,-0.003 0.29,-0.001 0.285,-0.004C0.283,-0.007 0.28,-0.016 0.277,-0.031C0.275,-0.057 0.277,-0.078 0.285,-0.094C0.285,-0.094 0.286,-0.095 0.289,-0.098C0.297,-0.105 0.305,-0.122 0.313,-0.148C0.32,-0.18 0.326,-0.225 0.328,-0.285C0.331,-0.35 0.328,-0.388 0.32,-0.398C0.313,-0.406 0.307,-0.414 0.305,-0.422C0.302,-0.427 0.301,-0.43 0.301,-0.43C0.303,-0.432 0.306,-0.434 0.309,-0.434Z" style="fill-rule:nonzero;"/>
        </g>
    </g>
    <g transform="matrix(1.07407,0,0,1,-37.037,3.18111)">
        <path d="M319.239,110.74L680.761,110.74" style="fill:none;"/>
        <rect x="317.842" y="109.24" width="364.315" height="3"/>
    </g>
</svg>
