<?xml version="1.0" encoding="UTF-8" standalone="no"?>
<!DOCTYPE svg PUBLIC "-//W3C//DTD SVG 1.1//EN" "http://www.w3.org/Graphics/SVG/1.1/DTD/svg11.dtd">
<svg width="100%" height="100%" viewBox="0 0 1000 120" version="1.1" xmlns="http://www.w3.org/2000/svg" xmlns:xlink="http://www.w3.org/1999/xlink" xml:space="preserve" xmlns:serif="http://www.serif.com/" style="fill-rule:evenodd;clip-rule:evenodd;stroke-linejoin:round;stroke-miterlimit:2;">
    <g transform="matrix(1,0,0,1,-60.8879,-36.1712)">
        <g transform="matrix(80,0,0,80,400.888,124.609)">
            <path d="M0.398,-0.461C0.419,-0.461 0.435,-0.454 0.445,-0.441C0.453,-0.434 0.504,-0.401 0.598,-0.344C0.689,-0.289 0.771,-0.251 0.844,-0.23C0.878,-0.223 0.915,-0.215 0.957,-0.207C0.97,-0.202 0.979,-0.199 0.984,-0.199C0.99,-0.199 0.992,-0.198 0.992,-0.195C0.992,-0.193 0.988,-0.191 0.98,-0.191C0.975,-0.189 0.971,-0.188 0.969,-0.188C0.943,-0.188 0.906,-0.18 0.859,-0.164C0.807,-0.151 0.777,-0.141 0.77,-0.133C0.762,-0.128 0.754,-0.125 0.746,-0.125C0.741,-0.125 0.738,-0.126 0.738,-0.129C0.725,-0.132 0.695,-0.148 0.648,-0.18C0.604,-0.206 0.553,-0.246 0.496,-0.301C0.447,-0.353 0.415,-0.384 0.402,-0.395C0.389,-0.41 0.375,-0.418 0.359,-0.418C0.214,-0.272 0.129,-0.191 0.105,-0.176C0.09,-0.163 0.074,-0.152 0.059,-0.145C0.051,-0.142 0.047,-0.142 0.047,-0.145L0.047,-0.148C0.049,-0.156 0.059,-0.169 0.074,-0.188C0.085,-0.195 0.115,-0.227 0.164,-0.281C0.19,-0.31 0.211,-0.333 0.227,-0.352C0.242,-0.37 0.264,-0.395 0.293,-0.426C0.329,-0.467 0.367,-0.508 0.406,-0.547C0.417,-0.56 0.428,-0.576 0.441,-0.594C0.457,-0.612 0.465,-0.622 0.465,-0.625C0.465,-0.63 0.467,-0.633 0.473,-0.633C0.475,-0.633 0.48,-0.629 0.488,-0.621C0.504,-0.613 0.512,-0.603 0.512,-0.59C0.514,-0.579 0.512,-0.57 0.504,-0.563C0.501,-0.557 0.466,-0.523 0.398,-0.461Z" style="fill-rule:nonzero;"/>
        </g>
        <g transform="matrix(80,0,0,80,480.888,124.609)">
            <path d="M0.586,0.035C0.583,0.038 0.579,0.043 0.574,0.051C0.564,0.072 0.552,0.083 0.539,0.086C0.518,0.081 0.505,0.059 0.5,0.02C0.495,-0.009 0.484,-0.03 0.469,-0.043C0.453,-0.059 0.441,-0.069 0.434,-0.074C0.428,-0.077 0.426,-0.079 0.426,-0.082L0.445,-0.082C0.464,-0.077 0.48,-0.074 0.496,-0.074C0.517,-0.072 0.529,-0.073 0.531,-0.078C0.534,-0.083 0.535,-0.099 0.535,-0.125L0.535,-0.344C0.449,-0.242 0.363,-0.163 0.277,-0.105C0.22,-0.072 0.186,-0.055 0.176,-0.055C0.171,-0.052 0.168,-0.052 0.168,-0.055C0.168,-0.057 0.171,-0.061 0.176,-0.066C0.303,-0.176 0.422,-0.301 0.531,-0.441L0.531,-0.5C0.461,-0.49 0.352,-0.466 0.203,-0.43C0.193,-0.43 0.186,-0.434 0.184,-0.441C0.181,-0.449 0.177,-0.461 0.172,-0.477L0.172,-0.484C0.172,-0.495 0.176,-0.499 0.184,-0.496C0.225,-0.504 0.286,-0.513 0.367,-0.523C0.44,-0.536 0.495,-0.546 0.531,-0.551C0.531,-0.652 0.527,-0.71 0.52,-0.723C0.512,-0.741 0.505,-0.751 0.5,-0.754C0.5,-0.759 0.504,-0.763 0.512,-0.766C0.52,-0.771 0.529,-0.773 0.539,-0.773C0.549,-0.773 0.564,-0.764 0.582,-0.746C0.603,-0.733 0.613,-0.717 0.613,-0.699C0.611,-0.694 0.609,-0.685 0.609,-0.672C0.607,-0.659 0.605,-0.648 0.605,-0.641L0.605,-0.563C0.65,-0.57 0.693,-0.579 0.734,-0.59C0.742,-0.595 0.757,-0.586 0.777,-0.563C0.793,-0.547 0.801,-0.534 0.801,-0.523L0.801,-0.516C0.793,-0.505 0.785,-0.503 0.777,-0.508C0.77,-0.516 0.754,-0.521 0.73,-0.523C0.723,-0.523 0.708,-0.522 0.688,-0.52C0.651,-0.517 0.624,-0.514 0.605,-0.512C0.611,-0.507 0.616,-0.5 0.621,-0.492C0.637,-0.479 0.638,-0.465 0.625,-0.449C0.617,-0.441 0.611,-0.434 0.605,-0.426C0.603,-0.379 0.603,-0.326 0.605,-0.266C0.605,-0.216 0.607,-0.145 0.609,-0.051C0.615,-0.027 0.607,0.001 0.586,0.035Z" style="fill-rule:nonzero;"/>
        </g>
        <g transform="matrix(80,0,0,80,560.888,124.609)">
            <path d="M0.641,-0.406C0.747,-0.435 0.806,-0.454 0.816,-0.465C0.832,-0.478 0.853,-0.47 0.879,-0.441C0.902,-0.421 0.913,-0.402 0.91,-0.387C0.91,-0.379 0.909,-0.374 0.906,-0.371C0.898,-0.353 0.884,-0.349 0.863,-0.359C0.842,-0.372 0.822,-0.38 0.801,-0.383C0.777,-0.385 0.74,-0.383 0.688,-0.375C0.635,-0.367 0.583,-0.355 0.531,-0.34C0.479,-0.324 0.438,-0.311 0.406,-0.301C0.396,-0.296 0.383,-0.289 0.367,-0.281C0.359,-0.279 0.355,-0.277 0.355,-0.277C0.348,-0.275 0.341,-0.279 0.336,-0.289C0.333,-0.294 0.329,-0.302 0.324,-0.313C0.322,-0.315 0.32,-0.318 0.32,-0.32C0.315,-0.328 0.318,-0.335 0.328,-0.34C0.331,-0.34 0.341,-0.342 0.359,-0.348C0.398,-0.355 0.434,-0.363 0.465,-0.371C0.449,-0.382 0.44,-0.395 0.438,-0.41L0.438,-0.453C0.438,-0.474 0.445,-0.492 0.461,-0.508C0.477,-0.526 0.486,-0.531 0.488,-0.523C0.493,-0.518 0.497,-0.504 0.5,-0.48C0.503,-0.457 0.504,-0.436 0.504,-0.418C0.504,-0.4 0.501,-0.385 0.496,-0.375L0.586,-0.395C0.583,-0.408 0.585,-0.415 0.59,-0.418C0.592,-0.428 0.599,-0.44 0.609,-0.453C0.62,-0.469 0.625,-0.486 0.625,-0.504C0.628,-0.522 0.626,-0.535 0.621,-0.543C0.616,-0.551 0.613,-0.561 0.613,-0.574C0.551,-0.559 0.505,-0.547 0.477,-0.539C0.471,-0.539 0.466,-0.538 0.461,-0.535C0.445,-0.53 0.434,-0.526 0.426,-0.523C0.421,-0.523 0.414,-0.53 0.406,-0.543C0.406,-0.546 0.404,-0.549 0.398,-0.555C0.396,-0.563 0.395,-0.568 0.395,-0.57C0.392,-0.578 0.395,-0.582 0.402,-0.582C0.405,-0.585 0.413,-0.586 0.426,-0.586C0.436,-0.589 0.444,-0.59 0.449,-0.59C0.457,-0.592 0.47,-0.596 0.488,-0.602C0.509,-0.604 0.526,-0.608 0.539,-0.613C0.536,-0.616 0.534,-0.621 0.531,-0.629C0.526,-0.634 0.522,-0.638 0.52,-0.641C0.52,-0.643 0.517,-0.647 0.512,-0.652C0.504,-0.668 0.497,-0.681 0.492,-0.691C0.479,-0.715 0.473,-0.73 0.473,-0.738C0.467,-0.746 0.475,-0.753 0.496,-0.758C0.517,-0.766 0.536,-0.763 0.555,-0.75C0.565,-0.742 0.578,-0.729 0.594,-0.711C0.583,-0.727 0.585,-0.724 0.598,-0.703C0.608,-0.682 0.609,-0.658 0.602,-0.629C0.604,-0.629 0.608,-0.63 0.613,-0.633C0.663,-0.646 0.691,-0.655 0.699,-0.66C0.704,-0.665 0.716,-0.663 0.734,-0.652C0.753,-0.645 0.762,-0.633 0.762,-0.617C0.759,-0.604 0.753,-0.598 0.742,-0.598C0.732,-0.603 0.702,-0.599 0.652,-0.586C0.671,-0.578 0.685,-0.568 0.695,-0.555C0.711,-0.539 0.72,-0.526 0.723,-0.516C0.728,-0.505 0.724,-0.492 0.711,-0.477C0.708,-0.474 0.703,-0.469 0.695,-0.461C0.677,-0.44 0.659,-0.422 0.641,-0.406ZM0.211,-0.48C0.211,-0.522 0.207,-0.559 0.199,-0.59C0.191,-0.621 0.185,-0.639 0.18,-0.645C0.174,-0.647 0.173,-0.65 0.176,-0.652C0.176,-0.655 0.178,-0.658 0.184,-0.66C0.186,-0.66 0.19,-0.663 0.195,-0.668C0.198,-0.671 0.201,-0.672 0.203,-0.672C0.211,-0.677 0.219,-0.676 0.227,-0.668C0.229,-0.665 0.233,-0.66 0.238,-0.652C0.243,-0.647 0.247,-0.642 0.25,-0.637C0.26,-0.626 0.267,-0.605 0.27,-0.574L0.27,-0.512C0.29,-0.525 0.305,-0.53 0.313,-0.527C0.318,-0.525 0.324,-0.521 0.332,-0.516C0.332,-0.513 0.333,-0.51 0.336,-0.508C0.344,-0.497 0.341,-0.487 0.328,-0.477C0.32,-0.469 0.305,-0.454 0.281,-0.434C0.276,-0.428 0.272,-0.424 0.27,-0.422C0.267,-0.354 0.258,-0.293 0.242,-0.238C0.289,-0.272 0.315,-0.289 0.32,-0.289C0.323,-0.289 0.324,-0.285 0.324,-0.277C0.322,-0.275 0.315,-0.267 0.305,-0.254C0.294,-0.243 0.286,-0.234 0.281,-0.227C0.263,-0.195 0.24,-0.167 0.211,-0.141C0.208,-0.135 0.204,-0.13 0.199,-0.125C0.184,-0.104 0.171,-0.085 0.16,-0.066C0.158,-0.064 0.156,-0.06 0.156,-0.055C0.154,-0.047 0.148,-0.039 0.141,-0.031C0.125,-0.018 0.109,-0.022 0.094,-0.043C0.086,-0.053 0.078,-0.066 0.07,-0.082C0.052,-0.105 0.055,-0.122 0.078,-0.133C0.081,-0.135 0.086,-0.139 0.094,-0.145C0.13,-0.165 0.165,-0.188 0.199,-0.211C0.197,-0.219 0.195,-0.23 0.195,-0.246C0.201,-0.264 0.204,-0.313 0.207,-0.391C0.181,-0.375 0.164,-0.366 0.156,-0.363C0.146,-0.363 0.137,-0.368 0.129,-0.379C0.118,-0.389 0.109,-0.4 0.102,-0.41C0.094,-0.421 0.092,-0.43 0.098,-0.438C0.098,-0.443 0.108,-0.448 0.129,-0.453C0.134,-0.453 0.145,-0.456 0.16,-0.461C0.181,-0.469 0.198,-0.475 0.211,-0.48ZM0.703,-0.082C0.711,-0.082 0.719,-0.073 0.727,-0.055C0.732,-0.036 0.732,-0.025 0.727,-0.02C0.721,-0.017 0.712,-0.018 0.699,-0.023C0.71,-0.018 0.707,-0.018 0.691,-0.023C0.678,-0.031 0.651,-0.031 0.609,-0.023C0.602,-0.023 0.592,-0.022 0.582,-0.02C0.556,-0.017 0.533,-0.016 0.512,-0.016C0.52,0.023 0.521,0.047 0.516,0.055C0.505,0.062 0.492,0.06 0.477,0.047C0.477,0.044 0.475,0.042 0.473,0.039C0.462,0.026 0.457,0.016 0.457,0.008C0.462,0.003 0.456,-0.023 0.438,-0.07C0.422,-0.12 0.41,-0.154 0.402,-0.172C0.389,-0.19 0.387,-0.211 0.395,-0.234C0.4,-0.258 0.408,-0.264 0.418,-0.254C0.428,-0.243 0.441,-0.22 0.457,-0.184C0.465,-0.165 0.477,-0.133 0.492,-0.086C0.495,-0.073 0.497,-0.064 0.5,-0.059L0.645,-0.078C0.642,-0.089 0.642,-0.098 0.645,-0.105C0.645,-0.108 0.646,-0.113 0.648,-0.121C0.654,-0.139 0.659,-0.156 0.664,-0.172C0.672,-0.203 0.676,-0.221 0.676,-0.227C0.671,-0.234 0.648,-0.232 0.609,-0.219C0.568,-0.203 0.539,-0.195 0.523,-0.195C0.508,-0.193 0.496,-0.189 0.488,-0.184C0.48,-0.184 0.475,-0.188 0.473,-0.195C0.467,-0.208 0.465,-0.219 0.465,-0.227C0.462,-0.234 0.465,-0.238 0.473,-0.238C0.48,-0.238 0.52,-0.245 0.59,-0.258C0.66,-0.271 0.697,-0.281 0.699,-0.289C0.704,-0.299 0.721,-0.289 0.75,-0.258C0.781,-0.232 0.792,-0.212 0.781,-0.199C0.768,-0.189 0.742,-0.15 0.703,-0.082Z" style="fill-rule:nonzero;"/>
        </g>
        <g transform="matrix(80,0,0,80,640.888,124.609)">
            <path d="M0.516,-0.648C0.508,-0.656 0.508,-0.664 0.516,-0.672C0.518,-0.674 0.522,-0.681 0.527,-0.691C0.538,-0.704 0.546,-0.716 0.551,-0.727C0.551,-0.729 0.552,-0.732 0.555,-0.734C0.57,-0.758 0.578,-0.775 0.578,-0.785C0.583,-0.801 0.583,-0.811 0.578,-0.816C0.578,-0.827 0.581,-0.832 0.586,-0.832C0.594,-0.832 0.602,-0.831 0.609,-0.828C0.62,-0.828 0.63,-0.814 0.641,-0.785C0.646,-0.762 0.645,-0.745 0.637,-0.734C0.632,-0.732 0.617,-0.719 0.594,-0.695C0.576,-0.68 0.561,-0.667 0.551,-0.656C0.6,-0.669 0.629,-0.677 0.637,-0.68C0.642,-0.685 0.652,-0.681 0.668,-0.668C0.689,-0.658 0.697,-0.646 0.691,-0.633C0.686,-0.622 0.681,-0.618 0.676,-0.621L0.613,-0.621C0.582,-0.618 0.53,-0.609 0.457,-0.594C0.387,-0.578 0.348,-0.568 0.34,-0.563C0.335,-0.563 0.329,-0.561 0.324,-0.559L0.32,-0.559C0.318,-0.556 0.314,-0.557 0.309,-0.563C0.309,-0.565 0.307,-0.568 0.305,-0.57C0.299,-0.578 0.296,-0.585 0.293,-0.59C0.288,-0.603 0.289,-0.609 0.297,-0.609C0.302,-0.615 0.341,-0.622 0.414,-0.633C0.406,-0.638 0.4,-0.645 0.395,-0.652C0.392,-0.655 0.388,-0.66 0.383,-0.668C0.375,-0.681 0.368,-0.691 0.363,-0.699C0.35,-0.723 0.337,-0.738 0.324,-0.746C0.314,-0.757 0.322,-0.763 0.348,-0.766C0.371,-0.766 0.389,-0.762 0.402,-0.754C0.41,-0.746 0.421,-0.73 0.434,-0.707C0.447,-0.684 0.448,-0.66 0.438,-0.637L0.516,-0.648ZM0.422,-0.461C0.406,-0.456 0.388,-0.451 0.367,-0.445C0.352,-0.44 0.34,-0.436 0.332,-0.434C0.324,-0.428 0.319,-0.43 0.316,-0.438C0.316,-0.438 0.315,-0.44 0.313,-0.445C0.307,-0.453 0.303,-0.458 0.301,-0.461C0.298,-0.466 0.297,-0.469 0.297,-0.469C0.299,-0.471 0.302,-0.473 0.305,-0.473C0.307,-0.475 0.323,-0.479 0.352,-0.484C0.383,-0.492 0.409,-0.499 0.43,-0.504C0.435,-0.533 0.435,-0.551 0.43,-0.559C0.427,-0.569 0.427,-0.574 0.43,-0.574C0.432,-0.577 0.438,-0.578 0.445,-0.578C0.456,-0.578 0.465,-0.574 0.473,-0.566C0.483,-0.561 0.484,-0.544 0.477,-0.516C0.487,-0.518 0.501,-0.522 0.52,-0.527C0.543,-0.535 0.557,-0.54 0.563,-0.543C0.565,-0.548 0.574,-0.547 0.59,-0.539C0.6,-0.531 0.605,-0.526 0.605,-0.523C0.605,-0.516 0.6,-0.51 0.59,-0.508C0.579,-0.505 0.54,-0.493 0.473,-0.473C0.465,-0.454 0.457,-0.432 0.449,-0.406L0.512,-0.418C0.507,-0.431 0.504,-0.44 0.504,-0.445C0.504,-0.453 0.508,-0.456 0.516,-0.453C0.523,-0.453 0.536,-0.445 0.555,-0.43C0.617,-0.445 0.65,-0.454 0.652,-0.457C0.655,-0.46 0.661,-0.457 0.672,-0.449C0.674,-0.447 0.677,-0.444 0.68,-0.441C0.693,-0.428 0.698,-0.418 0.695,-0.41C0.69,-0.405 0.684,-0.402 0.676,-0.402C0.668,-0.405 0.647,-0.405 0.613,-0.402C0.603,-0.4 0.594,-0.398 0.586,-0.398C0.669,-0.328 0.745,-0.277 0.813,-0.246C0.88,-0.217 0.922,-0.199 0.938,-0.191C0.945,-0.191 0.949,-0.19 0.949,-0.188C0.949,-0.185 0.944,-0.184 0.934,-0.184C0.913,-0.184 0.887,-0.18 0.855,-0.172C0.824,-0.167 0.803,-0.16 0.793,-0.152L0.789,-0.152C0.781,-0.147 0.773,-0.146 0.766,-0.148C0.758,-0.151 0.734,-0.168 0.695,-0.199C0.656,-0.23 0.6,-0.293 0.527,-0.387L0.434,-0.371C0.402,-0.309 0.363,-0.254 0.316,-0.207C0.275,-0.16 0.236,-0.128 0.199,-0.109C0.163,-0.089 0.143,-0.081 0.141,-0.086C0.141,-0.091 0.148,-0.099 0.164,-0.109C0.185,-0.125 0.216,-0.154 0.258,-0.195C0.299,-0.24 0.34,-0.293 0.379,-0.355C0.29,-0.332 0.24,-0.318 0.227,-0.313C0.216,-0.305 0.208,-0.303 0.203,-0.309C0.203,-0.311 0.202,-0.314 0.199,-0.316C0.197,-0.322 0.194,-0.327 0.191,-0.332C0.189,-0.345 0.189,-0.352 0.191,-0.352C0.194,-0.352 0.208,-0.355 0.234,-0.363C0.294,-0.374 0.349,-0.385 0.398,-0.398C0.401,-0.406 0.405,-0.417 0.41,-0.43C0.415,-0.445 0.419,-0.456 0.422,-0.461ZM0.371,-0.086C0.379,-0.122 0.383,-0.152 0.383,-0.176C0.383,-0.186 0.382,-0.199 0.379,-0.215L0.379,-0.23C0.379,-0.238 0.376,-0.245 0.371,-0.25C0.368,-0.255 0.367,-0.259 0.367,-0.262C0.37,-0.264 0.372,-0.266 0.375,-0.266C0.38,-0.268 0.383,-0.27 0.383,-0.27C0.388,-0.275 0.398,-0.271 0.414,-0.258C0.43,-0.247 0.435,-0.227 0.43,-0.195C0.43,-0.177 0.428,-0.146 0.426,-0.102C0.423,-0.091 0.422,-0.083 0.422,-0.078C0.419,-0.029 0.41,0.009 0.395,0.035C0.384,0.048 0.376,0.056 0.371,0.059C0.363,0.059 0.358,0.053 0.355,0.043C0.348,0.017 0.348,-0.001 0.355,-0.012C0.355,-0.014 0.357,-0.018 0.359,-0.023C0.362,-0.031 0.366,-0.052 0.371,-0.086ZM0.594,0.129C0.586,0.137 0.581,0.141 0.578,0.141C0.57,0.141 0.565,0.134 0.563,0.121C0.557,0.095 0.555,0.068 0.555,0.039L0.555,-0.125C0.555,-0.216 0.553,-0.266 0.551,-0.273C0.543,-0.284 0.538,-0.293 0.535,-0.301C0.533,-0.306 0.534,-0.31 0.539,-0.313C0.544,-0.318 0.551,-0.32 0.559,-0.32C0.564,-0.32 0.573,-0.311 0.586,-0.293C0.602,-0.277 0.609,-0.262 0.609,-0.246C0.609,-0.23 0.611,-0.168 0.613,-0.059C0.613,0.048 0.607,0.111 0.594,0.129Z" style="fill-rule:nonzero;"/>
        </g>
    </g>
    <g transform="matrix(0.875244,0,0,1,62.3782,3.18111)">
        <path d="M319.239,110.74L680.761,110.74" style="fill:none;"/>
        <rect x="317.525" y="109.24" width="364.95" height="3"/>
    </g>
</svg>
