<?xml version="1.0" encoding="UTF-8" standalone="no"?>
<!DOCTYPE svg PUBLIC "-//W3C//DTD SVG 1.1//EN" "http://www.w3.org/Graphics/SVG/1.1/DTD/svg11.dtd">
<svg width="100%" height="100%" viewBox="0 0 1000 120" version="1.1" xmlns="http://www.w3.org/2000/svg" xmlns:xlink="http://www.w3.org/1999/xlink" xml:space="preserve" xmlns:serif="http://www.serif.com/" style="fill-rule:evenodd;clip-rule:evenodd;stroke-linejoin:round;stroke-miterlimit:2;">
    <g transform="matrix(1,0,0,1,-60.8879,-36.1712)">
        <g transform="matrix(80,0,0,80,400.888,124.609)">
            <path d="M0.516,-0.621C0.521,-0.621 0.525,-0.622 0.527,-0.625C0.574,-0.635 0.603,-0.645 0.613,-0.652C0.626,-0.66 0.642,-0.655 0.66,-0.637C0.684,-0.616 0.688,-0.6 0.672,-0.59C0.664,-0.587 0.641,-0.581 0.602,-0.57C0.581,-0.565 0.565,-0.561 0.555,-0.559C0.539,-0.556 0.523,-0.552 0.508,-0.547C0.505,-0.518 0.501,-0.484 0.496,-0.445C0.493,-0.44 0.492,-0.436 0.492,-0.434C0.495,-0.436 0.497,-0.438 0.5,-0.438C0.542,-0.453 0.566,-0.461 0.574,-0.461C0.582,-0.464 0.59,-0.469 0.598,-0.477C0.603,-0.484 0.613,-0.478 0.629,-0.457C0.642,-0.436 0.645,-0.422 0.637,-0.414C0.629,-0.411 0.618,-0.4 0.605,-0.379C0.598,-0.368 0.582,-0.34 0.559,-0.293C0.551,-0.275 0.544,-0.262 0.539,-0.254C0.531,-0.243 0.525,-0.232 0.52,-0.219C0.525,-0.214 0.531,-0.208 0.539,-0.203C0.599,-0.156 0.672,-0.117 0.758,-0.086C0.844,-0.055 0.898,-0.036 0.922,-0.031C0.945,-0.029 0.964,-0.025 0.977,-0.02C0.984,-0.02 0.988,-0.018 0.988,-0.016C0.988,-0.013 0.984,-0.012 0.977,-0.012C0.966,-0.009 0.947,-0.005 0.918,0C0.892,0 0.863,0.005 0.832,0.016C0.801,0.029 0.783,0.036 0.777,0.039C0.775,0.044 0.771,0.047 0.766,0.047C0.763,0.047 0.762,0.047 0.762,0.047C0.754,0.044 0.721,0.029 0.664,0C0.609,-0.029 0.563,-0.059 0.523,-0.09C0.505,-0.105 0.487,-0.122 0.469,-0.141C0.466,-0.135 0.461,-0.129 0.453,-0.121C0.451,-0.113 0.441,-0.102 0.426,-0.086C0.382,-0.034 0.336,-0.001 0.289,0.012C0.281,0.014 0.271,0.018 0.258,0.023C0.229,0.034 0.206,0.039 0.188,0.039C0.18,0.039 0.174,0.039 0.172,0.039C0.172,0.036 0.174,0.035 0.18,0.035C0.174,0.035 0.176,0.034 0.184,0.031C0.199,0.029 0.228,0.014 0.27,-0.012C0.314,-0.043 0.354,-0.081 0.391,-0.125C0.404,-0.146 0.418,-0.165 0.434,-0.184C0.428,-0.189 0.423,-0.195 0.418,-0.203C0.387,-0.247 0.358,-0.281 0.332,-0.305C0.309,-0.328 0.289,-0.342 0.273,-0.348C0.26,-0.353 0.254,-0.363 0.254,-0.379C0.254,-0.395 0.26,-0.402 0.273,-0.402C0.289,-0.402 0.307,-0.395 0.328,-0.379C0.331,-0.376 0.332,-0.375 0.332,-0.375C0.34,-0.378 0.349,-0.382 0.359,-0.387C0.385,-0.397 0.414,-0.406 0.445,-0.414C0.435,-0.438 0.431,-0.454 0.434,-0.465C0.434,-0.467 0.435,-0.474 0.438,-0.484C0.438,-0.503 0.439,-0.518 0.441,-0.531C0.423,-0.523 0.406,-0.518 0.391,-0.516C0.352,-0.5 0.322,-0.492 0.301,-0.492C0.29,-0.492 0.28,-0.504 0.27,-0.527C0.27,-0.53 0.268,-0.534 0.266,-0.539C0.26,-0.56 0.258,-0.572 0.258,-0.574C0.258,-0.579 0.263,-0.581 0.273,-0.578L0.328,-0.578C0.331,-0.578 0.337,-0.579 0.348,-0.582C0.361,-0.582 0.383,-0.586 0.414,-0.594C0.422,-0.599 0.432,-0.602 0.445,-0.602C0.448,-0.646 0.447,-0.68 0.441,-0.703C0.436,-0.737 0.43,-0.758 0.422,-0.766C0.417,-0.771 0.411,-0.776 0.406,-0.781C0.401,-0.784 0.398,-0.785 0.398,-0.785C0.396,-0.788 0.402,-0.793 0.418,-0.801C0.426,-0.803 0.434,-0.805 0.441,-0.805C0.449,-0.807 0.461,-0.805 0.477,-0.797C0.495,-0.784 0.508,-0.773 0.516,-0.766C0.521,-0.758 0.523,-0.741 0.523,-0.715C0.521,-0.707 0.52,-0.691 0.52,-0.668C0.517,-0.65 0.516,-0.634 0.516,-0.621ZM0.477,-0.25C0.479,-0.26 0.484,-0.27 0.492,-0.277C0.521,-0.332 0.539,-0.374 0.547,-0.402C0.5,-0.392 0.465,-0.38 0.441,-0.367C0.423,-0.359 0.404,-0.348 0.383,-0.332C0.385,-0.329 0.389,-0.327 0.395,-0.324C0.4,-0.319 0.404,-0.315 0.406,-0.313C0.422,-0.294 0.445,-0.273 0.477,-0.25Z" style="fill-rule:nonzero;"/>
        </g>
        <g transform="matrix(80,0,0,80,480.888,124.609)">
            <path d="M0.25,-0.547L0.25,-0.668C0.247,-0.684 0.243,-0.699 0.238,-0.715C0.236,-0.717 0.233,-0.721 0.23,-0.727C0.228,-0.732 0.225,-0.736 0.223,-0.738C0.223,-0.743 0.227,-0.747 0.234,-0.75C0.242,-0.755 0.25,-0.758 0.258,-0.758C0.263,-0.758 0.271,-0.754 0.281,-0.746C0.284,-0.743 0.286,-0.741 0.289,-0.738C0.302,-0.728 0.31,-0.716 0.313,-0.703C0.318,-0.695 0.318,-0.682 0.313,-0.664C0.31,-0.646 0.309,-0.613 0.309,-0.566C0.324,-0.577 0.336,-0.579 0.344,-0.574C0.352,-0.574 0.361,-0.568 0.371,-0.555C0.382,-0.542 0.379,-0.531 0.363,-0.523C0.361,-0.521 0.355,-0.518 0.348,-0.516C0.329,-0.508 0.316,-0.5 0.309,-0.492L0.309,-0.375C0.329,-0.396 0.345,-0.408 0.355,-0.41C0.361,-0.413 0.363,-0.414 0.363,-0.414C0.366,-0.411 0.367,-0.409 0.367,-0.406C0.365,-0.404 0.361,-0.398 0.355,-0.391C0.35,-0.385 0.346,-0.38 0.344,-0.375C0.328,-0.362 0.316,-0.348 0.309,-0.332C0.309,-0.257 0.307,-0.181 0.305,-0.105L0.305,-0.074C0.305,-0.056 0.306,-0.04 0.309,-0.027C0.309,-0.017 0.305,-0.003 0.297,0.016C0.289,0.039 0.279,0.056 0.266,0.066C0.253,0.074 0.242,0.074 0.234,0.066C0.224,0.059 0.219,0.042 0.219,0.016C0.216,-0.005 0.211,-0.02 0.203,-0.027C0.201,-0.027 0.197,-0.03 0.191,-0.035C0.184,-0.04 0.177,-0.044 0.172,-0.047C0.164,-0.049 0.16,-0.052 0.16,-0.055C0.158,-0.057 0.159,-0.059 0.164,-0.059C0.172,-0.059 0.188,-0.057 0.211,-0.055C0.234,-0.055 0.247,-0.056 0.25,-0.059L0.25,-0.066C0.253,-0.126 0.254,-0.197 0.254,-0.277C0.165,-0.199 0.117,-0.156 0.109,-0.148C0.107,-0.146 0.104,-0.143 0.102,-0.141C0.102,-0.138 0.098,-0.134 0.09,-0.129C0.085,-0.126 0.078,-0.13 0.07,-0.141C0.063,-0.151 0.055,-0.164 0.047,-0.18C0.042,-0.193 0.039,-0.201 0.039,-0.203C0.039,-0.208 0.042,-0.211 0.047,-0.211C0.049,-0.214 0.059,-0.22 0.074,-0.23C0.092,-0.241 0.109,-0.251 0.125,-0.262C0.172,-0.29 0.214,-0.318 0.25,-0.344L0.25,-0.473C0.242,-0.467 0.23,-0.462 0.215,-0.457C0.194,-0.449 0.182,-0.444 0.18,-0.441C0.167,-0.436 0.156,-0.438 0.148,-0.445C0.146,-0.448 0.142,-0.456 0.137,-0.469C0.134,-0.477 0.132,-0.482 0.129,-0.484C0.126,-0.5 0.122,-0.51 0.117,-0.516C0.115,-0.518 0.115,-0.521 0.117,-0.523L0.129,-0.523C0.139,-0.523 0.156,-0.525 0.18,-0.527C0.188,-0.53 0.202,-0.534 0.223,-0.539C0.233,-0.542 0.242,-0.544 0.25,-0.547ZM0.586,-0.285C0.594,-0.29 0.6,-0.293 0.605,-0.293C0.611,-0.296 0.622,-0.289 0.641,-0.273C0.661,-0.284 0.676,-0.289 0.684,-0.289C0.694,-0.289 0.703,-0.284 0.711,-0.273C0.716,-0.271 0.719,-0.267 0.719,-0.262C0.719,-0.259 0.716,-0.257 0.711,-0.254C0.708,-0.254 0.704,-0.253 0.699,-0.25C0.684,-0.242 0.669,-0.237 0.656,-0.234C0.664,-0.216 0.668,-0.199 0.668,-0.184C0.715,-0.191 0.764,-0.199 0.816,-0.207C0.829,-0.21 0.836,-0.211 0.836,-0.211C0.841,-0.216 0.853,-0.212 0.871,-0.199C0.882,-0.194 0.888,-0.186 0.891,-0.176L0.891,-0.172C0.885,-0.161 0.879,-0.158 0.871,-0.16C0.868,-0.163 0.859,-0.164 0.844,-0.164C0.833,-0.167 0.824,-0.168 0.816,-0.168C0.785,-0.171 0.737,-0.164 0.672,-0.148C0.677,-0.081 0.676,-0.031 0.668,0C0.66,0.026 0.648,0.048 0.633,0.066C0.617,0.082 0.605,0.092 0.598,0.098C0.595,0.098 0.592,0.099 0.59,0.102C0.585,0.102 0.581,0.102 0.578,0.102C0.578,0.102 0.577,0.1 0.574,0.098C0.569,0.098 0.568,0.092 0.57,0.082C0.57,0.074 0.569,0.064 0.566,0.051C0.559,0.04 0.553,0.031 0.551,0.023C0.546,0.021 0.539,0.017 0.531,0.012C0.523,0.007 0.522,0.004 0.527,0.004L0.59,0.004C0.598,0.004 0.604,0.003 0.609,0C0.617,-0.008 0.622,-0.022 0.625,-0.043C0.63,-0.069 0.629,-0.102 0.621,-0.141C0.53,-0.125 0.473,-0.112 0.449,-0.102C0.423,-0.094 0.41,-0.089 0.41,-0.086L0.406,-0.086C0.404,-0.086 0.4,-0.089 0.395,-0.094C0.395,-0.096 0.393,-0.1 0.391,-0.105C0.388,-0.108 0.385,-0.111 0.383,-0.113C0.38,-0.121 0.383,-0.125 0.391,-0.125C0.398,-0.13 0.418,-0.134 0.449,-0.137C0.48,-0.145 0.536,-0.156 0.617,-0.172C0.617,-0.195 0.615,-0.212 0.609,-0.223C0.586,-0.215 0.578,-0.212 0.586,-0.215C0.529,-0.199 0.501,-0.19 0.504,-0.188C0.496,-0.188 0.491,-0.193 0.488,-0.203C0.483,-0.216 0.48,-0.223 0.48,-0.223C0.48,-0.225 0.482,-0.227 0.484,-0.227C0.487,-0.229 0.491,-0.23 0.496,-0.23C0.507,-0.233 0.514,-0.236 0.52,-0.238C0.54,-0.243 0.564,-0.251 0.59,-0.262C0.579,-0.27 0.578,-0.277 0.586,-0.285ZM0.559,-0.781C0.559,-0.784 0.565,-0.785 0.578,-0.785C0.586,-0.785 0.596,-0.78 0.609,-0.77C0.615,-0.764 0.621,-0.759 0.629,-0.754C0.632,-0.751 0.633,-0.75 0.633,-0.75L0.633,-0.746C0.635,-0.741 0.637,-0.736 0.637,-0.73L0.637,-0.723C0.634,-0.71 0.633,-0.699 0.633,-0.691C0.633,-0.689 0.632,-0.684 0.629,-0.676C0.629,-0.671 0.624,-0.651 0.613,-0.617C0.655,-0.625 0.702,-0.633 0.754,-0.641C0.77,-0.643 0.78,-0.645 0.785,-0.645C0.809,-0.652 0.82,-0.658 0.82,-0.66C0.823,-0.663 0.832,-0.66 0.848,-0.652C0.861,-0.647 0.872,-0.634 0.883,-0.613C0.888,-0.598 0.891,-0.582 0.891,-0.566L0.891,-0.551C0.888,-0.533 0.875,-0.531 0.852,-0.547C0.828,-0.568 0.806,-0.576 0.785,-0.57C0.762,-0.568 0.754,-0.569 0.762,-0.574C0.764,-0.579 0.771,-0.586 0.781,-0.594C0.786,-0.599 0.79,-0.603 0.793,-0.605C0.803,-0.616 0.809,-0.621 0.809,-0.621C0.806,-0.624 0.801,-0.624 0.793,-0.621C0.785,-0.618 0.78,-0.617 0.777,-0.617C0.767,-0.617 0.749,-0.616 0.723,-0.613C0.715,-0.611 0.708,-0.609 0.703,-0.609C0.677,-0.607 0.634,-0.599 0.574,-0.586C0.514,-0.573 0.484,-0.566 0.484,-0.566C0.479,-0.566 0.477,-0.568 0.477,-0.57C0.477,-0.57 0.475,-0.574 0.473,-0.582C0.473,-0.59 0.474,-0.594 0.477,-0.594C0.477,-0.596 0.483,-0.598 0.496,-0.598C0.499,-0.598 0.503,-0.599 0.508,-0.602L0.516,-0.602C0.497,-0.609 0.486,-0.62 0.48,-0.633C0.478,-0.635 0.475,-0.639 0.473,-0.645C0.47,-0.65 0.467,-0.654 0.465,-0.656C0.465,-0.664 0.466,-0.674 0.469,-0.688C0.471,-0.695 0.474,-0.701 0.477,-0.703C0.479,-0.703 0.482,-0.702 0.484,-0.699L0.504,-0.68C0.509,-0.672 0.516,-0.661 0.523,-0.648C0.534,-0.641 0.539,-0.634 0.539,-0.629C0.544,-0.626 0.544,-0.618 0.539,-0.605L0.551,-0.605C0.559,-0.608 0.565,-0.609 0.57,-0.609C0.565,-0.62 0.563,-0.633 0.563,-0.648L0.563,-0.703C0.56,-0.724 0.555,-0.738 0.547,-0.746C0.539,-0.759 0.538,-0.767 0.543,-0.77L0.559,-0.781ZM0.57,-0.395C0.576,-0.368 0.572,-0.357 0.559,-0.359C0.551,-0.362 0.544,-0.372 0.539,-0.391C0.536,-0.396 0.533,-0.404 0.527,-0.414C0.522,-0.432 0.517,-0.445 0.512,-0.453C0.509,-0.458 0.505,-0.466 0.5,-0.477C0.495,-0.49 0.492,-0.497 0.492,-0.5C0.492,-0.508 0.493,-0.516 0.496,-0.523C0.501,-0.536 0.505,-0.54 0.508,-0.535C0.513,-0.53 0.518,-0.523 0.523,-0.516C0.531,-0.51 0.538,-0.5 0.543,-0.484C0.551,-0.474 0.559,-0.454 0.566,-0.426C0.585,-0.434 0.607,-0.44 0.633,-0.445C0.625,-0.451 0.624,-0.456 0.629,-0.461C0.629,-0.464 0.633,-0.475 0.641,-0.496C0.643,-0.507 0.646,-0.516 0.648,-0.523C0.625,-0.516 0.605,-0.508 0.59,-0.5C0.585,-0.497 0.578,-0.495 0.57,-0.492C0.565,-0.492 0.563,-0.491 0.563,-0.488C0.56,-0.488 0.557,-0.491 0.555,-0.496C0.552,-0.499 0.549,-0.501 0.547,-0.504C0.539,-0.517 0.538,-0.523 0.543,-0.523C0.543,-0.523 0.546,-0.525 0.551,-0.527C0.561,-0.53 0.572,-0.533 0.582,-0.535C0.587,-0.538 0.595,-0.54 0.605,-0.543C0.621,-0.548 0.632,-0.552 0.637,-0.555C0.65,-0.56 0.659,-0.564 0.664,-0.566C0.667,-0.574 0.678,-0.568 0.699,-0.547C0.72,-0.534 0.728,-0.522 0.723,-0.512C0.72,-0.509 0.714,-0.5 0.703,-0.484C0.69,-0.469 0.68,-0.456 0.672,-0.445C0.682,-0.435 0.688,-0.426 0.688,-0.418C0.682,-0.415 0.676,-0.414 0.668,-0.414C0.663,-0.414 0.643,-0.41 0.609,-0.402C0.594,-0.4 0.581,-0.397 0.57,-0.395ZM0.586,-0.309C0.544,-0.301 0.518,-0.297 0.508,-0.297C0.5,-0.299 0.499,-0.301 0.504,-0.301C0.507,-0.301 0.51,-0.303 0.516,-0.309L0.57,-0.336C0.578,-0.339 0.591,-0.345 0.609,-0.355C0.63,-0.366 0.638,-0.375 0.633,-0.383C0.63,-0.391 0.63,-0.395 0.633,-0.395L0.66,-0.395C0.673,-0.395 0.681,-0.393 0.684,-0.391C0.689,-0.393 0.693,-0.387 0.695,-0.371C0.701,-0.363 0.703,-0.354 0.703,-0.344C0.703,-0.336 0.699,-0.329 0.691,-0.324C0.689,-0.324 0.684,-0.323 0.676,-0.32C0.668,-0.32 0.663,-0.319 0.66,-0.316C0.658,-0.316 0.648,-0.315 0.633,-0.313C0.615,-0.31 0.599,-0.309 0.586,-0.309ZM0.695,-0.75C0.701,-0.755 0.708,-0.755 0.719,-0.75C0.727,-0.75 0.736,-0.743 0.746,-0.73C0.757,-0.72 0.763,-0.707 0.766,-0.691C0.766,-0.678 0.758,-0.672 0.742,-0.672C0.74,-0.672 0.737,-0.671 0.734,-0.668C0.716,-0.665 0.703,-0.66 0.695,-0.652C0.677,-0.645 0.664,-0.641 0.656,-0.641C0.651,-0.641 0.648,-0.642 0.648,-0.645C0.654,-0.65 0.658,-0.658 0.66,-0.668C0.668,-0.678 0.676,-0.691 0.684,-0.707C0.684,-0.712 0.685,-0.717 0.688,-0.723C0.69,-0.728 0.691,-0.733 0.691,-0.738C0.689,-0.743 0.69,-0.747 0.695,-0.75ZM0.398,-0.586C0.404,-0.591 0.411,-0.59 0.422,-0.582C0.422,-0.582 0.423,-0.581 0.426,-0.578C0.436,-0.576 0.441,-0.57 0.441,-0.563L0.441,-0.465C0.439,-0.447 0.435,-0.435 0.43,-0.43C0.422,-0.424 0.415,-0.422 0.41,-0.422C0.402,-0.427 0.396,-0.435 0.391,-0.445C0.388,-0.458 0.388,-0.47 0.391,-0.48C0.393,-0.483 0.395,-0.49 0.395,-0.5C0.397,-0.51 0.398,-0.518 0.398,-0.523C0.404,-0.544 0.404,-0.559 0.398,-0.566L0.398,-0.586Z" style="fill-rule:nonzero;"/>
        </g>
        <g transform="matrix(80,0,0,80,560.888,124.609)">
            <path d="M0.48,-0.641C0.47,-0.638 0.458,-0.634 0.445,-0.629C0.427,-0.621 0.414,-0.616 0.406,-0.613C0.401,-0.613 0.395,-0.612 0.387,-0.609C0.379,-0.607 0.374,-0.605 0.371,-0.605C0.363,-0.605 0.357,-0.613 0.352,-0.629C0.344,-0.637 0.337,-0.65 0.332,-0.668L0.332,-0.672C0.327,-0.688 0.328,-0.694 0.336,-0.691C0.344,-0.691 0.368,-0.695 0.41,-0.703C0.449,-0.708 0.487,-0.719 0.523,-0.734C0.557,-0.747 0.578,-0.754 0.586,-0.754C0.591,-0.754 0.6,-0.75 0.613,-0.742C0.616,-0.74 0.618,-0.737 0.621,-0.734C0.637,-0.721 0.642,-0.71 0.637,-0.699C0.634,-0.694 0.615,-0.685 0.578,-0.672C0.547,-0.659 0.514,-0.648 0.48,-0.641ZM0.355,-0.52C0.382,-0.493 0.398,-0.475 0.406,-0.465C0.417,-0.454 0.422,-0.44 0.422,-0.422C0.424,-0.406 0.422,-0.396 0.414,-0.391C0.406,-0.388 0.393,-0.391 0.375,-0.398C0.357,-0.409 0.337,-0.43 0.316,-0.461C0.296,-0.49 0.285,-0.512 0.285,-0.527C0.283,-0.543 0.283,-0.556 0.285,-0.566C0.285,-0.577 0.292,-0.578 0.305,-0.57C0.313,-0.563 0.329,-0.546 0.355,-0.52ZM0.469,-0.324C0.32,-0.303 0.219,-0.286 0.164,-0.273C0.109,-0.263 0.079,-0.255 0.074,-0.25C0.066,-0.25 0.061,-0.254 0.059,-0.262C0.056,-0.27 0.052,-0.28 0.047,-0.293C0.044,-0.298 0.043,-0.302 0.043,-0.305C0.043,-0.307 0.046,-0.309 0.051,-0.309C0.059,-0.309 0.1,-0.314 0.176,-0.324C0.204,-0.327 0.255,-0.333 0.328,-0.344C0.388,-0.352 0.435,-0.358 0.469,-0.363C0.469,-0.389 0.467,-0.422 0.465,-0.461C0.465,-0.516 0.464,-0.547 0.461,-0.555C0.456,-0.568 0.449,-0.578 0.441,-0.586C0.434,-0.596 0.434,-0.602 0.441,-0.602C0.449,-0.607 0.458,-0.611 0.469,-0.613C0.477,-0.621 0.491,-0.616 0.512,-0.598C0.514,-0.595 0.517,-0.592 0.52,-0.59C0.533,-0.577 0.539,-0.565 0.539,-0.555L0.539,-0.371C0.737,-0.392 0.84,-0.404 0.848,-0.406C0.855,-0.406 0.867,-0.398 0.883,-0.383C0.898,-0.372 0.905,-0.361 0.902,-0.348C0.902,-0.329 0.896,-0.32 0.883,-0.32C0.883,-0.323 0.876,-0.326 0.863,-0.328C0.848,-0.333 0.835,-0.337 0.824,-0.34C0.79,-0.348 0.743,-0.35 0.684,-0.348C0.655,-0.345 0.617,-0.341 0.57,-0.336C0.557,-0.333 0.547,-0.332 0.539,-0.332L0.539,-0.063C0.539,-0.013 0.538,0.02 0.535,0.035C0.527,0.072 0.52,0.1 0.512,0.121C0.512,0.121 0.51,0.122 0.508,0.125C0.5,0.141 0.493,0.145 0.488,0.137C0.48,0.116 0.477,0.09 0.477,0.059C0.471,-0.004 0.469,-0.132 0.469,-0.324ZM0.609,-0.527C0.628,-0.559 0.637,-0.581 0.637,-0.594C0.637,-0.596 0.635,-0.599 0.633,-0.602C0.633,-0.609 0.629,-0.62 0.621,-0.633C0.616,-0.638 0.615,-0.643 0.617,-0.648C0.62,-0.651 0.626,-0.652 0.637,-0.652L0.68,-0.652C0.693,-0.652 0.704,-0.632 0.715,-0.59C0.728,-0.551 0.73,-0.526 0.723,-0.516C0.715,-0.508 0.704,-0.504 0.691,-0.504C0.681,-0.504 0.658,-0.492 0.621,-0.469C0.59,-0.445 0.572,-0.434 0.566,-0.434C0.561,-0.434 0.559,-0.438 0.559,-0.445C0.559,-0.453 0.563,-0.461 0.57,-0.469C0.573,-0.477 0.586,-0.496 0.609,-0.527Z" style="fill-rule:nonzero;"/>
        </g>
        <g transform="matrix(80,0,0,80,640.888,124.609)">
            <path d="M0.387,-0.02C0.387,-0.017 0.388,-0.013 0.391,-0.008C0.391,-0.003 0.392,0.001 0.395,0.004C0.402,0.046 0.398,0.07 0.383,0.078C0.383,0.078 0.382,0.078 0.379,0.078C0.363,0.078 0.348,0.061 0.332,0.027C0.316,-0.001 0.31,-0.023 0.313,-0.039C0.313,-0.055 0.309,-0.085 0.301,-0.129C0.29,-0.176 0.279,-0.214 0.266,-0.242C0.26,-0.26 0.254,-0.279 0.246,-0.297C0.243,-0.299 0.242,-0.301 0.242,-0.301C0.237,-0.306 0.236,-0.309 0.238,-0.309L0.242,-0.309C0.247,-0.311 0.251,-0.313 0.254,-0.313C0.257,-0.315 0.263,-0.314 0.273,-0.309C0.279,-0.306 0.284,-0.303 0.289,-0.301C0.31,-0.29 0.322,-0.277 0.324,-0.262C0.327,-0.249 0.34,-0.207 0.363,-0.137C0.366,-0.111 0.371,-0.086 0.379,-0.063C0.48,-0.086 0.549,-0.1 0.586,-0.105C0.581,-0.129 0.582,-0.145 0.59,-0.152C0.598,-0.163 0.616,-0.208 0.645,-0.289C0.585,-0.284 0.527,-0.273 0.473,-0.258C0.449,-0.253 0.424,-0.245 0.398,-0.234C0.385,-0.232 0.379,-0.23 0.379,-0.23C0.374,-0.228 0.367,-0.234 0.359,-0.25C0.349,-0.266 0.346,-0.275 0.352,-0.277C0.359,-0.28 0.409,-0.289 0.5,-0.305C0.529,-0.31 0.563,-0.316 0.602,-0.324C0.625,-0.329 0.641,-0.333 0.648,-0.336C0.659,-0.341 0.668,-0.348 0.676,-0.355C0.686,-0.368 0.707,-0.361 0.738,-0.332C0.764,-0.309 0.776,-0.293 0.773,-0.285C0.773,-0.283 0.772,-0.28 0.77,-0.277C0.759,-0.27 0.732,-0.232 0.688,-0.164C0.672,-0.143 0.659,-0.125 0.648,-0.109C0.651,-0.109 0.654,-0.108 0.656,-0.105C0.661,-0.103 0.664,-0.1 0.664,-0.098C0.688,-0.077 0.697,-0.063 0.691,-0.055C0.686,-0.044 0.68,-0.04 0.672,-0.043C0.664,-0.048 0.643,-0.051 0.609,-0.051C0.578,-0.053 0.504,-0.043 0.387,-0.02ZM0.691,-0.5C0.686,-0.497 0.68,-0.496 0.672,-0.496C0.661,-0.493 0.654,-0.492 0.648,-0.492C0.617,-0.484 0.557,-0.467 0.469,-0.441C0.38,-0.415 0.326,-0.396 0.305,-0.383C0.286,-0.37 0.273,-0.363 0.266,-0.363C0.26,-0.363 0.25,-0.379 0.234,-0.41C0.221,-0.434 0.215,-0.449 0.215,-0.457C0.217,-0.46 0.219,-0.461 0.219,-0.461C0.224,-0.466 0.234,-0.47 0.25,-0.473C0.268,-0.478 0.297,-0.505 0.336,-0.555C0.375,-0.607 0.401,-0.648 0.414,-0.68C0.427,-0.716 0.431,-0.742 0.426,-0.758C0.423,-0.766 0.421,-0.775 0.418,-0.785C0.415,-0.79 0.414,-0.793 0.414,-0.793C0.411,-0.798 0.414,-0.801 0.422,-0.801L0.426,-0.801C0.434,-0.803 0.445,-0.801 0.461,-0.793C0.479,-0.788 0.496,-0.775 0.512,-0.754C0.527,-0.73 0.53,-0.711 0.52,-0.695C0.504,-0.68 0.488,-0.66 0.473,-0.637C0.452,-0.608 0.406,-0.555 0.336,-0.477C0.523,-0.51 0.535,-0.513 0.371,-0.484C0.535,-0.513 0.629,-0.531 0.652,-0.539C0.65,-0.547 0.646,-0.552 0.641,-0.555C0.609,-0.581 0.592,-0.598 0.59,-0.605C0.585,-0.611 0.587,-0.615 0.598,-0.617C0.605,-0.617 0.622,-0.616 0.648,-0.613C0.677,-0.611 0.699,-0.603 0.715,-0.59C0.73,-0.579 0.747,-0.564 0.766,-0.543C0.784,-0.527 0.793,-0.503 0.793,-0.469C0.788,-0.438 0.779,-0.424 0.766,-0.43C0.75,-0.435 0.732,-0.449 0.711,-0.473C0.703,-0.483 0.697,-0.492 0.691,-0.5Z" style="fill-rule:nonzero;"/>
        </g>
    </g>
    <g transform="matrix(0.879142,0,0,1,60.4288,3.18111)">
        <rect x="317.533" y="109.24" width="364.935" height="3"/>
    </g>
</svg>
