<?xml version="1.0" encoding="UTF-8" standalone="no"?>
<!DOCTYPE svg PUBLIC "-//W3C//DTD SVG 1.1//EN" "http://www.w3.org/Graphics/SVG/1.1/DTD/svg11.dtd">
<svg width="100%" height="100%" viewBox="0 0 1000 120" version="1.1" xmlns="http://www.w3.org/2000/svg" xmlns:xlink="http://www.w3.org/1999/xlink" xml:space="preserve" xmlns:serif="http://www.serif.com/" style="fill-rule:evenodd;clip-rule:evenodd;stroke-linejoin:round;stroke-miterlimit:2;">
    <g transform="matrix(1,0,0,1,-60.8879,-36.1712)">
        <g transform="matrix(80,0,0,80,400.888,124.609)">
            <path d="M0.781,-0.035C0.776,0.046 0.77,0.094 0.762,0.109C0.759,0.112 0.755,0.113 0.75,0.113C0.742,0.113 0.737,0.103 0.734,0.082C0.732,0.048 0.73,0.016 0.73,-0.016L0.73,-0.074C0.728,-0.147 0.727,-0.212 0.727,-0.27C0.727,-0.324 0.725,-0.379 0.723,-0.434C0.715,-0.431 0.702,-0.427 0.684,-0.422C0.655,-0.411 0.634,-0.404 0.621,-0.398C0.621,-0.375 0.617,-0.339 0.609,-0.289C0.617,-0.323 0.616,-0.319 0.605,-0.277C0.59,-0.202 0.568,-0.143 0.539,-0.102C0.513,-0.055 0.493,-0.03 0.48,-0.027C0.473,-0.022 0.47,-0.033 0.473,-0.059C0.475,-0.082 0.484,-0.108 0.5,-0.137C0.523,-0.176 0.543,-0.23 0.559,-0.301C0.564,-0.324 0.568,-0.35 0.57,-0.379C0.539,-0.371 0.51,-0.361 0.484,-0.348C0.477,-0.348 0.469,-0.355 0.461,-0.371C0.451,-0.389 0.448,-0.4 0.453,-0.402C0.471,-0.405 0.495,-0.41 0.523,-0.418C0.529,-0.421 0.536,-0.423 0.547,-0.426C0.557,-0.431 0.565,-0.434 0.57,-0.434C0.57,-0.467 0.569,-0.491 0.566,-0.504C0.564,-0.53 0.56,-0.547 0.555,-0.555C0.552,-0.557 0.552,-0.559 0.555,-0.559C0.552,-0.559 0.553,-0.56 0.559,-0.563C0.561,-0.563 0.565,-0.564 0.57,-0.566L0.578,-0.566C0.586,-0.566 0.594,-0.561 0.602,-0.551C0.615,-0.538 0.622,-0.521 0.625,-0.5L0.625,-0.445C0.635,-0.448 0.65,-0.452 0.668,-0.457C0.691,-0.465 0.71,-0.471 0.723,-0.477L0.723,-0.496C0.725,-0.507 0.727,-0.514 0.727,-0.52C0.727,-0.525 0.725,-0.533 0.723,-0.543C0.723,-0.569 0.72,-0.586 0.715,-0.594C0.712,-0.609 0.708,-0.618 0.703,-0.621C0.698,-0.626 0.699,-0.63 0.707,-0.633C0.71,-0.633 0.711,-0.634 0.711,-0.637C0.716,-0.639 0.721,-0.641 0.727,-0.641C0.729,-0.641 0.738,-0.635 0.754,-0.625C0.77,-0.617 0.777,-0.609 0.777,-0.602L0.777,-0.492C0.822,-0.505 0.866,-0.52 0.91,-0.535C0.915,-0.54 0.927,-0.531 0.945,-0.508C0.961,-0.492 0.969,-0.478 0.969,-0.465C0.969,-0.465 0.967,-0.464 0.965,-0.461L0.965,-0.457C0.962,-0.449 0.958,-0.445 0.953,-0.445C0.953,-0.448 0.949,-0.449 0.941,-0.449C0.934,-0.452 0.926,-0.454 0.918,-0.457C0.884,-0.46 0.839,-0.456 0.781,-0.445L0.781,-0.035ZM0.176,-0.457C0.199,-0.512 0.208,-0.544 0.203,-0.555C0.201,-0.568 0.201,-0.576 0.203,-0.578L0.211,-0.578C0.216,-0.581 0.224,-0.574 0.234,-0.559C0.25,-0.546 0.257,-0.535 0.254,-0.527C0.236,-0.475 0.215,-0.426 0.191,-0.379C0.194,-0.374 0.197,-0.366 0.199,-0.355C0.207,-0.327 0.215,-0.289 0.223,-0.242C0.246,-0.253 0.273,-0.262 0.305,-0.27C0.315,-0.272 0.323,-0.275 0.328,-0.277C0.326,-0.301 0.326,-0.316 0.328,-0.324C0.333,-0.332 0.341,-0.359 0.352,-0.406C0.328,-0.398 0.305,-0.388 0.281,-0.375C0.273,-0.372 0.264,-0.368 0.254,-0.363C0.246,-0.361 0.242,-0.359 0.242,-0.359C0.237,-0.359 0.23,-0.367 0.223,-0.383C0.212,-0.401 0.21,-0.41 0.215,-0.41C0.217,-0.415 0.242,-0.423 0.289,-0.434C0.336,-0.449 0.365,-0.462 0.375,-0.473C0.383,-0.48 0.397,-0.471 0.418,-0.445C0.436,-0.422 0.441,-0.405 0.434,-0.395C0.415,-0.366 0.397,-0.331 0.379,-0.289C0.384,-0.289 0.391,-0.286 0.398,-0.281C0.414,-0.266 0.421,-0.254 0.418,-0.246C0.418,-0.238 0.413,-0.234 0.402,-0.234C0.395,-0.234 0.378,-0.233 0.352,-0.23C0.315,-0.23 0.276,-0.221 0.234,-0.203C0.234,-0.198 0.236,-0.19 0.238,-0.18C0.241,-0.164 0.243,-0.154 0.246,-0.148C0.257,-0.12 0.257,-0.096 0.246,-0.078C0.233,-0.068 0.221,-0.072 0.211,-0.09C0.198,-0.111 0.191,-0.126 0.191,-0.137C0.191,-0.147 0.188,-0.176 0.18,-0.223C0.172,-0.254 0.164,-0.285 0.156,-0.316C0.141,-0.293 0.125,-0.27 0.109,-0.246C0.065,-0.189 0.039,-0.156 0.031,-0.148L0.02,-0.148C0.02,-0.154 0.021,-0.156 0.023,-0.156C0.026,-0.161 0.034,-0.177 0.047,-0.203C0.063,-0.232 0.076,-0.255 0.086,-0.273C0.107,-0.31 0.125,-0.342 0.141,-0.371C0.13,-0.402 0.122,-0.419 0.117,-0.422C0.112,-0.427 0.113,-0.431 0.121,-0.434C0.124,-0.434 0.128,-0.435 0.133,-0.438L0.137,-0.438C0.145,-0.44 0.154,-0.438 0.164,-0.43C0.167,-0.432 0.169,-0.439 0.172,-0.449C0.174,-0.452 0.176,-0.454 0.176,-0.457ZM0.68,-0.727C0.703,-0.732 0.728,-0.74 0.754,-0.75C0.759,-0.753 0.763,-0.754 0.766,-0.754L0.77,-0.754C0.775,-0.754 0.784,-0.749 0.797,-0.738C0.813,-0.723 0.818,-0.711 0.813,-0.703C0.807,-0.698 0.786,-0.688 0.75,-0.672C0.732,-0.664 0.701,-0.652 0.656,-0.637C0.643,-0.634 0.634,-0.632 0.629,-0.629C0.624,-0.626 0.616,-0.624 0.605,-0.621C0.572,-0.608 0.553,-0.603 0.551,-0.605C0.538,-0.605 0.527,-0.621 0.52,-0.652C0.512,-0.684 0.512,-0.698 0.52,-0.695C0.527,-0.695 0.544,-0.697 0.57,-0.699C0.596,-0.702 0.633,-0.711 0.68,-0.727ZM0.309,-0.715C0.335,-0.723 0.35,-0.729 0.355,-0.734C0.363,-0.74 0.375,-0.732 0.391,-0.711C0.411,-0.69 0.415,-0.676 0.402,-0.668C0.392,-0.66 0.366,-0.65 0.324,-0.637C0.314,-0.634 0.301,-0.629 0.285,-0.621C0.27,-0.616 0.257,-0.612 0.246,-0.609C0.238,-0.607 0.225,-0.621 0.207,-0.652C0.191,-0.684 0.188,-0.699 0.195,-0.699L0.238,-0.699C0.241,-0.699 0.245,-0.701 0.25,-0.703C0.263,-0.703 0.283,-0.707 0.309,-0.715Z" style="fill-rule:nonzero;"/>
        </g>
        <g transform="matrix(80,0,0,80,480.888,124.609)">
            <path d="M0.242,0.082C0.24,0.085 0.234,0.087 0.227,0.09C0.229,0.09 0.228,0.091 0.223,0.094C0.217,0.094 0.22,0.085 0.23,0.066C0.264,0.025 0.29,-0.009 0.309,-0.035C0.361,-0.121 0.396,-0.191 0.414,-0.246C0.393,-0.236 0.366,-0.224 0.332,-0.211C0.311,-0.201 0.297,-0.194 0.289,-0.191C0.271,-0.186 0.258,-0.181 0.25,-0.176C0.245,-0.168 0.238,-0.168 0.23,-0.176C0.225,-0.184 0.221,-0.194 0.219,-0.207C0.221,-0.204 0.221,-0.207 0.219,-0.215L0.219,-0.23C0.219,-0.238 0.221,-0.242 0.227,-0.242C0.234,-0.237 0.263,-0.242 0.313,-0.258C0.352,-0.271 0.389,-0.283 0.426,-0.293C0.434,-0.332 0.434,-0.358 0.426,-0.371C0.418,-0.387 0.41,-0.395 0.402,-0.395C0.4,-0.4 0.402,-0.404 0.41,-0.406C0.413,-0.409 0.418,-0.411 0.426,-0.414C0.428,-0.417 0.431,-0.418 0.434,-0.418C0.436,-0.421 0.445,-0.419 0.461,-0.414C0.466,-0.411 0.47,-0.409 0.473,-0.406C0.486,-0.396 0.493,-0.387 0.496,-0.379C0.499,-0.368 0.497,-0.349 0.492,-0.32C0.497,-0.344 0.497,-0.341 0.492,-0.313C0.547,-0.331 0.582,-0.349 0.598,-0.367C0.603,-0.38 0.621,-0.375 0.652,-0.352C0.689,-0.328 0.697,-0.313 0.676,-0.305C0.652,-0.294 0.632,-0.268 0.613,-0.227C0.595,-0.174 0.595,-0.133 0.613,-0.102C0.632,-0.065 0.665,-0.044 0.715,-0.039C0.783,-0.034 0.818,-0.039 0.82,-0.055C0.82,-0.057 0.823,-0.061 0.828,-0.066C0.833,-0.082 0.839,-0.095 0.844,-0.105C0.846,-0.116 0.849,-0.121 0.852,-0.121C0.854,-0.118 0.855,-0.111 0.855,-0.098C0.855,-0.069 0.863,-0.047 0.879,-0.031C0.882,-0.029 0.884,-0.026 0.887,-0.023C0.897,-0.016 0.901,-0.008 0.898,0C0.898,0.016 0.872,0.025 0.82,0.027C0.773,0.03 0.724,0.027 0.672,0.02C0.622,0.009 0.587,-0.021 0.566,-0.07C0.546,-0.135 0.551,-0.216 0.582,-0.313C0.574,-0.31 0.561,-0.305 0.543,-0.297C0.517,-0.286 0.497,-0.279 0.484,-0.273C0.461,-0.193 0.417,-0.108 0.352,-0.02C0.307,0.027 0.271,0.061 0.242,0.082ZM0.273,-0.547C0.271,-0.547 0.268,-0.549 0.266,-0.555C0.266,-0.557 0.264,-0.559 0.262,-0.559C0.259,-0.564 0.258,-0.569 0.258,-0.574C0.255,-0.585 0.258,-0.591 0.266,-0.594C0.318,-0.607 0.367,-0.618 0.414,-0.629C0.414,-0.665 0.405,-0.693 0.387,-0.711C0.382,-0.714 0.376,-0.717 0.371,-0.723C0.368,-0.728 0.363,-0.732 0.355,-0.734C0.35,-0.742 0.353,-0.749 0.363,-0.754C0.374,-0.759 0.387,-0.764 0.402,-0.77C0.421,-0.775 0.438,-0.768 0.453,-0.75C0.469,-0.734 0.478,-0.72 0.48,-0.707C0.488,-0.686 0.49,-0.665 0.484,-0.645C0.57,-0.665 0.656,-0.688 0.742,-0.711C0.753,-0.716 0.777,-0.707 0.816,-0.684C0.845,-0.668 0.861,-0.651 0.863,-0.633C0.861,-0.602 0.846,-0.59 0.82,-0.598C0.797,-0.6 0.776,-0.602 0.758,-0.602C0.747,-0.599 0.729,-0.59 0.703,-0.574C0.698,-0.572 0.694,-0.569 0.691,-0.566C0.684,-0.561 0.678,-0.56 0.676,-0.563C0.671,-0.563 0.671,-0.566 0.676,-0.574C0.678,-0.577 0.682,-0.582 0.688,-0.59C0.698,-0.603 0.706,-0.615 0.711,-0.625C0.727,-0.648 0.732,-0.661 0.727,-0.664C0.719,-0.667 0.698,-0.664 0.664,-0.656C0.602,-0.641 0.54,-0.625 0.48,-0.609C0.475,-0.591 0.466,-0.578 0.453,-0.57C0.443,-0.565 0.435,-0.566 0.43,-0.574C0.424,-0.579 0.422,-0.586 0.422,-0.594C0.409,-0.591 0.389,-0.586 0.363,-0.578C0.335,-0.57 0.314,-0.564 0.301,-0.559C0.29,-0.556 0.281,-0.552 0.273,-0.547ZM0.621,-0.453C0.613,-0.461 0.596,-0.477 0.57,-0.5C0.589,-0.484 0.583,-0.488 0.555,-0.512C0.526,-0.533 0.508,-0.544 0.5,-0.547C0.495,-0.549 0.492,-0.552 0.492,-0.555C0.49,-0.557 0.491,-0.56 0.496,-0.563C0.504,-0.565 0.517,-0.566 0.535,-0.566C0.553,-0.566 0.574,-0.563 0.598,-0.555C0.618,-0.547 0.641,-0.535 0.664,-0.52C0.688,-0.504 0.699,-0.482 0.699,-0.453C0.697,-0.427 0.688,-0.415 0.672,-0.418C0.656,-0.426 0.639,-0.438 0.621,-0.453ZM0.262,-0.352C0.27,-0.367 0.288,-0.393 0.316,-0.43C0.348,-0.469 0.362,-0.492 0.359,-0.5C0.359,-0.503 0.358,-0.507 0.355,-0.512L0.355,-0.52C0.353,-0.525 0.352,-0.527 0.352,-0.527C0.354,-0.53 0.357,-0.531 0.359,-0.531L0.363,-0.531C0.371,-0.534 0.379,-0.535 0.387,-0.535C0.395,-0.535 0.405,-0.522 0.418,-0.496C0.428,-0.475 0.43,-0.461 0.422,-0.453C0.419,-0.451 0.395,-0.431 0.348,-0.395C0.303,-0.361 0.275,-0.342 0.262,-0.34C0.254,-0.337 0.25,-0.337 0.25,-0.34C0.25,-0.342 0.254,-0.346 0.262,-0.352ZM0.227,-0.48C0.224,-0.434 0.215,-0.405 0.199,-0.395C0.181,-0.389 0.169,-0.397 0.164,-0.418C0.156,-0.441 0.156,-0.46 0.164,-0.473C0.172,-0.486 0.174,-0.508 0.172,-0.539C0.172,-0.573 0.169,-0.594 0.164,-0.602C0.161,-0.604 0.16,-0.607 0.16,-0.609C0.16,-0.612 0.163,-0.613 0.168,-0.613C0.189,-0.618 0.206,-0.609 0.219,-0.586C0.229,-0.568 0.232,-0.533 0.227,-0.48Z" style="fill-rule:nonzero;"/>
        </g>
        <g transform="matrix(80,0,0,80,560.888,124.609)">
            <path d="M0.652,-0.668C0.652,-0.655 0.639,-0.617 0.613,-0.555C0.605,-0.531 0.589,-0.495 0.563,-0.445C0.555,-0.432 0.549,-0.422 0.547,-0.414C0.555,-0.414 0.561,-0.413 0.566,-0.41C0.582,-0.402 0.599,-0.391 0.617,-0.375C0.625,-0.37 0.638,-0.358 0.656,-0.34C0.672,-0.324 0.685,-0.313 0.695,-0.305C0.727,-0.271 0.776,-0.237 0.844,-0.203C0.909,-0.172 0.953,-0.152 0.977,-0.145C0.979,-0.145 0.982,-0.143 0.984,-0.141C0.99,-0.141 0.992,-0.139 0.992,-0.137C0.992,-0.137 0.988,-0.135 0.98,-0.133C0.97,-0.133 0.952,-0.129 0.926,-0.121C0.918,-0.118 0.911,-0.117 0.906,-0.117C0.904,-0.117 0.9,-0.116 0.895,-0.113C0.876,-0.105 0.861,-0.098 0.848,-0.09C0.84,-0.085 0.832,-0.081 0.824,-0.078C0.822,-0.078 0.813,-0.085 0.797,-0.098C0.781,-0.108 0.768,-0.117 0.758,-0.125C0.716,-0.156 0.678,-0.195 0.645,-0.242C0.637,-0.253 0.628,-0.266 0.617,-0.281C0.602,-0.302 0.585,-0.323 0.566,-0.344C0.553,-0.365 0.544,-0.372 0.539,-0.367C0.536,-0.367 0.533,-0.371 0.527,-0.379C0.525,-0.376 0.522,-0.371 0.52,-0.363C0.514,-0.355 0.51,-0.349 0.508,-0.344C0.461,-0.266 0.422,-0.21 0.391,-0.176C0.359,-0.142 0.335,-0.118 0.316,-0.105C0.306,-0.103 0.301,-0.103 0.301,-0.105C0.301,-0.108 0.305,-0.115 0.313,-0.125C0.318,-0.133 0.332,-0.155 0.355,-0.191C0.374,-0.22 0.388,-0.242 0.398,-0.258C0.44,-0.326 0.477,-0.4 0.508,-0.48C0.542,-0.564 0.56,-0.621 0.563,-0.652L0.563,-0.691C0.565,-0.707 0.565,-0.717 0.563,-0.723C0.563,-0.73 0.56,-0.737 0.555,-0.742C0.552,-0.747 0.553,-0.75 0.559,-0.75C0.585,-0.76 0.607,-0.75 0.625,-0.719C0.641,-0.695 0.65,-0.678 0.652,-0.668ZM0.324,-0.68C0.311,-0.68 0.281,-0.668 0.234,-0.645C0.206,-0.632 0.178,-0.616 0.152,-0.598C0.15,-0.595 0.148,-0.594 0.148,-0.594C0.138,-0.583 0.129,-0.578 0.121,-0.578C0.113,-0.583 0.105,-0.598 0.098,-0.621C0.092,-0.637 0.09,-0.647 0.09,-0.652C0.09,-0.66 0.091,-0.664 0.094,-0.664C0.102,-0.664 0.126,-0.669 0.168,-0.68C0.21,-0.688 0.247,-0.698 0.281,-0.711C0.313,-0.727 0.331,-0.737 0.336,-0.742C0.341,-0.747 0.357,-0.737 0.383,-0.711C0.411,-0.682 0.418,-0.66 0.402,-0.645C0.397,-0.639 0.385,-0.626 0.367,-0.605C0.352,-0.59 0.34,-0.577 0.332,-0.566C0.319,-0.551 0.302,-0.531 0.281,-0.508C0.271,-0.495 0.263,-0.486 0.258,-0.48C0.279,-0.473 0.297,-0.461 0.313,-0.445C0.328,-0.435 0.34,-0.411 0.348,-0.375C0.353,-0.344 0.348,-0.313 0.332,-0.281C0.316,-0.253 0.301,-0.238 0.285,-0.238C0.272,-0.243 0.266,-0.254 0.266,-0.27C0.271,-0.288 0.263,-0.301 0.242,-0.309C0.234,-0.316 0.224,-0.323 0.211,-0.328C0.206,-0.331 0.202,-0.333 0.199,-0.336C0.194,-0.339 0.195,-0.34 0.203,-0.34C0.216,-0.34 0.232,-0.339 0.25,-0.336C0.271,-0.336 0.283,-0.34 0.285,-0.348C0.288,-0.355 0.289,-0.367 0.289,-0.383C0.289,-0.398 0.283,-0.415 0.27,-0.434C0.254,-0.452 0.242,-0.461 0.234,-0.461C0.232,-0.461 0.232,-0.465 0.234,-0.473C0.237,-0.478 0.242,-0.488 0.25,-0.504C0.26,-0.527 0.27,-0.547 0.277,-0.563C0.306,-0.615 0.322,-0.654 0.324,-0.68ZM0.195,0.055C0.195,0.055 0.194,0.055 0.191,0.055C0.181,0.055 0.168,0.044 0.152,0.023C0.137,0.003 0.129,-0.014 0.129,-0.027L0.129,-0.031C0.129,-0.047 0.13,-0.087 0.133,-0.152L0.133,-0.387C0.13,-0.475 0.13,-0.523 0.133,-0.531C0.133,-0.536 0.134,-0.539 0.137,-0.539C0.137,-0.542 0.139,-0.542 0.145,-0.539C0.155,-0.534 0.164,-0.527 0.172,-0.52C0.18,-0.512 0.182,-0.499 0.18,-0.48C0.177,-0.475 0.176,-0.451 0.176,-0.406C0.173,-0.375 0.172,-0.349 0.172,-0.328C0.172,-0.24 0.174,-0.174 0.18,-0.133C0.182,-0.091 0.188,-0.051 0.195,-0.012C0.203,0.022 0.203,0.044 0.195,0.055Z" style="fill-rule:nonzero;"/>
        </g>
        <g transform="matrix(80,0,0,80,640.888,124.609)">
            <path d="M0.246,-0.5C0.236,-0.492 0.221,-0.483 0.203,-0.473C0.133,-0.426 0.086,-0.396 0.063,-0.383C0.047,-0.375 0.038,-0.371 0.035,-0.371C0.035,-0.374 0.036,-0.375 0.039,-0.375C0.042,-0.38 0.06,-0.4 0.094,-0.434C0.133,-0.475 0.165,-0.51 0.191,-0.539C0.288,-0.641 0.34,-0.697 0.348,-0.707C0.355,-0.723 0.358,-0.732 0.355,-0.734C0.353,-0.742 0.359,-0.745 0.375,-0.742C0.391,-0.742 0.406,-0.732 0.422,-0.711C0.424,-0.706 0.428,-0.698 0.434,-0.688C0.439,-0.682 0.444,-0.672 0.449,-0.656C0.452,-0.643 0.443,-0.63 0.422,-0.617C0.414,-0.612 0.396,-0.599 0.367,-0.578C0.326,-0.555 0.292,-0.534 0.266,-0.516C0.289,-0.508 0.303,-0.497 0.309,-0.484L0.309,-0.082C0.306,0.001 0.299,0.047 0.289,0.055C0.289,0.057 0.288,0.06 0.285,0.063C0.285,0.065 0.284,0.066 0.281,0.066C0.273,0.066 0.266,0.059 0.258,0.043C0.242,0.02 0.237,0 0.242,-0.016C0.247,-0.036 0.251,-0.12 0.254,-0.266C0.257,-0.414 0.254,-0.492 0.246,-0.5ZM0.625,-0.527C0.615,-0.525 0.6,-0.522 0.582,-0.52C0.543,-0.514 0.522,-0.51 0.52,-0.508C0.509,-0.5 0.501,-0.496 0.496,-0.496C0.491,-0.496 0.483,-0.504 0.473,-0.52C0.47,-0.522 0.467,-0.525 0.465,-0.527C0.452,-0.548 0.445,-0.561 0.445,-0.566C0.445,-0.577 0.449,-0.582 0.457,-0.582C0.46,-0.582 0.504,-0.587 0.59,-0.598C0.652,-0.605 0.699,-0.613 0.73,-0.621C0.757,-0.624 0.779,-0.632 0.797,-0.645C0.813,-0.655 0.824,-0.656 0.832,-0.648C0.835,-0.646 0.84,-0.638 0.848,-0.625C0.853,-0.615 0.857,-0.607 0.859,-0.602C0.87,-0.581 0.871,-0.566 0.863,-0.559C0.853,-0.546 0.844,-0.543 0.836,-0.551C0.828,-0.556 0.781,-0.552 0.695,-0.539L0.684,-0.539C0.676,-0.536 0.671,-0.535 0.668,-0.535C0.676,-0.53 0.682,-0.523 0.688,-0.516C0.698,-0.505 0.706,-0.492 0.711,-0.477C0.711,-0.471 0.701,-0.447 0.68,-0.402L0.691,-0.402C0.73,-0.41 0.754,-0.417 0.762,-0.422C0.772,-0.427 0.788,-0.417 0.809,-0.391C0.827,-0.365 0.832,-0.349 0.824,-0.344C0.816,-0.336 0.798,-0.306 0.77,-0.254C0.751,-0.22 0.736,-0.197 0.723,-0.184L0.734,-0.184C0.828,-0.191 0.878,-0.197 0.883,-0.199C0.891,-0.199 0.902,-0.188 0.918,-0.164C0.928,-0.146 0.934,-0.13 0.934,-0.117L0.934,-0.102C0.928,-0.086 0.918,-0.081 0.902,-0.086C0.892,-0.089 0.876,-0.098 0.855,-0.113C0.84,-0.129 0.789,-0.134 0.703,-0.129C0.622,-0.126 0.552,-0.117 0.492,-0.102C0.484,-0.099 0.474,-0.096 0.461,-0.094C0.424,-0.083 0.402,-0.077 0.395,-0.074C0.387,-0.069 0.379,-0.07 0.371,-0.078C0.363,-0.086 0.358,-0.096 0.355,-0.109C0.348,-0.122 0.348,-0.129 0.355,-0.129C0.358,-0.132 0.378,-0.135 0.414,-0.141C0.44,-0.143 0.461,-0.146 0.477,-0.148C0.477,-0.159 0.479,-0.168 0.484,-0.176C0.492,-0.181 0.509,-0.204 0.535,-0.246C0.548,-0.27 0.563,-0.296 0.578,-0.324L0.57,-0.324C0.534,-0.316 0.512,-0.313 0.504,-0.313C0.499,-0.313 0.493,-0.323 0.488,-0.344C0.493,-0.326 0.492,-0.328 0.484,-0.352C0.482,-0.375 0.482,-0.387 0.484,-0.387L0.496,-0.387C0.504,-0.384 0.51,-0.383 0.516,-0.383C0.557,-0.383 0.587,-0.385 0.605,-0.391C0.629,-0.443 0.639,-0.477 0.637,-0.492C0.634,-0.505 0.63,-0.517 0.625,-0.527ZM0.539,-0.16C0.586,-0.168 0.635,-0.174 0.688,-0.18L0.688,-0.184C0.682,-0.199 0.684,-0.212 0.691,-0.223C0.699,-0.236 0.716,-0.283 0.742,-0.363C0.714,-0.358 0.682,-0.35 0.648,-0.34C0.646,-0.335 0.641,-0.326 0.633,-0.313C0.615,-0.276 0.59,-0.236 0.559,-0.191C0.551,-0.178 0.544,-0.168 0.539,-0.16Z" style="fill-rule:nonzero;"/>
        </g>
    </g>
    <g transform="matrix(0.875244,0,0,1,62.3782,3.18111)">
        <path d="M319.239,110.74L680.761,110.74" style="fill:none;"/>
        <rect x="317.525" y="109.24" width="364.95" height="3"/>
    </g>
</svg>
