<?xml version="1.0" encoding="UTF-8" standalone="no"?><!DOCTYPE svg PUBLIC "-//W3C//DTD SVG 1.1//EN" "http://www.w3.org/Graphics/SVG/1.1/DTD/svg11.dtd"><svg width="100%" height="100%" viewBox="0 0 1000 120" version="1.1" xmlns="http://www.w3.org/2000/svg" xmlns:xlink="http://www.w3.org/1999/xlink" xml:space="preserve" xmlns:serif="http://www.serif.com/" style="fill-rule:evenodd;clip-rule:evenodd;stroke-linejoin:round;stroke-miterlimit:2;"><path d="M82.812,94.375c-1.25,0.208 -1.875,0.312 -1.875,0.312c0.417,-0.416 1.667,-1.562 3.75,-3.437c2.084,-1.875 4.167,-4.167 6.25,-6.875c2.709,-3.75 5,-7.813 6.875,-12.188c-6.25,0.834 -12.708,2.084 -19.375,3.75c-4.375,1.042 -6.562,1.667 -6.562,1.875c-0.625,0.209 -1.354,-0.208 -2.188,-1.25c-0.208,-0.416 -0.416,-0.937 -0.625,-1.562c-0.208,-0.625 -0.416,-1.042 -0.625,-1.25l0,-0.625c0,-0.417 0.313,-0.521 0.938,-0.313c5.833,-0.833 14.583,-2.083 26.25,-3.75c1.458,-0.208 2.604,-0.312 3.437,-0.312c1.042,-2.917 1.98,-6.771 2.813,-11.563l0,-1.25c0.417,-4.791 0.417,-7.604 0,-8.437c-0.625,-1.875 -1.146,-2.917 -1.563,-3.125c-0.208,-0.625 -0.208,-0.938 0,-0.938c0.209,-0.208 0.417,-0.312 0.625,-0.312c0.417,-0.208 0.73,-0.313 0.938,-0.313c0.625,-0.416 1.875,0.209 3.75,1.875c1.458,1.25 2.292,2.5 2.5,3.75c0,2.292 -0.313,4.792 -0.938,7.5c-0.625,4.167 -1.562,8.125 -2.812,11.875c7.5,-1.041 14.792,-2.187 21.875,-3.437c0.625,-0.417 1.771,0 3.437,1.25c1.459,1.25 2.188,2.604 2.188,4.062c-0.208,1.667 -0.729,2.188 -1.563,1.563c-0.625,-0.417 -1.666,-0.833 -3.125,-1.25c-1.25,-0.208 -4.062,-0.313 -8.437,-0.313c-5,0.417 -10.208,0.938 -15.625,1.563c-3.125,7.5 -7.083,13.229 -11.875,17.187c-2.292,2.5 -5.104,4.48 -8.438,5.938Zm13.438,-65c0,-0.208 -0.208,-0.521 -0.625,-0.938c-0.417,-0.416 -0.729,-0.729 -0.938,-0.937c-0.833,-0.417 -1.041,-0.729 -0.625,-0.938c0.209,-0.416 0.938,-1.041 2.188,-1.875l0.625,0c1.042,-0.416 2.5,-0.104 4.375,0.938c1.875,1.042 3.125,1.875 3.75,2.5c0.417,1.25 0.417,3.333 0,6.25c2.292,-0.417 4.375,-0.625 6.25,-0.625c5.833,-0.625 9.062,-1.25 9.687,-1.875c0.625,-0.417 1.563,0 2.813,1.25c1.25,1.25 2.396,2.917 3.437,5c1.042,1.875 1.355,3.75 0.938,5.625c-0.625,1.667 -1.458,2.187 -2.5,1.562c-1.042,-0.625 -2.188,-1.562 -3.438,-2.812c-1.458,-1.25 -2.812,-1.875 -4.062,-1.875c-1.458,0 -2.813,0.208 -4.063,0.625c-1.041,0.208 -1.145,0 -0.312,-0.625c0.417,-0.208 1.042,-0.729 1.875,-1.563c0.625,-0.416 1.146,-0.833 1.562,-1.25c1.25,-1.25 1.771,-1.979 1.563,-2.187c0,-0.208 -3.125,0 -9.375,0.625c-0.417,0 -1.146,0.104 -2.188,0.312c-0.833,0 -1.562,0.105 -2.187,0.313c-0.208,1.875 -0.625,3.021 -1.25,3.437c-0.833,0 -1.875,-0.416 -3.125,-1.25c0,-0.208 -0.104,-0.52 -0.313,-0.937c-0.208,-0.208 -0.416,-0.417 -0.625,-0.625c-2.291,0.208 -4.375,0.521 -6.25,0.937c-3.333,0.625 -5.52,1.25 -6.562,1.875c-0.833,0.417 -1.563,0 -2.188,-1.25c-0.208,-1.458 -0.208,-2.187 0,-2.187c5,-0.833 9.688,-1.354 14.063,-1.563c-0.417,-1.041 -0.625,-1.979 -0.625,-2.812c-0.625,-1.458 -1.25,-2.5 -1.875,-3.125Zm21.25,63.437c-0.417,0.625 -0.833,0.938 -1.25,0.938c-0.833,0 -1.563,-0.833 -2.188,-2.5c-0.416,-1.042 -1.041,-2.292 -1.875,-3.75c-0.625,-1.667 -1.145,-2.917 -1.562,-3.75c0,-0.208 -0.104,-0.417 -0.313,-0.625c-1.25,-2.083 -2.291,-3.438 -3.125,-4.063c-0.833,-1.041 -0.937,-1.562 -0.312,-1.562c0.625,-0.208 1.771,-0.313 3.437,-0.313c1.667,0.209 3.438,1.771 5.313,4.688c1.875,2.5 2.917,4.583 3.125,6.25c0.417,1.042 0,2.604 -1.25,4.687Zm-42.188,-45.312c0.625,-0.833 1.355,-2.292 2.188,-4.375c0,-0.417 0.104,-0.938 0.312,-1.563c0.209,-0.833 0.313,-1.666 0.313,-2.5c0,-0.208 -0.104,-0.52 -0.313,-0.937c0,-0.417 -0.104,-0.729 -0.312,-0.938c-0.208,-0.208 -0.313,-0.312 -0.313,-0.312c0,-0.208 0.209,-0.417 0.625,-0.625c0.417,0 1.042,0.104 1.875,0.312c1.042,0.209 1.771,1.146 2.188,2.813c0.625,1.667 0.729,3.437 0.312,5.312c-0.833,2.917 -1.77,5.313 -2.812,7.188c-1.25,2.708 -2.292,3.437 -3.125,2.187c-1.042,-1.25 -1.563,-2.5 -1.563,-3.75c0,-1.25 0.209,-2.187 0.625,-2.812Zm11.875,15.625c-0.833,-0.833 -1.77,-1.667 -2.812,-2.5c-0.833,-0.625 -1.354,-1.042 -1.563,-1.25c-0.416,-0.208 -0.625,-0.417 -0.625,-0.625c0.209,-0.208 0.521,-0.417 0.938,-0.625c1.042,-0.417 1.979,-0.729 2.812,-0.938c0.834,-0.208 2.188,0.105 4.063,0.938c-0.208,0 0,0.104 0.625,0.312c1.875,1.042 2.917,2.5 3.125,4.375c0.208,1.667 0,2.813 -0.625,3.438c-0.625,0.625 -1.25,0.625 -1.875,0c-0.417,-0.417 -1.771,-1.458 -4.063,-3.125Zm4.375,-10.625c-0.208,-0.208 -0.416,-0.521 -0.625,-0.938c-1.041,-1.875 -1.875,-3.125 -2.5,-3.75c-0.416,-0.625 0,-1.041 1.25,-1.25l3.438,0c1.042,0.209 1.979,1.355 2.812,3.438c1.042,1.875 1.25,3.542 0.625,5c-0.625,1.25 -1.25,1.771 -1.875,1.562c-0.833,-0.208 -1.875,-1.562 -3.125,-4.062Z" style="fill-rule:nonzero;"/><path d="M154.375,57.187c0.625,-0.208 1.458,-0.416 2.5,-0.625c4.375,-1.25 6.875,-1.875 7.5,-1.875c0.625,-0.625 1.354,-0.833 2.187,-0.625c0.209,0 0.938,0.417 2.188,1.25c0.625,0.209 1.042,0.417 1.25,0.625c1.667,1.25 2.292,3.125 1.875,5.625c0,2.709 -0.313,6.042 -0.938,10c-0.208,2.709 -0.833,5.834 -1.875,9.375c-1.041,2.084 -2.187,4.063 -3.437,5.938c-0.833,1.042 -2.188,1.875 -4.063,2.5c-0.208,0 -0.52,0.104 -0.937,0.312l-0.938,0c-0.208,0 -0.52,-0.104 -0.937,-0.312c-0.625,-0.625 -0.729,-1.25 -0.313,-1.875c0.417,-1.25 0.313,-2.396 -0.312,-3.438c-0.208,-1.041 -0.521,-1.666 -0.938,-1.875c0,-0.416 0.625,-0.52 1.875,-0.312c1.667,0.208 2.813,0.312 3.438,0.312c0.625,-0.208 1.458,-1.354 2.5,-3.437c1.042,-2.292 1.667,-5.313 1.875,-9.063l0,-1.562c0.417,-2.708 0.521,-5 0.312,-6.875l0,-0.938c-0.208,-1.458 -0.52,-2.187 -0.937,-2.187c-0.208,-0.417 -0.729,-0.417 -1.563,0c-0.833,0 -2.604,0.312 -5.312,0.937c-2.708,0.625 -4.271,1.25 -4.688,1.875c-0.625,0.625 -1.041,1.563 -1.25,2.813c-0.416,1.042 -0.937,1.458 -1.562,1.25c-0.208,0 -0.625,-0.208 -1.25,-0.625c0,-0.208 -0.104,-0.417 -0.313,-0.625c-0.416,-0.833 -0.625,-1.563 -0.625,-2.188c0.417,-0.625 0.73,-1.562 0.938,-2.812c0.417,-1.667 0.729,-4.479 0.937,-8.438c0.209,-4.166 0.105,-6.666 -0.312,-7.5c-0.625,-0.625 -0.729,-1.145 -0.313,-1.562c0.209,-0.417 0.73,-0.625 1.563,-0.625c0.417,-0.417 1.146,0.208 2.187,1.875c0.834,1.25 1.25,2.292 1.25,3.125c-0.208,0.417 -0.312,1.146 -0.312,2.187c-0.208,0.834 -0.313,1.563 -0.313,2.188c0,2.292 -0.312,4.687 -0.937,7.187Zm31.25,-28.437c0.625,-0.208 1.458,0.208 2.5,1.25c0.208,0.208 0.312,0.312 0.312,0.312c1.25,1.459 1.667,2.709 1.25,3.75l0,0.938c0.625,0 1.459,0.521 2.5,1.562c2.292,1.459 4.792,3.646 7.5,6.563c2.917,2.708 5.938,4.896 9.063,6.562c1.25,0.834 2.812,1.667 4.687,2.5c1.25,0.625 2.084,1.042 2.5,1.25c1.042,0.209 1.563,0.521 1.563,0.938c0,0 -0.313,0.104 -0.938,0.312l-4.375,0c-1.25,0.209 -2.5,0.625 -3.75,1.25c-1.25,0.625 -1.979,1.042 -2.187,1.25c-0.417,0 -0.938,-0.104 -1.563,-0.312c-0.416,-0.208 -1.875,-1.667 -4.375,-4.375c-2.708,-3.125 -4.895,-6.042 -6.562,-8.75c-2.083,-3.125 -3.75,-5 -5,-5.625l-0.313,-0.625c-0.208,0.625 -0.729,1.667 -1.562,3.125c-0.417,0.833 -0.729,1.458 -0.938,1.875c-2.291,4.375 -4.375,7.812 -6.25,10.312c-2.083,2.5 -4.062,4.167 -5.937,5c-0.833,0.417 -1.354,0.625 -1.563,0.625c-0.208,-0.208 0,-0.625 0.625,-1.25c1.25,-1.458 2.605,-3.229 4.063,-5.312c0.208,-0.417 0.521,-1.042 0.937,-1.875c0.834,-0.833 2.188,-3.229 4.063,-7.188c1.875,-3.958 2.917,-6.875 3.125,-8.75c0,-2.083 -0.208,-3.437 -0.625,-4.062c-0.625,-0.833 -0.729,-1.25 -0.313,-1.25l1.563,0Zm-3.75,51.25c1.875,-0.417 3.75,-0.729 5.625,-0.938c0,0 0.104,-0.208 0.312,-0.625c0,-0.833 0.209,-1.354 0.625,-1.562c0.417,-0.208 1.875,-2.188 4.375,-5.938c2.5,-3.333 3.75,-5.625 3.75,-6.875c0,-0.416 -0.104,-0.937 -0.312,-1.562l0,-0.938c-0.417,-0.833 -0.417,-1.25 0,-1.25c0.417,0 1.146,0.209 2.187,0.625c1.042,0 1.98,1.042 2.813,3.125c0.625,1.875 0.833,3.125 0.625,3.75c-0.417,0.834 -1.875,2.396 -4.375,4.688c-1.042,0.833 -2.396,1.979 -4.063,3.437c-1.041,0.834 -1.77,1.459 -2.187,1.875c-0.625,0.209 -1.042,0.521 -1.25,0.938c1.667,-0.625 3.125,-0.938 4.375,-0.938c3.75,-1.041 5.833,-1.666 6.25,-1.875c0.417,-0.625 1.354,0 2.812,1.875c1.667,1.667 2.188,3.125 1.563,4.375c-0.625,0.834 -1.25,1.146 -1.875,0.938c-0.625,-0.625 -1.979,-1.25 -4.063,-1.875c-2.291,-0.625 -5,-0.625 -8.125,0c-3.125,0.625 -6.145,1.25 -9.062,1.875c-2.917,0.625 -4.688,1.25 -5.313,1.875c-0.833,0.417 -1.562,0 -2.187,-1.25c-0.625,-1.458 -0.625,-2.188 0,-2.188c0.208,-0.208 1.354,-0.416 3.437,-0.625c1.667,-0.416 3.021,-0.729 4.063,-0.937Zm-16.875,-49.688c0.833,-0.208 1.771,0.313 2.812,1.563c0.417,0.208 0.73,0.417 0.938,0.625c1.875,1.667 2.604,2.812 2.187,3.437c-0.416,0.625 -1.458,3.75 -3.125,9.375c-1.875,5.209 -3.229,8.021 -4.062,8.438c-1.042,0 -1.667,-0.313 -1.875,-0.938c-0.417,-1.041 -0.625,-1.979 -0.625,-2.812c-0.208,-1.042 0,-1.875 0.625,-2.5c0.625,-0.833 1.354,-3.125 2.187,-6.875c0.625,-3.75 0.73,-5.729 0.313,-5.938c-4.375,1.667 -6.979,2.813 -7.813,3.438c-0.833,0.833 -1.458,1.25 -1.875,1.25c-0.208,0 -0.52,-0.313 -0.937,-0.938c0.417,0.625 0.312,0.417 -0.313,-0.625c-0.625,-0.833 -1.041,-1.666 -1.25,-2.5c-0.208,-0.833 0,-1.25 0.625,-1.25c0.625,0 1.563,-0.104 2.813,-0.312c1.25,-0.625 3.125,-1.25 5.625,-1.875c2.292,-0.625 3.542,-1.146 3.75,-1.563Zm-24.063,41.25c-0.208,-0.416 -0.312,-0.729 -0.312,-0.937c0,-0.208 0.104,-0.313 0.312,-0.313l4.063,0c0.833,-0.208 2.396,-0.52 4.687,-0.937c0.834,-0.208 1.459,-0.417 1.875,-0.625c2.5,-1.042 4.48,-1.667 5.938,-1.875c1.25,-0.625 2.187,-0.938 2.812,-0.938c0.209,-0.416 0.938,-0.104 2.188,0.938c1.042,0.625 1.667,1.25 1.875,1.875c0,0.625 -0.313,1.042 -0.938,1.25c-0.625,0.208 -1.458,0.312 -2.5,0.312c-1.25,-0.208 -2.916,0 -5,0.625c-0.625,0.209 -1.562,0.521 -2.812,0.938c-1.875,0.625 -3.333,1.146 -4.375,1.562c-2.708,0.834 -4.375,1.459 -5,1.875c-0.417,0.417 -0.938,0 -1.563,-1.25c-0.625,-0.833 -1.041,-1.666 -1.25,-2.5Zm43.75,-18.437c1.25,-0.417 2.709,-0.938 4.375,-1.563c0.625,-0.416 1.25,-0.729 1.875,-0.937c0.625,-0.417 0.938,-0.625 0.938,-0.625c0.417,-0.417 1.25,-0.208 2.5,0.625c1.458,0.625 1.875,1.25 1.25,1.875c-0.208,0.625 -1.042,1.25 -2.5,1.875c-1.458,0.833 -3.333,1.771 -5.625,2.812c-0.417,0.209 -1.042,0.521 -1.875,0.938c-0.833,0.417 -1.458,0.625 -1.875,0.625c-0.417,0 -0.938,-0.417 -1.563,-1.25c-0.208,-0.625 -0.52,-1.458 -0.937,-2.5c-0.208,-1.042 -0.104,-1.458 0.312,-1.25c0.209,0 0.73,-0.104 1.563,-0.313c0.625,-0.208 1.146,-0.312 1.562,-0.312Zm-3.437,14.375c1.458,1.458 2.292,2.708 2.5,3.75c0.417,0.625 0.417,1.771 0,3.437l0,0.313c-0.625,1.667 -1.354,2.187 -2.188,1.562c-0.833,-1.041 -1.77,-2.604 -2.812,-4.687c-0.625,-2.292 -1.146,-3.75 -1.563,-4.375c0,-0.625 0.105,-1.25 0.313,-1.875c0,-1.042 0.312,-1.354 0.937,-0.938c0.417,0 1.355,0.938 2.813,2.813Zm6.875,1.25c-0.625,-1.042 -1.146,-2.5 -1.563,-4.375l0,-0.313c-0.208,-1.458 -0.52,-2.5 -0.937,-3.125c-0.208,-0.625 -0.104,-0.937 0.312,-0.937c0.209,-0.208 0.73,-0.208 1.563,0c-0.625,-0.208 -0.521,-0.104 0.312,0.312c1.042,0.417 1.98,1.563 2.813,3.438c1.25,1.667 1.667,3.021 1.25,4.062c-0.208,1.25 -0.729,2.188 -1.563,2.813c-1.041,0.208 -1.77,-0.417 -2.187,-1.875Z" style="fill-rule:nonzero;"/><path d="M267.812,73.437c1.25,0.625 1.459,1.355 0.625,2.188c-1.875,1.042 -4.062,1.875 -6.562,2.5c-0.208,2.917 -0.729,5.833 -1.563,8.75c0.834,-0.208 2.084,-0.417 3.75,-0.625c2.5,-0.417 4.271,-0.729 5.313,-0.938c0.208,-0.625 1.146,0 2.812,1.875c1.667,1.459 2.188,2.605 1.563,3.438c-0.625,1.25 -1.146,1.562 -1.563,0.937c-0.208,-0.208 -0.729,-0.52 -1.562,-0.937c-0.417,-0.208 -0.729,-0.417 -0.938,-0.625c-0.208,0 -0.416,-0.104 -0.625,-0.313c-1.25,-0.416 -3.229,-0.52 -5.937,-0.312c-4.375,0.417 -8.229,0.833 -11.563,1.25c-0.625,0.208 -1.562,0.417 -2.812,0.625c-2.292,0.625 -3.438,0.937 -3.438,0.937l-0.625,0c-0.208,0 -0.416,-0.104 -0.625,-0.312c0,-0.208 -0.104,-0.417 -0.312,-0.625c-0.208,-0.625 -0.417,-1.042 -0.625,-1.25c0,-0.833 0.208,-1.25 0.625,-1.25c1.458,-0.208 3.854,-0.417 7.187,-0.625c2.5,-0.208 4.48,-0.417 5.938,-0.625c-0.417,-1.25 -0.625,-2.188 -0.625,-2.813c0.208,-1.666 0.312,-3.333 0.312,-5c-1.458,0.209 -3.02,0.521 -4.687,0.938c-0.208,0 -0.417,-0.104 -0.625,-0.313c0,0 -0.104,-0.104 -0.313,-0.312c-0.208,-0.625 -0.52,-1.458 -0.937,-2.5c0,-1.042 0.208,-1.563 0.625,-1.563c0.625,-0.208 1.667,-0.416 3.125,-0.625c1.25,-0.208 2.187,-0.312 2.812,-0.312c0,-2.917 -0.416,-4.583 -1.25,-5c-0.625,-0.625 -0.729,-1.458 -0.312,-2.5c-2.292,0.833 -4.375,1.875 -6.25,3.125c-1.042,0.625 -1.875,0.208 -2.5,-1.25c-0.417,-0.625 -0.729,-1.563 -0.938,-2.813c-0.208,-0.208 -0.312,-0.416 -0.312,-0.625c0,-1.25 0.104,-1.77 0.312,-1.562c0.625,0 1.355,-0.104 2.188,-0.313c0.833,0 2.187,-1.041 4.062,-3.125c1.667,-1.875 2.5,-3.437 2.5,-4.687c-0.208,-0.208 -0.208,-0.313 0,-0.313l-2.187,0c-0.833,0.209 -1.563,0.313 -2.188,0.313c-0.208,0 -0.52,-0.417 -0.937,-1.25l0,-1.25c-0.208,-0.625 -0.313,-1.042 -0.313,-1.25c0,-1.042 0.313,-1.458 0.938,-1.25c0.833,0 3.437,-0.313 7.812,-0.938c4.375,-0.625 6.771,-1.145 7.188,-1.562c0.417,-0.417 1.25,-0.104 2.5,0.937c-0.208,-0.208 -0.104,-0.104 0.312,0.313c1.459,1.042 1.771,1.875 0.938,2.5c-0.417,0.417 -1.458,0.833 -3.125,1.25c-0.625,0.208 -1.146,0.312 -1.563,0.312c-2.708,0.625 -5.52,1.146 -8.437,1.563c0,0 0.208,0.104 0.625,0.312c1.458,0.417 2.292,0.834 2.5,1.25c0.833,0.834 1.146,1.459 0.937,1.875c0,0.209 -1.041,1.146 -3.125,2.813c-1.25,0.833 -2.187,1.562 -2.812,2.187c2.292,-0.416 4.792,-0.937 7.5,-1.562c1.042,-0.208 1.771,-0.313 2.187,-0.313c1.25,-0.416 2.084,-0.416 2.5,0c0,0 0.105,0.105 0.313,0.313c0.417,0.208 0.625,0.521 0.625,0.937c0.417,0.209 0,0.521 -1.25,0.938c-1.042,0.417 -2.604,0.937 -4.688,1.562c-1.25,0.417 -2.187,0.73 -2.812,0.938c1.875,0.208 3.125,0.729 3.75,1.562c0.417,0.625 0.625,2.084 0.625,4.375l0,0.938c0.625,-0.208 1.562,-0.521 2.812,-0.938c0.417,-0.208 0.73,-0.312 0.938,-0.312c0.417,-0.417 1.146,-0.104 2.187,0.937Zm-9.062,-30c-1.25,0 -2.083,-0.937 -2.5,-2.812c-1.042,0.208 -2.604,0.417 -4.688,0.625c-2.083,0.417 -3.645,0.729 -4.687,0.937c-1.458,0.209 -2.5,0.521 -3.125,0.938c-0.625,-0.208 -0.938,-0.625 -0.938,-1.25c0,-0.208 -0.104,-0.521 -0.312,-0.938c0,-0.416 -0.104,-0.729 -0.313,-0.937c-0.208,-0.833 -0.104,-1.25 0.313,-1.25c4.583,-0.625 5.104,-0.729 1.562,-0.313c3.542,-0.416 7.5,-0.833 11.875,-1.25c0.209,-1.666 0,-3.333 -0.625,-5c-0.625,-1.25 -1.25,-2.083 -1.875,-2.5c-0.625,-0.625 -0.625,-1.145 0,-1.562c0.625,-0.417 1.459,-0.729 2.5,-0.938c0.209,-0.208 0.313,-0.312 0.313,-0.312c1.042,0 2.292,0.729 3.75,2.187c2.083,1.875 3.125,3.23 3.125,4.063l0,3.437c1.667,-0.208 4.167,-0.52 7.5,-0.937c3.542,-0.417 6.146,-0.833 7.812,-1.25c2.709,-0.417 4.375,-0.938 5,-1.563c0.625,-0.625 1.875,-0.208 3.75,1.25c2.084,1.459 3.438,3.542 4.063,6.25c0,0.209 0.104,0.521 0.312,0.938l0,1.25c0,1.25 -0.312,1.979 -0.937,2.187c-1.042,0.417 -2.188,0 -3.438,-1.25c-1.458,-1.458 -2.916,-1.875 -4.375,-1.25c-0.416,0.209 -0.937,0.417 -1.562,0.625c-0.417,0.209 -0.938,0.417 -1.563,0.625c-0.833,0 -0.937,-0.208 -0.312,-0.625c0.417,-0.625 1.25,-1.562 2.5,-2.812c1.25,-1.458 1.771,-2.292 1.562,-2.5c-0.208,-0.417 -2.083,-0.417 -5.625,0c-5.416,0.833 -10.625,1.562 -15.625,2.187c-1.041,2.5 -2.187,3.75 -3.437,3.75Zm-24.688,-7.187l0,-0.313c-0.208,-0.208 -0.312,-0.312 -0.312,-0.312c0,-0.208 0.208,-0.313 0.625,-0.313c0.417,-0.416 0.937,-0.625 1.562,-0.625c0.625,0 1.459,0.73 2.5,2.188c1.042,1.25 1.563,2.917 1.563,5c0,1.875 -0.313,4.479 -0.938,7.812c-0.625,3.125 -1.25,4.896 -1.875,5.313c-0.625,0 -1.354,-0.521 -2.187,-1.563c0,-0.208 -0.104,-0.416 -0.313,-0.625c-0.416,-0.416 -0.729,-1.041 -0.937,-1.875c0,0 0.104,-0.208 0.312,-0.625c0.417,-0.833 0.625,-1.875 0.625,-3.125c0.417,-1.25 0.625,-2.812 0.625,-4.687c0,-1.875 -0.104,-3.229 -0.312,-4.063c-0.208,-0.833 -0.521,-1.562 -0.938,-2.187Zm32.813,25c-1.875,-2.5 -2.917,-3.854 -3.125,-4.063c-0.208,-0.416 0.104,-0.729 0.937,-0.937c1.042,-0.417 1.98,-0.521 2.813,-0.313c0.833,0 1.875,0.73 3.125,2.188c1.042,1.667 1.667,3.125 1.875,4.375c0,1.458 -0.313,2.5 -0.938,3.125c-0.625,0.833 -1.25,0.937 -1.875,0.312c-0.208,-0.625 -1.145,-2.187 -2.812,-4.687Z" style="fill-rule:nonzero;"/><path d="M329.375,73.75c0.833,0.833 0.937,1.458 0.312,1.875c-0.208,0.208 -1.145,0.729 -2.812,1.562c-0.833,0.417 -1.458,0.73 -1.875,0.938c-2.292,1.042 -4.583,2.5 -6.875,4.375c-1.458,1.042 -2.604,1.667 -3.438,1.875c-0.416,0 -1.041,-0.938 -1.875,-2.813c-0.625,-1.666 -0.729,-2.812 -0.312,-3.437c0.417,0 0.937,-0.104 1.562,-0.313c0.625,0 1.146,-0.104 1.563,-0.312c-0.625,-0.833 -0.938,-1.563 -0.938,-2.188c-0.208,-0.208 -0.52,-1.875 -0.937,-5c-0.208,-1.041 -0.313,-1.875 -0.313,-2.5c-0.208,-1.875 -0.416,-4.479 -0.625,-7.812c-0.416,-2.292 -0.625,-3.958 -0.625,-5c-0.208,-1.667 -0.416,-3.438 -0.625,-5.313l0,-0.937c-0.208,-0.208 -0.312,-0.417 -0.312,-0.625c0,-0.208 0.104,-0.313 0.312,-0.313c0.209,-0.208 0.313,-0.312 0.313,-0.312c0.625,-0.208 1.25,0 1.875,0.625c0,0 0.104,0.104 0.312,0.312c0.834,0.417 1.459,0.938 1.875,1.563c2.084,-6.875 3.125,-10.521 3.125,-10.938c0,-1.25 -0.208,-2.083 -0.625,-2.5c-0.416,-0.416 -0.416,-0.833 0,-1.25c0.625,-0.416 1.25,-0.625 1.875,-0.625c0.625,-0.208 1.667,0.521 3.125,2.188c1.25,1.875 1.875,3.229 1.875,4.062c-0.416,1.25 -1.562,3.125 -3.437,5.625c0.417,-0.208 0.729,-0.312 0.937,-0.312c1.459,0 3.438,-0.313 5.938,-0.938c2.292,-1.041 3.542,-1.666 3.75,-1.875c0.625,-0.208 1.771,0.625 3.437,2.5c1.667,2.292 2.292,4.375 1.875,6.25c-0.416,2.292 -0.729,7.605 -0.937,15.938c-0.625,9.583 -1.563,15.417 -2.813,17.5c-0.833,1.25 -1.562,1.875 -2.187,1.875c-0.625,0 -1.042,-0.729 -1.25,-2.188c-0.625,-2.5 -0.521,-4.791 0.312,-6.875c0.625,-1.666 1.042,-6.666 1.25,-15c0.417,-7.916 0.417,-11.979 0,-12.187c0,-1.25 -0.312,-1.771 -0.937,-1.563c-0.625,0 -1.771,0.313 -3.438,0.938c-1.875,0.833 -3.02,1.25 -3.437,1.25c-0.417,0.208 -1.25,-0.833 -2.5,-3.125c0.208,0.208 0.104,0 -0.313,-0.625l0,-0.938c-1.666,1.875 -3.333,3.646 -5,5.313c0,1.042 0.105,2.604 0.313,4.687l0,4.375c3.125,-1.041 5.625,-1.979 7.5,-2.812c0.417,-0.625 1.25,-0.313 2.5,0.937c0.833,1.25 0.937,1.98 0.312,2.188c-0.625,0.208 -2.187,0.833 -4.687,1.875c-2.917,1.25 -4.688,1.562 -5.313,0.937c0.209,1.25 0.417,3.23 0.625,5.938c0.417,2.5 0.625,4.479 0.625,5.937c1.459,-0.416 3.542,-1.25 6.25,-2.5c1.042,-0.625 1.875,-1.041 2.5,-1.25c0.625,-0.625 1.355,-0.312 2.188,0.938Zm18.75,-27.5c-0.625,-1.458 -0.104,-2.292 1.562,-2.5c4.792,-0.625 9.167,-1.875 13.125,-3.75c0.417,-0.417 1.563,0.312 3.438,2.187c1.667,1.25 2.5,2.605 2.5,4.063c0,0 -0.104,0.104 -0.313,0.312c-0.208,0.625 -0.312,2.084 -0.312,4.375c-0.208,1.875 -0.313,3.438 -0.313,4.688c-0.416,3.958 -0.937,8.229 -1.562,12.812c-0.833,5.417 -2.5,10.313 -5,14.688c-2.292,3.542 -4.375,5.312 -6.25,5.312l-0.313,0c-1.25,0 -1.875,-1.145 -1.875,-3.437c0,-2.292 -0.208,-3.854 -0.625,-4.688c-0.208,-1.25 -0.833,-2.395 -1.875,-3.437c-0.416,-0.417 -0.625,-0.729 -0.625,-0.938c0,-0.208 0.313,-0.208 0.938,0c0.417,0 1.458,0.105 3.125,0.313c-1.042,-0.208 -0.625,-0.104 1.25,0.312c1.667,0 2.708,-0.312 3.125,-0.937c0.417,-0.208 1.146,-2.708 2.187,-7.5c-0.833,4.583 -0.729,4.271 0.313,-0.938c1.042,-5.833 1.562,-10.104 1.562,-12.812c0.209,-6.042 0,-9.167 -0.625,-9.375c-0.416,-0.208 -1.979,0.312 -4.687,1.562c-0.417,0.209 -1.146,0.417 -2.188,0.625c-1.25,0.625 -2.291,1.042 -3.125,1.25c-1.041,0.625 -1.875,0.417 -2.5,-0.625c0,-0.208 -0.104,-0.52 -0.312,-0.937c-0.208,-0.208 -0.417,-0.417 -0.625,-0.625Zm-6.875,4.062c-0.625,0.417 -0.625,0 0,-1.25c0,-0.416 0.312,-1.25 0.937,-2.5c0.834,-2.291 1.563,-4.27 2.188,-5.937c1.25,-4.583 1.875,-7.188 1.875,-7.813c0,-0.625 -0.104,-1.354 -0.313,-2.187c-0.208,-0.625 0.105,-0.938 0.938,-0.938c1.042,0 2.292,0.625 3.75,1.875c1.458,1.25 2.187,2.292 2.187,3.125c-1.458,4.792 -4.27,9.271 -8.437,13.438c-0.625,0.417 -1.354,0.937 -2.188,1.562c-0.625,0.417 -0.937,0.625 -0.937,0.625Zm3.437,12.188c-1.875,-2.708 -2.916,-4.375 -3.125,-5c-0.625,-0.625 -0.625,-1.042 0,-1.25l0.938,0c1.042,-0.208 1.875,-0.313 2.5,-0.313c1.667,-0.208 3.229,0.938 4.687,3.438c1.875,2.083 2.605,3.958 2.188,5.625c0,1.458 -0.417,2.604 -1.25,3.437c-0.833,0.625 -1.563,0.417 -2.188,-0.625c-0.208,-0.208 -0.52,-0.625 -0.937,-1.25c-1.042,-1.458 -1.979,-2.812 -2.813,-4.062Z" style="fill-rule:nonzero;"/><path d="M411.875,51.562c1.667,0 2.917,0.521 3.75,1.563c0.625,0.625 4.687,3.229 12.187,7.812c7.292,4.375 13.855,7.396 19.688,9.063c2.708,0.625 5.729,1.25 9.062,1.875c1.042,0.417 1.771,0.625 2.188,0.625c0.417,0 0.625,0.104 0.625,0.312c0,0.209 -0.313,0.313 -0.938,0.313c-0.416,0.208 -0.729,0.312 -0.937,0.312c-2.083,0 -5,0.625 -8.75,1.875c-4.167,1.042 -6.563,1.875 -7.188,2.5c-0.625,0.417 -1.25,0.625 -1.875,0.625c-0.416,0 -0.625,-0.104 -0.625,-0.312c-1.041,-0.208 -3.437,-1.563 -7.187,-4.063c-3.542,-2.083 -7.604,-5.312 -12.188,-9.687c-3.958,-4.167 -6.458,-6.667 -7.5,-7.5c-1.041,-1.25 -2.187,-1.875 -3.437,-1.875c-11.667,11.667 -18.438,18.125 -20.313,19.375c-1.25,1.042 -2.5,1.875 -3.75,2.5c-0.625,0.208 -0.937,0.208 -0.937,0l0,-0.313c0.208,-0.625 0.937,-1.666 2.187,-3.125c0.834,-0.625 3.23,-3.125 7.188,-7.5c2.083,-2.291 3.75,-4.166 5,-5.625c1.25,-1.458 3.021,-3.437 5.312,-5.937c2.917,-3.333 5.938,-6.563 9.063,-9.688c0.833,-1.041 1.771,-2.291 2.812,-3.75c1.25,-1.458 1.875,-2.291 1.875,-2.5c0,-0.416 0.209,-0.625 0.625,-0.625c0.209,0 0.625,0.313 1.25,0.938c1.25,0.625 1.875,1.458 1.875,2.5c0.209,0.833 0,1.562 -0.625,2.187c-0.208,0.417 -3.02,3.125 -8.437,8.125Z" style="fill-rule:nonzero;"/><path d="M505.625,39.062c-0.833,-0.625 -1.146,-1.25 -0.938,-1.875c0,0 0.521,-2.187 1.563,-6.562c-5.833,1.25 -9.063,2.083 -9.688,2.5c-0.833,0.208 -1.458,0.104 -1.875,-0.313c-0.416,-0.416 -0.937,-1.041 -1.562,-1.875l0,-0.312c-0.417,-0.833 -0.417,-1.25 0,-1.25c0.208,-0.208 1.875,-0.625 5,-1.25c0.833,-0.208 1.979,-0.521 3.437,-0.938c1.667,-0.208 2.813,-0.416 3.438,-0.625c1.875,-0.416 3.125,-1.041 3.75,-1.875c0,-0.208 0.208,-0.312 0.625,-0.312c0.833,0 2.292,0.729 4.375,2.187c2.708,1.875 3.437,3.23 2.187,4.063c-0.833,0.833 -3.02,3.75 -6.562,8.75c2.5,0.833 3.542,1.771 3.125,2.812c-0.208,0.834 -0.521,1.25 -0.938,1.25l-0.937,0c-0.833,-0.208 -1.458,-0.312 -1.875,-0.312c-1.458,0 -6.146,0.729 -14.063,2.187c0.417,2.709 0.105,3.959 -0.937,3.75c-1.25,0 -2.188,-0.52 -2.813,-1.562c-0.625,-0.833 -1.041,-2.188 -1.25,-4.063c0,-1.875 -0.52,-4.166 -1.562,-6.875c-1.25,-2.916 -2.188,-4.687 -2.813,-5.312c-0.416,-0.417 -0.625,-0.729 -0.625,-0.938c0,-0.208 0.313,-0.416 0.938,-0.625c1.25,-0.625 2.292,-0.625 3.125,0c1.25,0.209 2.083,0.834 2.5,1.875c0.417,0.417 1.042,2.605 1.875,6.563c0.208,1.458 0.417,2.604 0.625,3.437l11.875,-2.5Zm-16.25,16.563c0.208,0.833 0.312,4.896 0.312,12.187l0,13.75c-0.208,1.875 -0.833,2.605 -1.875,2.188c-1.458,-0.417 -2.187,-1.667 -2.187,-3.75c-0.208,-2.083 -0.208,-6.25 0,-12.5l0,-11.25c0,-0.417 -0.104,-0.833 -0.313,-1.25c0,-0.417 -0.104,-0.833 -0.312,-1.25c-0.208,-0.625 0.104,-1.042 0.937,-1.25c1.25,-0.208 1.98,0 2.188,0.625c0.625,0.625 1.042,1.458 1.25,2.5Zm24.687,29.687c2.709,2.5 4.167,4.063 4.375,4.688c0,1.25 -0.104,2.708 -0.312,4.375c-0.208,2.083 -0.833,3.125 -1.875,3.125c-0.833,0 -1.875,-1.25 -3.125,-3.75c-0.833,-2.5 -2.396,-4.688 -4.688,-6.563c-1.875,-2.708 -3.125,-4.375 -3.75,-5c-0.208,-0.416 -0.312,-0.625 -0.312,-0.625c0,-0.208 0.104,-0.312 0.312,-0.312c0.625,0 1.563,0.104 2.813,0.312c1.042,0 2.604,0.834 4.687,2.5c-0.625,-1.25 -0.625,-2.604 0,-4.062c0.625,-1.667 0.834,-6.354 0.625,-14.063c0,-6.041 -0.312,-10.208 -0.937,-12.5c-0.625,-0.833 -1.146,-1.25 -1.563,-1.25c-0.416,0 -1.979,0.313 -4.687,0.938c-1.042,0.208 -1.875,0.417 -2.5,0.625c-4.375,0.833 -6.979,1.458 -7.813,1.875c-1.25,0.417 -1.979,0.312 -2.187,-0.313c-0.208,-0.625 -0.521,-1.354 -0.938,-2.187c-0.416,-1.25 -0.312,-1.875 0.313,-1.875c0.208,0 0.833,-0.104 1.875,-0.313c2.708,-0.416 5.104,-0.729 7.187,-0.937c5.209,-0.833 8.125,-1.563 8.75,-2.188c0.625,-0.416 2.084,0 4.375,1.25c2.292,1.25 3.334,3.334 3.125,6.25l0,13.438c0.417,5.833 0.105,9.896 -0.937,12.187c-0.833,2.5 -1.771,3.959 -2.813,4.375Zm-30.937,11.25c-1.042,0.417 -1.458,0.417 -1.25,0c0.208,-0.416 0.937,-1.041 2.187,-1.875c1.25,-0.833 3.438,-2.916 6.563,-6.25c2.917,-2.916 5,-6.25 6.25,-10c1.25,-3.541 1.979,-6.875 2.187,-10c0,-3.125 -0.104,-5.208 -0.312,-6.25c-0.208,-1.25 -0.625,-1.979 -1.25,-2.187c-0.625,-0.417 -0.729,-0.729 -0.313,-0.938c0.209,-0.208 0.521,-0.416 0.938,-0.625c0.208,-0.208 0.417,-0.312 0.625,-0.312c0.625,0 1.562,0.417 2.812,1.25c1.25,0.833 1.98,1.667 2.188,2.5c0.208,0.417 0,2.812 -0.625,7.187c-0.208,3.959 -1.25,8.021 -3.125,12.188c-1.667,3.75 -4.688,7.083 -9.063,10c-4.166,3.333 -6.77,5.104 -7.812,5.312Z" style="fill-rule:nonzero;"/><path d="M590.625,53.125c-0.208,-0.625 -0.313,-2.396 -0.313,-5.313c-1.25,0.417 -1.979,0.625 -2.187,0.625c-0.417,-0.416 -0.938,-1.041 -1.563,-1.875c-0.625,-1.25 -0.52,-1.875 0.313,-1.875c0.833,-0.625 2.083,-1.041 3.75,-1.25l0,-4.375c-0.417,0.209 -1.042,0.417 -1.875,0.625c-0.625,0.209 -1.25,0.417 -1.875,0.625c-0.417,0 -0.833,-0.208 -1.25,-0.625c0,-0.208 -0.104,-0.416 -0.313,-0.625c0,-0.416 -0.104,-0.625 -0.312,-0.625c-0.208,-0.625 -0.208,-0.937 0,-0.937c0.208,-0.208 0.521,-0.313 0.937,-0.313c0.417,-0.208 0.73,-0.312 0.938,-0.312c0.208,0 0.833,-0.104 1.875,-0.313c0.833,-0.208 1.458,-0.312 1.875,-0.312c0,-4.792 -0.208,-7.5 -0.625,-8.125c-0.625,-0.625 -1.042,-1.042 -1.25,-1.25c0,0 0.104,-0.208 0.312,-0.625c0.417,-0.417 1.042,-0.729 1.875,-0.938l0.313,0c0.625,0 1.458,0.417 2.5,1.25c1.25,1.25 1.771,2.188 1.562,2.813l0,6.25c5.209,-1.042 8.125,-1.771 8.75,-2.188c0.209,-0.416 1.25,0.209 3.125,1.875c1.667,1.667 2.5,2.813 2.5,3.438c-0.208,0.833 -1.145,3.333 -2.812,7.5c-1.875,4.375 -3.229,7.292 -4.063,8.75c-0.208,0.417 -0.52,0.833 -0.937,1.25c-0.208,0.417 -0.521,0.833 -0.938,1.25c-0.625,0.208 -1.145,0.208 -1.562,0c-0.208,-0.208 -0.417,-0.521 -0.625,-0.938c-0.208,-0.208 -0.313,-0.312 -0.313,-0.312c0,-0.417 -0.208,-0.729 -0.625,-0.938c-1.458,0 -3.229,0.313 -5.312,0.938c-3.125,0.625 -5,1.146 -5.625,1.562c-0.625,0.209 -1.042,0.313 -1.25,0.313c-0.417,-0.208 -0.938,-0.625 -1.563,-1.25c-0.625,-0.625 -0.937,-1.146 -0.937,-1.563c0.417,-0.416 1.042,-0.625 1.875,-0.625c-2.083,-5.208 -3.646,-8.645 -4.688,-10.312c-0.625,-0.625 -0.937,-1.771 -0.937,-3.438c0,-1.458 0.208,-2.291 0.625,-2.5c0.625,0 1.25,0.625 1.875,1.875c0.833,1.25 1.875,3.438 3.125,6.563c1.458,3.125 2.292,5.417 2.5,6.875c1.458,-0.417 2.5,-0.625 3.125,-0.625Zm-21.875,-15c0,-0.625 -0.208,-1.042 -0.625,-1.25c-0.208,-0.417 0,-0.729 0.625,-0.938c0.625,-0.416 1.562,-0.208 2.812,0.625c1.25,0.834 1.771,1.667 1.563,2.5c-0.208,0.417 -0.313,1.355 -0.313,2.813c-0.208,1.25 -0.312,2.187 -0.312,2.812c-0.417,2.292 -0.625,7.396 -0.625,15.313c0.625,-0.417 1.354,-0.729 2.187,-0.938c1.459,-0.416 1.25,0.417 -0.625,2.5l-1.562,1.563c-0.208,1.667 -0.313,3.333 -0.313,5l0,22.187c0,2.709 -0.312,4.375 -0.937,5c-0.208,0.209 -0.417,0.313 -0.625,0.313c-0.625,0 -1.354,-0.938 -2.188,-2.813c-1.041,-2.5 -1.25,-4.062 -0.625,-4.687c0.417,-1.042 0.73,-4.271 0.938,-9.688c0,-4.166 0.104,-8.229 0.312,-12.187c-1.875,1.667 -4.479,3.958 -7.812,6.875c-3.75,3.125 -6.042,5.104 -6.875,5.937c-1.667,1.667 -3.229,3.125 -4.688,4.375c-0.416,0.209 -0.625,0.313 -0.625,0.313c-0.625,0 -1.458,-1.146 -2.5,-3.438c-0.833,-1.458 -1.25,-2.5 -1.25,-3.125c0,-0.416 0.105,-0.625 0.313,-0.625c0.833,-0.208 3.125,-1.562 6.875,-4.062c4.167,-2.5 7.812,-4.896 10.937,-7.188c1.875,-1.041 3.75,-2.187 5.625,-3.437c0,-4.792 0.105,-9.167 0.313,-13.125l0,-10.625Zm41.875,20.312c1.458,0.834 2.187,1.667 2.187,2.5l0,0.625c-0.208,1.25 -0.625,1.667 -1.25,1.25c-0.625,-0.416 -1.562,-0.625 -2.812,-0.625c-0.833,-0.208 -2.604,-0.104 -5.313,0.313c2.292,-0.417 1.98,-0.417 -0.937,0c-2.917,0.208 -6.875,0.833 -11.875,1.875c1.875,0.417 3.021,0.937 3.437,1.562c0.417,0.625 0.313,1.355 -0.312,2.188c-0.208,0.417 -0.729,1.042 -1.563,1.875c-0.625,0.833 -1.145,1.458 -1.562,1.875c1.458,-0.417 3.229,-0.729 5.312,-0.938c1.459,-0.416 2.292,-0.625 2.5,-0.625c1.042,-0.416 2.5,0.313 4.375,2.188c1.875,1.667 2.396,3.75 1.563,6.25c-0.625,2.292 -1.563,4.687 -2.813,7.187c-1.25,2.084 -2.5,3.75 -3.75,5c-1.458,1.459 -2.916,2.5 -4.375,3.125c-1.458,0.625 -2.5,0.834 -3.125,0.625c-0.625,-0.625 -0.937,-1.666 -0.937,-3.125c0,-1.666 -0.313,-2.708 -0.938,-3.125c-0.416,-0.833 -0.937,-1.562 -1.562,-2.187c-0.625,-0.625 0.312,-0.625 2.812,0c2.917,0.625 4.688,0.833 5.313,0.625c0.625,-0.208 1.667,-1.563 3.125,-4.063c1.458,-2.708 1.979,-5 1.562,-6.875c-0.208,-2.291 -2.083,-3.02 -5.625,-2.187c-3.333,0.625 -5.52,1.562 -6.562,2.812c-0.625,0.834 -1.458,0.521 -2.5,-0.937c-0.625,-1.458 -0.521,-2.396 0.312,-2.813c0.834,-0.208 1.875,-1.25 3.125,-3.125c1.25,-2.291 1.355,-3.854 0.313,-4.687c-1.042,0.208 -2.5,0.625 -4.375,1.25c-4.583,1.042 -7.083,1.667 -7.5,1.875c-0.625,0 -1.042,-0.417 -1.25,-1.25c0,-0.208 -0.104,-0.521 -0.313,-0.938c-0.208,-0.416 -0.312,-0.729 -0.312,-0.937c-0.208,-0.625 -0.208,-0.833 0,-0.625c0.625,0 4.479,-0.729 11.562,-2.188c7.084,-1.25 12.292,-2.291 15.625,-3.125c0.417,0 0.938,-0.104 1.563,-0.312c2.083,-0.417 3.333,-0.729 3.75,-0.938c0.625,-0.416 1.667,-0.208 3.125,0.625Zm-57.813,-4.687c0,-1.458 -0.104,-3.229 -0.312,-5.313c0,-2.708 -0.104,-4.583 -0.313,-5.625c-0.208,-1.25 -0.312,-2.083 -0.312,-2.5c-0.208,-0.416 -0.104,-0.625 0.312,-0.625c0.417,0 1.355,0.417 2.813,1.25c1.25,1.042 1.875,2.084 1.875,3.125c0,1.042 -0.104,4.063 -0.313,9.063c-0.208,4.375 -0.312,8.125 -0.312,11.25c0,2.708 -0.104,4.271 -0.313,4.687c-0.416,0.417 -1.25,-0.104 -2.5,-1.562c-1.041,-1.25 -1.458,-2.292 -1.25,-3.125c0.417,-1.042 0.625,-4.583 0.625,-10.625Zm10.938,-23.75c4.375,-1.042 6.875,-1.875 7.5,-2.5c0.417,-0.833 1.667,-0.625 3.75,0.625c2.292,1.042 3.333,2.187 3.125,3.437c-0.208,1.042 -0.938,1.459 -2.188,1.25c-1.458,-0.416 -4.062,-0.312 -7.812,0.313c-0.417,0 -0.938,0.104 -1.563,0.312c-2.916,0.209 -5,0.625 -6.25,1.25c-1.25,0.625 -1.979,0.73 -2.187,0.313c-0.208,-0.208 -0.417,-0.625 -0.625,-1.25c-0.417,-0.417 -0.729,-0.729 -0.938,-0.938c-0.625,-1.25 -0.729,-1.875 -0.312,-1.875c0.625,0 3.125,-0.312 7.5,-0.937Zm30.312,22.187c1.459,-0.416 2.5,-0.729 3.125,-0.937c0.625,0 1.146,0.417 1.563,1.25c0.625,-1.25 1.458,-4.063 2.5,-8.438c1.25,-4.375 1.667,-6.77 1.25,-7.187l-7.188,1.562c-0.208,0.834 -0.312,2.188 -0.312,4.063c0.417,-0.208 0.833,-0.313 1.25,-0.313c0.625,0 1.354,0.417 2.187,1.25c0.625,0.834 0.834,1.459 0.625,1.875c-0.625,0.417 -1.979,0.938 -4.062,1.563c-0.208,2.083 -0.521,3.854 -0.938,5.312Zm-31.875,-6.875c0.625,-0.416 1.25,-0.729 1.875,-0.937c0.625,-0.417 0.938,-0.625 0.938,-0.625c0,0 0.521,0.417 1.562,1.25c1.25,0.833 1.771,1.458 1.563,1.875l-0.625,0c-0.417,0.208 -0.729,0.312 -0.938,0.312c-0.833,0.209 -1.979,0.521 -3.437,0.938c-0.208,0.208 -0.521,0.312 -0.938,0.312c-0.625,0.417 -1.041,0.73 -1.25,0.938c-0.208,0 -0.625,-0.313 -1.25,-0.938c0,-0.208 -0.104,-0.416 -0.312,-0.625c-0.417,-0.416 -0.625,-0.729 -0.625,-0.937c0,-0.417 0.104,-0.625 0.312,-0.625c0.625,0 1.667,-0.313 3.125,-0.938Zm0.313,9.688c0.417,-0.208 1.042,-0.521 1.875,-0.938c0.625,-0.208 1.042,-0.416 1.25,-0.625c0.208,-0.416 0.625,-0.104 1.25,0.938c0.625,0.625 0.937,1.25 0.937,1.875c0,0.417 -0.312,0.521 -0.937,0.312c-1.042,0 -1.979,0.313 -2.813,0.938c-1.25,0.625 -2.083,1.146 -2.5,1.562c-0.416,0.417 -0.833,0.313 -1.25,-0.312c-0.208,-0.208 -0.416,-0.521 -0.625,-0.938c-0.208,-0.416 -0.416,-0.729 -0.625,-0.937c0,-0.625 0.105,-0.938 0.313,-0.938c0.417,0 1.458,-0.312 3.125,-0.937Z" style="fill-rule:nonzero;"/><path d="M675.312,33.75c-3.541,-0.417 -7.604,0 -12.187,1.25c-1.042,0.208 -2.5,0.625 -4.375,1.25c-3.125,0.625 -5.104,1.146 -5.938,1.562c-2.291,0.834 -3.645,1.25 -4.062,1.25c-0.417,-0.208 -0.938,-1.25 -1.563,-3.125c-0.208,-2.291 -0.208,-3.229 0,-2.812l1.875,0c0.209,0 1.459,-0.208 3.75,-0.625c1.459,-0.417 2.709,-0.729 3.75,-0.938c1.25,-0.208 3.125,-0.625 5.625,-1.25c3.125,-0.625 5.313,-1.041 6.563,-1.25c3.75,-0.416 5.833,-0.937 6.25,-1.562l0.312,0c0.625,0 1.875,0.729 3.75,2.187c2.084,1.875 3.125,3.438 3.125,4.688l0,0.625c-0.625,1.458 -1.041,5.312 -1.25,11.562c-0.416,6.25 -0.312,13.334 0.313,21.25c0.417,7.709 0.729,12.5 0.937,14.375l0,0.625c0,1.875 -0.625,4.063 -1.875,6.563c-1.666,3.542 -3.125,5.312 -4.375,5.312c-1.25,0 -1.979,-0.416 -2.187,-1.25c0,-0.833 0.104,-2.083 0.312,-3.75c0,-1.041 -0.625,-2.395 -1.875,-4.062c-0.208,-0.208 -0.312,-0.417 -0.312,-0.625c-1.042,-1.25 -1.875,-2.083 -2.5,-2.5c-0.208,-0.417 -0.208,-0.625 0,-0.625c0,0 0.312,0.104 0.937,0.312l1.563,0c0.833,0.209 1.562,0.313 2.187,0.313c1.667,0 2.5,-0.208 2.5,-0.625c0.209,-0.417 0,-4.896 -0.625,-13.438c-0.208,-5.833 -0.312,-13.333 -0.312,-22.5c0,-2.916 -0.104,-6.25 -0.313,-10l0,-2.187Zm-13.437,26.562c0.208,-0.208 0.312,-0.312 0.312,-0.312c2.917,-1.042 4.48,-1.667 4.688,-1.875c0.625,-0.417 1.562,0 2.812,1.25c1.25,1.042 1.875,2.083 1.875,3.125c-0.416,0.833 -0.833,1.146 -1.25,0.937c-0.625,0 -1.979,0.105 -4.062,0.313c-1.042,0 -2.5,0.312 -4.375,0.937c0,8.959 -0.417,15.209 -1.25,18.75c-1.042,3.334 -1.771,5.105 -2.188,5.313c-0.208,0.625 -0.625,0.312 -1.25,-0.938c-0.208,-1.666 -0.312,-5.208 -0.312,-10.625c-0.208,-3.541 -0.313,-7.291 -0.313,-11.25c0,0 -0.104,0.105 -0.312,0.313c-0.208,0 -0.417,0.104 -0.625,0.312c-4.792,1.25 -7.396,2.084 -7.813,2.5c-0.625,0 -1.354,-0.625 -2.187,-1.875c-1.042,-1.458 -1.25,-2.187 -0.625,-2.187c0.417,0 2.708,-0.625 6.875,-1.875c1.875,-0.625 3.542,-1.042 5,-1.25l0,-9.063c-3.75,0.625 -5.938,1.146 -6.563,1.563c-0.833,0.208 -1.77,-0.417 -2.812,-1.875c-1.042,-1.667 -1.25,-2.5 -0.625,-2.5c1.042,-0.208 2.917,-0.521 5.625,-0.938c0.625,-0.208 1.354,-0.416 2.187,-0.625c1.042,-0.416 1.771,-0.625 2.188,-0.625l0,-1.875c0,-3.125 -0.208,-5 -0.625,-5.625c-0.625,-0.625 -1.042,-1.041 -1.25,-1.25c-0.417,-0.416 0,-0.729 1.25,-0.937c1.25,-0.625 2.396,-0.625 3.437,0c1.042,0.625 1.771,1.25 2.188,1.875c0.625,0.417 0.729,1.562 0.312,3.437l0,2.813c0.417,-0.208 0.938,-0.417 1.563,-0.625c0.625,-0.208 1.146,-0.417 1.562,-0.625c0.417,-0.417 1.355,-0.104 2.813,0.937c1.25,0.834 1.667,1.667 1.25,2.5c-0.625,0.625 -3.125,1.563 -7.5,2.813l0,9.062Zm-22.5,-5.937c0.417,-6.875 0.417,-11.354 0,-13.438c-0.417,-2.291 -0.833,-3.75 -1.25,-4.375c-0.417,-0.833 -0.313,-1.354 0.312,-1.562c0.417,-0.417 1.146,-0.417 2.188,0c1.042,0 1.875,0.625 2.5,1.875c0.833,1.25 1.25,2.604 1.25,4.062c0,1.459 -0.313,6.459 -0.938,15c-0.625,8.125 -2.083,15.417 -4.375,21.875c-2.083,6.667 -3.958,10.625 -5.625,11.875c-1.458,1.667 -2.083,1.98 -1.875,0.938c0,-0.417 0.105,-0.938 0.313,-1.563c0.833,-2.083 2.187,-6.666 4.062,-13.75c1.875,-7.083 3.021,-14.062 3.438,-20.937Z" style="fill-rule:nonzero;"/><path d="M745.312,53.125c-0.625,-0.625 -1.354,-0.729 -2.187,-0.313c-0.417,0 -0.833,0.105 -1.25,0.313c-0.417,0 -0.833,0.104 -1.25,0.312c-0.625,0.209 -1.25,-0.416 -1.875,-1.875c-0.625,-1.666 -0.729,-2.708 -0.313,-3.125c0.209,-0.208 0.73,-1.25 1.563,-3.125c0.417,-0.833 0.729,-1.562 0.937,-2.187c0.209,-0.625 0.521,-1.563 0.938,-2.813c0.208,-1.25 0.625,-2.708 1.25,-4.375c0.625,-1.458 0.833,-2.604 0.625,-3.437c0,-0.208 -0.104,-0.417 -0.313,-0.625c0,0 -0.208,0.104 -0.625,0.312c-0.416,0 -3.437,1.771 -9.062,5.313c-5.417,3.542 -10,6.562 -13.75,9.062c-3.958,2.5 -6.25,4.167 -6.875,5c-0.625,0.625 -1.458,0.417 -2.5,-0.625c-0.833,-1.041 -1.146,-2.291 -0.938,-3.75l0,-0.625c0.209,-1.875 0.625,-2.708 1.25,-2.5c0.417,0 0.834,0.105 1.25,0.313c0.209,0 3.75,-1.563 10.625,-4.688c6.667,-3.541 11.771,-6.041 15.313,-7.5c3.75,-1.875 5.833,-3.229 6.25,-4.062c0.417,-0.208 0.729,-0.313 0.937,-0.313c0.417,0 1.146,0.417 2.188,1.25c1.458,1.042 2.812,2.5 4.062,4.375c1.25,1.875 1.042,3.23 -0.625,4.063c-1.458,0.833 -3.229,2.5 -5.312,5c-1.875,2.5 -3.125,4.271 -3.75,5.312c-0.625,1.042 -0.625,1.563 0,1.563l0.625,0c0.625,-0.208 1.042,-0.313 1.25,-0.313c2.292,-0.416 3.958,-0.208 5,0.625c1.25,1.459 1.875,3.021 1.875,4.688c-0.208,0.417 -0.417,1.458 -0.625,3.125c-0.208,1.25 -0.417,2.292 -0.625,3.125c-0.833,4.167 -2.292,8.437 -4.375,12.812c5.417,3.542 11.042,6.563 16.875,9.063c2.083,0.625 4.687,1.458 7.812,2.5c2.292,0.833 3.646,1.354 4.063,1.562c1.042,0 1.562,0.105 1.562,0.313c0,0 -0.312,0.104 -0.937,0.312c-1.25,0 -3.438,0.313 -6.563,0.938c-3.541,0.208 -5.729,0.729 -6.562,1.562c-0.625,0.625 -1.25,0.834 -1.875,0.625l-0.938,0c-0.625,-0.625 -2.291,-1.458 -5,-2.5c-4.166,-2.5 -8.125,-5.52 -11.875,-9.062c-2.291,3.542 -5.625,6.771 -10,9.687c-0.833,0.417 -2.187,1.146 -4.062,2.188c-0.833,0.417 -1.354,0.729 -1.563,0.937c-0.208,0 -0.52,0.105 -0.937,0.313l-0.313,0c-0.208,0 0.105,-0.417 0.938,-1.25c1.042,-1.042 2.604,-2.292 4.687,-3.75c3.542,-3.75 6.355,-7.396 8.438,-10.938c-1.25,-1.458 -3.229,-3.75 -5.938,-6.875c-2.708,-2.916 -4.791,-5.104 -6.25,-6.562c-3.541,5.417 -7.5,11.25 -11.875,17.5l-2.5,2.5c-1.458,1.875 -2.5,3.021 -3.125,3.437l-0.625,0c0,-0.208 0.313,-0.625 0.938,-1.25c0.208,-0.416 0.625,-1.145 1.25,-2.187c1.25,-1.875 2.187,-3.438 2.812,-4.688c2.084,-3.541 5.313,-9.479 9.688,-17.812c-0.833,-0.833 -1.771,-1.25 -2.813,-1.25l-0.937,0c-0.208,-0.208 -0.208,-0.417 0,-0.625c0.208,-0.625 0.937,-1.25 2.187,-1.875c1.042,-0.625 2.292,-0.729 3.75,-0.313c2.917,-5.833 4.167,-9.062 3.75,-9.687c0,-0.208 -0.104,-0.521 -0.312,-0.938l0,-0.312c-0.417,-0.417 0,-0.729 1.25,-0.938c0.833,0 1.667,0.313 2.5,0.938c0.625,0.625 1.25,1.458 1.875,2.5c0.417,1.25 0.417,2.187 0,2.812c-0.208,0.209 -0.521,0.625 -0.938,1.25c-1.458,2.709 -2.916,5.105 -4.375,7.188c3.75,4.167 7.917,8.125 12.5,11.875c1.875,-4.167 3.021,-7.917 3.438,-11.25c0.625,-2.917 0.729,-5 0.312,-6.25Z" style="fill-rule:nonzero;"/><path d="M825,39.375c-1.042,-0.417 -1.563,-0.833 -1.563,-1.25c-0.208,-0.833 -1.145,-2.188 -2.812,-4.063c-1.458,-2.083 -2.5,-3.437 -3.125,-4.062c-0.625,-1.042 -0.938,-1.563 -0.938,-1.563c0,-0.416 0.625,-0.729 1.875,-0.937c0.209,-0.208 0.625,-0.313 1.25,-0.313c0.625,0 1.459,0.209 2.5,0.625c1.25,0.625 2.709,1.771 4.375,3.438c1.459,1.875 2.292,3.229 2.5,4.062c0,1.042 -0.104,2.188 -0.312,3.438c0.625,-0.417 1.771,-0.833 3.437,-1.25l0.625,0c3.959,-0.625 6.25,-1.25 6.875,-1.875c0.417,-0.625 1.459,0 3.125,1.875c1.25,1.667 1.771,3.021 1.563,4.062c-0.625,0.834 -1.25,1.146 -1.875,0.938c-0.625,-0.208 -3.021,-0.313 -7.188,-0.313c-3.958,0 -7.812,0.521 -11.562,1.563l0.937,0.625c0.209,0.208 0.417,0.417 0.625,0.625c0.417,0.208 0.938,0.729 1.563,1.562c0.625,0.625 0.625,1.459 0,2.5c-0.208,0.209 -0.417,0.417 -0.625,0.625c-0.417,0.834 -1.979,2.917 -4.688,6.25c7.292,-1.875 11.042,-3.02 11.25,-3.437c0,-0.208 0.105,-0.208 0.313,0c0,-0.417 -0.208,-0.625 -0.625,-0.625l-2.5,-2.5c-0.208,-0.625 0.104,-1.042 0.937,-1.25l3.125,0c1.459,0.208 3.125,0.937 5,2.187c2.084,1.25 3.125,2.5 3.125,3.75c0,1.25 -0.312,2.5 -0.937,3.75c-0.417,1.042 -1.146,1.355 -2.188,0.938c-0.833,-0.833 -1.77,-1.875 -2.812,-3.125c-0.208,-0.208 -0.313,-0.313 -0.313,-0.313l-0.312,0c-0.833,0.625 -3.75,1.667 -8.75,3.125c-4.792,1.459 -8.125,2.917 -10,4.375c-0.833,0.417 -1.771,1.042 -2.813,1.875c-0.625,0.417 -1.041,0.73 -1.25,0.938c-0.833,0.208 -1.458,-0.938 -1.875,-3.438c-0.208,-2.5 -0.208,-3.75 0,-3.75c0.209,-0.208 0.521,-0.312 0.938,-0.312c0.833,-0.208 1.458,-0.417 1.875,-0.625c1.25,-0.417 2.396,-1.146 3.437,-2.188c0.625,-1.25 1.563,-2.812 2.813,-4.687c1.25,-2.292 1.875,-3.646 1.875,-4.063c0,-0.625 -0.313,-1.25 -0.938,-1.875c-0.208,0 -0.52,0.105 -0.937,0.313c-2.5,0.625 -4.375,1.25 -5.625,1.875c-1.875,0.625 -2.917,1.042 -3.125,1.25c-0.625,0 -1.25,-0.729 -1.875,-2.188c-0.625,-1.666 -0.833,-2.5 -0.625,-2.5c0.625,0 3.646,-0.729 9.062,-2.187c2.5,-0.625 4.896,-1.25 7.188,-1.875Zm5.625,28.75c0.208,-1.042 0.312,-2.292 0.312,-3.75c0.209,-1.042 0.313,-1.667 0.313,-1.875c0,-0.833 -0.208,-1.563 -0.625,-2.188c0,-0.625 -0.208,-0.937 -0.625,-0.937c-0.208,-0.417 -0.208,-0.625 0,-0.625c0,-0.208 0.208,-0.313 0.625,-0.313c-0.417,0 -0.313,-0.104 0.312,-0.312c0.209,-0.208 0.938,0 2.188,0.625c1.042,0.625 1.667,1.354 1.875,2.187c0.208,0.625 0,1.875 -0.625,3.75c-0.208,1.875 -0.521,4.896 -0.938,9.063c0,3.958 0.521,6.771 1.563,8.437c1.25,1.25 3.646,1.875 7.187,1.875c3.542,-0.416 5.625,-0.729 6.25,-0.937c0.625,-0.417 1.146,-1.563 1.563,-3.438c0,-0.416 0.104,-1.041 0.312,-1.875c0,-0.625 0.105,-1.354 0.313,-2.187c0,-0.833 0.208,-0.833 0.625,0c0.208,0.833 0.625,1.979 1.25,3.437c0.625,1.042 1.146,1.875 1.562,2.5c0.625,0.209 1.25,0.521 1.875,0.938c0.417,0 0.834,0.833 1.25,2.5c0,0 0.105,0.208 0.313,0.625l0,0.625c0,0.625 -0.208,1.042 -0.625,1.25c-1.875,0.625 -3.75,0.937 -5.625,0.937c-1.667,0.209 -5.313,0.209 -10.938,0c-4.375,-0.416 -7.187,-1.875 -8.437,-4.375c-1.042,-2.291 -1.563,-4.791 -1.563,-7.5c0,-2.916 0.105,-5.729 0.313,-8.437Zm-29.375,2.812c-0.208,0 -0.521,0.521 -0.938,1.563l-4.062,8.125c-0.625,1.25 -0.833,2.604 -0.625,4.062c0.417,1.667 0.625,2.917 0.625,3.75c0.208,1.042 0.104,1.875 -0.313,2.5c-0.208,0.417 -0.625,0.625 -1.25,0.625c0,0 -0.104,-0.104 -0.312,-0.312c-0.208,0 -0.417,-0.104 -0.625,-0.313c-0.417,-0.208 -0.938,-0.312 -1.563,-0.312c-0.625,-0.208 -1.25,-1.042 -1.875,-2.5l-1.875,-3.75c-0.208,-0.625 -0.312,-1.875 -0.312,-3.75c0,-2.083 0.104,-3.229 0.312,-3.438c0,-0.625 0.521,-0.52 1.563,0.313c1.042,0.625 2.292,0.417 3.75,-0.625c1.458,-1.458 2.812,-2.813 4.062,-4.063c0.417,-0.208 0.938,-0.625 1.563,-1.25c0.625,-0.625 1.042,-0.937 1.25,-0.937c0,-0.208 0.208,-0.313 0.625,-0.313l0,0.625Zm20,-1.25c0,-3.75 -0.104,-5.625 -0.313,-5.625c0,-0.208 -0.104,-0.416 -0.312,-0.625c0,-0.208 -0.104,-0.312 -0.313,-0.312c0,-0.417 0.209,-0.625 0.625,-0.625c0.625,-0.208 1.563,0 2.813,0.625c1.042,0.625 1.458,1.562 1.25,2.812l0,1.563c-0.208,2.917 -0.313,5.521 -0.313,7.812c0,5 -0.312,8.438 -0.937,10.313c-0.625,1.458 -1.25,1.979 -1.875,1.562c-0.625,-0.416 -0.938,-1.458 -0.938,-3.125l0,-6.25c0.209,-2.291 0.313,-5 0.313,-8.125Zm-9.688,4.688c0.625,-1.875 0.938,-3.333 0.938,-4.375c0,-0.417 -0.104,-0.938 -0.313,-1.563l0,-0.937c0,-0.625 0.209,-0.938 0.625,-0.938c0.417,0 0.938,0.105 1.563,0.313c0.625,0.208 1.042,1.25 1.25,3.125c0,1.667 -0.313,3.437 -0.938,5.312c-0.625,1.875 -1.77,4.271 -3.437,7.188c-1.458,2.917 -2.813,4.687 -4.063,5.312c-0.833,0.417 -1.562,0.625 -2.187,0.625c-0.417,-0.208 -0.625,-0.937 -0.625,-2.187c0,-1.458 0.208,-2.188 0.625,-2.188c0.417,0 1.458,-1.145 3.125,-3.437c1.667,-2.292 2.812,-4.375 3.437,-6.25Zm-22.5,-19.688c-0.208,-0.208 -0.625,-0.416 -1.25,-0.625c-0.416,-0.416 -0.833,-0.625 -1.25,-0.625c-0.833,-0.416 -1.25,-0.729 -1.25,-0.937c0,-0.208 0.105,-0.313 0.313,-0.313c0.208,-0.208 0.729,-0.625 1.562,-1.25c-0.416,0.209 -0.208,0.105 0.625,-0.312c0.625,-0.625 1.459,-0.938 2.5,-0.938c1.25,-0.208 2.605,0.209 4.063,1.25c1.667,0.834 2.708,1.771 3.125,2.813c0.625,0.625 0.937,1.562 0.937,2.812c-0.208,0.834 -0.625,1.771 -1.25,2.813c-0.833,0.625 -2.187,0.104 -4.062,-1.563c-2.083,-1.875 -3.438,-2.916 -4.063,-3.125Zm10.313,-17.187c-0.208,-0.208 -0.417,-0.417 -0.625,-0.625c-0.625,-0.417 -1.042,-0.833 -1.25,-1.25c-1.042,-0.625 -1.25,-1.146 -0.625,-1.563c0.208,-0.208 0.625,-0.312 1.25,-0.312c0.417,-0.208 0.729,-0.313 0.937,-0.313c1.042,-0.416 1.98,-0.52 2.813,-0.312c1.042,0 1.979,0.625 2.812,1.875c1.042,1.25 1.667,2.292 1.875,3.125c0.417,0.833 0.625,1.875 0.625,3.125c-0.208,1.042 -0.729,1.875 -1.562,2.5c-0.625,0.417 -1.667,-0.417 -3.125,-2.5c-1.458,-2.292 -2.5,-3.542 -3.125,-3.75Z" style="fill-rule:nonzero;"/><path d="M911.875,55.312c-4.583,1.875 -7.396,3.23 -8.438,4.063c-0.833,0.833 -1.458,1.25 -1.875,1.25c-0.416,0 -0.833,-0.417 -1.25,-1.25c0.417,0.833 0.313,0.729 -0.312,-0.313c-0.208,-1.041 -0.521,-2.187 -0.938,-3.437c-0.208,-1.25 0.105,-1.875 0.938,-1.875c0.417,0 1.146,-0.104 2.187,-0.313c1.042,-0.208 1.875,-0.312 2.5,-0.312c0.625,-0.208 1.771,-0.625 3.438,-1.25c2.292,-0.833 4.167,-1.458 5.625,-1.875c1.667,-5.625 2.5,-9.583 2.5,-11.875c-0.208,-2.5 -0.625,-4.063 -1.25,-4.688c-0.417,-0.833 -0.313,-1.25 0.312,-1.25c0.625,-0.416 1.25,-0.729 1.875,-0.937c0.625,-0.208 1.667,0.625 3.125,2.5c1.25,1.875 1.667,3.542 1.25,5c-0.208,1.667 -1.145,5 -2.812,10c0.833,-0.417 1.979,-0.833 3.437,-1.25c1.25,-0.417 2.084,-0.729 2.5,-0.938c0.209,-0.208 0.417,-0.625 0.625,-1.25c0.417,-0.416 0.73,-0.729 0.938,-0.937c0.417,-1.042 1.771,-0.313 4.062,2.187c1.875,1.875 2.813,3.75 2.813,5.625c0,0.417 -0.104,0.834 -0.313,1.25c-0.625,2.292 -1.25,5.938 -1.875,10.938c-0.833,5.417 -2.395,10.833 -4.687,16.25c-2.083,5.208 -3.854,8.021 -5.313,8.437c-0.208,0.209 -0.625,0.313 -1.25,0.313c-0.833,0 -1.562,-0.625 -2.187,-1.875c-0.625,-2.292 -1.25,-4.167 -1.875,-5.625c-0.417,-1.458 -1.354,-2.813 -2.813,-4.063c-1.25,-1.041 -1.458,-1.354 -0.625,-0.937c0.417,0.208 1.146,0.312 2.188,0.312c0.833,0.209 1.562,0.313 2.187,0.313c1.875,0.208 3.021,0.312 3.438,0.312c0.417,-0.416 1.25,-1.979 2.5,-4.687c1.25,-2.917 2.187,-7.188 2.812,-12.813c0.417,-5.416 0.417,-8.333 0,-8.75c-0.416,-0.625 -3.125,-0.104 -8.125,1.563c-3.333,8.75 -6.562,15.833 -9.687,21.25c-3.125,5.625 -5.833,9.479 -8.125,11.562c-0.417,0.417 -0.938,0.834 -1.563,1.25c-0.833,0.834 -1.354,1.25 -1.562,1.25l-0.313,0c0,-0.625 0.625,-1.562 1.875,-2.812c0,-0.208 0.105,-0.417 0.313,-0.625c2.083,-3.125 3.854,-6.354 5.312,-9.688c2.917,-5.416 5.73,-12.083 8.438,-20Zm-44.063,4.063c-0.208,-0.208 -0.416,-0.521 -0.625,-0.938c-0.208,-0.625 -0.416,-1.25 -0.625,-1.875c0.209,-0.416 0.313,-0.625 0.313,-0.625c1.042,0 3.854,-0.833 8.437,-2.5c5.209,-1.875 9.063,-3.125 11.563,-3.75c2.917,-0.833 4.479,-1.562 4.687,-2.187c0.417,-0.417 1.355,-0.104 2.813,0.937c1.458,0.834 2.187,1.771 2.187,2.813c-0.208,0.833 -0.625,1.25 -1.25,1.25c-0.625,-0.417 -1.666,-0.417 -3.125,0c-1.666,0 -5,1.042 -10,3.125c0.209,0.208 0.521,0.521 0.938,0.937c0.625,0.625 1.042,1.146 1.25,1.563c0.417,1.042 0.625,1.875 0.625,2.5c0,0.833 -1.042,2.708 -3.125,5.625c-2.083,2.708 -3.75,4.687 -5,5.937c6.667,-2.291 10.104,-3.645 10.312,-4.062c0.209,-0.625 0.938,-0.417 2.188,0.625c1.458,0.833 1.979,1.562 1.562,2.187c-0.208,0.625 -0.625,1.042 -1.25,1.25c-0.416,-0.208 -1.458,0 -3.125,0.625c-0.416,0.209 -0.833,0.417 -1.25,0.625c-2.291,0.834 -4.687,2.188 -7.187,4.063c-0.208,0.208 -0.521,0.521 -0.938,0.937c-1.666,1.25 -2.812,2.292 -3.437,3.125c-0.833,0.834 -1.771,-0.104 -2.813,-2.812c-1.458,-2.917 -1.875,-4.479 -1.25,-4.688c0.209,0 0.521,-0.104 0.938,-0.312l0.625,0c0.625,-0.417 1.562,-1.354 2.812,-2.813c0.625,-0.833 1.667,-2.291 3.125,-4.375c0.417,-0.833 0.73,-1.458 0.938,-1.875c1.25,-2.291 1.875,-3.75 1.875,-4.375c0,-0.416 -0.104,-1.041 -0.313,-1.875c-0.208,-0.416 -0.312,-0.729 -0.312,-0.937l0,-0.625c-3.333,1.458 -5.521,2.708 -6.563,3.75c-0.416,0.625 -1.041,1.25 -1.875,1.875c-0.208,0.208 -0.312,0.312 -0.312,0.312c-0.625,0 -1.563,-1.145 -2.813,-3.437Zm24.063,-28.75c0.208,-0.208 0.625,-0.313 1.25,-0.313c0.417,-0.208 0.937,0 1.562,0.625c1.042,0.625 1.667,1.355 1.875,2.188c0.209,0.625 -0.312,1.354 -1.562,2.187c-0.833,0.625 -2.708,1.563 -5.625,2.813c2.5,-1.042 2.083,-0.833 -1.25,0.625c-3.333,1.25 -5.208,1.875 -5.625,1.875c-0.625,0 -1.25,-0.521 -1.875,-1.563c-0.833,-1.041 -1.458,-2.083 -1.875,-3.125c-0.625,-1.25 -0.625,-1.77 0,-1.562c0.208,0 0.729,-0.104 1.562,-0.313c1.042,-0.208 1.875,-0.312 2.5,-0.312c0.417,-0.208 1.042,-0.417 1.875,-0.625c0.834,-0.208 1.98,-0.521 3.438,-0.938c1.25,-0.625 2.5,-1.145 3.75,-1.562Zm1.875,43.75c-0.833,-1.875 -1.771,-4.063 -2.813,-6.563c-1.25,-2.5 -2.083,-3.958 -2.5,-4.375c-0.208,-0.625 0,-0.937 0.625,-0.937c0.417,-0.208 1.042,-0.208 1.875,0c0.209,0.208 0.417,0.312 0.625,0.312c0.834,0.209 1.563,0.521 2.188,0.938c0.208,0.208 0.729,0.833 1.562,1.875c0.417,0.625 0.73,1.146 0.938,1.562c1.25,1.875 1.875,3.125 1.875,3.75c0.208,0.625 0,1.771 -0.625,3.438c-0.625,1.875 -1.146,2.812 -1.563,2.812c-0.833,0 -1.562,-0.937 -2.187,-2.812Z" style="fill-rule:nonzero;"/><path d="M61.436,113.921l877.128,0" style="fill:none;"/><rect x="59.936" y="112.421" width="880.128" height="3"/></svg>