<?xml version="1.0" encoding="UTF-8" standalone="no"?>
<!DOCTYPE svg PUBLIC "-//W3C//DTD SVG 1.1//EN" "http://www.w3.org/Graphics/SVG/1.1/DTD/svg11.dtd">
<svg width="100%" height="100%" viewBox="0 0 1000 120" version="1.1" xmlns="http://www.w3.org/2000/svg" xmlns:xlink="http://www.w3.org/1999/xlink" xml:space="preserve" xmlns:serif="http://www.serif.com/" style="fill-rule:evenodd;clip-rule:evenodd;stroke-linejoin:round;stroke-miterlimit:2;">
    <g transform="matrix(1,0,0,1,-60.8879,-36.1712)">
        <g transform="matrix(80,0,0,80,400.888,124.609)">
            <path d="M0.523,-0.34L0.59,-0.352C0.592,-0.391 0.591,-0.417 0.586,-0.43C0.581,-0.438 0.578,-0.441 0.578,-0.441C0.576,-0.441 0.572,-0.44 0.566,-0.438C0.559,-0.438 0.553,-0.436 0.551,-0.434C0.54,-0.434 0.531,-0.445 0.523,-0.469C0.516,-0.492 0.514,-0.504 0.52,-0.504C0.522,-0.504 0.529,-0.505 0.539,-0.508C0.552,-0.51 0.563,-0.512 0.57,-0.512C0.602,-0.514 0.633,-0.521 0.664,-0.531C0.701,-0.542 0.72,-0.551 0.723,-0.559C0.725,-0.564 0.734,-0.559 0.75,-0.543C0.768,-0.527 0.77,-0.516 0.754,-0.508C0.746,-0.503 0.723,-0.493 0.684,-0.48C0.668,-0.475 0.656,-0.471 0.648,-0.469C0.641,-0.466 0.632,-0.462 0.621,-0.457C0.613,-0.454 0.608,-0.453 0.605,-0.453C0.624,-0.445 0.633,-0.438 0.633,-0.43L0.633,-0.363C0.643,-0.368 0.664,-0.374 0.695,-0.379L0.703,-0.379C0.758,-0.392 0.786,-0.401 0.789,-0.406C0.794,-0.414 0.805,-0.409 0.82,-0.391C0.836,-0.372 0.842,-0.359 0.84,-0.352C0.835,-0.341 0.828,-0.339 0.82,-0.344C0.813,-0.349 0.794,-0.352 0.766,-0.352C0.737,-0.352 0.703,-0.348 0.664,-0.34C0.654,-0.34 0.642,-0.337 0.629,-0.332C0.629,-0.327 0.628,-0.32 0.625,-0.313C0.625,-0.302 0.624,-0.294 0.621,-0.289C0.624,-0.289 0.626,-0.288 0.629,-0.285C0.632,-0.285 0.633,-0.284 0.633,-0.281C0.635,-0.279 0.641,-0.273 0.648,-0.266C0.667,-0.245 0.684,-0.227 0.699,-0.211C0.733,-0.174 0.773,-0.145 0.82,-0.121C0.831,-0.116 0.844,-0.109 0.859,-0.102C0.891,-0.083 0.91,-0.074 0.918,-0.074C0.921,-0.074 0.923,-0.073 0.926,-0.07C0.931,-0.07 0.934,-0.069 0.934,-0.066C0.934,-0.064 0.93,-0.063 0.922,-0.063C0.906,-0.063 0.891,-0.06 0.875,-0.055C0.859,-0.049 0.844,-0.043 0.828,-0.035C0.813,-0.027 0.803,-0.022 0.801,-0.02C0.798,-0.017 0.793,-0.017 0.785,-0.02C0.783,-0.022 0.776,-0.027 0.766,-0.035C0.753,-0.046 0.741,-0.055 0.73,-0.063C0.694,-0.099 0.671,-0.128 0.66,-0.148C0.65,-0.174 0.634,-0.202 0.613,-0.23C0.608,-0.236 0.605,-0.24 0.605,-0.242C0.603,-0.232 0.595,-0.215 0.582,-0.191C0.579,-0.186 0.577,-0.181 0.574,-0.176C0.546,-0.116 0.516,-0.074 0.484,-0.051C0.471,-0.04 0.456,-0.03 0.438,-0.02C0.432,-0.017 0.428,-0.014 0.426,-0.012C0.418,-0.009 0.414,-0.009 0.414,-0.012C0.414,-0.014 0.417,-0.018 0.422,-0.023C0.424,-0.026 0.43,-0.033 0.438,-0.043C0.451,-0.059 0.461,-0.072 0.469,-0.082C0.492,-0.108 0.516,-0.148 0.539,-0.203C0.56,-0.247 0.574,-0.286 0.582,-0.32C0.569,-0.318 0.555,-0.313 0.539,-0.305C0.495,-0.289 0.469,-0.279 0.461,-0.273C0.453,-0.268 0.444,-0.273 0.434,-0.289L0.434,-0.293C0.426,-0.309 0.424,-0.318 0.43,-0.32C0.43,-0.32 0.461,-0.327 0.523,-0.34ZM0.355,-0.602C0.355,-0.612 0.353,-0.617 0.348,-0.617C0.348,-0.622 0.35,-0.628 0.355,-0.633C0.363,-0.638 0.375,-0.634 0.391,-0.621C0.406,-0.611 0.413,-0.6 0.41,-0.59C0.41,-0.587 0.409,-0.579 0.406,-0.566C0.406,-0.548 0.405,-0.533 0.402,-0.52C0.397,-0.493 0.395,-0.428 0.395,-0.324C0.397,-0.327 0.4,-0.328 0.402,-0.328C0.405,-0.331 0.408,-0.332 0.41,-0.332C0.421,-0.335 0.426,-0.333 0.426,-0.328C0.426,-0.323 0.421,-0.315 0.41,-0.305C0.405,-0.299 0.398,-0.293 0.391,-0.285L0.391,0.051C0.396,0.085 0.392,0.105 0.379,0.113C0.379,0.113 0.378,0.115 0.375,0.117C0.375,0.117 0.374,0.117 0.371,0.117C0.363,0.117 0.354,0.104 0.344,0.078C0.331,0.047 0.328,0.026 0.336,0.016C0.341,0.005 0.345,-0.033 0.348,-0.098C0.348,-0.116 0.349,-0.142 0.352,-0.176L0.352,-0.25C0.32,-0.221 0.275,-0.182 0.215,-0.133C0.191,-0.112 0.176,-0.099 0.168,-0.094C0.129,-0.055 0.107,-0.035 0.102,-0.035C0.094,-0.035 0.082,-0.048 0.066,-0.074C0.059,-0.092 0.055,-0.105 0.055,-0.113C0.055,-0.118 0.056,-0.121 0.059,-0.121C0.069,-0.126 0.098,-0.142 0.145,-0.168C0.21,-0.207 0.257,-0.238 0.285,-0.262C0.296,-0.267 0.31,-0.276 0.328,-0.289C0.339,-0.297 0.346,-0.302 0.352,-0.305L0.352,-0.344C0.354,-0.508 0.355,-0.594 0.355,-0.602ZM0.152,-0.406C0.152,-0.424 0.151,-0.447 0.148,-0.473C0.148,-0.501 0.147,-0.523 0.145,-0.539L0.145,-0.574C0.142,-0.579 0.143,-0.582 0.148,-0.582C0.151,-0.585 0.161,-0.581 0.18,-0.57C0.164,-0.581 0.165,-0.579 0.184,-0.566C0.202,-0.556 0.211,-0.543 0.211,-0.527C0.211,-0.522 0.21,-0.508 0.207,-0.484C0.204,-0.458 0.203,-0.436 0.203,-0.418C0.201,-0.361 0.199,-0.313 0.199,-0.273C0.199,-0.24 0.198,-0.22 0.195,-0.215C0.19,-0.212 0.18,-0.219 0.164,-0.234C0.151,-0.253 0.146,-0.266 0.148,-0.273C0.151,-0.289 0.152,-0.333 0.152,-0.406ZM0.387,-0.734C0.387,-0.74 0.391,-0.742 0.398,-0.742C0.406,-0.742 0.419,-0.738 0.438,-0.73C0.466,-0.717 0.478,-0.703 0.473,-0.688C0.473,-0.672 0.464,-0.665 0.445,-0.668C0.43,-0.673 0.397,-0.672 0.348,-0.664C0.342,-0.664 0.336,-0.663 0.328,-0.66C0.292,-0.658 0.266,-0.652 0.25,-0.645C0.234,-0.642 0.225,-0.642 0.223,-0.645C0.217,-0.647 0.211,-0.656 0.203,-0.672C0.193,-0.685 0.191,-0.691 0.199,-0.691C0.212,-0.691 0.243,-0.697 0.293,-0.707C0.348,-0.717 0.379,-0.727 0.387,-0.734ZM0.664,-0.566C0.667,-0.577 0.676,-0.594 0.691,-0.617C0.707,-0.643 0.715,-0.665 0.715,-0.684C0.715,-0.691 0.714,-0.702 0.711,-0.715L0.711,-0.719C0.708,-0.721 0.708,-0.724 0.711,-0.727L0.723,-0.727C0.736,-0.727 0.746,-0.724 0.754,-0.719C0.762,-0.714 0.77,-0.699 0.777,-0.676C0.788,-0.65 0.789,-0.634 0.781,-0.629C0.773,-0.621 0.759,-0.611 0.738,-0.598C0.736,-0.595 0.73,-0.592 0.723,-0.59C0.71,-0.579 0.697,-0.569 0.684,-0.559C0.668,-0.551 0.659,-0.548 0.656,-0.551C0.656,-0.553 0.659,-0.559 0.664,-0.566ZM0.523,-0.668C0.539,-0.658 0.555,-0.645 0.57,-0.629C0.586,-0.618 0.595,-0.607 0.598,-0.594C0.603,-0.586 0.603,-0.57 0.598,-0.547C0.59,-0.526 0.582,-0.517 0.574,-0.52C0.566,-0.525 0.553,-0.54 0.535,-0.566C0.517,-0.598 0.504,-0.621 0.496,-0.637C0.493,-0.652 0.492,-0.664 0.492,-0.672C0.492,-0.68 0.503,-0.678 0.523,-0.668ZM0.273,-0.516C0.276,-0.516 0.28,-0.517 0.285,-0.52C0.298,-0.525 0.306,-0.529 0.309,-0.531C0.309,-0.536 0.315,-0.531 0.328,-0.516C0.344,-0.505 0.35,-0.497 0.348,-0.492L0.344,-0.492C0.339,-0.49 0.333,-0.488 0.328,-0.488C0.318,-0.486 0.303,-0.482 0.285,-0.477C0.27,-0.469 0.26,-0.465 0.258,-0.465C0.255,-0.462 0.25,-0.465 0.242,-0.473C0.24,-0.475 0.237,-0.48 0.234,-0.488C0.234,-0.486 0.233,-0.487 0.23,-0.492C0.23,-0.5 0.232,-0.504 0.234,-0.504C0.242,-0.504 0.255,-0.508 0.273,-0.516ZM0.277,-0.395C0.283,-0.397 0.289,-0.4 0.297,-0.402C0.305,-0.405 0.311,-0.408 0.316,-0.41C0.319,-0.415 0.324,-0.411 0.332,-0.398C0.34,-0.391 0.344,-0.384 0.344,-0.379C0.344,-0.374 0.34,-0.371 0.332,-0.371C0.324,-0.371 0.313,-0.367 0.297,-0.359C0.294,-0.359 0.292,-0.358 0.289,-0.355C0.279,-0.353 0.271,-0.348 0.266,-0.34C0.26,-0.335 0.255,-0.337 0.25,-0.348C0.242,-0.355 0.237,-0.363 0.234,-0.371C0.234,-0.376 0.236,-0.379 0.238,-0.379C0.238,-0.379 0.242,-0.38 0.25,-0.383C0.26,-0.388 0.27,-0.392 0.277,-0.395Z" style="fill-rule:nonzero;"/>
        </g>
        <g transform="matrix(80,0,0,80,480.888,124.609)">
            <path d="M0.512,-0.77C0.546,-0.785 0.564,-0.797 0.566,-0.805C0.566,-0.813 0.57,-0.818 0.578,-0.82C0.586,-0.82 0.6,-0.811 0.621,-0.793C0.647,-0.775 0.66,-0.758 0.66,-0.742C0.66,-0.732 0.641,-0.724 0.602,-0.719C0.589,-0.716 0.565,-0.712 0.531,-0.707C0.495,-0.702 0.465,-0.697 0.441,-0.691C0.379,-0.684 0.341,-0.68 0.328,-0.68C0.32,-0.68 0.316,-0.681 0.316,-0.684C0.316,-0.686 0.322,-0.689 0.332,-0.691C0.348,-0.704 0.374,-0.716 0.41,-0.727C0.441,-0.74 0.475,-0.754 0.512,-0.77ZM0.684,-0.148C0.647,-0.172 0.625,-0.185 0.617,-0.188C0.612,-0.195 0.613,-0.201 0.621,-0.203C0.629,-0.208 0.642,-0.212 0.66,-0.215C0.676,-0.22 0.69,-0.221 0.703,-0.219C0.716,-0.216 0.734,-0.208 0.758,-0.195C0.784,-0.185 0.802,-0.172 0.813,-0.156C0.826,-0.143 0.833,-0.125 0.836,-0.102C0.836,-0.081 0.829,-0.072 0.816,-0.074C0.806,-0.074 0.79,-0.081 0.77,-0.094C0.764,-0.096 0.755,-0.103 0.742,-0.113C0.719,-0.126 0.699,-0.138 0.684,-0.148ZM0.273,-0.027C0.268,-0.001 0.262,0.013 0.254,0.016C0.241,0.018 0.23,0.009 0.223,-0.012C0.212,-0.027 0.207,-0.042 0.207,-0.055L0.207,-0.066C0.212,-0.079 0.22,-0.099 0.23,-0.125C0.243,-0.151 0.251,-0.168 0.254,-0.176C0.262,-0.184 0.268,-0.18 0.273,-0.164C0.281,-0.154 0.284,-0.137 0.281,-0.113C0.281,-0.1 0.28,-0.078 0.277,-0.047C0.275,-0.039 0.273,-0.033 0.273,-0.027ZM0.473,-0.449L0.465,-0.449C0.46,-0.447 0.451,-0.444 0.438,-0.441C0.414,-0.436 0.396,-0.431 0.383,-0.426C0.352,-0.415 0.332,-0.405 0.324,-0.395C0.314,-0.387 0.305,-0.385 0.297,-0.391C0.289,-0.396 0.284,-0.411 0.281,-0.438C0.279,-0.466 0.283,-0.482 0.293,-0.484C0.306,-0.49 0.318,-0.496 0.328,-0.504C0.341,-0.512 0.361,-0.533 0.387,-0.566C0.418,-0.605 0.432,-0.629 0.43,-0.637C0.43,-0.647 0.428,-0.656 0.426,-0.664C0.426,-0.669 0.434,-0.672 0.449,-0.672C0.465,-0.672 0.48,-0.663 0.496,-0.645C0.512,-0.626 0.52,-0.612 0.52,-0.602C0.52,-0.596 0.514,-0.591 0.504,-0.586C0.514,-0.591 0.513,-0.59 0.5,-0.582C0.487,-0.577 0.451,-0.547 0.391,-0.492C0.422,-0.495 0.453,-0.5 0.484,-0.508L0.496,-0.508C0.499,-0.51 0.501,-0.509 0.504,-0.504C0.509,-0.501 0.513,-0.499 0.516,-0.496C0.521,-0.501 0.527,-0.509 0.535,-0.52C0.569,-0.559 0.589,-0.582 0.594,-0.59C0.596,-0.6 0.598,-0.611 0.598,-0.621C0.598,-0.632 0.602,-0.635 0.609,-0.633C0.617,-0.633 0.625,-0.63 0.633,-0.625C0.641,-0.622 0.647,-0.609 0.652,-0.586C0.658,-0.563 0.654,-0.547 0.641,-0.539C0.633,-0.534 0.57,-0.475 0.453,-0.363C0.568,-0.473 0.556,-0.462 0.418,-0.332C0.553,-0.363 0.622,-0.38 0.625,-0.383C0.625,-0.383 0.628,-0.382 0.633,-0.379C0.633,-0.382 0.632,-0.385 0.629,-0.391C0.629,-0.393 0.628,-0.396 0.625,-0.398C0.609,-0.424 0.602,-0.441 0.602,-0.449C0.599,-0.454 0.604,-0.456 0.617,-0.453C0.62,-0.453 0.625,-0.451 0.633,-0.445C0.643,-0.443 0.651,-0.44 0.656,-0.438C0.672,-0.43 0.688,-0.417 0.703,-0.398C0.719,-0.38 0.728,-0.361 0.73,-0.34C0.733,-0.324 0.727,-0.309 0.711,-0.293C0.695,-0.277 0.681,-0.284 0.668,-0.313C0.665,-0.323 0.66,-0.332 0.652,-0.34L0.648,-0.34C0.641,-0.34 0.596,-0.328 0.516,-0.305L0.504,-0.305C0.499,-0.302 0.495,-0.301 0.492,-0.301L0.492,-0.297C0.505,-0.294 0.517,-0.286 0.527,-0.273C0.54,-0.266 0.544,-0.254 0.539,-0.238L0.539,-0.215C0.536,-0.194 0.535,-0.176 0.535,-0.16C0.533,-0.121 0.534,-0.09 0.539,-0.066C0.542,-0.04 0.535,-0.009 0.52,0.027C0.504,0.072 0.488,0.094 0.473,0.094C0.46,0.094 0.453,0.089 0.453,0.078C0.453,0.06 0.452,0.044 0.449,0.031C0.447,0.013 0.438,0.001 0.422,-0.004C0.419,-0.007 0.415,-0.01 0.41,-0.016C0.402,-0.021 0.398,-0.025 0.398,-0.027C0.396,-0.03 0.396,-0.033 0.398,-0.035L0.43,-0.035C0.438,-0.033 0.443,-0.031 0.445,-0.031C0.456,-0.031 0.465,-0.035 0.473,-0.043L0.473,-0.211C0.473,-0.24 0.47,-0.258 0.465,-0.266C0.457,-0.273 0.456,-0.281 0.461,-0.289C0.411,-0.273 0.376,-0.259 0.355,-0.246C0.329,-0.23 0.314,-0.22 0.309,-0.215C0.301,-0.207 0.292,-0.203 0.281,-0.203C0.273,-0.203 0.268,-0.219 0.266,-0.25C0.26,-0.281 0.262,-0.299 0.27,-0.305C0.272,-0.305 0.281,-0.306 0.297,-0.309C0.286,-0.306 0.292,-0.307 0.313,-0.313C0.336,-0.315 0.388,-0.359 0.469,-0.445C0.469,-0.448 0.47,-0.449 0.473,-0.449Z" style="fill-rule:nonzero;"/>
        </g>
        <g transform="matrix(80,0,0,80,560.888,124.609)">
            <path d="M0.348,-0.543C0.379,-0.538 0.396,-0.527 0.398,-0.512C0.404,-0.501 0.406,-0.482 0.406,-0.453L0.539,-0.492C0.529,-0.555 0.521,-0.615 0.516,-0.672C0.508,-0.727 0.5,-0.759 0.492,-0.77C0.482,-0.777 0.48,-0.786 0.488,-0.797C0.496,-0.805 0.503,-0.807 0.508,-0.805L0.512,-0.805C0.52,-0.805 0.531,-0.798 0.547,-0.785C0.565,-0.775 0.574,-0.747 0.574,-0.703C0.572,-0.664 0.578,-0.599 0.594,-0.508C0.654,-0.523 0.686,-0.535 0.691,-0.543C0.699,-0.548 0.715,-0.544 0.738,-0.531C0.764,-0.521 0.777,-0.508 0.777,-0.492C0.775,-0.479 0.771,-0.473 0.766,-0.473C0.76,-0.473 0.75,-0.474 0.734,-0.477C0.721,-0.477 0.677,-0.471 0.602,-0.461C0.609,-0.393 0.624,-0.336 0.645,-0.289C0.65,-0.299 0.658,-0.314 0.668,-0.332C0.676,-0.348 0.684,-0.362 0.691,-0.375C0.694,-0.391 0.695,-0.402 0.695,-0.41C0.693,-0.418 0.693,-0.424 0.695,-0.43C0.695,-0.432 0.703,-0.434 0.719,-0.434C0.727,-0.434 0.737,-0.422 0.75,-0.398C0.76,-0.375 0.766,-0.359 0.766,-0.352C0.766,-0.344 0.742,-0.315 0.695,-0.266C0.682,-0.253 0.673,-0.243 0.668,-0.238C0.704,-0.165 0.734,-0.111 0.758,-0.074C0.784,-0.04 0.801,-0.021 0.809,-0.016C0.814,-0.013 0.82,-0.02 0.828,-0.035C0.836,-0.051 0.845,-0.065 0.855,-0.078C0.861,-0.089 0.865,-0.091 0.867,-0.086C0.87,-0.078 0.871,-0.066 0.871,-0.051C0.876,-0.017 0.884,0.014 0.895,0.043C0.902,0.059 0.906,0.072 0.906,0.082C0.906,0.09 0.902,0.096 0.895,0.102C0.895,0.102 0.893,0.102 0.891,0.102C0.872,0.102 0.841,0.085 0.797,0.051C0.745,0.012 0.688,-0.072 0.625,-0.199C0.596,-0.176 0.57,-0.154 0.547,-0.133C0.542,-0.13 0.535,-0.126 0.527,-0.121C0.517,-0.113 0.507,-0.105 0.496,-0.098C0.486,-0.095 0.482,-0.095 0.484,-0.098C0.484,-0.103 0.488,-0.111 0.496,-0.121C0.499,-0.124 0.501,-0.126 0.504,-0.129C0.517,-0.142 0.551,-0.181 0.605,-0.246C0.582,-0.301 0.564,-0.367 0.551,-0.445C0.504,-0.435 0.457,-0.422 0.41,-0.406C0.41,-0.398 0.411,-0.389 0.414,-0.379L0.414,-0.359C0.438,-0.378 0.449,-0.383 0.449,-0.375C0.449,-0.367 0.438,-0.348 0.414,-0.316C0.419,-0.228 0.419,-0.16 0.414,-0.113C0.409,-0.064 0.4,-0.026 0.387,0C0.371,0.026 0.355,0.039 0.34,0.039C0.324,0.036 0.313,0.026 0.305,0.008C0.294,-0.016 0.285,-0.03 0.277,-0.035C0.267,-0.046 0.264,-0.051 0.27,-0.051L0.336,-0.051C0.339,-0.053 0.342,-0.069 0.348,-0.098C0.342,-0.072 0.344,-0.076 0.352,-0.109C0.359,-0.148 0.362,-0.195 0.359,-0.25C0.268,-0.164 0.219,-0.112 0.211,-0.094C0.198,-0.076 0.188,-0.069 0.18,-0.074C0.172,-0.079 0.163,-0.091 0.152,-0.109C0.15,-0.112 0.148,-0.115 0.148,-0.117C0.141,-0.138 0.139,-0.15 0.145,-0.152C0.15,-0.155 0.171,-0.171 0.207,-0.199C0.262,-0.243 0.311,-0.283 0.355,-0.316C0.355,-0.324 0.354,-0.335 0.352,-0.348C0.352,-0.363 0.35,-0.375 0.348,-0.383C0.228,-0.336 0.165,-0.309 0.16,-0.301C0.152,-0.293 0.145,-0.292 0.137,-0.297C0.124,-0.302 0.113,-0.311 0.105,-0.324C0.1,-0.337 0.098,-0.345 0.098,-0.348L0.098,-0.352C0.1,-0.354 0.108,-0.358 0.121,-0.363C0.129,-0.363 0.135,-0.365 0.141,-0.367C0.146,-0.37 0.161,-0.375 0.188,-0.383C0.247,-0.401 0.299,-0.418 0.344,-0.434C0.341,-0.457 0.337,-0.474 0.332,-0.484C0.327,-0.5 0.323,-0.508 0.32,-0.508C0.318,-0.513 0.318,-0.521 0.32,-0.531C0.289,-0.521 0.268,-0.516 0.258,-0.516C0.247,-0.516 0.243,-0.52 0.246,-0.527C0.251,-0.535 0.273,-0.559 0.313,-0.598C0.328,-0.616 0.345,-0.635 0.363,-0.656C0.371,-0.664 0.375,-0.668 0.375,-0.668C0.38,-0.676 0.388,-0.677 0.398,-0.672C0.409,-0.667 0.422,-0.656 0.438,-0.641C0.448,-0.622 0.453,-0.609 0.453,-0.602C0.432,-0.586 0.397,-0.566 0.348,-0.543ZM0.684,-0.656C0.671,-0.669 0.655,-0.682 0.637,-0.695C0.629,-0.703 0.625,-0.707 0.625,-0.707C0.622,-0.71 0.621,-0.711 0.621,-0.711C0.621,-0.714 0.624,-0.716 0.629,-0.719C0.632,-0.721 0.638,-0.723 0.648,-0.723C0.654,-0.725 0.659,-0.727 0.664,-0.727C0.682,-0.734 0.704,-0.73 0.73,-0.715C0.754,-0.699 0.767,-0.682 0.77,-0.664C0.775,-0.648 0.775,-0.634 0.77,-0.621C0.764,-0.605 0.758,-0.6 0.75,-0.605C0.747,-0.608 0.734,-0.617 0.711,-0.633C0.701,-0.643 0.691,-0.651 0.684,-0.656Z" style="fill-rule:nonzero;"/>
        </g>
        <g transform="matrix(80,0,0,80,640.888,124.609)">
            <path d="M0.41,-0.148L0.41,-0.16C0.413,-0.189 0.414,-0.216 0.414,-0.242C0.414,-0.299 0.417,-0.352 0.422,-0.398C0.422,-0.451 0.421,-0.486 0.418,-0.504C0.413,-0.522 0.414,-0.531 0.422,-0.531C0.43,-0.529 0.439,-0.525 0.449,-0.52C0.457,-0.517 0.464,-0.512 0.469,-0.504C0.471,-0.493 0.473,-0.466 0.473,-0.422C0.47,-0.406 0.469,-0.382 0.469,-0.348C0.466,-0.314 0.465,-0.288 0.465,-0.27C0.462,-0.215 0.461,-0.176 0.461,-0.152C0.461,-0.142 0.46,-0.13 0.457,-0.117L0.457,-0.102C0.454,-0.091 0.451,-0.083 0.445,-0.078C0.438,-0.076 0.432,-0.074 0.43,-0.074C0.422,-0.077 0.417,-0.083 0.414,-0.094C0.411,-0.104 0.41,-0.113 0.41,-0.121C0.408,-0.132 0.408,-0.141 0.41,-0.148ZM0.832,-0.633C0.848,-0.617 0.854,-0.603 0.852,-0.59C0.846,-0.577 0.848,-0.523 0.855,-0.43C0.861,-0.336 0.865,-0.266 0.867,-0.219L0.867,-0.195C0.867,-0.156 0.863,-0.122 0.855,-0.094C0.85,-0.06 0.84,-0.036 0.824,-0.023C0.811,-0.013 0.801,-0.009 0.793,-0.012C0.78,-0.017 0.773,-0.033 0.773,-0.059C0.771,-0.087 0.759,-0.107 0.738,-0.117C0.717,-0.13 0.711,-0.137 0.719,-0.137C0.727,-0.139 0.733,-0.141 0.738,-0.141L0.75,-0.141C0.755,-0.143 0.76,-0.145 0.766,-0.145C0.779,-0.145 0.786,-0.146 0.789,-0.148C0.794,-0.156 0.797,-0.177 0.797,-0.211C0.799,-0.247 0.797,-0.313 0.789,-0.406C0.784,-0.503 0.779,-0.559 0.773,-0.574C0.771,-0.595 0.767,-0.605 0.762,-0.605C0.759,-0.608 0.751,-0.608 0.738,-0.605C0.733,-0.603 0.729,-0.602 0.727,-0.602C0.708,-0.599 0.689,-0.595 0.668,-0.59C0.663,-0.59 0.656,-0.589 0.648,-0.586C0.641,-0.586 0.633,-0.585 0.625,-0.582C0.62,-0.582 0.615,-0.585 0.609,-0.59C0.609,-0.592 0.608,-0.596 0.605,-0.602C0.603,-0.604 0.6,-0.607 0.598,-0.609C0.59,-0.617 0.589,-0.622 0.594,-0.625L0.602,-0.625C0.617,-0.628 0.633,-0.63 0.648,-0.633C0.68,-0.638 0.704,-0.642 0.723,-0.645C0.738,-0.647 0.75,-0.652 0.758,-0.66C0.766,-0.665 0.776,-0.665 0.789,-0.66C0.802,-0.66 0.816,-0.651 0.832,-0.633ZM0.27,-0.055C0.27,-0.016 0.264,0.01 0.254,0.023C0.251,0.029 0.247,0.031 0.242,0.031C0.234,0.031 0.228,0.022 0.223,0.004C0.212,-0.014 0.21,-0.033 0.215,-0.051C0.223,-0.064 0.227,-0.112 0.227,-0.195L0.227,-0.375C0.227,-0.414 0.221,-0.448 0.211,-0.477C0.19,-0.461 0.163,-0.441 0.129,-0.418C0.121,-0.41 0.115,-0.405 0.109,-0.402C0.078,-0.382 0.059,-0.371 0.051,-0.371C0.04,-0.371 0.036,-0.371 0.039,-0.371L0.039,-0.379C0.042,-0.382 0.046,-0.385 0.051,-0.391C0.072,-0.414 0.092,-0.436 0.113,-0.457C0.152,-0.501 0.19,-0.544 0.227,-0.586C0.258,-0.628 0.275,-0.656 0.277,-0.672C0.277,-0.677 0.279,-0.685 0.281,-0.695L0.281,-0.707C0.281,-0.712 0.285,-0.717 0.293,-0.723L0.297,-0.723C0.305,-0.723 0.32,-0.71 0.344,-0.684C0.37,-0.655 0.383,-0.637 0.383,-0.629C0.383,-0.626 0.378,-0.62 0.367,-0.609C0.365,-0.607 0.362,-0.604 0.359,-0.602C0.344,-0.591 0.302,-0.556 0.234,-0.496C0.263,-0.488 0.279,-0.479 0.281,-0.469L0.281,-0.422C0.281,-0.404 0.28,-0.348 0.277,-0.254C0.277,-0.238 0.276,-0.215 0.273,-0.184C0.271,-0.142 0.27,-0.099 0.27,-0.055ZM0.512,-0.563C0.504,-0.57 0.493,-0.583 0.48,-0.602C0.473,-0.615 0.466,-0.624 0.461,-0.629C0.456,-0.637 0.449,-0.645 0.441,-0.652C0.439,-0.66 0.436,-0.664 0.434,-0.664C0.431,-0.667 0.432,-0.668 0.438,-0.668C0.432,-0.668 0.434,-0.669 0.441,-0.672L0.477,-0.672C0.492,-0.672 0.508,-0.664 0.523,-0.648C0.544,-0.633 0.556,-0.622 0.559,-0.617C0.566,-0.607 0.569,-0.592 0.566,-0.574C0.566,-0.556 0.563,-0.543 0.555,-0.535C0.544,-0.53 0.53,-0.539 0.512,-0.563Z" style="fill-rule:nonzero;"/>
        </g>
    </g>
    <g transform="matrix(0.875244,0,0,1,62.3782,3.18111)">
        <path d="M319.239,110.74L680.761,110.74" style="fill:none;"/>
        <rect x="317.525" y="109.24" width="364.95" height="3"/>
    </g>
</svg>
