<?xml version="1.0" encoding="UTF-8" standalone="no"?><!DOCTYPE svg PUBLIC "-//W3C//DTD SVG 1.1//EN" "http://www.w3.org/Graphics/SVG/1.1/DTD/svg11.dtd"><svg width="100%" height="100%" viewBox="0 0 1000 120" version="1.1" xmlns="http://www.w3.org/2000/svg" xmlns:xlink="http://www.w3.org/1999/xlink" xml:space="preserve" xmlns:serif="http://www.serif.com/" style="fill-rule:evenodd;clip-rule:evenodd;stroke-linejoin:round;stroke-miterlimit:2;"><path d="M402.5,85.625c-0.417,6.458 -0.938,10.312 -1.563,11.562c-0.208,0.209 -0.52,0.313 -0.937,0.313c-0.625,0 -1.042,-0.833 -1.25,-2.5c-0.208,-2.708 -0.313,-5.313 -0.313,-7.813l0,-4.687c-0.208,-5.833 -0.312,-11.042 -0.312,-15.625c0,-4.375 -0.104,-8.75 -0.313,-13.125c-0.625,0.208 -1.666,0.521 -3.125,0.937c-2.291,0.834 -3.958,1.459 -5,1.875c0,1.875 -0.312,4.792 -0.937,8.75c0.625,-2.708 0.521,-2.395 -0.313,0.938c-1.25,6.042 -3.02,10.729 -5.312,14.062c-2.083,3.75 -3.646,5.73 -4.688,5.938c-0.625,0.417 -0.833,-0.417 -0.625,-2.5c0.209,-1.875 0.938,-3.958 2.188,-6.25c1.875,-3.125 3.437,-7.5 4.687,-13.125c0.417,-1.875 0.73,-3.958 0.938,-6.25c-2.5,0.625 -4.792,1.458 -6.875,2.5c-0.625,0 -1.25,-0.625 -1.875,-1.875c-0.833,-1.458 -1.042,-2.292 -0.625,-2.5c1.458,-0.208 3.333,-0.625 5.625,-1.25c0.417,-0.208 1.042,-0.417 1.875,-0.625c0.833,-0.417 1.458,-0.625 1.875,-0.625c0,-2.708 -0.104,-4.583 -0.313,-5.625c-0.208,-2.083 -0.52,-3.438 -0.937,-4.063c-0.208,-0.208 -0.208,-0.312 0,-0.312c-0.208,0 -0.104,-0.104 0.312,-0.313c0.209,0 0.521,-0.104 0.938,-0.312l0.625,0c0.625,0 1.25,0.417 1.875,1.25c1.042,1.042 1.667,2.396 1.875,4.062l0,4.375c0.833,-0.208 1.979,-0.52 3.437,-0.937c1.875,-0.625 3.334,-1.146 4.375,-1.563l0,-1.562c0.209,-0.833 0.313,-1.458 0.313,-1.875c0,-0.417 -0.104,-1.042 -0.313,-1.875c0,-2.083 -0.208,-3.438 -0.625,-4.063c-0.208,-1.25 -0.52,-1.979 -0.937,-2.187c-0.417,-0.417 -0.313,-0.729 0.312,-0.938c0.209,0 0.313,-0.104 0.313,-0.312c0.417,-0.208 0.833,-0.313 1.25,-0.313c0.208,0 0.937,0.417 2.187,1.25c1.25,0.625 1.875,1.25 1.875,1.875l0,8.75c3.542,-1.041 7.084,-2.187 10.625,-3.437c0.417,-0.417 1.355,0.312 2.813,2.187c1.25,1.25 1.875,2.396 1.875,3.438c0,0 -0.104,0.104 -0.313,0.312l0,0.313c-0.208,0.625 -0.52,0.937 -0.937,0.937c0,-0.208 -0.313,-0.312 -0.938,-0.312c-0.625,-0.208 -1.25,-0.417 -1.875,-0.625c-2.708,-0.208 -6.354,0.104 -10.937,0.937l0,32.813Zm-48.438,-33.75c1.875,-4.375 2.605,-6.979 2.188,-7.813c-0.208,-1.041 -0.208,-1.666 0,-1.875l0.625,0c0.417,-0.208 1.042,0.313 1.875,1.563c1.25,1.042 1.771,1.875 1.562,2.5c-1.458,4.167 -3.125,8.125 -5,11.875c0.209,0.417 0.417,1.042 0.625,1.875c0.625,2.292 1.25,5.312 1.875,9.062c1.875,-0.833 4.063,-1.562 6.563,-2.187c0.833,-0.208 1.458,-0.417 1.875,-0.625c-0.208,-1.875 -0.208,-3.125 0,-3.75c0.417,-0.625 1.042,-2.813 1.875,-6.563c-1.875,0.625 -3.75,1.459 -5.625,2.5c-0.625,0.209 -1.354,0.521 -2.188,0.938c-0.625,0.208 -0.937,0.312 -0.937,0.312c-0.417,0 -0.938,-0.625 -1.563,-1.875c-0.833,-1.458 -1.041,-2.187 -0.625,-2.187c0.209,-0.417 2.188,-1.042 5.938,-1.875c3.75,-1.25 6.042,-2.292 6.875,-3.125c0.625,-0.625 1.771,0.104 3.437,2.187c1.459,1.875 1.875,3.23 1.25,4.063c-1.458,2.292 -2.916,5.104 -4.375,8.437c0.417,0 0.938,0.209 1.563,0.625c1.25,1.25 1.771,2.188 1.562,2.813c0,0.625 -0.416,0.937 -1.25,0.937c-0.625,0 -1.979,0.105 -4.062,0.313c-2.917,0 -6.042,0.729 -9.375,2.187c0,0.417 0.104,1.042 0.312,1.875c0.209,1.25 0.417,2.084 0.625,2.5c0.834,2.292 0.834,4.167 0,5.625c-1.041,0.834 -1.979,0.521 -2.812,-0.937c-1.042,-1.667 -1.563,-2.917 -1.563,-3.75c0,-0.833 -0.312,-3.125 -0.937,-6.875c-0.625,-2.5 -1.25,-5 -1.875,-7.5c-1.25,1.875 -2.5,3.75 -3.75,5.625c-3.542,4.583 -5.625,7.187 -6.25,7.812l-0.938,0c0,-0.416 0.105,-0.625 0.313,-0.625c0.208,-0.416 0.833,-1.666 1.875,-3.75c1.25,-2.291 2.292,-4.166 3.125,-5.625c1.667,-2.916 3.125,-5.52 4.375,-7.812c-0.833,-2.5 -1.458,-3.854 -1.875,-4.063c-0.417,-0.416 -0.313,-0.729 0.312,-0.937c0.209,0 0.521,-0.104 0.938,-0.313l0.312,0c0.625,-0.208 1.355,0 2.188,0.625c0.208,-0.208 0.417,-0.729 0.625,-1.562c0.208,-0.208 0.312,-0.417 0.312,-0.625Zm40.313,-21.563c1.875,-0.416 3.854,-1.041 5.937,-1.875c0.417,-0.208 0.73,-0.312 0.938,-0.312l0.312,0c0.417,0 1.146,0.417 2.188,1.25c1.25,1.25 1.667,2.187 1.25,2.812c-0.417,0.417 -2.083,1.25 -5,2.5c-1.458,0.625 -3.958,1.563 -7.5,2.813c-1.042,0.208 -1.771,0.417 -2.188,0.625c-0.416,0.208 -1.041,0.417 -1.875,0.625c-2.708,1.042 -4.166,1.458 -4.375,1.25c-1.041,0 -1.875,-1.25 -2.5,-3.75c-0.625,-2.5 -0.625,-3.646 0,-3.438c0.625,0 1.98,-0.104 4.063,-0.312c2.083,-0.208 5,-0.938 8.75,-2.188Zm-29.688,0.938c2.084,-0.625 3.334,-1.146 3.75,-1.563c0.625,-0.416 1.563,0.209 2.813,1.875c1.667,1.667 1.979,2.813 0.937,3.438c-0.833,0.625 -2.916,1.458 -6.25,2.5c-0.833,0.208 -1.875,0.625 -3.125,1.25c-1.25,0.417 -2.291,0.729 -3.125,0.937c-0.625,0.209 -1.666,-0.937 -3.125,-3.437c-1.25,-2.5 -1.562,-3.75 -0.937,-3.75l3.437,0c0.209,0 0.521,-0.104 0.938,-0.313c1.042,0 2.604,-0.312 4.687,-0.937Z" style="fill-rule:nonzero;"/><path d="M439.375,95c-0.208,0.208 -0.625,0.417 -1.25,0.625c0.208,0 0.104,0.104 -0.313,0.312c-0.416,0 -0.208,-0.729 0.625,-2.187c2.709,-3.333 4.792,-6.042 6.25,-8.125c4.167,-6.875 6.98,-12.5 8.438,-16.875c-1.667,0.833 -3.854,1.771 -6.563,2.812c-1.666,0.834 -2.812,1.355 -3.437,1.563c-1.458,0.417 -2.5,0.833 -3.125,1.25c-0.417,0.625 -0.938,0.625 -1.563,0c-0.416,-0.625 -0.729,-1.458 -0.937,-2.5c0.208,0.208 0.208,0 0,-0.625l0,-1.25c0,-0.625 0.208,-0.938 0.625,-0.938c0.625,0.417 2.917,0 6.875,-1.25c3.125,-1.041 6.146,-1.979 9.062,-2.812c0.625,-3.125 0.625,-5.208 0,-6.25c-0.625,-1.25 -1.25,-1.875 -1.875,-1.875c-0.208,-0.417 0,-0.729 0.625,-0.938c0.209,-0.208 0.625,-0.416 1.25,-0.625c0.209,-0.208 0.417,-0.312 0.625,-0.312c0.209,-0.208 0.938,-0.104 2.188,0.312c0.417,0.209 0.729,0.417 0.937,0.625c1.042,0.834 1.667,1.563 1.875,2.188c0.209,0.833 0.105,2.396 -0.312,4.687c0.417,-1.875 0.417,-1.666 0,0.625c4.375,-1.458 7.187,-2.916 8.437,-4.375c0.417,-1.041 1.875,-0.625 4.375,1.25c2.917,1.875 3.542,3.125 1.875,3.75c-1.875,0.834 -3.541,2.917 -5,6.25c-1.458,4.167 -1.458,7.5 0,10c1.459,2.917 4.167,4.584 8.125,5c5.417,0.417 8.23,0 8.438,-1.25c0,-0.208 0.208,-0.52 0.625,-0.937c0.417,-1.25 0.833,-2.292 1.25,-3.125c0.208,-0.833 0.417,-1.25 0.625,-1.25c0.208,0.208 0.312,0.833 0.312,1.875c0,2.292 0.625,4.062 1.875,5.312c0.209,0.209 0.417,0.417 0.625,0.625c0.834,0.625 1.146,1.25 0.938,1.875c0,1.25 -2.083,1.98 -6.25,2.188c-3.75,0.208 -7.708,0 -11.875,-0.625c-3.958,-0.833 -6.771,-3.229 -8.438,-7.188c-1.666,-5.208 -1.25,-11.666 1.25,-19.375c-0.625,0.209 -1.666,0.625 -3.125,1.25c-2.083,0.834 -3.645,1.459 -4.687,1.875c-1.875,6.459 -5.417,13.23 -10.625,20.313c-3.542,3.75 -6.458,6.458 -8.75,8.125Zm2.5,-50.313c-0.208,0 -0.417,-0.208 -0.625,-0.625c0,-0.208 -0.104,-0.312 -0.313,-0.312c-0.208,-0.417 -0.312,-0.833 -0.312,-1.25c-0.208,-0.833 0,-1.354 0.625,-1.563c4.167,-1.041 8.125,-1.979 11.875,-2.812c0,-2.917 -0.729,-5.104 -2.188,-6.563c-0.416,-0.208 -0.833,-0.52 -1.25,-0.937c-0.208,-0.417 -0.625,-0.729 -1.25,-0.938c-0.416,-0.625 -0.208,-1.145 0.625,-1.562c0.834,-0.417 1.875,-0.833 3.125,-1.25c1.459,-0.417 2.813,0.104 4.063,1.562c1.25,1.25 1.979,2.396 2.187,3.438c0.625,1.667 0.73,3.333 0.313,5c6.875,-1.667 13.75,-3.438 20.625,-5.313c0.833,-0.416 2.812,0.313 5.937,2.188c2.292,1.25 3.542,2.604 3.75,4.062c-0.208,2.5 -1.354,3.438 -3.437,2.813c-1.875,-0.208 -3.542,-0.313 -5,-0.313c-0.833,0.209 -2.292,0.938 -4.375,2.188c-0.417,0.208 -0.729,0.417 -0.938,0.625c-0.625,0.417 -1.041,0.521 -1.25,0.312c-0.416,0 -0.416,-0.312 0,-0.937c0.209,-0.208 0.521,-0.625 0.938,-1.25c0.833,-1.042 1.458,-1.979 1.875,-2.813c1.25,-1.875 1.667,-2.916 1.25,-3.125c-0.625,-0.208 -2.292,0 -5,0.625c-5,1.25 -9.896,2.5 -14.688,3.75c-0.416,1.459 -1.145,2.5 -2.187,3.125c-0.833,0.417 -1.458,0.313 -1.875,-0.312c-0.417,-0.417 -0.625,-0.938 -0.625,-1.563c-1.042,0.209 -2.604,0.625 -4.688,1.25c-2.291,0.625 -3.958,1.146 -5,1.563c-0.833,0.208 -1.562,0.521 -2.187,0.937Zm27.812,7.5c-0.625,-0.625 -1.979,-1.875 -4.062,-3.75c1.458,1.25 1.042,0.938 -1.25,-0.937c-2.292,-1.667 -3.75,-2.604 -4.375,-2.813c-0.417,-0.208 -0.625,-0.416 -0.625,-0.625c-0.208,-0.208 -0.104,-0.416 0.312,-0.625c0.625,-0.208 1.667,-0.312 3.125,-0.312c1.459,0 3.125,0.312 5,0.937c1.667,0.625 3.438,1.563 5.313,2.813c1.875,1.25 2.812,3.021 2.812,5.312c-0.208,2.084 -0.937,3.021 -2.187,2.813c-1.25,-0.625 -2.604,-1.563 -4.063,-2.813Zm-28.75,8.125c0.625,-1.25 2.084,-3.333 4.375,-6.25c2.5,-3.125 3.646,-5 3.438,-5.625c0,-0.208 -0.104,-0.52 -0.313,-0.937l0,-0.625c-0.208,-0.417 -0.312,-0.625 -0.312,-0.625c0.208,-0.208 0.417,-0.313 0.625,-0.313l0.312,0c0.625,-0.208 1.25,-0.312 1.875,-0.312c0.625,0 1.459,1.042 2.5,3.125c0.834,1.667 0.938,2.812 0.313,3.437c-0.208,0.209 -2.188,1.771 -5.938,4.688c-3.541,2.708 -5.833,4.167 -6.875,4.375c-0.625,0.208 -0.937,0.208 -0.937,0c0,-0.208 0.312,-0.521 0.937,-0.938Zm-2.812,-10.312c-0.208,3.75 -0.938,6.042 -2.188,6.875c-1.458,0.417 -2.395,-0.208 -2.812,-1.875c-0.625,-1.875 -0.625,-3.333 0,-4.375c0.625,-1.042 0.833,-2.813 0.625,-5.313c0,-2.708 -0.208,-4.375 -0.625,-5c-0.208,-0.208 -0.313,-0.416 -0.313,-0.625c0,-0.208 0.209,-0.312 0.625,-0.312c1.667,-0.417 3.021,0.312 4.063,2.187c0.833,1.459 1.042,4.271 0.625,8.438Z" style="fill-rule:nonzero;"/><path d="M538.437,37.187c-0.833,0.209 -1.77,0.521 -2.812,0.938c-1.458,0.625 -2.5,1.042 -3.125,1.25c-0.417,0 -0.938,0.104 -1.563,0.312c-0.625,0.209 -1.041,0.313 -1.25,0.313c-0.625,0 -1.145,-0.625 -1.562,-1.875c-0.625,-0.625 -1.146,-1.667 -1.563,-3.125l0,-0.313c-0.416,-1.25 -0.312,-1.77 0.313,-1.562c0.625,0 2.604,-0.313 5.937,-0.938c3.125,-0.416 6.146,-1.25 9.063,-2.5c2.708,-1.041 4.375,-1.562 5,-1.562c0.417,0 1.146,0.312 2.187,0.937c0.209,0.209 0.417,0.417 0.625,0.625c1.25,1.042 1.667,1.98 1.25,2.813c-0.208,0.417 -1.77,1.146 -4.687,2.187c-2.5,1.042 -5.104,1.875 -7.813,2.5Zm-10,9.688c2.084,2.083 3.438,3.542 4.063,4.375c0.833,0.833 1.25,1.979 1.25,3.437c0.208,1.25 0,2.084 -0.625,2.5c-0.625,0.209 -1.667,0 -3.125,-0.625c-1.458,-0.833 -3.021,-2.5 -4.688,-5c-1.666,-2.291 -2.5,-4.062 -2.5,-5.312c-0.208,-1.25 -0.208,-2.292 0,-3.125c0,-0.833 0.521,-0.938 1.563,-0.313c0.625,0.625 1.979,1.98 4.062,4.063Zm9.063,15.625c-11.875,1.667 -20,3.021 -24.375,4.062c-4.375,0.834 -6.771,1.459 -7.188,1.875c-0.625,0 -1.041,-0.312 -1.25,-0.937c-0.208,-0.625 -0.52,-1.458 -0.937,-2.5c-0.208,-0.417 -0.313,-0.729 -0.313,-0.938c0,-0.208 0.209,-0.312 0.625,-0.312c0.625,0 3.959,-0.417 10,-1.25c2.292,-0.208 6.355,-0.729 12.188,-1.563c4.792,-0.625 8.542,-1.145 11.25,-1.562c0,-2.083 -0.104,-4.688 -0.313,-7.813c0,-4.375 -0.104,-6.875 -0.312,-7.5c-0.417,-1.041 -0.938,-1.875 -1.563,-2.5c-0.625,-0.833 -0.625,-1.25 0,-1.25c0.625,-0.416 1.355,-0.729 2.188,-0.937c0.625,-0.625 1.771,-0.208 3.437,1.25c0.209,0.208 0.417,0.417 0.625,0.625c1.042,1.042 1.563,1.979 1.563,2.812l0,14.688c15.833,-1.667 24.062,-2.604 24.687,-2.813c0.625,0 1.563,0.625 2.813,1.875c1.25,0.834 1.771,1.771 1.562,2.813c0,1.458 -0.52,2.187 -1.562,2.187c0,-0.208 -0.521,-0.416 -1.563,-0.625c-1.25,-0.416 -2.291,-0.729 -3.125,-0.937c-2.708,-0.625 -6.458,-0.833 -11.25,-0.625c-2.291,0.208 -5.312,0.521 -9.062,0.937c-1.042,0.209 -1.875,0.313 -2.5,0.313l0,21.562c0,3.959 -0.104,6.563 -0.313,7.813c-0.625,2.917 -1.25,5.208 -1.875,6.875c0,0 -0.104,0.104 -0.312,0.312c-0.625,1.25 -1.146,1.563 -1.563,0.938c-0.625,-1.667 -0.937,-3.75 -0.937,-6.25c-0.417,-5 -0.625,-15.208 -0.625,-30.625Zm11.25,-16.25c1.458,-2.5 2.187,-4.271 2.187,-5.313c0,-0.208 -0.104,-0.416 -0.312,-0.625c0,-0.625 -0.313,-1.458 -0.938,-2.5c-0.416,-0.416 -0.52,-0.833 -0.312,-1.25c0.208,-0.208 0.729,-0.312 1.562,-0.312l3.438,0c1.042,0 1.979,1.667 2.812,5c1.042,3.125 1.25,5.104 0.625,5.937c-0.625,0.625 -1.458,0.938 -2.5,0.938c-0.833,0 -2.708,0.937 -5.625,2.812c-2.5,1.875 -3.958,2.813 -4.375,2.813c-0.416,0 -0.625,-0.313 -0.625,-0.938c0,-0.625 0.313,-1.25 0.938,-1.875c0.208,-0.625 1.25,-2.187 3.125,-4.687Z" style="fill-rule:nonzero;"/><path d="M610.937,86.875c0,0.208 0.105,0.521 0.313,0.937c0,0.417 0.104,0.73 0.312,0.938c0.625,3.333 0.313,5.312 -0.937,5.937l-0.313,0c-1.25,0 -2.5,-1.354 -3.75,-4.062c-1.25,-2.292 -1.77,-4.063 -1.562,-5.313c0,-1.25 -0.313,-3.645 -0.938,-7.187c-0.833,-3.75 -1.77,-6.771 -2.812,-9.063c-0.417,-1.458 -0.938,-2.916 -1.563,-4.375c-0.208,-0.208 -0.312,-0.312 -0.312,-0.312c-0.417,-0.417 -0.521,-0.625 -0.313,-0.625l0.313,0c0.417,-0.208 0.729,-0.313 0.937,-0.313c0.209,-0.208 0.73,-0.104 1.563,0.313c0.417,0.208 0.833,0.417 1.25,0.625c1.667,0.833 2.604,1.875 2.812,3.125c0.209,1.042 1.25,4.375 3.125,10c0.209,2.083 0.625,4.062 1.25,5.937c8.125,-1.875 13.646,-3.02 16.563,-3.437c-0.417,-1.875 -0.313,-3.125 0.312,-3.75c0.625,-0.833 2.084,-4.479 4.375,-10.938c-4.791,0.417 -9.375,1.25 -13.75,2.5c-1.875,0.417 -3.854,1.042 -5.937,1.875c-1.042,0.209 -1.563,0.313 -1.563,0.313c-0.416,0.208 -0.937,-0.313 -1.562,-1.563c-0.833,-1.25 -1.042,-1.979 -0.625,-2.187c0.625,-0.208 4.583,-0.938 11.875,-2.188c2.292,-0.416 5,-0.937 8.125,-1.562c1.875,-0.417 3.125,-0.729 3.75,-0.938c0.833,-0.416 1.562,-0.937 2.187,-1.562c0.834,-1.042 2.5,-0.417 5,1.875c2.084,1.875 3.021,3.125 2.813,3.75c0,0.208 -0.104,0.417 -0.313,0.625c-0.833,0.625 -3.02,3.646 -6.562,9.062c-1.25,1.667 -2.292,3.125 -3.125,4.375c0.208,0 0.417,0.105 0.625,0.313c0.417,0.208 0.625,0.417 0.625,0.625c1.875,1.667 2.604,2.812 2.187,3.437c-0.416,0.834 -0.937,1.146 -1.562,0.938c-0.625,-0.417 -2.292,-0.625 -5,-0.625c-2.5,-0.208 -8.438,0.625 -17.813,2.5Zm24.375,-38.438c-0.416,0.209 -0.937,0.313 -1.562,0.313c-0.833,0.208 -1.458,0.312 -1.875,0.312c-2.5,0.625 -7.292,1.98 -14.375,4.063c-7.083,2.083 -11.458,3.646 -13.125,4.687c-1.458,1.042 -2.5,1.563 -3.125,1.563c-0.417,0 -1.25,-1.25 -2.5,-3.75c-1.042,-1.875 -1.563,-3.125 -1.563,-3.75c0.209,-0.208 0.313,-0.313 0.313,-0.313c0.417,-0.416 1.25,-0.729 2.5,-0.937c1.458,-0.417 3.75,-2.604 6.875,-6.563c3.125,-4.166 5.208,-7.5 6.25,-10c1.042,-2.916 1.354,-5 0.937,-6.25c-0.208,-0.625 -0.416,-1.354 -0.625,-2.187c-0.208,-0.417 -0.312,-0.625 -0.312,-0.625c-0.208,-0.417 0,-0.625 0.625,-0.625l0.312,0c0.625,-0.208 1.563,0 2.813,0.625c1.458,0.417 2.812,1.458 4.062,3.125c1.25,1.875 1.459,3.437 0.625,4.687c-1.25,1.25 -2.5,2.813 -3.75,4.688c-1.666,2.292 -5.312,6.562 -10.937,12.812c15,-2.708 15.937,-2.916 2.812,-0.625c13.125,-2.291 20.625,-3.75 22.5,-4.375c-0.208,-0.625 -0.52,-1.041 -0.937,-1.25c-2.5,-2.083 -3.854,-3.437 -4.063,-4.062c-0.416,-0.417 -0.208,-0.729 0.625,-0.938c0.625,0 1.98,0.105 4.063,0.313c2.292,0.208 4.062,0.833 5.312,1.875c1.25,0.833 2.605,2.083 4.063,3.75c1.458,1.25 2.187,3.229 2.187,5.937c-0.416,2.5 -1.145,3.542 -2.187,3.125c-1.25,-0.416 -2.708,-1.562 -4.375,-3.437c-0.625,-0.833 -1.146,-1.563 -1.563,-2.188Z" style="fill-rule:nonzero;"/><path d="M342.309,113.921l307.382,0" style="fill:none;"/><rect x="340.809" y="112.421" width="310.382" height="3"/></svg>