<?xml version="1.0" encoding="UTF-8" standalone="no"?><!DOCTYPE svg PUBLIC "-//W3C//DTD SVG 1.1//EN" "http://www.w3.org/Graphics/SVG/1.1/DTD/svg11.dtd"><svg width="100%" height="100%" viewBox="0 0 1000 120" version="1.1" xmlns="http://www.w3.org/2000/svg" xmlns:xlink="http://www.w3.org/1999/xlink" xml:space="preserve" xmlns:serif="http://www.serif.com/" style="fill-rule:evenodd;clip-rule:evenodd;stroke-linejoin:round;stroke-miterlimit:2;"><path d="M59.375,49.687c1.667,-0.208 3.958,-0.625 6.875,-1.25c8.333,-1.458 12.292,-2.395 11.875,-2.812c0.625,-0.625 1.771,0 3.437,1.875c1.459,2.083 1.875,3.646 1.25,4.687c-0.625,1.042 -1.354,1.25 -2.187,0.625c-0.833,-0.625 -2.604,-0.937 -5.313,-0.937c-2.5,0 -8.02,0.625 -16.562,1.875l-0.313,0.937c1.25,0.625 3.542,3.438 6.875,8.438c3.334,5 8.438,9.687 15.313,14.062c6.875,4.375 11.354,6.98 13.437,7.813c0.834,0.208 1.25,0.521 1.25,0.937l-1.562,0c-2.083,-0.208 -4.583,0 -7.5,0.625c-2.5,0.417 -4.063,0.834 -4.688,1.25c-0.625,0.417 -1.25,0.625 -1.875,0.625c-0.208,-0.208 -1.041,-0.937 -2.5,-2.187c-1.666,-1.458 -3.229,-2.813 -4.687,-4.063c-5.208,-5.416 -8.646,-9.895 -10.313,-13.437c-0.416,-0.625 -0.937,-1.563 -1.562,-2.813c-1.667,-2.916 -2.917,-4.791 -3.75,-5.625c-3.75,11.25 -8.021,19.167 -12.813,23.75c-5,4.167 -8.854,6.667 -11.562,7.5c-0.208,0 -0.521,0.105 -0.938,0.313c-0.208,0.208 -0.52,0.312 -0.937,0.312l-0.313,0c0,-0.416 0.521,-0.937 1.563,-1.562c1.875,-1.458 4.896,-4.271 9.062,-8.438c3.959,-4.583 6.875,-9.479 8.75,-14.687c2.084,-5 3.438,-8.542 4.063,-10.625c-0.833,-0.833 -0.833,-1.563 0,-2.188c-5.833,0.834 -9.896,1.667 -12.188,2.5c-2.083,0.834 -3.437,1.459 -4.062,1.875c-0.625,0.625 -1.458,-0.312 -2.5,-2.812c-1.042,-2.5 -1.146,-3.75 -0.313,-3.75c0.625,0 2.188,-0.104 4.688,-0.313c2.292,0 7.396,-0.625 15.312,-1.875c0,-0.833 0.105,-1.875 0.313,-3.125c0.625,-6.041 0.729,-9.791 0.312,-11.25c-0.208,-2.5 -0.625,-4.375 -1.25,-5.625c-0.208,-0.208 -0.416,-0.416 -0.625,-0.625c-0.208,-0.416 -0.416,-0.937 -0.625,-1.562c-0.208,-0.417 0.105,-0.729 0.938,-0.938c0.833,-0.625 1.562,-0.833 2.187,-0.625c0.834,-0.208 1.875,0.625 3.125,2.5c1.459,1.667 2.188,3.334 2.188,5c0,1.042 -0.104,2.813 -0.313,5.313c-0.208,1.042 -0.312,1.771 -0.312,2.187c-0.208,2.917 -0.625,5.625 -1.25,8.125Z" style="fill-rule:nonzero;"/><path d="M123.125,30c1.875,-0.208 3.854,-0.625 5.937,-1.25c0.625,-0.208 1.355,-0.417 2.188,-0.625c0.833,-0.208 1.562,-0.417 2.187,-0.625c0.625,-0.417 1.563,0.208 2.813,1.875c1.458,1.458 1.979,2.604 1.562,3.437c-0.625,0.625 -2.5,1.355 -5.625,2.188c-0.833,0.208 -2.083,0.521 -3.75,0.937c-1.875,0.209 -3.125,0.417 -3.75,0.625c-1.875,0.209 -3.125,0.209 -3.75,0c-0.625,-0.208 -1.145,-1.25 -1.562,-3.125c-0.208,-1.875 -0.104,-2.812 0.312,-2.812c0.209,0 0.73,-0.104 1.563,-0.313c0.625,-0.208 1.25,-0.312 1.875,-0.312Zm-3.438,20.312c-1.875,0.417 -3.854,0.938 -5.937,1.563c-0.208,0.208 -0.417,0.312 -0.625,0.312c-1.25,0.625 -1.875,0.938 -1.875,0.938c-0.208,0 -0.521,-0.313 -0.938,-0.938c-0.208,-0.208 -0.312,-0.625 -0.312,-1.25c-0.208,-0.416 -0.313,-0.729 -0.313,-0.937l0,-0.313c0,-0.625 0.209,-0.937 0.625,-0.937c0.625,0 1.563,-0.104 2.813,-0.313c1.25,0 3.333,-0.312 6.25,-0.937c0,-1.458 -0.417,-2.604 -1.25,-3.438c-0.625,-0.625 -0.625,-1.145 0,-1.562c0.625,-0.208 1.354,-0.313 2.187,-0.313c0.625,-0.416 1.25,-0.104 1.875,0.938c0.209,0.208 0.625,0.937 1.25,2.187c0,0.625 0.105,1.042 0.313,1.25l8.125,-1.562c0,-3.125 -0.104,-5 -0.313,-5.625c-0.208,-0.625 -0.52,-1.146 -0.937,-1.563c-0.208,-0.625 -0.208,-1.041 0,-1.25l0.625,0c0.417,-0.208 0.729,-0.312 0.937,-0.312c0.417,-0.208 1.25,0.208 2.5,1.25c1.25,1.25 1.875,2.187 1.875,2.812l0,3.75c0.209,0 0.625,-0.104 1.25,-0.312c0.417,0 0.73,-0.104 0.938,-0.313c0.417,0 0.937,0.417 1.562,1.25c0.625,1.042 0.73,1.563 0.313,1.563c-0.417,0.208 -0.938,0.312 -1.563,0.312c-0.416,-0.416 -1.25,-0.416 -2.5,0c0,1.875 -0.104,4.271 -0.312,7.188c0,2.917 -0.104,5.312 -0.313,7.187c0,0.209 -0.104,0.625 -0.312,1.25c-0.208,1.042 -0.625,1.98 -1.25,2.813c-1.042,0.625 -1.875,0 -2.5,-1.875c-0.625,-1.875 -0.833,-3.646 -0.625,-5.313c0.625,-1.458 0.833,-5 0.625,-10.625c-2.917,0.625 -5.625,1.25 -8.125,1.875c-0.833,6.875 -2.083,11.355 -3.75,13.438c-1.875,1.875 -3.438,3.229 -4.688,4.062c-0.625,0.209 -1.041,0.313 -1.25,0.313c-0.416,-0.208 -0.52,-0.521 -0.312,-0.938c0,-1.041 0.521,-1.979 1.562,-2.812c1.042,-1.042 1.98,-2.813 2.813,-5.313c1.042,-2.291 1.562,-4.791 1.562,-7.5Zm25.938,-7.5c0,-3.75 -0.208,-5.937 -0.625,-6.562c-0.208,-1.042 -0.104,-1.563 0.312,-1.563c0.625,-0.208 1.459,-0.104 2.5,0.313c0.625,0.208 1.25,0.833 1.875,1.875c0.209,0.625 0.313,1.875 0.313,3.75l0,6.562c0,2.709 -0.417,4.48 -1.25,5.313c-0.625,0.625 -1.25,0.417 -1.875,-0.625c-0.625,-1.25 -0.938,-2.188 -0.938,-2.813c0,-1.041 -0.104,-3.125 -0.312,-6.25Zm11.25,8.125c-0.417,-4.791 -0.625,-9.687 -0.625,-14.687c0.208,-5.208 0,-8.125 -0.625,-8.75c0,0 -0.104,-0.208 -0.313,-0.625c-0.416,-0.417 -0.729,-0.729 -0.937,-0.938c-0.417,-0.833 -0.417,-1.354 0,-1.562c0.417,-0.625 1.042,-1.042 1.875,-1.25l0.312,0c0.625,0 1.563,0.625 2.813,1.875c1.458,1.667 2.187,3.437 2.187,5.312c-0.208,1.875 -0.312,5 -0.312,9.375c0,1.667 0.104,3.855 0.312,6.563l0,4.062c0,2.709 0.209,4.896 0.625,6.563l0,1.25c0,1.458 -0.416,3.333 -1.25,5.625c-1.458,3.125 -2.708,4.687 -3.75,4.687c-1.458,-0.208 -2.187,-1.25 -2.187,-3.125c0,-1.666 -0.625,-3.125 -1.875,-4.375c-0.417,-0.208 -0.833,-0.52 -1.25,-0.937c-0.208,-0.417 -0.625,-0.729 -1.25,-0.938c-0.208,-0.208 0.312,-0.312 1.562,-0.312c1.25,0.208 2.292,0.312 3.125,0.312c1.042,0.209 1.667,0.105 1.875,-0.312c0,-0.625 -0.104,-3.229 -0.312,-7.813Zm-13.125,19.063c0.833,-0.208 1.667,-0.625 2.5,-1.25c0.208,-0.208 0.417,-0.313 0.625,-0.313c0.625,-0.416 1.562,-0.104 2.812,0.938c1.459,0.833 1.875,1.667 1.25,2.5c-0.625,0.625 -1.666,1.25 -3.125,1.875c-0.833,0.208 -1.875,0.729 -3.125,1.562c-0.625,0.209 -1.041,0.417 -1.25,0.625c-0.416,4.167 -1.25,7.396 -2.5,9.688c2.084,-0.417 4.584,-0.833 7.5,-1.25c1.459,-0.208 2.396,-0.313 2.813,-0.313c1.667,-0.416 2.812,-0.729 3.437,-0.937c0.417,-0.208 1.459,0 3.125,0.625c1.667,1.25 2.605,2.187 2.813,2.812c0.417,1.042 0.417,1.771 0,2.188c-0.208,1.25 -0.938,1.562 -2.188,0.937c-1.041,-0.416 -2.812,-0.833 -5.312,-1.25c-2.5,-0.416 -6.042,-0.416 -10.625,0c-2.292,0 -5.521,0.417 -9.688,1.25c-1.25,0.209 -2.187,0.417 -2.812,0.625c-0.208,0 -0.521,0.105 -0.938,0.313c-2.916,0.625 -5,1.354 -6.25,2.187c-0.416,0.209 -1.041,0.417 -1.875,0.625c-0.416,0.209 -0.625,0.313 -0.625,0.313l-0.312,0c-0.208,0 -0.521,-0.417 -0.938,-1.25l-1.25,-2.5c-0.208,-0.625 0.209,-0.938 1.25,-0.938c0.417,-0.208 4.167,-0.729 11.25,-1.562c2.917,-0.625 5.209,-1.042 6.875,-1.25c-0.625,-0.625 -0.937,-1.667 -0.937,-3.125c0,-1.458 0.312,-3.229 0.937,-5.313c-1.25,0.417 -2.604,0.834 -4.062,1.25c-0.625,0.417 -1.042,0.625 -1.25,0.625c-0.417,0.209 -1.042,-0.104 -1.875,-0.937c-0.208,-0.417 -0.521,-0.938 -0.938,-1.563c-0.416,-0.625 -0.729,-1.145 -0.937,-1.562c-0.625,-1.042 -0.625,-1.667 0,-1.875l0.312,0c1.042,-0.208 1.98,-0.313 2.813,-0.313c0.417,0 0.937,-0.104 1.562,-0.312c0.625,-0.208 2.188,-0.521 4.688,-0.938c0,-3.75 -0.313,-5.937 -0.938,-6.562c-0.833,-1.042 -0.937,-1.667 -0.312,-1.875c0.833,-0.417 1.562,-0.729 2.187,-0.938c0.625,-0.208 1.771,0.313 3.438,1.563c1.667,1.25 2.292,3.125 1.875,5.625Z" style="fill-rule:nonzero;"/><path d="M206.562,87.812c-0.833,0 -1.041,-0.208 -0.625,-0.625c0.625,-0.625 3.021,-3.333 7.188,-8.125c3.75,-4.166 7.396,-8.645 10.937,-13.437c-0.833,-1.458 -2.291,-3.542 -4.375,-6.25c-1.875,-2.917 -3.333,-5 -4.375,-6.25c-1.25,-2.083 -2.291,-3.438 -3.125,-4.063c-0.625,-0.833 -0.833,-1.562 -0.625,-2.187c0,-1.042 0.625,-1.354 1.875,-0.938c0.209,0.209 0.521,0.313 0.938,0.313c0.625,0.208 1.25,0.625 1.875,1.25c0.833,0.625 1.875,1.979 3.125,4.062c2.5,3.334 5.104,6.563 7.812,9.688c3.75,-6.042 6.25,-10.833 7.5,-14.375c1.459,-2.917 2.292,-5.313 2.5,-7.188c-0.208,-0.208 -0.312,-0.625 -0.312,-1.25c-0.208,-0.416 -0.313,-0.729 -0.313,-0.937c-0.208,-0.625 -0.104,-0.938 0.313,-0.938c0.417,-0.416 0.937,-0.625 1.562,-0.625c0.625,-0.208 1.563,0.417 2.813,1.875c1.25,1.25 1.667,2.709 1.25,4.375c-0.208,0.417 -0.521,1.146 -0.938,2.188c-1.041,2.5 -1.875,4.375 -2.5,5.625c-2.5,5 -5.416,9.896 -8.75,14.687c5,5.209 10.938,9.375 17.813,12.5c5.625,2.084 8.75,3.334 9.375,3.75c0.208,0 0.312,0.105 0.312,0.313c0,0 -0.937,0.104 -2.812,0.312c-2.083,0.417 -4.271,0.938 -6.563,1.563c-2.083,0.833 -3.437,1.562 -4.062,2.187c-0.625,0.625 -1.458,0.625 -2.5,0c-0.208,-0.416 -1.042,-1.145 -2.5,-2.187c-1.042,-0.833 -1.875,-1.563 -2.5,-2.188c-3.542,-3.541 -6.875,-7.395 -10,-11.562c-3.958,4.792 -8.229,9.062 -12.813,12.812c-3.125,2.709 -5.625,4.584 -7.5,5.625Zm-2.812,3.75c0,0.209 -0.104,0.417 -0.313,0.625c-0.416,1.042 -0.937,1.563 -1.562,1.563c0,0 -0.104,-0.104 -0.313,-0.313c-1.25,-0.416 -2.187,-1.562 -2.812,-3.437c-0.625,-1.667 -0.833,-2.813 -0.625,-3.438c0,-0.208 0.104,-0.833 0.312,-1.875c-0.208,0.625 -0.104,0.313 0.313,-0.937l0,-2.813c0.208,-5 0.417,-9.583 0.625,-13.75c0.417,-10 0.208,-15.729 -0.625,-17.187c-0.625,0.417 -1.563,1.146 -2.813,2.187c-2.5,2.084 -4.375,3.542 -5.625,4.375c-2.708,2.084 -4.583,3.334 -5.625,3.75c-0.625,0.209 -0.937,0.209 -0.937,0c0,0 0.104,-0.104 0.312,-0.312c0.209,-0.625 1.98,-2.813 5.313,-6.563c3.333,-3.75 6.562,-8.125 9.687,-13.125c3.542,-4.791 5.313,-7.5 5.313,-8.125c0,-0.833 0.312,-1.25 0.937,-1.25l0.313,0c0.833,0 1.875,0.625 3.125,1.875c1.458,1.25 2.292,2.5 2.5,3.75c0.208,0.625 -3.125,4.271 -10,10.938c1.042,0.625 1.667,1.562 1.875,2.812l0,1.875c0.208,1.25 0.312,2.292 0.312,3.125c0,2.084 0.105,8.334 0.313,18.75c0.417,10 0.417,15.834 0,17.5Zm21.562,-47.812c-0.625,-0.833 -1.562,-2.5 -2.812,-5c-0.417,-0.625 -0.833,-1.354 -1.25,-2.188c-0.833,-1.458 -1.25,-2.187 -1.25,-2.187c-0.417,-0.833 -0.313,-1.25 0.312,-1.25c0.209,-0.417 1.042,-0.417 2.5,0c1.459,0 2.5,0.312 3.125,0.937c0.625,0.625 1.25,2.084 1.875,4.375c0.625,2.084 0.834,3.646 0.625,4.688c-0.208,0.833 -0.729,1.458 -1.562,1.875c-0.625,0 -1.146,-0.417 -1.563,-1.25Z" style="fill-rule:nonzero;"/><path d="M290.312,43.75l0,-0.313c-0.416,-0.625 -0.52,-1.25 -0.312,-1.875c0.417,-0.625 0.729,-2.291 0.937,-5c-0.416,0.209 -1.041,0.417 -1.875,0.625c-2.708,0.834 -4.27,1.355 -4.687,1.563c-0.625,0.208 -1.042,0 -1.25,-0.625c-0.208,-0.833 -0.625,-1.667 -1.25,-2.5c-0.417,-0.625 -0.313,-1.042 0.312,-1.25c0.625,0 2.396,-0.313 5.313,-0.938c3.125,-0.833 4.896,-1.562 5.312,-2.187c0.625,-0.833 1.667,-0.417 3.125,1.25c1.667,1.458 2.292,2.604 1.875,3.437c-0.208,0.417 -1.458,2.813 -3.75,7.188c1.459,0.625 2.084,1.354 1.875,2.187c0,0.834 -0.312,1.25 -0.937,1.25c-0.625,0 -3.75,0.73 -9.375,2.188c0.625,1.25 0.937,2.396 0.937,3.437c0,0.625 -0.416,1.042 -1.25,1.25c-0.625,0 -1.041,-0.208 -1.25,-0.625c-0.208,-0.416 -1.145,-2.291 -2.812,-5.625c-0.417,-1.041 -1.042,-2.395 -1.875,-4.062c-0.625,-1.875 -1.146,-3.125 -1.563,-3.75c-0.833,-1.875 -1.458,-3.229 -1.875,-4.063c-0.208,-0.625 0.105,-1.145 0.938,-1.562c1.25,-0.208 2.083,0 2.5,0.625c0.417,0.625 1.042,1.771 1.875,3.437c0.208,0.417 0.521,1.042 0.937,1.875c0.834,2.292 1.563,4.167 2.188,5.625l5.937,-1.562Zm23.75,-2.5c-0.625,-1.25 -0.729,-2.083 -0.312,-2.5c0,-0.417 0.417,-2.188 1.25,-5.313c-0.833,0.209 -1.979,0.521 -3.438,0.938c-0.833,0.208 -1.354,0.312 -1.562,0.312c-0.625,0.209 -1.042,0 -1.25,-0.625c-0.208,-1.041 -0.521,-1.666 -0.938,-1.875c-0.208,-0.208 -0.312,-0.416 -0.312,-0.625c0.208,-0.208 0.521,-0.312 0.937,-0.312c0.834,0 2.5,-0.313 5,-0.938c2.292,-0.416 3.75,-0.937 4.375,-1.562c0,-0.208 0.105,-0.313 0.313,-0.313c0.625,0 1.562,0.625 2.812,1.875c1.667,1.667 2.084,2.813 1.25,3.438c-0.625,0.417 -2.187,2.812 -4.687,7.187c1.667,0.834 2.396,1.771 2.187,2.813c-0.208,0.833 -0.52,1.25 -0.937,1.25l-1.563,0c-0.625,0 -3.437,0.312 -8.437,0.937c0,1.25 -0.104,2.084 -0.313,2.5c-0.625,0.625 -1.354,0.417 -2.187,-0.625c-0.833,-0.833 -1.25,-1.562 -1.25,-2.187c0,-0.833 -0.417,-2.917 -1.25,-6.25c-0.625,-3.542 -1.146,-5.729 -1.563,-6.563c-0.208,-0.833 0.105,-1.25 0.938,-1.25c1.042,-0.208 1.875,0 2.5,0.625c0.833,0.209 1.25,0.834 1.25,1.875c0.208,0.625 0.521,2.917 0.937,6.875c-0.416,-3.75 -0.312,-3.333 0.313,1.25l5.937,-0.937Zm-19.062,16.562c-10,1.459 -16.25,2.813 -18.75,4.063c-2.292,0.833 -3.75,1.458 -4.375,1.875c-0.625,0.208 -1.146,-0.104 -1.563,-0.938c-0.208,-0.625 -0.52,-1.458 -0.937,-2.5c-0.208,-0.208 -0.313,-0.312 -0.313,-0.312c0,-0.625 0.209,-0.938 0.625,-0.938c0.209,0 2.396,-0.312 6.563,-0.937c7.292,-1.25 13.958,-2.292 20,-3.125c0.625,-2.292 0.833,-3.75 0.625,-4.375c-0.208,-0.208 -0.417,-0.625 -0.625,-1.25c0,0.208 -0.104,0.104 -0.313,-0.313c-0.208,-0.416 0.105,-0.625 0.938,-0.625c0.625,-0.208 1.458,-0.312 2.5,-0.312c0.833,0 1.562,0.625 2.187,1.875c0.834,0.833 1.25,2.083 1.25,3.75c13.334,-1.667 20.313,-2.604 20.938,-2.813c0.417,-0.625 1.354,-0.208 2.812,1.25c1.459,1.25 1.98,2.292 1.563,3.125c-0.625,0.625 -1.354,0.73 -2.188,0.313c-0.625,-0.208 -2.083,-0.313 -4.375,-0.313c-2.5,-0.416 -7.812,-0.104 -15.937,0.938c0.833,0.208 2.812,0.937 5.937,2.187c2.917,0.625 4.792,1.355 5.625,2.188c0.625,0.833 0.834,1.979 0.625,3.437c0,1.25 -0.52,1.667 -1.562,1.25c-0.417,-0.208 -1.042,-0.52 -1.875,-0.937c-1.875,-1.042 -3.438,-1.875 -4.688,-2.5c-1.041,-0.625 -2.291,-1.354 -3.75,-2.188c-0.833,-0.625 -1.458,-0.937 -1.875,-0.937c-0.625,-0.417 -1.041,-1.146 -1.25,-2.188c-0.208,0 -0.52,0.105 -0.937,0.313c-3.75,4.167 -6.875,6.875 -9.375,8.125c-2.5,0.833 -3.958,1.458 -4.375,1.875c-0.625,0 -0.833,-0.104 -0.625,-0.313c0,0 0.104,-0.104 0.312,-0.312c0.625,-0.833 1.459,-1.667 2.5,-2.5c1.875,-1.458 3.438,-3.438 4.688,-5.938Zm-15,15c8.333,-2.5 12.917,-4.062 13.75,-4.687c0.625,-0.833 1.875,-0.208 3.75,1.875c1.667,2.083 2.292,3.437 1.875,4.062c-0.625,0.834 -2.188,3.542 -4.688,8.125c1.459,0.209 2.5,0.625 3.125,1.25c0.417,0.209 0.521,0.73 0.313,1.563c-0.208,0.833 -0.625,1.25 -1.25,1.25c-0.208,-0.208 -0.729,-0.208 -1.563,0l-1.875,0c-1.875,0.208 -4.375,0.833 -7.5,1.875c0.834,2.292 1.25,3.646 1.25,4.062c0,0.834 -0.416,1.25 -1.25,1.25c-0.625,0.209 -1.145,0 -1.562,-0.625c-0.625,-0.625 -1.563,-2.5 -2.813,-5.625c-1.25,-3.541 -2.395,-6.145 -3.437,-7.812c-0.833,-1.875 -1.458,-3.125 -1.875,-3.75c-0.625,-0.625 -0.625,-1.563 0,-2.813c0.417,-1.25 0.937,-1.875 1.562,-1.875c0.209,0 0.938,0.625 2.188,1.875Zm1.875,4.063c0.417,1.042 1.25,2.917 2.5,5.625c0.208,0.833 0.417,1.458 0.625,1.875l5.312,-1.563c-0.208,-0.833 -0.312,-1.562 -0.312,-2.187c0.417,-0.625 1.042,-3.021 1.875,-7.188l-10,3.438Zm34.062,4.375c-0.208,-0.833 -0.312,-1.563 -0.312,-2.188c0,-0.208 0.104,-0.416 0.312,-0.625c0.625,-2.083 1.25,-4.375 1.875,-6.875c-1.666,0.625 -3.645,1.25 -5.937,1.875c-1.458,0.417 -2.292,0.625 -2.5,0.625c-0.625,0.209 -0.938,0 -0.938,-0.625c0,-0.208 -0.104,-0.416 -0.312,-0.625c-0.208,-0.416 -0.417,-0.833 -0.625,-1.25c-0.208,-0.416 -0.313,-0.625 -0.313,-0.625c0.209,-0.208 0.417,-0.312 0.625,-0.312c0.209,0 0.834,-0.208 1.875,-0.625c1.459,-0.417 2.709,-0.729 3.75,-0.938c3.334,-0.833 5.417,-1.562 6.25,-2.187c0.834,-0.417 2.188,0.312 4.063,2.187c1.458,2.084 1.875,3.542 1.25,4.375c-0.208,0.209 -0.938,1.355 -2.188,3.438c-1.25,1.458 -2.187,2.708 -2.812,3.75c0.625,0.208 1.25,0.833 1.875,1.875c0.625,0.625 0.833,1.146 0.625,1.562c-0.208,0.209 -0.625,0.313 -1.25,0.313c-0.625,0.208 -1.146,0.312 -1.563,0.312c-1.666,0 -5.312,0.313 -10.937,0.938c0.625,1.875 0.729,3.437 0.312,4.687c0,1.25 -0.416,1.875 -1.25,1.875c-1.041,-0.208 -1.562,-0.729 -1.562,-1.562c-0.625,-1.25 -1.146,-3.333 -1.563,-6.25c-0.208,-0.833 -0.52,-2.083 -0.937,-3.75c-0.417,-1.25 -0.938,-3.333 -1.563,-6.25c-1.041,-2.917 -1.562,-4.688 -1.562,-5.313c0,-1.041 0.521,-1.354 1.562,-0.937c1.25,0 2.084,0.312 2.5,0.937c0.625,0.209 1.875,4.584 3.75,13.125l7.5,-0.937Zm8.438,-34.688c-0.625,-0.833 -1.25,-1.77 -1.875,-2.812c-0.417,-0.417 -0.625,-0.625 -0.625,-0.625c-0.417,-0.625 -0.313,-1.042 0.312,-1.25c0.834,0 1.875,0.104 3.125,0.312c1.25,0 2.292,0.834 3.125,2.5c0.417,1.042 0.625,1.875 0.625,2.5l0,0.625c-0.208,0.417 -0.312,0.73 -0.312,0.938c-0.625,0.833 -1.25,1.25 -1.875,1.25c-0.417,-0.208 -1.25,-1.354 -2.5,-3.438Z" style="fill-rule:nonzero;"/><path d="M362.5,36.25c-1.875,-2.5 -3.021,-3.854 -3.438,-4.063c-0.416,-0.625 0.313,-1.145 2.188,-1.562c1.667,-0.417 3.333,-0.208 5,0.625c1.875,0.833 3.021,2.5 3.437,5c0.834,2.292 0.625,3.958 -0.625,5c-1.25,1.25 -2.291,1.25 -3.125,0c-0.625,-1.042 -1.77,-2.708 -3.437,-5Zm-3.75,22.812c-1.458,0.625 -3.333,1.355 -5.625,2.188c-1.458,0.625 -2.396,1.042 -2.813,1.25c-1.041,0.208 -1.875,0.521 -2.5,0.937c-0.416,0 -0.937,-0.625 -1.562,-1.875c-0.625,-1.25 -1.042,-2.5 -1.25,-3.75l0,-0.937c0,-0.625 0.104,-0.938 0.312,-0.938c0.209,0 0.938,-0.104 2.188,-0.312c0.833,-0.208 1.562,-0.313 2.187,-0.313c0.625,-0.208 1.667,-0.52 3.125,-0.937c1.875,-0.625 3.23,-1.146 4.063,-1.563c2.083,-1.041 3.437,-1.875 4.062,-2.5c0.417,-0.833 1.563,-0.312 3.438,1.563c1.875,1.875 2.396,3.125 1.562,3.75c-1.25,0.625 -1.979,2.187 -2.187,4.687c-0.625,2.709 -1.042,7.917 -1.25,15.625c1.458,-1.458 3.333,-3.229 5.625,-5.312c1.042,-1.042 1.771,-1.771 2.187,-2.188c0.834,-0.833 1.25,-1.041 1.25,-0.625c0,0.209 -0.208,1.042 -0.625,2.5c-0.833,2.5 -2.395,5.834 -4.687,10c-0.208,0.625 -0.625,1.459 -1.25,2.5c-1.042,2.292 -1.771,4.063 -2.188,5.313c-0.416,0.833 -1.875,-0.104 -4.375,-2.813c-2.5,-3.333 -3.125,-5.312 -1.875,-5.937c1.042,-0.625 1.667,-1.771 1.875,-3.438c0.209,-1.666 0.313,-7.291 0.313,-16.875Zm20.625,-0.937c1.667,-0.833 4.167,-1.667 7.5,-2.5c4.375,-1.458 6.771,-2.5 7.187,-3.125c0.209,-0.625 1.355,-0.208 3.438,1.25c1.875,1.25 2.708,2.292 2.5,3.125c-0.208,0.417 -1.875,3.75 -5,10c-0.833,1.875 -1.875,3.646 -3.125,5.312c0.417,0.417 0.937,0.834 1.562,1.25c0.417,0.417 0.73,0.73 0.938,0.938c5,4.583 9.687,7.812 14.062,9.687c0.625,0.209 1.459,0.521 2.5,0.938c3.75,1.458 6.042,2.396 6.875,2.812c0.625,0.417 0.938,0.625 0.938,0.625l-1.875,0c-2.5,0 -5,0.105 -7.5,0.313c-2.292,0.625 -3.958,1.146 -5,1.562c-0.417,0.209 -0.833,0.313 -1.25,0.313c-0.625,0 -1.042,-0.104 -1.25,-0.313c-0.208,0 -0.625,-0.312 -1.25,-0.937c-1.458,-0.625 -2.604,-1.25 -3.438,-1.875c-2.5,-1.875 -5.416,-5.104 -8.75,-9.688c-0.208,-0.208 -0.312,-0.416 -0.312,-0.625c-1.458,1.667 -3.125,3.125 -5,4.375c-4.792,3.542 -8.125,5.625 -10,6.25c-1.042,0.417 -1.458,0.521 -1.25,0.313c-0.208,-0.208 0.208,-0.729 1.25,-1.563c0.833,-0.625 2.604,-2.291 5.312,-5c1.25,-1.25 2.188,-2.187 2.813,-2.812c1.458,-1.875 2.812,-3.542 4.062,-5c-0.833,-1.042 -1.77,-2.396 -2.812,-4.063c-0.833,-1.25 -1.458,-2.083 -1.875,-2.5c-1.25,-1.875 -2.5,-3.437 -3.75,-4.687c-1.25,-1.042 -1.563,-1.771 -0.938,-2.188c0.209,-0.625 0.938,-0.937 2.188,-0.937c0.625,0 1.146,0.312 1.562,0.937c-0.625,-1.25 -0.729,-1.979 -0.312,-2.187Zm12.812,-27.5c-3.541,1.458 -5.625,2.604 -6.25,3.437c-0.625,0.625 -1.562,0.105 -2.812,-1.562c-1.458,-1.875 -1.875,-2.708 -1.25,-2.5c0.417,0 1.667,-0.313 3.75,-0.938c0.833,-0.208 1.458,-0.416 1.875,-0.625c2.917,-1.041 4.687,-1.875 5.312,-2.5c0.209,-0.208 0.417,-0.312 0.625,-0.312c0.625,0 1.771,0.625 3.438,1.875c1.875,1.875 2.5,3.229 1.875,4.062c-0.417,0.625 -1.771,3.855 -4.063,9.688c2.084,-1.25 3.438,-1.979 4.063,-2.188c0.417,-0.625 1.354,-0.104 2.812,1.563c1.459,1.458 1.667,2.396 0.625,2.812c-1.25,0.209 -3.125,0.834 -5.625,1.875c-2.708,0.834 -4.375,1.563 -5,2.188c-0.625,0.208 -1.458,-0.417 -2.5,-1.875c-0.833,-1.875 -1.041,-2.813 -0.625,-2.813c0.625,-0.416 1.25,-0.937 1.875,-1.562c0.417,-0.625 1.042,-2.5 1.875,-5.625c0.625,-3.542 0.625,-5.208 0,-5Zm-10,5.625c0.834,2.708 1.563,5.625 2.188,8.75c0.625,3.125 0.729,5.417 0.312,6.875c-0.625,1.25 -1.562,1.146 -2.812,-0.313c-1.458,-1.458 -2.083,-2.604 -1.875,-3.437c0.208,-1.042 0,-3.438 -0.625,-7.188c-0.625,-4.166 -1.25,-6.666 -1.875,-7.5c-0.625,-1.041 -1.042,-1.77 -1.25,-2.187c-0.208,-0.625 0,-0.938 0.625,-0.938c1.042,-0.416 1.979,-0.104 2.812,0.938c1.042,0.625 1.875,2.292 2.5,5Zm0,26.562c1.875,1.875 4.063,3.959 6.563,6.25c0.208,-0.416 0.521,-1.041 0.937,-1.875c0.209,-0.208 0.417,-0.416 0.625,-0.625c2.084,-4.375 3.125,-7.708 3.125,-10c-7.083,3.334 -10.833,5.209 -11.25,5.625l-0.625,0c0.209,0.209 0.417,0.417 0.625,0.625Z" style="fill-rule:nonzero;"/><path d="M497.187,62.5c0.625,0 0.938,0.208 0.938,0.625c0,0 -0.625,0.104 -1.875,0.312c-1.875,0.209 -4.167,1.042 -6.875,2.5c-2.708,1.25 -4.375,2.188 -5,2.813c-0.417,0.417 -0.938,0.625 -1.563,0.625c-0.208,-0.208 -1.25,-0.729 -3.125,-1.563c-1.875,-1.041 -3.541,-1.875 -5,-2.5c-5,-2.708 -9.791,-6.25 -14.375,-10.625c-0.208,-0.208 -0.52,-0.52 -0.937,-0.937c-0.417,-0.208 -0.938,-0.729 -1.563,-1.563c-1.25,1.25 -2.5,2.709 -3.75,4.375c-5.625,5.625 -10.729,10.105 -15.312,13.438c-4.375,3.125 -7.292,4.896 -8.75,5.312l-1.25,0c0,-0.416 0.208,-0.729 0.625,-0.937c0.417,-0.417 1.354,-1.25 2.812,-2.5c2.292,-2.083 4.167,-3.854 5.625,-5.313c4.792,-4.166 9.375,-8.75 13.75,-13.75c1.042,-1.25 1.98,-2.291 2.813,-3.125c-1.875,-1.875 -3.542,-3.125 -5,-3.75c-2.917,-1.458 -5,-2.083 -6.25,-1.875c-1.25,0 -1.771,-0.312 -1.563,-0.937c0,-1.042 0.209,-1.667 0.625,-1.875c0.417,-0.625 1.042,-1.042 1.875,-1.25c0.834,-0.417 1.875,-0.313 3.125,0.312c0,-1.25 0.105,-1.979 0.313,-2.187c0.208,-0.208 0.417,-0.521 0.625,-0.938c0.208,-0.416 0.417,-0.729 0.625,-0.937c0.625,-1.042 1.25,-2.188 1.875,-3.438c0.417,-1.25 0.521,-2.5 0.312,-3.75c0,-1.25 -0.208,-2.083 -0.625,-2.5c-0.625,-0.416 -0.729,-0.729 -0.312,-0.937c0.417,-0.417 1.146,-0.729 2.187,-0.938c1.25,-0.208 2.5,0.625 3.75,2.5l0.625,0.625c1.459,1.875 1.875,3.334 1.25,4.375c0.209,0 0.938,-0.208 2.188,-0.625c0.833,-0.208 1.562,-0.416 2.187,-0.625c3.125,-0.833 4.896,-1.562 5.313,-2.187c0.208,-0.625 1.25,0.104 3.125,2.187c1.667,2.084 1.979,3.438 0.937,4.063c-0.625,0.625 -2.395,2.812 -5.312,6.562c-1.25,2.084 -2.917,4.271 -5,6.563c0.833,0.625 1.875,1.25 3.125,1.875c4.375,3.125 9.583,5.729 15.625,7.812c6.042,1.875 10.104,3.021 12.187,3.438c2.292,0.417 3.959,0.833 5,1.25Zm-47.187,17.5c-0.625,-1.25 -0.729,-1.875 -0.313,-1.875c0,0 0.313,-0.104 0.938,-0.313c1.875,-0.416 3.646,-0.729 5.312,-0.937l0.625,0l0,-2.5c0,-0.208 -0.104,-0.521 -0.312,-0.938c0,-0.416 -0.104,-0.729 -0.313,-0.937c0,-0.208 -0.104,-0.417 -0.312,-0.625c-0.208,-0.208 -0.313,-0.417 -0.313,-0.625c-0.208,-0.208 -0.104,-0.313 0.313,-0.313c-0.417,0.209 -1.042,0.313 -1.875,0.313c-1.667,0.417 -2.708,0.729 -3.125,0.937c-0.625,0.209 -1.354,-0.416 -2.188,-1.875c-0.625,-1.25 -0.833,-1.875 -0.625,-1.875c0.209,0 0.834,-0.104 1.875,-0.312c2.917,-0.625 5.73,-1.146 8.438,-1.563c6.25,-1.25 10,-2.187 11.25,-2.812c1.25,-0.625 2.917,0.104 5,2.187c2.5,1.875 3.542,3.23 3.125,4.063c-0.417,0.625 -0.833,2.292 -1.25,5c-0.208,0.625 -0.313,1.146 -0.313,1.562l0,0.625c-0.833,4.375 -1.77,7.813 -2.812,10.313c-1.25,3.333 -2.708,5.521 -4.375,6.562c-0.625,0.209 -1.042,0.313 -1.25,0.313c-1.042,0 -1.563,-0.938 -1.563,-2.813c-0.208,-0.625 -0.312,-1.145 -0.312,-1.562c-1.667,-1.458 -4.271,-1.875 -7.813,-1.25c-2.291,0.208 -4.375,0.625 -6.25,1.25c0,1.25 -0.104,2.187 -0.312,2.812c-0.625,0.834 -1.667,0.521 -3.125,-0.937c-1.25,-1.25 -1.875,-2.292 -1.875,-3.125c0.208,-0.417 0,-2.292 -0.625,-5.625c-0.833,-3.542 -1.875,-6.25 -3.125,-8.125c-0.208,-0.417 -0.521,-1.042 -0.938,-1.875c-0.625,-1.042 -1.041,-1.667 -1.25,-1.875c-0.416,0 -0.625,-0.313 -0.625,-0.938c-0.208,-0.416 0,-0.729 0.625,-0.937l2.188,0c1.042,0.208 1.875,0.625 2.5,1.25c0.833,0.417 1.875,2.396 3.125,5.937c1.042,3.334 1.979,6.771 2.812,10.313c0,0 0.105,0.208 0.313,0.625c1.875,-0.417 3.75,-0.729 5.625,-0.938c-0.625,-0.833 -0.729,-1.458 -0.313,-1.875l0,-4.375c-0.208,0 -0.52,0.105 -0.937,0.313c-0.417,0 -0.729,0.104 -0.938,0.312c-0.416,0 -0.937,0.105 -1.562,0.313c-0.625,0 -1.146,0.104 -1.563,0.312c-0.416,0 -0.937,-0.52 -1.562,-1.562Zm18.437,4.062c0.625,-1.875 1.146,-4.895 1.563,-9.062c0.208,-4.167 0,-6.354 -0.625,-6.563c-0.208,0 -0.313,-0.104 -0.313,-0.312c-0.208,-0.208 -0.625,-0.313 -1.25,-0.313c-0.416,0.209 -2.5,0.73 -6.25,1.563c-1.041,0.208 -1.875,0.417 -2.5,0.625l-0.937,0c-0.417,0.208 -0.729,0.312 -0.938,0.312c0.209,0 0.73,0.105 1.563,0.313c-0.417,-0.208 -0.208,-0.104 0.625,0.312c1.042,0.834 1.562,1.771 1.562,2.813l0,2.187c0.417,-0.208 0.73,-0.312 0.938,-0.312c0.417,-0.208 0.625,-0.313 0.625,-0.313c0.417,-0.625 1.25,-0.416 2.5,0.625c0.625,0.417 1.042,0.834 1.25,1.25c0,0.417 -0.313,0.73 -0.938,0.938c-1.25,0.625 -2.708,1.042 -4.375,1.25c-0.208,0.625 -0.312,1.146 -0.312,1.562c0,2.084 -0.104,3.75 -0.313,5c2.5,-0.416 3.959,-0.729 4.375,-0.937c0.417,-0.208 0.938,0.208 1.563,1.25c0.208,0.208 0.417,0.417 0.625,0.625c0,-0.208 0.208,-0.521 0.625,-0.938c0.417,-0.833 0.729,-1.458 0.937,-1.875Zm-15,-40.937c0.417,0.208 1.146,0.729 2.188,1.562c0.833,0.417 1.458,0.73 1.875,0.938c0.625,-0.625 1.458,-1.667 2.5,-3.125c0.625,-1.042 1.146,-1.771 1.562,-2.188c1.875,-3.541 2.813,-5.416 2.813,-5.625c-0.208,-0.416 -0.625,-0.416 -1.25,0c-0.625,0.625 -1.25,1.042 -1.875,1.25c-0.833,0.625 -1.458,0.938 -1.875,0.938c-0.625,0.208 -1.25,-0.521 -1.875,-2.188c0,-0.208 -0.104,-0.416 -0.313,-0.625c0,-0.416 -0.104,-0.625 -0.312,-0.625c-1.875,2.917 -4.063,5.625 -6.563,8.125c0.417,0.209 1.042,0.521 1.875,0.938c0.625,0.208 1.042,0.417 1.25,0.625Z" style="fill-rule:nonzero;"/><path d="M529.375,73.75c0.833,0.833 0.937,1.458 0.312,1.875c-0.208,0.208 -1.145,0.729 -2.812,1.562c-0.833,0.417 -1.458,0.73 -1.875,0.938c-2.292,1.042 -4.583,2.5 -6.875,4.375c-1.458,1.042 -2.604,1.667 -3.438,1.875c-0.416,0 -1.041,-0.938 -1.875,-2.813c-0.625,-1.666 -0.729,-2.812 -0.312,-3.437c0.417,0 0.937,-0.104 1.562,-0.313c0.625,0 1.146,-0.104 1.563,-0.312c-0.625,-0.833 -0.938,-1.563 -0.938,-2.188c-0.208,-0.208 -0.52,-1.875 -0.937,-5c-0.208,-1.041 -0.313,-1.875 -0.313,-2.5c-0.208,-1.875 -0.416,-4.479 -0.625,-7.812c-0.416,-2.292 -0.625,-3.958 -0.625,-5c-0.208,-1.667 -0.416,-3.438 -0.625,-5.313l0,-0.937c-0.208,-0.208 -0.312,-0.417 -0.312,-0.625c0,-0.208 0.104,-0.313 0.312,-0.313c0.209,-0.208 0.313,-0.312 0.313,-0.312c0.625,-0.208 1.25,0 1.875,0.625c0,0 0.104,0.104 0.312,0.312c0.834,0.417 1.459,0.938 1.875,1.563c2.084,-6.875 3.125,-10.521 3.125,-10.938c0,-1.25 -0.208,-2.083 -0.625,-2.5c-0.416,-0.416 -0.416,-0.833 0,-1.25c0.625,-0.416 1.25,-0.625 1.875,-0.625c0.625,-0.208 1.667,0.521 3.125,2.188c1.25,1.875 1.875,3.229 1.875,4.062c-0.416,1.25 -1.562,3.125 -3.437,5.625c0.417,-0.208 0.729,-0.312 0.937,-0.312c1.459,0 3.438,-0.313 5.938,-0.938c2.292,-1.041 3.542,-1.666 3.75,-1.875c0.625,-0.208 1.771,0.625 3.437,2.5c1.667,2.292 2.292,4.375 1.875,6.25c-0.416,2.292 -0.729,7.605 -0.937,15.938c-0.625,9.583 -1.563,15.417 -2.813,17.5c-0.833,1.25 -1.562,1.875 -2.187,1.875c-0.625,0 -1.042,-0.729 -1.25,-2.188c-0.625,-2.5 -0.521,-4.791 0.312,-6.875c0.625,-1.666 1.042,-6.666 1.25,-15c0.417,-7.916 0.417,-11.979 0,-12.187c0,-1.25 -0.312,-1.771 -0.937,-1.563c-0.625,0 -1.771,0.313 -3.438,0.938c-1.875,0.833 -3.02,1.25 -3.437,1.25c-0.417,0.208 -1.25,-0.833 -2.5,-3.125c0.208,0.208 0.104,0 -0.313,-0.625l0,-0.938c-1.666,1.875 -3.333,3.646 -5,5.313c0,1.042 0.105,2.604 0.313,4.687l0,4.375c3.125,-1.041 5.625,-1.979 7.5,-2.812c0.417,-0.625 1.25,-0.313 2.5,0.937c0.833,1.25 0.937,1.98 0.312,2.188c-0.625,0.208 -2.187,0.833 -4.687,1.875c-2.917,1.25 -4.688,1.562 -5.313,0.937c0.209,1.25 0.417,3.23 0.625,5.938c0.417,2.5 0.625,4.479 0.625,5.937c1.459,-0.416 3.542,-1.25 6.25,-2.5c1.042,-0.625 1.875,-1.041 2.5,-1.25c0.625,-0.625 1.355,-0.312 2.188,0.938Zm18.75,-27.5c-0.625,-1.458 -0.104,-2.292 1.562,-2.5c4.792,-0.625 9.167,-1.875 13.125,-3.75c0.417,-0.417 1.563,0.312 3.438,2.187c1.667,1.25 2.5,2.605 2.5,4.063c0,0 -0.104,0.104 -0.313,0.312c-0.208,0.625 -0.312,2.084 -0.312,4.375c-0.208,1.875 -0.313,3.438 -0.313,4.688c-0.416,3.958 -0.937,8.229 -1.562,12.812c-0.833,5.417 -2.5,10.313 -5,14.688c-2.292,3.542 -4.375,5.312 -6.25,5.312l-0.313,0c-1.25,0 -1.875,-1.145 -1.875,-3.437c0,-2.292 -0.208,-3.854 -0.625,-4.688c-0.208,-1.25 -0.833,-2.395 -1.875,-3.437c-0.416,-0.417 -0.625,-0.729 -0.625,-0.938c0,-0.208 0.313,-0.208 0.938,0c0.417,0 1.458,0.105 3.125,0.313c-1.042,-0.208 -0.625,-0.104 1.25,0.312c1.667,0 2.708,-0.312 3.125,-0.937c0.417,-0.208 1.146,-2.708 2.187,-7.5c-0.833,4.583 -0.729,4.271 0.313,-0.938c1.042,-5.833 1.562,-10.104 1.562,-12.812c0.209,-6.042 0,-9.167 -0.625,-9.375c-0.416,-0.208 -1.979,0.312 -4.687,1.562c-0.417,0.209 -1.146,0.417 -2.188,0.625c-1.25,0.625 -2.291,1.042 -3.125,1.25c-1.041,0.625 -1.875,0.417 -2.5,-0.625c0,-0.208 -0.104,-0.52 -0.312,-0.937c-0.208,-0.208 -0.417,-0.417 -0.625,-0.625Zm-6.875,4.062c-0.625,0.417 -0.625,0 0,-1.25c0,-0.416 0.312,-1.25 0.937,-2.5c0.834,-2.291 1.563,-4.27 2.188,-5.937c1.25,-4.583 1.875,-7.188 1.875,-7.813c0,-0.625 -0.104,-1.354 -0.313,-2.187c-0.208,-0.625 0.105,-0.938 0.938,-0.938c1.042,0 2.292,0.625 3.75,1.875c1.458,1.25 2.187,2.292 2.187,3.125c-1.458,4.792 -4.27,9.271 -8.437,13.438c-0.625,0.417 -1.354,0.937 -2.188,1.562c-0.625,0.417 -0.937,0.625 -0.937,0.625Zm3.437,12.188c-1.875,-2.708 -2.916,-4.375 -3.125,-5c-0.625,-0.625 -0.625,-1.042 0,-1.25l0.938,0c1.042,-0.208 1.875,-0.313 2.5,-0.313c1.667,-0.208 3.229,0.938 4.687,3.438c1.875,2.083 2.605,3.958 2.188,5.625c0,1.458 -0.417,2.604 -1.25,3.437c-0.833,0.625 -1.563,0.417 -2.188,-0.625c-0.208,-0.208 -0.52,-0.625 -0.937,-1.25c-1.042,-1.458 -1.979,-2.812 -2.813,-4.062Z" style="fill-rule:nonzero;"/><path d="M615.937,49.375c-0.208,-1.25 -0.625,-2.083 -1.25,-2.5c-0.833,-0.417 -0.833,-0.938 0,-1.563c0,0 0.209,-0.208 0.625,-0.625c0.625,-0.416 1.042,-0.729 1.25,-0.937c0.834,-0.417 1.875,-0.313 3.125,0.312c0.625,0.417 1.25,0.834 1.875,1.25c0.417,0.417 0.73,0.625 0.938,0.625c0.417,0.417 0.521,1.146 0.312,2.188c9.375,-1.458 14.48,-2.5 15.313,-3.125c1.042,-0.417 2.708,-0.104 5,0.937c2.708,0.834 4.687,2.084 5.937,3.75c0.834,0.834 1.25,1.771 1.25,2.813c0,0.417 -0.104,0.833 -0.312,1.25c-0.208,1.25 -0.833,1.667 -1.875,1.25c-0.208,0 -0.521,-0.104 -0.938,-0.313c-0.208,0 -1.145,-0.312 -2.812,-0.937c-1.458,-0.625 -3.229,-0.521 -5.313,0.312c-1.875,0.625 -3.229,1.146 -4.062,1.563c-0.417,0 -0.625,-0.104 -0.625,-0.313c-0.208,0 -0.208,-0.208 0,-0.625c0.208,-0.416 0.729,-1.354 1.562,-2.812c-0.625,1.042 -0.52,0.833 0.313,-0.625c0.625,-1.25 0.937,-1.875 0.937,-1.875c-0.208,-0.208 -1.145,-0.208 -2.812,0c-0.625,0.208 -1.146,0.312 -1.563,0.312c-1.041,0.209 -2.916,0.521 -5.625,0.938c-2.083,0.208 -3.75,0.417 -5,0.625c-0.208,1.875 -0.833,3.229 -1.875,4.062c-0.833,1.042 -1.666,1.355 -2.5,0.938c-1.041,-0.625 -1.562,-1.875 -1.562,-3.75c-3.542,0.833 -6.146,1.458 -7.813,1.875c-0.416,0.208 -1.041,0.417 -1.875,0.625c-0.625,0.208 -1.25,0.417 -1.875,0.625c-0.416,0 -0.833,-0.313 -1.25,-0.938c-0.625,-0.625 -1.041,-1.25 -1.25,-1.875c-0.208,-0.833 0,-1.25 0.625,-1.25c0.209,0 0.834,-0.104 1.875,-0.312c1.042,-0.208 1.98,-0.313 2.813,-0.313c0.833,-0.208 2.396,-0.52 4.687,-0.937c1.667,-0.208 2.917,-0.417 3.75,-0.625Zm-18.75,3.75c1.459,0.625 2.188,1.875 2.188,3.75c-0.208,1.458 -0.521,3.542 -0.938,6.25c-0.625,2.5 -1.25,4.062 -1.875,4.687c-0.833,0.417 -1.458,0.105 -1.875,-0.937c-0.833,-1.042 -1.458,-1.979 -1.875,-2.813c-0.208,-0.625 -0.312,-1.041 -0.312,-1.25c0,-0.416 0.104,-0.729 0.312,-0.937c0.417,-0.833 0.938,-1.875 1.563,-3.125c0,-0.417 0.104,-1.042 0.312,-1.875c0.209,-0.625 0.313,-1.25 0.313,-1.875c0,-0.417 0.104,-0.938 0.312,-1.563l0,-0.937c0.417,-0.417 1.042,-0.208 1.875,0.625Zm17.5,14.687c0.834,0 2.188,-0.208 4.063,-0.625c2.083,-0.208 3.646,-0.416 4.687,-0.625c-0.416,-0.416 -0.625,-1.041 -0.625,-1.875c0.417,-1.041 0.625,-2.291 0.625,-3.75c-1.041,0.417 -2.291,0.834 -3.75,1.25c-0.833,0.417 -1.25,0.625 -1.25,0.625c-0.416,0 -0.625,-0.208 -0.625,-0.625c-0.208,-0.625 -0.52,-1.25 -0.937,-1.875c-0.417,-0.833 -0.313,-1.25 0.312,-1.25c0.209,0 0.625,-0.104 1.25,-0.312c0.417,-0.208 0.834,-0.313 1.25,-0.313c1.042,-0.416 1.98,-0.729 2.813,-0.937c0.833,-0.208 1.562,-0.625 2.187,-1.25c0.417,-0.625 1.355,-0.417 2.813,0.625c0.625,0.417 1.354,0.937 2.187,1.562c0.417,0.417 0.73,0.625 0.938,0.625c0.417,0.417 0.312,0.938 -0.313,1.563c-0.416,0.208 -1.041,0.625 -1.875,1.25c-0.208,0.417 -0.312,0.625 -0.312,0.625c-0.833,0.833 -1.771,2.083 -2.813,3.75c1.25,0.208 1.98,0.625 2.188,1.25c0.208,0.625 0.312,1.042 0.312,1.25c0,0.208 -1.25,0.521 -3.75,0.937c-0.416,0 -1.041,0.105 -1.875,0.313c-1.25,0 -3.75,0.312 -7.5,0.937c-0.208,1.667 -0.312,6.563 -0.312,14.688c1.875,-0.625 4.062,-1.146 6.562,-1.563c2.292,-0.625 4.375,-0.937 6.25,-0.937c-0.208,-0.625 -0.312,-1.146 -0.312,-1.563c0.208,-0.208 0.312,-0.52 0.312,-0.937c0.209,-0.833 0.417,-1.563 0.625,-2.188c0.625,-1.666 0.73,-2.5 0.313,-2.5c-0.417,0 -2.083,0.313 -5,0.938c-0.833,0.208 -1.875,0.521 -3.125,0.937c-0.833,0 -1.563,0.105 -2.188,0.313c-0.625,0.208 -1.041,0.104 -1.25,-0.313c0,-0.208 -0.104,-0.52 -0.312,-0.937l0,-0.313c-0.208,-0.625 0.833,-1.041 3.125,-1.25c0.833,-0.208 2.083,-0.416 3.75,-0.625c1.042,-0.416 1.875,-0.625 2.5,-0.625c2.083,-0.208 3.437,-0.625 4.062,-1.25c0.625,-0.416 1.563,-0.104 2.813,0.938c1.667,1.042 2.604,1.771 2.812,2.187c0.209,0.209 0.521,0.521 0.938,0.938c0.208,0.417 0.312,0.625 0.312,0.625c0.209,0.208 -0.104,0.521 -0.937,0.937c0.833,-0.416 0.729,-0.312 -0.313,0.313c-1.25,0.417 -3.229,2.083 -5.937,5c1.25,1.042 1.875,1.875 1.875,2.5c0.417,0.625 0.312,1.042 -0.313,1.25c-0.625,0.208 -1.458,0.208 -2.5,0l-5.312,0c-0.625,0 -1.563,0.104 -2.813,0.312c-2.5,0.417 -4.479,0.625 -5.937,0.625c0,1.459 0.208,2.917 0.625,4.375c0.208,1.25 0.312,2.5 0.312,3.75c0.209,1.042 -0.104,1.667 -0.937,1.875c-0.833,0 -1.667,-1.041 -2.5,-3.125c-0.625,-2.083 -1.042,-5.208 -1.25,-9.375l0,-15c0.208,-5.208 0.312,-8.75 0.312,-10.625c0,-2.083 0.105,-3.125 0.313,-3.125c0.417,-0.416 1.042,-0.312 1.875,0.313c0.625,0.417 1.146,0.937 1.562,1.562l0,1.25c0.209,0.834 0.313,1.459 0.313,1.875c-0.208,1.25 -0.313,3.125 -0.313,5.625Zm17.188,-38.75c0.417,1.25 -0.521,2.605 -2.813,4.063c0.834,-0.208 1.98,-0.521 3.438,-0.938c1.25,-0.416 2.396,-0.729 3.437,-0.937c0.417,-0.208 0.938,-0.417 1.563,-0.625c0.417,-0.208 0.729,-0.313 0.937,-0.313c0.417,-0.625 1.146,-0.729 2.188,-0.312c0.833,0 1.667,0.312 2.5,0.937c0.625,0.417 0.937,0.938 0.937,1.563c0,0.208 -0.104,0.521 -0.312,0.937c-0.208,0.209 -0.729,0.209 -1.563,0c-0.625,-0.416 -1.875,-0.416 -3.75,0c-1.041,0.209 -2.916,0.73 -5.625,1.563c-0.625,0.208 -1.145,0.417 -1.562,0.625c1.667,1.25 2.5,2.292 2.5,3.125c0.417,0.833 0.104,1.667 -0.938,2.5c-1.041,0.625 -2.083,1.562 -3.125,2.812c-1.25,1.25 -2.291,1.98 -3.125,2.188c-0.833,0.208 -1.25,-0.208 -1.25,-1.25c-0.208,-1.25 0.313,-2.396 1.563,-3.438c1.25,-0.833 1.979,-1.875 2.187,-3.125c0.417,-1.041 0.313,-1.666 -0.312,-1.875c-0.417,-0.208 -0.625,-1.25 -0.625,-3.125c-2.917,1.25 -4.688,1.98 -5.313,2.188c-0.416,0.208 -0.729,0.312 -0.937,0.312c-0.208,0 -0.313,-0.208 -0.313,-0.625c-0.208,-0.625 -0.104,-1.145 0.313,-1.562c0.417,-0.417 0.937,-0.938 1.562,-1.563c0.625,-0.833 1.355,-1.875 2.188,-3.125c0.625,-1.458 0.937,-2.5 0.937,-3.125c-0.208,-0.833 0.313,-1.25 1.563,-1.25c1.667,-0.416 2.708,0.209 3.125,1.875c0.208,0.209 0.312,0.625 0.312,1.25c0.209,0.625 0.313,1.042 0.313,1.25Zm-20.313,1.563c0.209,1.458 0,2.396 -0.625,2.812c-0.416,0.209 -1.562,0.938 -3.437,2.188c2.917,-1.042 4.792,-1.667 5.625,-1.875c0.833,-0.625 1.562,-1.042 2.187,-1.25c0.625,-0.625 1.355,-0.833 2.188,-0.625c0.208,0 0.417,0.104 0.625,0.312c0.833,0 1.354,0.209 1.562,0.625c0.625,0.625 0.938,1.042 0.938,1.25c0,0.625 -0.104,1.042 -0.313,1.25c-0.208,0.209 -0.937,0.521 -2.187,0.938c-1.042,0 -3.333,0.625 -6.875,1.875c1.25,0.833 1.875,1.979 1.875,3.437c0,1.25 -0.104,2.292 -0.313,3.125c-0.208,0.834 -0.625,1.25 -1.25,1.25c-0.833,-0.208 -1.354,-0.625 -1.562,-1.25c0,-0.208 -0.208,-0.833 -0.625,-1.875c-0.208,-1.458 -0.521,-2.708 -0.938,-3.75c-0.625,0.625 -1.25,0.938 -1.875,0.938c-0.625,0 -1.041,-0.729 -1.25,-2.188c-3.125,1.875 -5.416,3.334 -6.875,4.375c-0.416,0.209 -0.937,0.521 -1.562,0.938c-0.417,0.208 -0.938,0.521 -1.563,0.937c-0.625,0.625 -1.145,0.73 -1.562,0.313c-0.417,-0.208 -0.313,-0.625 0.312,-1.25c0.625,-1.042 1.771,-2.292 3.438,-3.75c0.417,-0.417 1.042,-1.146 1.875,-2.188c1.667,-1.875 2.917,-3.333 3.75,-4.375c2.083,-2.708 3.125,-4.375 3.125,-5l0,-1.875c0,-0.625 0.521,-0.937 1.562,-0.937c0.834,0 1.459,0.208 1.875,0.625c0.417,0.208 0.73,0.729 0.938,1.562c0.417,0.625 0.729,1.771 0.937,3.438Z" style="fill-rule:nonzero;"/><path d="M708.437,55.937c0,-0.833 -0.104,-2.083 -0.312,-3.75l0,-3.125c-1.25,0.625 -2.083,0.938 -2.5,0.938c-0.208,0 -0.521,-0.313 -0.938,-0.938c-0.416,-0.208 -0.729,-0.729 -0.937,-1.562c-0.208,-0.208 -0.313,-0.313 -0.313,-0.313c-0.416,-0.833 -0.312,-1.25 0.313,-1.25l1.562,0c1.042,-0.416 1.98,-0.729 2.813,-0.937l0,-0.938c0.208,-1.041 0.312,-1.875 0.312,-2.5c0,-1.875 -0.208,-3.02 -0.625,-3.437c-0.416,-0.833 -0.312,-1.354 0.313,-1.563c0.417,-0.416 1.25,-0.416 2.5,0c1.458,0.209 2.187,0.834 2.187,1.875l0,4.688c0.625,0 1.042,-0.208 1.25,-0.625c0.417,-0.417 0.73,-0.417 0.938,0c0,0 0.104,0.104 0.312,0.312c0.417,0.209 0.834,0.417 1.25,0.625c0.625,0.625 0.938,1.25 0.938,1.875c-0.208,0.625 -1.771,1.25 -4.688,1.875c-0.208,2.5 -0.208,5.105 0,7.813c1.667,-0.417 2.605,-0.625 2.813,-0.625c0.417,0 0.937,0.312 1.562,0.937c0.625,-0.625 1.667,-4.166 3.125,-10.625c1.459,-6.25 1.98,-9.583 1.563,-10c-0.208,-0.416 -1.458,-0.416 -3.75,0c-0.417,0 -1.042,0.105 -1.875,0.313c-0.625,0 -3.125,0.417 -7.5,1.25c-0.625,0 -1.458,0.104 -2.5,0.312c-2.5,0.417 -4.063,0.73 -4.688,0.938c-0.833,0.208 -1.354,0 -1.562,-0.625c-0.208,-0.625 -0.625,-1.25 -1.25,-1.875c-0.208,-0.833 0.104,-1.25 0.937,-1.25c0.834,0 3.75,-0.313 8.75,-0.938c1.875,-0.208 4.271,-0.625 7.188,-1.25c1.25,-0.208 2.187,-0.312 2.812,-0.312c2.084,-0.417 3.438,-0.729 4.063,-0.938c0.208,-0.208 0.417,-0.312 0.625,-0.312c0.833,0 1.875,0.625 3.125,1.875c1.875,1.458 3.021,2.5 3.437,3.125c0,1.25 -0.312,2.396 -0.937,3.437c-0.625,1.459 -1.979,5.521 -4.063,12.188c-2.083,6.667 -3.75,10.208 -5,10.625c-0.833,0.208 -1.77,-0.833 -2.812,-3.125l-4.375,1.25l0,6.875c1.458,-0.417 2.5,-0.729 3.125,-0.938c0,-0.625 1.146,-0.312 3.437,0.938c1.667,1.042 2.5,1.875 2.5,2.5c0,0.625 -0.104,1.146 -0.312,1.562c-0.417,0.625 -0.938,0.73 -1.563,0.313c-1.041,-0.417 -3.437,-0.313 -7.187,0.312c-0.208,4.792 -0.313,7.709 -0.313,8.75c0.834,0 1.875,-0.104 3.125,-0.312c2.292,-0.208 4.584,-0.313 6.875,-0.313c2.292,-0.416 3.855,-0.729 4.688,-0.937c0.625,-0.417 1.25,-0.521 1.875,-0.313c0.417,0 1.354,0.834 2.812,2.5c1.042,0.834 1.563,1.771 1.563,2.813c-0.417,0.625 -0.938,1.146 -1.563,1.562c-0.208,-0.208 -0.833,-0.52 -1.875,-0.937c1.042,0.417 0.73,0.312 -0.937,-0.313c-1.458,-0.625 -3.021,-0.937 -4.688,-0.937c-1.458,-0.208 -5.937,0 -13.437,0.625c-7.292,0.208 -12.5,0.833 -15.625,1.875c-1.042,0.208 -2.292,0.521 -3.75,0.937c-0.833,0.209 -1.563,0.417 -2.188,0.625c-0.625,0.209 -1.354,-0.104 -2.187,-0.937c-0.208,-0.417 -0.521,-0.938 -0.938,-1.563c-0.208,-0.208 -0.312,-0.416 -0.312,-0.625c-0.208,-0.416 -0.313,-0.729 -0.313,-0.937c0.209,-0.208 0.521,-0.313 0.938,-0.313l1.25,0c1.25,-0.208 2.396,-0.312 3.437,-0.312c1.875,-0.417 7.605,-1.042 17.188,-1.875c-0.208,-0.625 -0.313,-1.354 -0.313,-2.188c0.209,-0.625 0.313,-2.604 0.313,-5.937c-0.208,0 -0.521,0.104 -0.938,0.312c-3.125,0.209 -5.104,0.625 -5.937,1.25c-0.625,0.209 -1.146,0.105 -1.563,-0.312c0,0 -0.104,-0.208 -0.312,-0.625c-0.208,-0.208 -0.521,-0.938 -0.938,-2.188c-0.208,-1.458 -0.104,-2.187 0.313,-2.187l2.812,0c0.417,0 1.25,-0.104 2.5,-0.313c1.667,-0.208 3.021,-0.416 4.063,-0.625l0,-6.875c-5,0.834 -7.813,1.459 -8.438,1.875c-0.625,0.417 -1.145,0 -1.562,-1.25c-0.625,-0.833 -1.042,-1.562 -1.25,-2.187c-0.208,-0.625 0,-0.938 0.625,-0.938l0.937,0c0.834,-0.208 1.563,-0.312 2.188,-0.312c0,-0.208 -0.104,-0.521 -0.313,-0.938c-0.416,-0.833 -0.625,-1.354 -0.625,-1.562c-0.416,-0.625 -1.145,-2.708 -2.187,-6.25c-1.042,-3.542 -1.875,-5.729 -2.5,-6.563c-0.833,-1.041 -1.146,-2.083 -0.938,-3.125c0.209,-1.25 0.625,-2.083 1.25,-2.5c0.625,-0.416 1.146,-0.104 1.563,0.938c0.625,0.833 1.562,2.708 2.812,5.625c1.25,2.708 2.605,7.292 4.063,13.75l4.687,-0.938Zm-30.312,-6.25c-0.625,-1.041 -1.146,-1.666 -1.563,-1.875c-0.625,-0.416 -0.208,-0.833 1.25,-1.25c1.042,-0.625 2.084,-0.833 3.125,-0.625c0.625,0.209 1.459,0.834 2.5,1.875c0.625,1.042 0.938,2.813 0.938,5.313l0,1.25c1.042,-0.208 1.979,-0.625 2.812,-1.25c0.209,0 0.73,0.104 1.563,0.312c-0.417,-0.208 -0.208,-0.104 0.625,0.313c0.208,0.208 0.417,0.521 0.625,0.937c0.417,0.417 0.625,0.73 0.625,0.938c0,0.625 -0.521,1.25 -1.563,1.875c-1.458,0.833 -3.02,1.458 -4.687,1.875c-0.208,4.583 -0.833,9.062 -1.875,13.437c0.417,-0.416 0.937,-0.729 1.562,-0.937c2.084,-1.042 4.271,-2.292 6.563,-3.75c0.625,-0.417 1.042,-0.625 1.25,-0.625c0.625,-0.208 0.833,-0.104 0.625,0.312c-0.208,0.625 -2.708,3.125 -7.5,7.5c-1.667,1.459 -3.75,3.334 -6.25,5.625c-1.875,1.667 -3.125,2.813 -3.75,3.438c-2.083,1.458 -3.229,2.5 -3.438,3.125c-0.833,0.208 -1.562,-0.208 -2.187,-1.25c-1.25,-1.042 -1.979,-2.292 -2.188,-3.75c-0.208,-0.625 -0.312,-1.146 -0.312,-1.563c0.208,-0.625 0.625,-1.041 1.25,-1.25c3.75,-1.666 7.5,-3.437 11.25,-5.312c-0.417,-0.417 -0.625,-1.25 -0.625,-2.5c0.417,-3.542 0.625,-7.083 0.625,-10.625c-0.833,0.208 -1.563,0.521 -2.188,0.937c-0.416,0 -0.833,0.105 -1.25,0.313c-0.416,0.208 -0.833,0.312 -1.25,0.312c-0.416,0 -0.937,-0.312 -1.562,-0.937c-0.625,-1.042 -1.146,-1.875 -1.563,-2.5c-0.416,-1.25 -0.312,-1.771 0.313,-1.563c0.625,0 1.562,-0.104 2.812,-0.312c1.667,-0.625 3.23,-1.042 4.688,-1.25l0,-2.188c-0.417,-2.291 -0.833,-3.75 -1.25,-4.375Zm1.25,-12.5c3.75,-1.041 5.833,-1.666 6.25,-1.875c0.417,-0.208 1.042,-0.104 1.875,0.313c-0.625,-0.417 -0.521,-0.417 0.312,0c0,0 0.105,0.104 0.313,0.312c0.833,0.834 1.458,1.667 1.875,2.5c0.625,1.25 0.625,1.98 0,2.188c-0.417,0.417 -1.771,0.833 -4.063,1.25c-0.625,0.208 -1.041,0.312 -1.25,0.312c-1.041,0.209 -2.5,0.625 -4.375,1.25c-1.666,0.417 -2.812,0.73 -3.437,0.938c-2.292,1.042 -3.646,1.562 -4.063,1.562c-0.416,0 -0.937,-0.52 -1.562,-1.562c-0.625,-1.042 -1.146,-2.292 -1.563,-3.75c0,-1.458 0.521,-2.188 1.563,-2.188c1.25,0 3.958,-0.416 8.125,-1.25Z" style="fill-rule:nonzero;"/><path d="M779.375,45.937c0.208,-0.416 0.937,-0.104 2.187,0.938c1.25,0.625 1.563,1.25 0.938,1.875c-0.417,0.625 -2.5,1.562 -6.25,2.812c-0.417,0.209 -1.042,0.417 -1.875,0.625c-0.833,0.417 -1.458,0.73 -1.875,0.938l0,2.187c1.875,0.834 2.708,1.771 2.5,2.813c0,0.625 -0.417,1.354 -1.25,2.187c1.875,0 3.125,0.313 3.75,0.938c1.25,1.25 2.187,2.5 2.812,3.75c1.25,1.875 1.355,3.333 0.313,4.375c-0.833,0.833 -1.667,0.833 -2.5,0c-1.875,-1.875 -3.75,-3.646 -5.625,-5.313l0,5.938c-0.208,7.5 -0.729,13.229 -1.563,17.187c-0.625,1.875 -1.354,2.813 -2.187,2.813l-0.313,0c0,-0.208 -0.104,-0.313 -0.312,-0.313c-0.625,-1.041 -0.938,-2.291 -0.938,-3.75c0,-1.875 0.105,-4.166 0.313,-6.875l0,-2.5c0.208,-4.166 0.208,-7.604 0,-10.312c-6.25,6.25 -11.146,10.625 -14.688,13.125c-0.416,0.208 -1.041,0.625 -1.875,1.25c-2.083,1.458 -3.333,2.187 -3.75,2.187c-0.625,0 -0.52,-0.208 0.313,-0.625c0.625,-0.625 2.812,-3.229 6.562,-7.812c3.75,-4.583 8.23,-10 13.438,-16.25l0,-3.125c-3.958,1.458 -8.125,3.229 -12.5,5.312c-0.208,0.209 -0.625,0.417 -1.25,0.625c-1.875,1.042 -3.021,1.459 -3.438,1.25c-0.208,0 -0.833,-0.52 -1.875,-1.562c-0.416,-0.417 -0.937,-1.146 -1.562,-2.188c-0.208,-0.416 -0.417,-0.729 -0.625,-0.937c-0.208,-0.417 -0.313,-0.729 -0.313,-0.938c0,-0.416 0.313,-0.729 0.938,-0.937c-0.208,0.208 -0.104,0.208 0.312,0c1.042,0 3.855,-0.521 8.438,-1.563c3.75,-1.25 7.708,-2.5 11.875,-3.75c0,-0.833 -0.104,-1.875 -0.313,-3.125c0,-1.875 -0.104,-3.125 -0.312,-3.75c-1.25,-1.25 -1.979,-2.187 -2.188,-2.812c-0.416,-0.208 -0.52,-0.625 -0.312,-1.25c-0.833,0.417 -2.188,1.042 -4.063,1.875c-2.291,1.042 -4.062,1.771 -5.312,2.187c-1.25,0.417 -2.083,0.625 -2.5,0.625c-0.208,-0.208 1.042,-1.458 3.75,-3.75c1.875,-1.666 3.437,-3.02 4.687,-4.062c5.209,-5 8.021,-8.021 8.438,-9.063c0.417,-0.416 0.729,-0.625 0.937,-0.625c0.417,0 0.938,0.105 1.563,0.313c1.25,0.417 2.396,1.771 3.437,4.062c1.459,2.084 1.563,3.334 0.313,3.75c-0.833,0.417 -1.875,0.625 -3.125,0.625c-1.042,0.417 -2.813,1.25 -5.313,2.5c1.25,0.417 2.5,1.25 3.75,2.5c1.042,1.25 1.667,2.292 1.875,3.125c0.209,0.625 0.209,1.563 0,2.813l0,2.187c1.25,-0.625 2.5,-1.041 3.75,-1.25c1.042,-0.416 1.98,-0.833 2.813,-1.25Zm14.687,24.375c0.834,3.125 0.938,5 0.313,5.625c-0.417,0.625 -1.25,0.417 -2.5,-0.625c-1.042,-1.25 -1.563,-2.291 -1.563,-3.125c0,-0.625 -0.416,-2.5 -1.25,-5.625c0.834,2.709 0.73,2.396 -0.312,-0.937c-0.625,-3.75 -1.667,-6.771 -3.125,-9.063c-1.042,-2.5 -1.771,-3.958 -2.188,-4.375c-0.625,-0.625 -0.416,-0.833 0.625,-0.625c0.625,-0.208 1.563,-0.104 2.813,0.313c-1.042,-0.417 -0.938,-0.417 0.312,0c1.25,0.208 2.396,1.667 3.438,4.375c0,0.417 0.208,1.042 0.625,1.875c0.208,1.25 0.833,4.062 1.875,8.437l12.812,-1.875c-0.208,-0.416 -0.208,-0.937 0,-1.562c0.209,-0.417 0.417,-1.25 0.625,-2.5c0.209,-1.042 0.417,-1.875 0.625,-2.5c0,-0.417 0.105,-0.938 0.313,-1.563c0.208,-1.458 0.208,-2.395 0,-2.812c0,-0.417 -0.729,-0.417 -2.188,0c-0.208,0 -0.52,0.104 -0.937,0.312c-1.042,0 -2.813,0.417 -5.313,1.25c-0.208,0 -0.625,0.105 -1.25,0.313c-1.875,0.417 -3.125,0.729 -3.75,0.937c-0.625,0 -1.041,-0.104 -1.25,-0.312c0,-0.208 -0.104,-0.417 -0.312,-0.625c0,-0.625 -0.104,-1.146 -0.313,-1.563c-0.625,-1.25 -0.625,-1.875 0,-1.875c0.209,-0.208 1.563,-0.416 4.063,-0.625c2.083,-0.208 3.646,-0.416 4.687,-0.625c4.375,-0.625 7.084,-1.354 8.125,-2.187c0.417,-0.833 1.98,-0.104 4.688,2.187c1.875,1.875 2.812,3.125 2.812,3.75c0,0 -0.104,0.105 -0.312,0.313c0,0.208 -0.625,1.146 -1.875,2.812c-1.667,2.709 -3.229,5.105 -4.688,7.188c1.25,0.625 1.875,1.458 1.875,2.5c-0.208,1.25 -0.625,1.875 -1.25,1.875l-5.625,0c-2.916,0 -6.458,0.312 -10.625,0.937Z" style="fill-rule:nonzero;"/><path d="M896.562,88.437c0.417,0.209 0.625,0.313 0.625,0.313c0,0.417 -0.416,0.625 -1.25,0.625c-0.208,0 -0.52,0.104 -0.937,0.312c-0.833,0 -2.708,0.417 -5.625,1.25c-2.917,1.042 -4.688,1.771 -5.313,2.188c-0.625,0.625 -1.354,0.729 -2.187,0.312c-0.208,-0.208 -0.833,-0.625 -1.875,-1.25c-2.708,-2.083 -4.583,-3.333 -5.625,-3.75c-2.917,-2.5 -6.354,-5.52 -10.313,-9.062c-1.666,3.333 -4.062,6.354 -7.187,9.062c-2.708,2.5 -5.208,3.855 -7.5,4.063c-0.833,0.208 -0.938,0.104 -0.313,-0.313c0.834,-0.625 2.813,-2.5 5.938,-5.625c2.083,-2.291 3.958,-5.52 5.625,-9.687c-0.208,0 -0.417,-0.104 -0.625,-0.313c-1.667,-1.666 -4.063,-3.645 -7.188,-5.937c-1.25,-0.833 -2.395,-1.25 -3.437,-1.25c-0.625,0.208 -1.146,-0.208 -1.563,-1.25c-0.208,-1.458 0,-2.188 0.625,-2.188c0.834,-0.208 2.188,0 4.063,0.625c0.833,0.625 2.187,1.459 4.062,2.5c2.5,1.667 4.271,2.917 5.313,3.75c1.042,-2.916 1.562,-5.312 1.562,-7.187c-1.041,0 -2.187,0.312 -3.437,0.937c0,0.417 -0.104,0.938 -0.313,1.563c0,0.417 -0.52,0.312 -1.562,-0.313c-0.833,-0.416 -1.354,-1.041 -1.563,-1.875c0,-1.041 -1.041,-2.916 -3.125,-5.625c-1.875,-3.125 -3.229,-4.791 -4.062,-5c-0.625,-0.625 -0.938,-1.354 -0.938,-2.187c0.209,-0.833 0.625,-1.25 1.25,-1.25c0.625,0 1.563,0.312 2.813,0.937c1.458,0.625 2.5,1.667 3.125,3.125c0.208,0.417 0.521,1.042 0.937,1.875c0.834,2.084 1.563,3.75 2.188,5c2.083,-0.625 3.75,-1.041 5,-1.25c0,-2.5 0.104,-4.895 0.312,-7.187c-1.875,0.625 -3.541,1.25 -5,1.875c-0.625,0.208 -1.041,0 -1.25,-0.625c-0.416,-0.417 -0.937,-1.146 -1.562,-2.188c-0.625,-0.833 -0.625,-1.354 0,-1.562c2.708,-0.417 5.312,-0.938 7.812,-1.563c0.209,-1.666 0.313,-3.437 0.313,-5.312c-2.292,1.042 -3.646,1.562 -4.063,1.562c-0.625,0 -1.041,-0.625 -1.25,-1.875c0,-0.208 -0.104,-0.625 -0.312,-1.25c-0.208,-0.833 -0.417,-1.666 -0.625,-2.5c-0.417,-1.25 -0.313,-1.875 0.312,-1.875c1.042,0 1.98,-0.104 2.813,-0.312c0.417,0 1.25,-0.104 2.5,-0.313c-0.833,0.209 -0.625,0.105 0.625,-0.312c0,-3.75 -0.417,-6.458 -1.25,-8.125c0,-0.208 -0.104,-0.521 -0.313,-0.938c-0.416,-1.041 -0.729,-1.666 -0.937,-1.875c-0.208,-0.208 -0.313,-0.416 -0.313,-0.625c0,0 0.105,-0.104 0.313,-0.312c0.208,-0.208 0.521,-0.313 0.937,-0.313c0.417,-0.208 0.73,-0.312 0.938,-0.312c1.042,0.208 2.187,1.042 3.437,2.5c1.667,1.458 2.292,2.812 1.875,4.062l0,1.25c-0.208,1.25 -0.208,2.292 0,3.125c1.25,-0.416 2.396,-1.041 3.438,-1.875c0.417,-0.416 1.25,0.105 2.5,1.563c1.042,1.25 1.146,2.292 0.312,3.125c-1.875,1.25 -4.062,2.5 -6.562,3.75l0,5.937c3.542,-0.833 6.979,-1.875 10.312,-3.125c0.625,-0.833 2.084,-0.312 4.375,1.563c2.084,1.667 2.709,2.917 1.875,3.75c-1.041,0.833 -3.333,3.75 -6.875,8.75c0.625,1.25 0.938,2.187 0.938,2.812c-0.417,0.417 -0.938,0.625 -1.563,0.625c-0.833,-0.416 -2.5,-0.312 -5,0.313c-1.666,0 -3.333,0.208 -5,0.625c-0.208,3.542 -0.937,7.187 -2.187,10.937c0.417,0.209 1.042,0.521 1.875,0.938c8.333,5 15.104,8.333 20.312,10c2.084,0.625 4.48,1.354 7.188,2.187l1.562,0Zm-58.437,-38.125c-6.458,4.375 -10.625,6.98 -12.5,7.813c-0.833,0.625 -1.458,0.937 -1.875,0.937l0,-0.312c0.625,-0.625 3.437,-4.063 8.437,-10.313c5.417,-6.25 7.917,-10 7.5,-11.25c0,-0.416 -0.104,-0.937 -0.312,-1.562l0,-0.313c-0.208,-0.416 0.417,-0.625 1.875,-0.625c1.25,-0.208 2.708,0.625 4.375,2.5c1.875,1.667 2.917,3.125 3.125,4.375c0.417,1.042 -0.208,2.084 -1.875,3.125c-0.625,0.417 -1.563,1.042 -2.813,1.875c-1.875,1.042 -3.333,1.875 -4.375,2.5c2.292,0.834 3.438,1.563 3.438,2.188l0,12.187c0,2.292 -0.104,5.73 -0.313,10.313c0,4.583 -0.104,7.917 -0.312,10c0,0.417 -0.104,1.042 -0.313,1.875c-0.208,4.792 -0.625,7.812 -1.25,9.062c-0.625,0.625 -1.041,0.938 -1.25,0.938c-0.416,0 -0.937,-0.625 -1.562,-1.875c-1.25,-1.875 -1.667,-3.646 -1.25,-5.313c0.417,-2.291 0.937,-8.75 1.562,-19.375c0.625,-11.875 0.521,-18.125 -0.312,-18.75Zm35.937,6.875c0,-0.208 0.105,-0.52 0.313,-0.937c1.042,-2.292 2.083,-4.479 3.125,-6.563c-0.833,0.209 -2.188,0.73 -4.063,1.563c-2.083,0.625 -3.75,1.146 -5,1.562l0,4.063c-0.208,1.667 -0.312,3.021 -0.312,4.062c1.458,-0.416 3.542,-1.041 6.25,-1.875c-0.208,-0.625 -0.313,-1.25 -0.313,-1.875Z" style="fill-rule:nonzero;"/><path d="M955.312,33.75c-3.541,-0.417 -7.604,0 -12.187,1.25c-1.042,0.208 -2.5,0.625 -4.375,1.25c-3.125,0.625 -5.104,1.146 -5.938,1.562c-2.291,0.834 -3.645,1.25 -4.062,1.25c-0.417,-0.208 -0.938,-1.25 -1.563,-3.125c-0.208,-2.291 -0.208,-3.229 0,-2.812l1.875,0c0.209,0 1.459,-0.208 3.75,-0.625c1.459,-0.417 2.709,-0.729 3.75,-0.938c1.25,-0.208 3.125,-0.625 5.625,-1.25c3.125,-0.625 5.313,-1.041 6.563,-1.25c3.75,-0.416 5.833,-0.937 6.25,-1.562l0.312,0c0.625,0 1.875,0.729 3.75,2.187c2.084,1.875 3.125,3.438 3.125,4.688l0,0.625c-0.625,1.458 -1.041,5.312 -1.25,11.562c-0.416,6.25 -0.312,13.334 0.313,21.25c0.417,7.709 0.729,12.5 0.937,14.375l0,0.625c0,1.875 -0.625,4.063 -1.875,6.563c-1.666,3.542 -3.125,5.312 -4.375,5.312c-1.25,0 -1.979,-0.416 -2.187,-1.25c0,-0.833 0.104,-2.083 0.312,-3.75c0,-1.041 -0.625,-2.395 -1.875,-4.062c-0.208,-0.208 -0.312,-0.417 -0.312,-0.625c-1.042,-1.25 -1.875,-2.083 -2.5,-2.5c-0.208,-0.417 -0.208,-0.625 0,-0.625c0,0 0.312,0.104 0.937,0.312l1.563,0c0.833,0.209 1.562,0.313 2.187,0.313c1.667,0 2.5,-0.208 2.5,-0.625c0.209,-0.417 0,-4.896 -0.625,-13.438c-0.208,-5.833 -0.312,-13.333 -0.312,-22.5c0,-2.916 -0.104,-6.25 -0.313,-10l0,-2.187Zm-13.437,26.562c0.208,-0.208 0.312,-0.312 0.312,-0.312c2.917,-1.042 4.48,-1.667 4.688,-1.875c0.625,-0.417 1.562,0 2.812,1.25c1.25,1.042 1.875,2.083 1.875,3.125c-0.416,0.833 -0.833,1.146 -1.25,0.937c-0.625,0 -1.979,0.105 -4.062,0.313c-1.042,0 -2.5,0.312 -4.375,0.937c0,8.959 -0.417,15.209 -1.25,18.75c-1.042,3.334 -1.771,5.105 -2.188,5.313c-0.208,0.625 -0.625,0.312 -1.25,-0.938c-0.208,-1.666 -0.312,-5.208 -0.312,-10.625c-0.208,-3.541 -0.313,-7.291 -0.313,-11.25c0,0 -0.104,0.105 -0.312,0.313c-0.208,0 -0.417,0.104 -0.625,0.312c-4.792,1.25 -7.396,2.084 -7.813,2.5c-0.625,0 -1.354,-0.625 -2.187,-1.875c-1.042,-1.458 -1.25,-2.187 -0.625,-2.187c0.417,0 2.708,-0.625 6.875,-1.875c1.875,-0.625 3.542,-1.042 5,-1.25l0,-9.063c-3.75,0.625 -5.938,1.146 -6.563,1.563c-0.833,0.208 -1.77,-0.417 -2.812,-1.875c-1.042,-1.667 -1.25,-2.5 -0.625,-2.5c1.042,-0.208 2.917,-0.521 5.625,-0.938c0.625,-0.208 1.354,-0.416 2.187,-0.625c1.042,-0.416 1.771,-0.625 2.188,-0.625l0,-1.875c0,-3.125 -0.208,-5 -0.625,-5.625c-0.625,-0.625 -1.042,-1.041 -1.25,-1.25c-0.417,-0.416 0,-0.729 1.25,-0.937c1.25,-0.625 2.396,-0.625 3.437,0c1.042,0.625 1.771,1.25 2.188,1.875c0.625,0.417 0.729,1.562 0.312,3.437l0,2.813c0.417,-0.208 0.938,-0.417 1.563,-0.625c0.625,-0.208 1.146,-0.417 1.562,-0.625c0.417,-0.417 1.355,-0.104 2.813,0.937c1.25,0.834 1.667,1.667 1.25,2.5c-0.625,0.625 -3.125,1.563 -7.5,2.813l0,9.062Zm-22.5,-5.937c0.417,-6.875 0.417,-11.354 0,-13.438c-0.417,-2.291 -0.833,-3.75 -1.25,-4.375c-0.417,-0.833 -0.313,-1.354 0.312,-1.562c0.417,-0.417 1.146,-0.417 2.188,0c1.042,0 1.875,0.625 2.5,1.875c0.833,1.25 1.25,2.604 1.25,4.062c0,1.459 -0.313,6.459 -0.938,15c-0.625,8.125 -2.083,15.417 -4.375,21.875c-2.083,6.667 -3.958,10.625 -5.625,11.875c-1.458,1.667 -2.083,1.98 -1.875,0.938c0,-0.417 0.105,-0.938 0.313,-1.563c0.833,-2.083 2.187,-6.666 4.062,-13.75c1.875,-7.083 3.021,-14.062 3.438,-20.937Z" style="fill-rule:nonzero;"/><path d="M27.224,113.921l945.552,0" style="fill:none;"/><rect x="25.724" y="112.421" width="948.552" height="3"/></svg>